<svg width="185" height="161" viewBox="0 0 185 161" fill="none" xmlns="http://www.w3.org/2000/svg">
<g clip-path="url(#clip0_4173_2593)">
<g clip-path="url(#clip1_4173_2593)">
<path d="M126.153 129.304C126.128 120.379 125.933 111.454 125.855 102.529C125.79 95.0935 125.934 87.6542 125.442 80.2272C125.227 76.9845 125.09 73.7312 124.759 70.5007C124.078 63.975 123.312 57.444 122.527 50.9235C122.148 47.6572 121.457 44.4342 120.462 41.2985C119.563 38.4985 118.217 35.9382 116.062 33.8662C115.744 33.567 115.392 33.3027 115.04 33C109.584 37.5622 104.093 41.925 99.0767 46.839C98.7811 47.1295 98.466 47.4043 98.1563 47.6825C98.0068 47.8271 97.8194 47.9269 97.6155 47.9706C97.4116 48.0142 97.1995 47.9999 97.0035 47.9292C95.9052 47.6037 94.7999 47.294 93.6859 47.028C89.4619 46.0183 85.259 44.928 81.0033 44.0652C76.3938 43.15 71.6929 42.9453 66.9919 42.7825C63.0978 42.6403 59.1986 42.8371 55.339 43.3705C52.1059 43.8237 48.8727 44.3032 45.659 44.886C41.4227 45.6542 37.211 46.5275 32.987 47.371C32.1387 47.546 31.2586 48.0343 30.4754 47.896C29.6447 47.7578 28.9073 47.0578 28.1347 46.5958C22.4094 43.1693 16.7844 39.5957 11.4358 35.6058C11.1989 35.4496 10.9539 35.3059 10.7018 35.1753C10.4396 35.5358 10.2108 35.8367 9.99785 36.1465C8.62153 38.138 7.75209 40.3465 7.10969 42.6652C5.81785 47.3132 5.21065 52.0855 4.65625 56.8577C4.06137 61.973 3.56857 67.104 3.10745 72.235C2.4715 79.3353 2.15705 86.452 2.16409 93.585C2.16409 100.435 2.13358 107.284 2.07257 114.133C2.01977 120.36 1.83321 126.585 1.83849 132.811C1.83849 141.008 1.94409 149.207 2.07785 157.404C2.17289 163.249 2.37353 169.09 2.56361 174.934C2.61993 176.657 2.79417 178.376 2.91561 180.129C3.35561 180.294 3.74105 180.443 4.12825 180.579C11.1436 183.047 18.2663 185.171 25.4718 187.005C26.1758 187.186 26.8798 187.365 27.5838 187.541C30.3241 188.227 33.0732 188.869 35.8875 189.282C40.0727 189.896 44.2457 190.594 48.4644 190.946L48.702 190.969C52.3769 191.263 56.0553 191.51 59.7372 191.709C62.3015 191.851 64.8746 192 67.439 191.935C71.0522 191.846 74.655 191.585 78.2718 191.349C78.4546 191.337 78.6368 191.316 78.8174 191.286C79.3454 191.2 79.8734 191.055 80.4014 190.952C80.639 190.906 80.8713 190.822 81.1054 190.799C86.5843 190.311 91.9927 189.354 97.3695 188.248C98.2038 188.073 99.038 187.898 99.8723 187.723C107.472 186.148 115.056 184.483 122.647 182.854C123.382 182.695 124.104 182.471 124.817 182.28C124.882 181.908 124.954 181.64 124.972 181.367C125.19 177.777 125.482 174.192 125.591 170.595C125.767 164.752 125.862 158.907 125.943 153.06C126.056 145.145 126.175 137.225 126.153 129.304Z" fill="#8D6852"/>
<path d="M115.522 134.225C115.482 134.428 115.445 134.631 115.396 134.831C115.107 136.023 114.694 137.182 114.164 138.289C114.039 138.553 113.912 138.814 113.775 139.076C113.469 139.658 113.116 140.213 112.719 140.737C111.402 142.454 109.429 143.07 107.331 142.468C104.748 141.726 102.782 140.147 101.215 138.025C100.907 137.606 100.601 137.186 100.242 136.786C100.076 136.601 99.8996 136.426 99.7139 136.261C99.8301 136.668 99.9304 137.08 100.066 137.486C100.128 137.68 100.186 137.874 100.242 138.068C100.851 140.109 101.189 142.191 101.025 144.326C100.918 145.896 100.667 147.453 100.275 148.978C99.9985 150.028 99.6177 151.049 99.1384 152.025C99.0592 152.184 98.987 152.343 98.9026 152.499C97.711 154.702 96.1851 155.684 94.2773 155.474C93.8962 155.428 93.5207 155.345 93.1562 155.225C92.6794 155.069 92.2171 154.871 91.7746 154.636C89.7928 153.586 88.2546 152.068 87.0454 150.198C85.8363 148.327 84.9211 146.314 84.1238 144.248C84.0112 143.959 83.6504 143.332 83.499 143.248C83.499 143.975 83.5184 144.648 83.499 145.327C83.3846 148.558 82.9411 151.739 81.8306 154.777C81.4163 155.914 80.8662 156.998 80.192 158.004C79.9484 158.368 79.6734 158.71 79.3701 159.026C79.0239 159.387 78.6364 159.706 78.2155 159.977C77.5157 160.434 76.7231 160.733 75.8941 160.852C75.5325 160.9 75.1672 160.915 74.8029 160.897C73.7396 160.834 72.7041 160.535 71.7722 160.022C69.9312 159.039 68.5672 157.639 67.7576 155.691C66.8442 153.5 66.3619 151.207 65.9782 148.885C65.8339 148.01 65.3323 146.279 65.2566 146.272C65.1475 146.72 65.0331 147.165 64.931 147.613C64.3326 150.238 63.699 152.863 62.6307 155.357C61.9439 156.985 61.0527 158.521 59.9784 159.928L59.9555 159.957C59.6278 160.378 59.2708 160.775 58.8872 161.146C57.6818 162.316 56.2024 163.17 54.5822 163.631C54.3517 163.697 54.1282 163.75 53.9082 163.792C53.5271 163.865 53.1401 163.905 52.7518 163.909C50.9074 163.923 49.4466 163.079 48.4082 161.965C48.0268 161.554 47.6927 161.103 47.412 160.619L47.3187 160.444C46.5971 159.123 46.2381 157.672 45.9477 156.207C45.2032 152.467 45.2789 148.714 45.8315 144.958C45.8614 144.755 45.8878 144.552 45.916 144.347C45.8614 144.323 42.4277 150.413 40.1749 152.42C38.8214 153.626 37.292 154.447 35.481 154.735C34.1485 154.945 32.784 154.698 31.6115 154.034C30.4389 153.371 29.5282 152.331 29.0288 151.085C28.4568 149.645 28.3248 148.133 28.36 146.601C28.4427 142.926 30.7958 135.751 31.2218 134.225H31.0176C30.0273 135.24 29.0353 136.255 28.0414 137.269L27.8954 137.417C27.5891 137.729 27.2706 138.025 26.945 138.313C25.8862 139.234 24.7431 140.054 23.5306 140.763C22.4802 141.381 21.3132 141.778 20.1021 141.929C17.939 142.212 16.1034 141.29 15.0509 139.379C14.2237 137.876 13.9949 136.243 14.0829 134.56C14.0829 134.448 14.1005 134.336 14.1075 134.222H1.84912C1.86496 141.95 1.95648 149.676 2.0832 157.402C2.17824 163.246 2.37888 169.089 2.56896 174.932C2.62528 176.656 2.79952 178.374 2.92096 180.128C3.36096 180.292 3.7464 180.441 4.1336 180.578C11.149 183.045 18.2717 185.17 25.4771 187.004C26.1811 187.184 26.8851 187.363 27.5891 187.539C30.3294 188.225 33.0786 188.867 35.8928 189.28C40.0781 189.895 44.251 190.593 48.4698 190.945L48.7074 190.967C52.3822 191.261 56.0606 191.508 59.7426 191.708C62.3069 191.849 64.88 191.998 67.4443 191.933C71.0576 191.844 74.6603 191.583 78.2771 191.347C78.46 191.336 78.6421 191.315 78.8227 191.284C79.3507 191.198 79.8787 191.053 80.4067 190.95C80.6443 190.904 80.8766 190.82 81.1107 190.798C86.5896 190.309 91.9981 189.352 97.3749 188.246C98.2091 188.071 99.0434 187.896 99.8776 187.721C107.477 186.146 115.061 184.482 122.652 182.853C123.388 182.693 124.109 182.469 124.822 182.279C124.887 181.906 124.959 181.638 124.977 181.365C125.195 177.776 125.487 174.19 125.596 170.594C125.772 164.751 125.868 158.906 125.948 153.059C126.026 146.78 126.114 140.499 126.139 134.218L115.522 134.225Z" fill="#ADAB76"/>
<path d="M15.051 139.383C16.107 141.294 17.9391 142.216 20.1022 141.932C21.3133 141.782 22.4803 141.385 23.5307 140.767C24.7432 140.058 25.8863 139.238 26.9451 138.317C27.2707 138.028 27.5892 137.732 27.8955 137.421L28.0415 137.272C29.0354 136.261 30.0274 135.246 31.0177 134.229L31.287 133.954C31.2712 134.047 31.2494 134.139 31.2219 134.229C30.7959 135.75 28.4428 142.923 28.3601 146.605C28.3267 148.136 28.4569 149.648 29.0289 151.088C29.5281 152.336 30.44 153.377 31.6142 154.04C32.7884 154.703 34.1549 154.948 35.4881 154.735C37.2991 154.447 38.8321 153.626 40.182 152.42C42.4348 150.413 45.8686 144.323 45.9231 144.347C45.895 144.552 45.8686 144.755 45.8387 144.958C45.286 148.714 45.2103 152.467 45.9548 156.207C46.2452 157.672 46.6043 159.123 47.3259 160.444L47.4191 160.619C47.6998 161.103 48.034 161.554 48.4153 161.965C49.4537 163.079 50.9145 163.923 52.759 163.909C53.1472 163.905 53.5342 163.865 53.9153 163.792C54.1353 163.75 54.3588 163.697 54.5894 163.631C56.2101 163.171 57.6902 162.317 58.8961 161.146C59.2797 160.775 59.6367 160.378 59.9644 159.957L59.9873 159.928C61.0616 158.521 61.9528 156.985 62.6396 155.357C63.7167 152.866 64.3415 150.243 64.9399 147.613C65.042 147.165 65.1564 146.72 65.2655 146.272C65.3412 146.272 65.8428 148.022 65.9871 148.885C66.3708 151.207 66.8531 153.5 67.7665 155.691C68.5761 157.639 69.9401 159.039 71.7811 160.022C72.713 160.535 73.7485 160.834 74.8118 160.897C75.1761 160.915 75.5414 160.9 75.903 160.852C76.732 160.733 77.5245 160.434 78.2244 159.977C78.6453 159.706 79.0328 159.387 79.379 159.026C79.6823 158.71 79.9573 158.368 80.2009 158.004C80.8762 156.999 81.4275 155.916 81.843 154.779C82.9535 151.732 83.3971 148.551 83.5115 145.329C83.5343 144.654 83.5115 143.976 83.5115 143.25C83.6628 143.334 84.0236 143.961 84.1363 144.249C84.9335 146.32 85.8523 148.332 87.0579 150.199C88.2635 152.067 89.7999 153.575 91.7817 154.625C92.2243 154.861 92.6865 155.058 93.1633 155.215C93.5278 155.334 93.9034 155.418 94.2844 155.463C96.1923 155.675 97.7182 154.693 98.9097 152.488C98.9942 152.333 99.0663 152.173 99.1455 152.014C99.6248 151.038 100.006 150.018 100.283 148.967C100.675 147.443 100.925 145.886 101.032 144.316C101.196 142.181 100.856 140.098 100.249 138.058C100.191 137.864 100.133 137.669 100.073 137.475C99.9411 137.073 99.8407 136.661 99.7211 136.25C99.9068 136.415 100.083 136.59 100.249 136.775C100.601 137.176 100.914 137.596 101.222 138.014C102.789 140.137 104.755 141.715 107.338 142.457C109.436 143.059 111.409 142.443 112.726 140.727C113.123 140.203 113.476 139.647 113.782 139.066C113.919 138.807 114.046 138.541 114.171 138.278C114.701 137.172 115.114 136.013 115.403 134.82C115.452 134.621 115.489 134.418 115.529 134.215C115.761 133.091 115.871 131.946 115.859 130.799C115.813 127.281 114.817 124.088 112.61 121.256C110.503 118.585 108.1 116.159 105.446 114.025C102.63 111.726 99.6841 109.563 96.7414 107.417C88.4007 101.332 80.2519 95.0202 72.9198 87.7437C70.2997 92.7907 67.6785 97.8359 65.0561 102.879C64.4647 104.022 64.1515 104.059 63.4545 102.977C61.5889 100.088 57.8225 93.3261 55.2335 88.6046C53.7223 89.8296 52.214 91.0599 50.7086 92.2954C44.8161 97.1499 38.9518 102.038 33.0417 106.873C29.7857 109.536 26.6652 112.335 23.8633 115.474C20.4207 119.324 17.5431 123.549 15.5719 128.338C14.7718 130.211 14.2775 132.198 14.1076 134.225C14.1076 134.339 14.0883 134.451 14.083 134.563C14.0003 136.25 14.2238 137.879 15.051 139.383Z" fill="#FBEFDF"/>
<path d="M32.7618 155.957C32.7424 161.643 32.6456 167.332 32.5506 173.014C32.4644 178.217 32.3024 183.416 32.2285 188.617C32.5946 188.694 32.9607 188.768 33.3268 188.839C33.3549 186.704 33.3878 184.569 33.4253 182.434C33.5485 175.403 33.7192 168.371 33.853 162.045C33.8636 159.495 33.8759 157.096 33.8864 154.772C33.5053 154.729 33.1292 154.65 32.7636 154.534C32.7636 155.009 32.763 155.483 32.7618 155.957Z" fill="#90954C"/>
<path d="M47.3186 160.444C47.2905 163.788 47.2746 167.132 47.2148 170.477C47.1409 174.661 47.0071 178.845 46.8628 183.026C46.7736 185.605 46.6727 188.185 46.5601 190.764L47.6777 190.875C47.7146 190 47.7481 189.125 47.7833 188.26C47.9751 183.36 48.1722 178.444 48.2725 173.534C48.3517 169.684 48.3764 165.82 48.4098 161.965C48.0285 161.554 47.6944 161.103 47.4137 160.619L47.3186 160.444Z" fill="#90954C"/>
<path d="M58.8044 173.285C58.7956 179.41 58.8748 185.535 58.9117 191.66L59.7495 191.711L60.01 191.725C60.0223 187.798 60.01 183.869 60.01 179.94C60.01 175.065 59.8815 170.188 59.9009 165.312C59.9097 163.527 59.9325 161.742 59.9589 159.957C59.6313 160.377 59.2743 160.775 58.8906 161.145C58.8484 165.191 58.8097 169.237 58.8044 173.285Z" fill="#90954C"/>
<path d="M8.73602 134.454C8.73602 134.377 8.73602 134.302 8.72546 134.225H7.65186C7.95282 141.489 8.10418 148.761 8.32242 156.028C8.42274 159.353 8.55474 162.666 8.63218 165.984C8.72018 169.789 8.84514 173.593 8.80818 177.396C8.79234 178.971 8.76242 180.56 8.7413 182.14C9.13378 182.27 9.52802 182.399 9.9205 182.525C9.9645 176.285 9.84482 170.044 9.6565 163.8C9.35202 154.019 9.10386 144.235 8.73602 134.454Z" fill="#90954C"/>
<path d="M26.9448 138.313C26.9448 138.675 26.9448 139.036 26.9448 139.398C26.8973 147.735 26.7512 156.07 26.6562 164.407C26.5876 170.532 26.5594 176.643 26.4679 182.761C26.445 184.254 26.4151 185.745 26.3887 187.236L27.4852 187.514L27.5221 185.143C27.5872 180.994 27.5767 176.843 27.6312 172.692C27.7087 166.717 27.8072 160.743 27.9076 154.767C27.9516 148.934 28.029 143.101 28.0448 137.267L27.8988 137.415C27.589 137.729 27.2704 138.024 26.9448 138.313Z" fill="#90954C"/>
<path d="M13.2013 136.434C13.2013 135.697 13.2225 134.962 13.233 134.225H12.1541C12.1401 135.795 12.1236 137.364 12.1049 138.931C12.0204 145.005 11.9113 151.079 11.8145 157.049C11.8356 158.191 11.8479 159.227 11.8725 160.263C12.0485 167.949 12.1858 175.635 12.4111 183.32L13.5305 183.67C13.2893 176.86 13.0412 170.049 13.0025 163.238C12.9409 154.299 13.1186 145.366 13.2013 136.434Z" fill="#90954C"/>
<path d="M114.17 138.289C114.037 144.428 113.871 150.567 113.758 156.707C113.667 161.756 113.679 166.808 113.582 171.857C113.509 176.041 113.375 180.224 113.23 184.406C113.23 184.569 113.218 184.732 113.213 184.895L114.343 184.651C114.464 181.405 114.573 178.161 114.64 174.914C114.758 169.173 114.751 163.429 114.844 157.687C114.911 153.606 115.056 149.525 115.163 145.437H115.144C115.223 141.901 115.32 138.362 115.39 134.824C115.106 136.018 114.697 137.179 114.17 138.289Z" fill="#90954C"/>
<path d="M99.728 136.262C99.8442 136.67 99.9445 137.081 100.08 137.487C100.142 137.681 100.2 137.876 100.256 138.07V136.789C100.09 136.604 99.9138 136.428 99.728 136.262Z" fill="#90954C"/>
<path d="M99.1366 157.338C99.1172 163.023 99.0204 168.713 98.9254 174.395C98.8497 178.927 98.7177 183.458 98.6367 187.989L99.7367 187.76C99.7578 186.446 99.7795 185.131 99.8018 183.815C99.9233 176.782 100.094 169.752 100.228 163.426C100.247 158.185 100.282 153.561 100.282 148.976C100.006 150.027 99.6247 151.047 99.1454 152.023C99.1418 153.794 99.1436 155.567 99.1366 157.338Z" fill="#90954C"/>
<path d="M119.708 134.225C119.662 141.201 119.507 148.174 119.379 155.148C119.257 161.821 119.027 168.492 118.835 175.165C118.754 178.023 118.669 180.881 118.58 183.74L119.69 183.5C119.739 181.75 119.787 180 119.845 178.25C119.998 173.514 120.197 168.779 120.318 164.043C120.429 159.997 120.477 155.951 120.547 151.905C120.649 146.015 120.79 140.124 120.852 134.23L119.708 134.225Z" fill="#90954C"/>
<path d="M74.8027 160.897C74.8767 163.053 74.9488 165.209 74.9981 167.372C75.0861 171.175 75.2111 174.981 75.1741 178.784C75.1319 183.047 75.0679 187.309 74.9823 191.571L76.1491 191.496C76.4202 182.726 76.2864 173.959 76.0224 165.191C75.979 163.746 75.9368 162.302 75.8957 160.858C75.5334 160.905 75.1675 160.918 74.8027 160.897Z" fill="#90954C"/>
<path d="M78.2562 161.644C78.4463 169.967 78.5889 178.292 78.8476 186.615C78.8969 188.161 78.9555 189.706 79.0236 191.251C79.3967 191.183 79.7681 191.099 80.1394 191.018C80.0843 189.575 80.0309 188.132 79.9793 186.689C79.7205 179.339 79.4354 171.971 79.3897 164.612C79.3773 162.75 79.3809 160.888 79.3897 159.026C79.0435 159.387 78.656 159.706 78.2351 159.977C78.2245 160.544 78.2351 161.1 78.2562 161.644Z" fill="#90954C"/>
<path d="M93.0278 165.788C92.9591 171.913 92.931 178.024 92.8395 184.142C92.8148 185.813 92.7814 187.485 92.7515 189.156L93.855 188.949C93.8691 188.141 93.882 187.332 93.8937 186.524C93.9588 182.373 93.95 178.222 94.0028 174.073C94.0803 168.096 94.1788 162.122 94.2791 156.147V155.47C93.8981 155.424 93.5226 155.341 93.158 155.222C93.1158 158.743 93.0724 162.265 93.0278 165.788Z" fill="#90954C"/>
<path d="M12.3125 43.5474L19.6482 50.7714L12.2333 55.9654C11.3217 54.7229 11.5522 45.4514 12.3125 43.5474Z" fill="#462E25"/>
<path d="M114.398 43.5474L107.062 50.7714L114.477 55.9654C115.392 54.7229 115.153 45.4514 114.398 43.5474Z" fill="#462E25"/>
<path d="M65.1618 63.1159C64.801 63.1159 63.5338 58.1582 63.2364 56.3574C62.8453 54.2752 63.0785 52.1245 63.9069 50.1729C64.0896 49.7644 64.3571 49.3988 64.6919 49.1002C65.4663 48.4002 66.3921 48.5367 66.8285 49.4869C67.1272 50.1822 67.3268 50.9155 67.4217 51.6657C67.6839 53.4279 67.434 55.1797 67.0872 56.9157C66.7493 58.5939 65.5226 63.1159 65.1618 63.1159Z" fill="#462E25"/>
<path d="M57.8857 67.6064C57.9156 68.0176 57.9297 69.2934 57.5337 69.4544C57.1377 69.6154 56.8543 69.1044 56.8173 69.0484C55.5625 67.0656 54.2741 65.1039 53.0668 63.0984C52.341 61.9111 51.9744 60.5411 52.0108 59.1521C52.0337 58.2509 52.1868 57.4021 53.1354 57.0031C54.1228 56.5971 54.8039 57.2306 55.3988 57.8624C56.4548 58.9806 56.9405 60.4051 57.2028 61.8664C57.5442 63.7581 57.9191 67.6011 57.8857 67.6064Z" fill="#462E25"/>
<path d="M74.5759 71.3496C74.3753 71.2551 74.3506 71.0486 74.3594 70.8369C74.4773 67.7674 74.5548 64.6909 75.778 61.7911C76.141 60.8545 76.6947 60.0026 77.4042 59.2886C77.8847 58.8301 78.4285 58.5484 79.1009 58.7881C79.7732 59.0279 80.0724 59.5984 80.0794 60.2459C80.1009 60.8971 80.0147 61.5474 79.8242 62.1709C79.5101 63.1204 79.1107 64.0399 78.6309 64.9184C77.7509 66.5214 76.7777 68.0684 75.8484 69.6539C75.5052 70.2436 74.7748 71.4424 74.5759 71.3496Z" fill="#462E25"/>
<path d="M74.2415 56.9749C73.974 56.8944 73.9811 56.6126 73.967 56.4901C73.6502 53.8354 73.4706 51.1754 74.1958 48.5591C74.4122 47.7751 74.8259 47.0296 75.2342 46.3139C75.4563 45.9632 75.7631 45.6733 76.1265 45.4704C77.1719 44.8526 78.3089 45.3794 78.4796 46.5711C78.5565 47.1193 78.547 47.6761 78.4514 48.2214C77.9234 51.2436 76.5507 53.9124 74.8505 56.4289C74.7255 56.6249 74.5091 57.0641 74.2415 56.9749Z" fill="#462E25"/>
<path d="M46.2135 60.0585C45.9266 60.1933 45.5729 59.7873 45.4057 59.5335C44.1508 57.6225 42.8695 55.729 41.6692 53.7848C41.2204 53.0585 40.93 52.2255 40.6396 51.417C40.517 51.0209 40.4746 50.6046 40.5146 50.192C40.5727 49.317 41.1922 48.925 42.0493 49.1578C42.798 49.3768 43.4301 49.8796 43.8093 50.5578C44.3285 51.4135 44.8882 52.285 45.1751 53.2265C45.6697 54.84 45.997 56.5078 46.3279 58.165C46.4335 58.7093 46.5004 59.9238 46.2135 60.0585Z" fill="#462E25"/>
<path d="M57.7133 55.0099C57.4475 55.0607 57.136 54.4167 57.0093 54.1909C56.043 52.3989 55.0733 50.6052 54.1493 48.794C53.7749 48.0854 53.613 47.2848 53.6829 46.4875C53.755 45.7227 54.0718 45.0875 54.767 44.706C55.3408 44.391 56.1521 44.5975 56.7611 45.1837C57.4897 45.8837 57.8417 46.7867 58.0283 47.744C58.4278 49.7967 58.3433 51.8635 58.0881 53.9267C58.0565 54.2102 57.979 54.9574 57.7133 55.0099Z" fill="#462E25"/>
<path d="M63.2413 76.0694C62.9931 76.0694 62.7714 75.5811 62.6552 75.3221C61.747 73.2641 60.8494 71.1956 60.4886 68.9609C60.3631 68.1077 60.3218 67.2443 60.3655 66.3831C60.4012 65.9363 60.5462 65.505 60.7879 65.1266C61.2296 64.3969 62.0656 64.3024 62.6271 64.9516C63.026 65.3833 63.3114 65.9063 63.4578 66.4741C63.7209 67.7259 63.8781 68.9973 63.9277 70.2751C63.9664 71.7924 63.8344 73.3131 63.7517 74.8251C63.72 75.2101 63.4877 76.0694 63.2413 76.0694Z" fill="#462E25"/>
<path d="M69.2606 75.9259C69.0494 75.9259 68.8734 75.4237 68.8171 75.2259C68.1817 72.9632 67.6414 70.6759 67.6889 68.3134C67.7194 67.6273 67.8571 66.9501 68.0973 66.3062C68.3243 65.6622 68.8153 65.1792 69.5792 65.2142C70.343 65.2492 70.7584 65.7392 71.0013 66.3954C71.4325 67.5697 71.3234 68.7824 71.1773 69.9777C70.9731 71.7277 70.431 73.4094 69.7798 75.0527C69.6795 75.3099 69.4718 75.9259 69.2606 75.9259Z" fill="#462E25"/>
<path d="M76.542 77.7702C76.3026 77.6372 77.3885 72.3732 78.8194 69.946C79.1579 69.3868 79.6113 68.905 80.15 68.532C80.9596 67.9755 81.7973 68.336 81.91 69.3107C81.9994 70.0248 81.9204 70.7498 81.6794 71.4282C81.3023 72.3908 80.8043 73.3022 80.1975 74.1407C79.3122 75.3692 76.7813 77.9032 76.542 77.7702Z" fill="#462E25"/>
<path d="M86.0385 62.0501C85.7464 61.8471 85.9717 61.2048 86.0491 60.9371C86.6264 58.9561 87.2107 56.9751 87.8425 55.0098C88.0094 54.5208 88.268 54.0677 88.6046 53.6746C88.8951 53.3377 89.2553 53.0673 89.6606 52.8818C90.3453 52.5616 91.0053 52.8346 91.2446 53.5503C91.3992 53.9672 91.4333 54.4188 91.3432 54.8541C91.1325 55.6844 90.8204 56.486 90.4139 57.2411C89.467 58.8983 88.1769 60.3001 86.8094 61.6283C86.6845 61.7543 86.3325 62.2496 86.0385 62.0501Z" fill="#462E25"/>
<path d="M32.5436 87.0398C31.5791 87.0661 31.1021 86.7511 31.0705 86.1123C31.0388 85.4736 31.4735 85.0746 32.4362 85.0518C35.0762 84.9888 37.7162 84.9556 40.3562 84.9346C40.6906 84.9346 41.0937 84.9906 41.3383 85.1813C41.4638 85.2863 41.564 85.4181 41.6313 85.5669C41.6986 85.7156 41.7314 85.8775 41.7273 86.0406C41.6815 86.3048 41.3453 86.5656 41.0743 86.7283C40.8983 86.8368 33.8636 87.0048 32.5436 87.0398Z" fill="#27282D"/>
<path d="M93.8248 87.0398C92.8603 87.0661 92.3834 86.7511 92.3517 86.1123C92.32 85.4736 92.7547 85.0746 93.7175 85.0518C96.3575 84.9888 98.9975 84.9556 101.637 84.9346C101.97 84.9346 102.375 84.9906 102.62 85.1813C102.744 85.2868 102.844 85.4187 102.912 85.5673C102.979 85.7159 103.012 85.8776 103.009 86.0406C102.963 86.3048 102.627 86.5656 102.354 86.7283C102.18 86.8368 95.1519 87.0048 93.8248 87.0398Z" fill="#27282D"/>
<path d="M55.7894 77.9451C55.6293 78.0133 55.2315 77.7963 55.1101 77.7001C53.6387 76.5276 52.2378 75.2798 51.3842 73.5701C51.1246 73.0091 50.9508 72.4128 50.8685 71.8008C50.7963 71.3581 50.916 70.8681 51.3965 70.6511C51.6042 70.554 51.8373 70.5241 52.063 70.5655C52.2887 70.6069 52.4957 70.7177 52.6549 70.8821C53.0701 71.2467 53.4415 71.6577 53.7619 72.1071C54.7176 73.5683 55.2843 75.1993 55.7243 76.8758C55.7965 77.1628 55.9514 77.8751 55.7894 77.9451Z" fill="#462E25"/>
<path d="M93.6558 111.335C92.818 109.3 91.5772 107.515 90.2238 105.788C87.6067 102.437 84.546 99.5141 81.3411 96.7473C78.3491 94.1573 75.2462 91.6723 72.1891 89.1523C69.8107 93.7292 67.433 98.3048 65.0558 102.879C64.4644 104.022 64.1512 104.059 63.4542 102.977C61.7382 100.321 58.4206 94.3936 55.8862 89.7858C52.9065 91.6338 49.4745 95.0568 46.8398 97.7203C43.1732 101.425 40.0816 105.651 37.6667 110.261C36.3572 112.755 35.3576 115.367 34.9545 118.173C34.7468 119.62 34.7046 121.074 35.1534 122.49C35.7888 124.495 37.4009 125.346 39.3932 124.693C40.0808 124.454 40.7382 124.136 41.3521 123.746C43.179 122.628 44.6961 121.158 46.0003 119.473C46.3329 119.042 46.6761 118.619 47.1249 118.052C47.1385 118.276 47.1385 118.5 47.1249 118.724C46.9049 120.019 46.6392 121.307 46.4596 122.607C46.1833 124.597 46.0302 126.594 46.3364 128.599C46.5265 129.849 46.8486 131.035 47.7128 132.012C48.6579 133.081 49.6488 133.312 50.9916 132.775C51.9808 132.377 52.7745 131.725 53.4891 130.948C55.543 128.725 56.9545 126.118 58.1144 123.358C58.2481 123.041 58.403 122.733 58.6529 122.198C58.8113 123.699 58.8905 124.94 59.0841 126.163C59.4238 128.316 59.8374 130.454 60.7297 132.463C61.2736 133.688 62.0286 134.738 63.1409 135.529C64.7337 136.653 66.5888 136.618 68.0161 135.302C68.7264 134.642 69.3438 133.889 69.8518 133.065C71.3707 130.615 72.2243 127.918 72.652 125.092C72.8632 123.692 72.9459 122.28 73.0867 120.871L73.2345 120.841C73.3208 121.135 73.3841 121.436 73.4932 121.716C73.9526 122.908 74.3732 124.121 74.9012 125.276C75.4786 126.513 76.4642 127.516 77.6944 128.12C79.5054 129.037 81.3376 128.711 82.7244 127.227C83.4525 126.426 83.9403 125.439 84.1324 124.376C84.5936 122.135 84.3894 119.905 84.0216 117.676C83.96 117.305 83.9424 116.925 83.9054 116.549C84.2237 116.806 84.4998 117.111 84.7238 117.453C86.3078 119.553 88.4515 120.351 90.8592 119.707C92.635 119.233 93.7174 118.069 94.1416 116.304C94.5499 114.601 94.3176 112.945 93.6558 111.335Z" fill="#B2B2B2"/>
<path d="M65.0558 102.879C67.4318 98.3034 69.8096 93.7278 72.1891 89.1521L72.9178 87.7521C73.4211 86.7826 73.9251 85.8131 74.4296 84.8436C74.7816 84.1716 75.1336 83.4961 75.4962 82.7768C73.9509 80.4476 71.8002 79.0423 69.3098 78.2741C64.0843 76.6658 59.2074 77.4708 54.8408 80.8081C54.0558 81.4101 52.5 83.5906 52.5 83.5906C52.5 83.5906 53.6475 85.7168 55.2333 88.6078C55.4427 88.9893 55.6592 89.3848 55.8827 89.7891C58.4206 94.3968 61.7382 100.324 63.4507 102.981C64.153 104.059 64.4662 104.022 65.0558 102.879Z" fill="#462E25"/>
</g>
<path d="M34.5156 22.834C32.3281 24.1035 30.375 24.9922 28.6562 25.5C30.375 26.0078 32.3281 26.8965 34.5156 28.166L32.6406 31.3652C30.2448 29.9434 28.474 28.75 27.3281 27.7852C27.6927 29.3594 27.875 31.4414 27.875 34.0312H24.125C24.125 31.4414 24.3073 29.3594 24.6719 27.7852C23.526 28.75 21.7552 29.9434 19.3594 31.3652L17.4844 28.166C19.6719 26.8965 21.625 26.0078 23.3438 25.5C21.625 24.9922 19.6719 24.1035 17.4844 22.834L19.3594 19.6348C21.7552 21.0566 23.526 22.25 24.6719 23.2148C24.3073 21.6406 24.125 19.5586 24.125 16.9688H27.875C27.875 19.5586 27.6927 21.6406 27.3281 23.2148C28.474 22.25 30.2448 21.0566 32.6406 19.6348L34.5156 22.834Z" fill="#FFCECE" stroke="#FFCECE" stroke-width="1.5625"/>
<path d="M149.516 19.834C147.328 21.1035 145.375 21.9922 143.656 22.5C145.375 23.0078 147.328 23.8965 149.516 25.166L147.641 28.3652C145.245 26.9434 143.474 25.75 142.328 24.7852C142.693 26.3594 142.875 28.4414 142.875 31.0312H139.125C139.125 28.4414 139.307 26.3594 139.672 24.7852C138.526 25.75 136.755 26.9434 134.359 28.3652L132.484 25.166C134.672 23.8965 136.625 23.0078 138.344 22.5C136.625 21.9922 134.672 21.1035 132.484 19.834L134.359 16.6348C136.755 18.0566 138.526 19.25 139.672 20.2148C139.307 18.6406 139.125 16.5586 139.125 13.9688H142.875C142.875 16.5586 142.693 18.6406 142.328 20.2148C143.474 19.25 145.245 18.0566 147.641 16.6348L149.516 19.834Z" fill="#FFCECE" stroke="#FFCECE" stroke-width="1.5625"/>
<path fill-rule="evenodd" clip-rule="evenodd" d="M169.012 73.1884H159.885C158.469 73.1884 157.105 73.7172 156.082 74.6632L146.828 83.2227C145.953 84.0332 144.501 83.4327 144.501 82.2635V75.8458C144.501 74.3789 143.269 73.1884 141.751 73.1884C139.001 73.1884 134.541 73.3639 133.617 68.9765C132.605 64.156 138.355 60.619 142.403 63.7308C136.76 45.7696 165.275 39.5459 168.976 57.2707C169.023 57.2707 169.067 57.2627 169.114 57.2573C169.158 57.2494 169.205 57.2442 169.251 57.2442C179.894 57.2442 180.491 73.1884 169.012 73.1884ZM173.228 52.5591C173.211 52.5565 173.2 52.5485 173.189 52.5406C173.178 52.5299 173.17 52.5192 173.165 52.506C170.189 45.8838 163.38 41.2998 155.501 41.2998C145.711 41.2998 137.648 48.3658 136.427 57.5019C136.425 57.5231 136.416 57.5418 136.403 57.555C136.389 57.571 136.37 57.5816 136.35 57.5869C131.112 58.8439 127.347 63.6936 128.095 69.2874C128.716 73.9272 132.66 77.6103 137.761 78.3411C138.46 78.4394 139.001 78.9762 139.001 79.6592V85.3752C139.001 90.108 144.925 92.481 148.39 89.1327L158.584 79.2818C159.101 78.7822 159.8 78.5033 160.528 78.5033H168.619C175.868 78.5033 182.336 73.3532 182.949 66.3723C183.513 59.968 179.322 54.3502 173.228 52.5591Z" fill="#FFCECE"/>
<path d="M88.5743 93.3027H161.481C163.453 93.3027 165.052 95.1179 165.052 97.3581C165.052 97.6365 165.026 97.915 164.976 98.1882L154.131 157.079C153.785 158.958 152.326 160.304 150.635 160.304H77.7291C75.757 160.304 74.1577 158.488 74.1577 156.248C74.1577 155.969 74.1833 155.691 74.2333 155.418L85.0785 96.528C85.4247 94.6488 86.8837 93.3027 88.5743 93.3027Z" fill="white"/>
<path d="M81.0153 135.244H154.539C155.225 135.244 155.781 135.876 155.781 136.655C155.781 136.769 155.769 136.883 155.745 136.993L151.514 156.411C151.376 157.041 150.879 157.483 150.308 157.483H76.7836C76.0977 157.483 75.5415 156.851 75.5415 156.072C75.5415 155.958 75.5537 155.844 75.5781 155.733L79.8093 136.316C79.9466 135.686 80.444 135.244 81.0153 135.244Z" fill="#FFC1C1"/>
<path d="M161.481 93.3027H88.5412L88.4283 93.3054L88.3952 93.3074C87.6319 93.3509 86.9076 93.6703 86.3223 94.2107C85.69 94.794 85.2478 95.6089 85.0785 96.528L74.2264 155.456L74.2054 155.585L74.2002 155.624C74.1723 155.83 74.1577 156.039 74.1577 156.248C74.1577 157.336 74.5399 158.362 75.2037 159.116C75.8675 159.87 76.7716 160.304 77.7291 160.304H150.668L150.781 160.301L150.815 160.299C151.577 160.255 152.302 159.936 152.887 159.396C153.52 158.813 153.962 157.998 154.131 157.079L164.983 98.1499L165.004 98.0206L165.009 97.9823C165.038 97.7758 165.052 97.5666 165.052 97.3581C165.052 96.27 164.67 95.244 164.006 94.4904C163.342 93.7362 162.438 93.3027 161.481 93.3027ZM159.378 99.2973L149.247 154.309H79.8311L89.9618 99.2973H159.378Z" fill="#777777"/>
<path d="M126.489 140.909H144.122C144.808 140.909 145.365 141.54 145.365 142.319C145.365 142.428 145.353 142.537 145.331 142.642L144.673 145.816C144.541 146.453 144.041 146.903 143.465 146.903H125.831C125.146 146.903 124.589 146.272 124.589 145.493C124.589 145.384 124.6 145.275 124.622 145.17L125.28 141.996C125.412 141.359 125.912 140.909 126.489 140.909Z" fill="#FF7B7B"/>
<path d="M139.781 111.816H122.146C121.35 111.816 120.66 112.439 120.481 113.32L120.123 115.083C120.094 115.226 120.079 115.372 120.079 115.519C120.079 116.59 120.844 117.458 121.787 117.458H139.423C140.218 117.458 140.908 116.835 141.087 115.955L141.445 114.192C141.475 114.049 141.489 113.902 141.489 113.756C141.489 112.684 140.725 111.816 139.781 111.816ZM122.146 112.874H139.781C140.21 112.874 140.558 113.269 140.558 113.756C140.558 113.822 140.551 113.888 140.538 113.954L140.18 115.717C140.098 116.117 139.785 116.4 139.423 116.4H121.787C121.358 116.4 121.011 116.006 121.011 115.519C121.011 115.452 121.017 115.386 121.031 115.32L121.389 113.557C121.47 113.157 121.784 112.874 122.146 112.874Z" fill="#D8D8D8"/>
<path d="M136.987 125.216H119.351C118.555 125.216 117.865 125.839 117.687 126.719L117.328 128.482C117.299 128.626 117.285 128.772 117.285 128.919C117.285 129.99 118.049 130.858 118.992 130.858H136.628C137.423 130.858 138.113 130.235 138.293 129.355L138.65 127.592C138.68 127.449 138.695 127.302 138.695 127.156C138.695 126.085 137.93 125.216 136.987 125.216ZM119.351 126.274H136.987C137.415 126.274 137.763 126.669 137.763 127.156C137.763 127.222 137.756 127.289 137.743 127.354L137.385 129.117C137.303 129.517 136.989 129.8 136.628 129.8H118.992C118.563 129.8 118.216 129.406 118.216 128.919C118.216 128.852 118.222 128.785 118.236 128.721L118.594 126.957C118.676 126.557 118.989 126.274 119.351 126.274Z" fill="#D8D8D8"/>
<path d="M138.229 118.516H120.593C119.797 118.516 119.107 119.139 118.929 120.019L118.57 121.782C118.541 121.926 118.527 122.071 118.527 122.219C118.527 123.29 119.291 124.158 120.235 124.158H137.87C138.666 124.158 139.356 123.534 139.535 122.655L139.893 120.892C139.922 120.749 139.937 120.602 139.937 120.456C139.937 119.384 139.172 118.516 138.229 118.516ZM120.593 119.574H138.229C138.658 119.574 139.005 119.969 139.005 120.456C139.005 120.522 138.998 120.589 138.985 120.653L138.627 122.417C138.546 122.816 138.232 123.1 137.87 123.1H120.235C119.806 123.1 119.458 122.706 119.458 122.219C119.458 122.152 119.465 122.085 119.478 122.02L119.836 120.257C119.918 119.857 120.231 119.574 120.593 119.574Z" fill="#47D7FF"/>
<path d="M116.531 112.169H101.986C101.175 112.169 100.476 112.818 100.313 113.72L97.7145 128.179C97.6918 128.306 97.6802 128.436 97.6802 128.567C97.6802 129.637 98.4446 130.506 99.3882 130.506H113.932C114.744 130.506 115.444 129.857 115.606 128.954L118.204 114.496C118.227 114.368 118.239 114.238 118.239 114.108C118.239 113.037 117.474 112.169 116.531 112.169ZM101.986 113.227H116.531C116.96 113.227 117.307 113.621 117.307 114.108C117.307 114.168 117.302 114.226 117.291 114.284L114.693 128.743C114.619 129.153 114.301 129.448 113.932 129.448H99.3882C98.9595 129.448 98.6116 129.053 98.6116 128.567C98.6116 128.507 98.6168 128.448 98.6273 128.39L101.226 113.932C101.299 113.522 101.618 113.227 101.986 113.227Z" fill="#D8D8D8"/>
<path d="M99.1093 143.906C99.1093 140.498 96.6758 137.735 93.6745 137.735C90.6732 137.735 88.2402 140.498 88.2402 143.906C88.2402 147.314 90.6732 150.077 93.6745 150.077C96.6758 150.077 99.1093 147.314 99.1093 143.906Z" fill="white"/>
<path d="M161.795 92.9497H88.3493L88.2678 92.951C87.4609 92.9748 86.7047 93.2968 86.0961 93.859C85.4632 94.4429 85.0216 95.2572 84.8529 96.1783L73.9193 155.774L73.8989 155.892C73.8617 156.138 73.8442 156.369 73.8442 156.601C73.8442 157.69 74.2253 158.714 74.8902 159.468C75.5546 160.223 76.4563 160.656 77.4151 160.656H150.861L150.942 160.655C151.749 160.631 152.505 160.309 153.114 159.748C153.747 159.163 154.188 158.349 154.357 157.428L165.291 97.8325L165.311 97.7137C165.348 97.4676 165.366 97.2367 165.366 97.0051C165.366 95.9157 164.985 94.8923 164.32 94.1374C163.655 93.3826 162.754 92.9497 161.795 92.9497ZM88.3609 95.0658H161.795C162.254 95.0658 162.684 95.2717 163.003 95.6339C163.321 95.9955 163.503 96.4831 163.503 97.0051C163.503 97.1159 163.494 97.2261 163.478 97.3356L163.464 97.4188L152.533 156.997C152.452 157.437 152.242 157.825 151.939 158.106C151.647 158.375 151.287 158.528 150.906 158.539L150.849 158.541H77.4151C76.9555 158.541 76.5262 158.334 76.2074 157.973C75.8885 157.61 75.707 157.123 75.707 156.601C75.707 156.49 75.7158 156.38 75.7321 156.27L75.7466 156.188L86.6767 96.6098C86.7576 96.1684 86.9682 95.7804 87.2713 95.5006C87.5627 95.2314 87.924 95.0777 88.3039 95.0665L88.3609 95.0658Z" fill="#AFAFAF"/>
<path d="M49.8877 152.545H153.765V156.601C153.765 158.84 152.166 160.656 150.194 160.656H49.8877C47.9153 160.656 46.3164 158.84 46.3164 156.601C46.3164 154.361 47.9153 152.545 49.8877 152.545Z" fill="#AFAFAF"/>
<g clip-path="url(#clip2_4173_2593)">
<path d="M94.5098 143.802L96.7167 145.348C96.86 145.448 96.8949 145.646 96.7945 145.789L96.2493 146.568C96.1489 146.711 95.9513 146.746 95.8077 146.646L93.6005 145.101L92.0549 147.308C91.9546 147.451 91.757 147.486 91.6136 147.385L90.8346 146.84C90.6912 146.74 90.6564 146.542 90.7567 146.399L92.3023 144.192L90.0951 142.646C89.9517 142.546 89.9168 142.348 90.0172 142.205L90.5631 141.426C90.6635 141.282 90.861 141.248 91.0044 141.348L93.2113 142.893L94.7568 140.686C94.8572 140.543 95.0548 140.508 95.1984 140.608L95.9772 141.154C96.1206 141.254 96.1554 141.452 96.0551 141.596L94.5098 143.802Z" fill="#FF7B7B"/>
</g>
<path d="M113.522 140.027C113.951 140.027 114.298 140.422 114.298 140.909C114.298 141.381 113.97 141.767 113.558 141.789L113.522 141.79H101.594C101.165 141.79 100.817 141.396 100.817 140.909C100.817 140.436 101.145 140.05 101.557 140.028L101.594 140.027H113.522Z" fill="#FF7B7B"/>
<path d="M107.804 143.553C108.233 143.553 108.58 143.948 108.58 144.435C108.58 144.908 108.253 145.294 107.841 145.316L107.804 145.316H101.594C101.165 145.316 100.817 144.922 100.817 144.435C100.817 143.962 101.145 143.576 101.557 143.555L101.594 143.553H107.804Z" fill="#FF7B7B"/>
<path d="M151.591 102.359C152.02 102.359 152.367 102.753 152.367 103.24C152.367 103.714 152.039 104.1 151.628 104.121L151.591 104.122H97.5559C97.1271 104.122 96.7798 103.727 96.7798 103.24C96.7798 102.767 97.1079 102.381 97.5198 102.36L97.5559 102.359H151.591Z" fill="#D8D8D8"/>
<path d="M114.326 102.359C114.754 102.359 115.102 102.753 115.102 103.24C115.102 103.714 114.774 104.1 114.362 104.121L114.326 104.122H97.5559C97.1271 104.122 96.7798 103.727 96.7798 103.24C96.7798 102.767 97.1079 102.381 97.5198 102.36L97.5559 102.359H114.326Z" fill="#FF7B7B"/>
<path d="M108.477 116.825C108.527 116.538 108.773 116.353 109.025 116.411C109.268 116.466 109.428 116.726 109.395 117.001L109.39 117.034L108.106 124.263C108.054 124.549 107.809 124.735 107.556 124.677C107.314 124.621 107.154 124.361 107.187 124.087L107.192 124.054L108.477 116.825Z" fill="#979797"/>
<path d="M110.903 118.869C111.16 118.869 111.368 119.106 111.368 119.397C111.368 119.679 111.175 119.909 110.931 119.926L110.903 119.926H108.623C108.366 119.926 108.157 119.689 108.157 119.397C108.157 119.116 108.35 118.886 108.594 118.869L108.623 118.869H110.903Z" fill="#979797"/>
<path d="M103.942 123.188C103.907 123.305 103.882 123.426 103.867 123.549C103.73 124.653 104.408 125.675 105.38 125.83L105.991 125.927C107.1 126.094 108.115 125.211 108.261 123.957L108.425 122.548L106.528 121.768C106.513 121.762 106.498 121.756 106.483 121.751C105.432 121.351 104.294 121.994 103.942 123.188ZM106.187 122.753L106.211 122.763L107.403 123.253L107.337 123.818C107.259 124.493 106.712 124.969 106.117 124.879L105.51 124.782C105.047 124.709 104.724 124.222 104.789 123.696C104.796 123.638 104.809 123.58 104.825 123.524C105.013 122.884 105.624 122.539 106.187 122.753Z" fill="#979797"/>
<path d="M167.804 57.8388L168.598 62.0885C168.796 63.15 167.914 64.1208 166.752 64.1208H160.923C160.346 64.1208 159.906 64.6009 159.999 65.1293L160.745 69.3425C160.866 70.0269 160.831 70.7272 160.643 71.3986C160.487 71.9547 160.024 72.4012 159.415 72.5826L159.251 72.631C158.883 72.7406 158.481 72.7151 158.134 72.5602C157.752 72.3896 157.472 72.0786 157.368 71.7086L156.833 69.7984C156.663 69.1906 156.415 68.6038 156.095 68.0495C155.628 67.2395 154.905 66.5913 154.154 65.9921L152.536 64.7007C152.079 64.3365 151.84 63.7912 151.892 63.2352L152.805 53.4511C152.889 52.5537 153.7 51.8647 154.671 51.8647H159.901C163.817 51.8647 167.16 54.3914 167.804 57.8388Z" fill="#F87C7C"/>
<path fill-rule="evenodd" clip-rule="evenodd" d="M148.339 64.9013C148.79 64.9193 149.177 64.605 149.216 64.1881L150.309 52.4834C150.379 51.7315 149.739 51.0835 148.923 51.0835C148.153 51.0835 147.531 51.6614 147.531 52.3723V64.1208C147.531 64.5391 147.887 64.8833 148.339 64.9013Z" fill="#F87C7C"/>
<g clip-path="url(#clip3_4173_2593)">
<path d="M102 22C102 30.8364 94.6126 38 85.5 38C76.3883 38 69 30.8364 69 22C69 13.1644 76.3883 6 85.5 6C94.6126 6 102 13.1644 102 22Z" fill="#F04C62"/>
<path d="M92.3612 32.5589C92.3199 32.3998 91.2905 28.6665 85.4999 28.6665C79.7084 28.6665 78.6799 32.3998 78.6387 32.5589C78.6146 32.6528 78.6228 32.7517 78.662 32.8406C78.7012 32.9295 78.7693 33.0035 78.8559 33.0514C78.943 33.0988 79.0435 33.1178 79.1426 33.1054C79.2417 33.0931 79.334 33.0502 79.4059 32.9829C79.4233 32.9661 81.1971 31.3332 85.4999 31.3332C89.8028 31.3332 91.5774 32.9661 91.5939 32.9821C91.6649 33.0501 91.7567 33.0939 91.8556 33.1068C91.9545 33.1198 92.055 33.1013 92.1421 33.0541C92.2295 33.0062 92.2982 32.9318 92.3378 32.8424C92.3774 32.7529 92.3856 32.6534 92.3612 32.5589ZM83.398 19.5936C80.4143 16.7003 75.6192 16.6665 75.4166 16.6665C75.1806 16.6766 74.9577 16.7746 74.7943 16.9401C74.6309 17.1056 74.5397 17.3259 74.5396 17.555C74.5394 17.7841 74.6304 18.0044 74.7936 18.17C74.9568 18.3357 75.1797 18.4339 75.4157 18.4443C75.4423 18.4443 77.1803 18.4647 79.0668 19.0994C78.5232 19.6683 78.1666 20.5518 78.1666 21.5554C78.1666 23.2745 79.1923 24.6665 80.4583 24.6665C81.7242 24.6665 82.7499 23.2745 82.7499 21.5554C82.7499 21.4007 82.7325 21.2532 82.716 21.1047C82.7279 21.1047 82.7389 21.1109 82.7499 21.1109C82.9314 21.1113 83.1089 21.0594 83.2599 20.9618C83.4109 20.8642 83.5286 20.7253 83.598 20.5627C83.6674 20.4002 83.6855 20.2213 83.6499 20.0487C83.6143 19.8762 83.5266 19.7178 83.398 19.5936ZM95.5833 16.6665C95.3807 16.6665 90.5865 16.7003 87.6018 19.5936C87.4732 19.7178 87.3856 19.8762 87.35 20.0487C87.3143 20.2213 87.3324 20.4002 87.4018 20.5627C87.4713 20.7253 87.589 20.8642 87.74 20.9618C87.891 21.0594 88.0685 21.1113 88.2499 21.1109C88.2618 21.1109 88.2719 21.1047 88.2829 21.1047C88.2683 21.2532 88.2499 21.4007 88.2499 21.5554C88.2499 23.2745 89.2757 24.6665 90.5416 24.6665C91.8075 24.6665 92.8333 23.2745 92.8333 21.5554C92.8333 20.5518 92.4767 19.6683 91.9331 19.0994C93.1111 18.7101 94.3414 18.4894 95.5851 18.4443C95.7055 18.4442 95.8246 18.4211 95.9358 18.3763C96.047 18.3315 96.148 18.2659 96.233 18.1833C96.318 18.1007 96.3855 18.0026 96.4314 17.8947C96.4774 17.7868 96.501 17.6712 96.5008 17.5545C96.5007 17.4378 96.4769 17.3222 96.4307 17.2144C96.3845 17.1066 96.3169 17.0087 96.2317 16.9262C96.1465 16.8438 96.0454 16.7784 95.9341 16.7338C95.8229 16.6893 95.7036 16.6664 95.5833 16.6665Z" fill="#292F33"/>
<path d="M96.2606 35.3333H74.7391C74.1899 35.3319 73.6635 35.1197 73.2752 34.7431C72.8868 34.3665 72.668 33.8561 72.6665 33.3235V28.2222C72.668 27.6896 72.8868 27.1792 73.2752 26.8026C73.6635 26.426 74.1899 26.2138 74.7391 26.2124H96.2606C96.8098 26.2138 97.3362 26.426 97.7245 26.8026C98.1129 27.1792 98.3317 27.6896 98.3332 28.2222V33.3235C98.3317 33.8561 98.1129 34.3665 97.7245 34.7431C97.3362 35.1197 96.8098 35.3319 96.2606 35.3333Z" fill="#292F33"/>
<path d="M76.1874 30.2035H75.4376C75.1497 30.2035 75.0186 30 75.0186 29.7973C75.0186 29.5946 75.1497 29.392 75.4376 29.392H76.3084L76.5 28.032C76.5431 27.728 76.6741 27.6266 76.9354 27.6266C77.1444 27.6266 77.3369 27.7609 77.3369 27.9644C77.3369 28.0915 77.3369 28.032 77.3195 28.168L77.1453 29.3929H77.9822L78.1738 28.0329C78.2169 27.7289 78.348 27.6275 78.6092 27.6275C78.8182 27.6275 79.0107 27.7617 79.0107 27.9653C79.0107 28.0924 79.0107 28.0329 78.9933 28.1689L78.8182 29.3937H79.5681C79.8559 29.3937 79.9861 29.5973 79.9861 29.7991C79.9861 30.0017 79.855 30.2053 79.5681 30.2053H78.6963L78.557 31.168H79.3068C79.5946 31.168 79.7248 31.3715 79.7248 31.5742C79.7248 31.7769 79.5937 31.9795 79.3068 31.9795H78.4351L78.2435 33.3395C78.1995 33.6444 78.0684 33.7449 77.8071 33.7449C77.5981 33.7449 77.4056 33.6106 77.4056 33.4071C77.4056 33.28 77.4056 33.3395 77.4231 33.2035L77.5981 31.9786H76.7621L76.5706 33.3386C76.5266 33.6435 76.3964 33.744 76.1342 33.744C75.9252 33.744 75.7327 33.6097 75.7327 33.4062C75.7327 33.2791 75.7327 33.3386 75.7501 33.2026L75.9243 31.9777H75.1763C74.8894 31.9777 74.7583 31.7742 74.7583 31.5724C74.7583 31.3689 74.8894 31.1662 75.1763 31.1662H76.0481L76.1874 30.2035ZM76.8932 31.1662H77.721L77.8603 30.2035H77.0326L76.8932 31.1662ZM81.1246 28.944C81.1246 28.2089 81.6911 27.5751 82.4666 27.5751C83.2421 27.5751 83.8086 28.2089 83.8086 28.944C83.8086 29.6791 83.2421 30.3049 82.4666 30.3049C81.6901 30.3057 81.1246 29.68 81.1246 28.944ZM82.9194 28.944C82.9194 28.6737 82.7535 28.4373 82.4666 28.4373C82.1787 28.4373 82.0128 28.6746 82.0128 28.944C82.0128 29.2151 82.1787 29.4435 82.4666 29.4435C82.7535 29.4435 82.9194 29.2151 82.9194 28.944ZM85.0369 27.7955C85.1506 27.5849 85.2376 27.5253 85.4384 27.5253C85.7088 27.5253 85.9526 27.736 85.9526 27.9982C85.9526 28.0657 85.9526 28.1253 85.883 28.2515L82.9551 33.5662C82.8241 33.7431 82.7718 33.8444 82.5628 33.8444C82.3364 33.8444 82.066 33.6337 82.066 33.3804C82.066 33.2533 82.1182 33.136 82.1531 33.0675L85.0369 27.7955ZM84.1917 32.4346C84.1917 31.6995 84.7582 31.0657 85.5337 31.0657C86.3092 31.0657 86.8757 31.6995 86.8757 32.4346C86.8757 33.1689 86.3092 33.7946 85.5337 33.7946C84.7573 33.7955 84.1917 33.1689 84.1917 32.4346ZM85.9866 32.4346C85.9866 32.1635 85.8206 31.928 85.5328 31.928C85.245 31.928 85.0791 32.1644 85.0791 32.4346C85.0791 32.7049 85.245 32.9333 85.5328 32.9333C85.8206 32.9333 85.9866 32.7049 85.9866 32.4346ZM88.2654 33.136C88.2654 32.7724 88.5706 32.4764 88.9446 32.4764C89.3196 32.4764 89.6248 32.7724 89.6248 33.136C89.6248 33.3108 89.5532 33.4784 89.4257 33.602C89.2983 33.7256 89.1254 33.7951 88.9451 33.7951C88.7648 33.7951 88.5919 33.7256 88.4645 33.602C88.337 33.4784 88.2654 33.3108 88.2654 33.136ZM88.3176 28.1502C88.3176 27.7955 88.5871 27.576 88.9446 27.576C89.2939 27.576 89.5726 27.8044 89.5726 28.1502V31.4035C89.5726 31.7502 89.2939 31.9777 88.9446 31.9777C88.5871 31.9777 88.3176 31.7582 88.3176 31.4035V28.1502ZM95.7225 33.8453C95.647 33.8493 95.5717 33.8356 95.5029 33.8052C95.4341 33.7749 95.3739 33.7289 95.3274 33.6711L94.6637 32.9689L94.5977 33.0275C93.9542 33.6009 93.3987 33.8444 92.7424 33.8444C91.7258 33.8444 90.6991 33.2826 90.6991 32.0275C90.6991 31.0435 91.4939 30.4551 91.9678 30.192L92.0751 30.1324L91.988 30.0453C91.5984 29.6497 91.4389 29.3226 91.4389 28.9173C91.4389 27.96 92.34 27.5244 93.1769 27.5244C93.8772 27.5244 94.8636 27.9271 94.8636 28.8204C94.8636 29.6657 94.0541 30.1546 93.8066 30.2844L93.7012 30.3395L94.7655 31.5315L95.1725 31.0551C95.3989 30.7911 95.5309 30.68 95.7646 30.68C95.9526 30.68 96.1533 30.8435 96.1533 31.1449C96.1533 31.3706 95.9223 31.6649 95.6959 31.9226L95.4236 32.2204L96.0708 32.9653C96.1909 33.104 96.2404 33.1777 96.2404 33.3457C96.2353 33.4771 96.1791 33.6018 96.083 33.6945C95.9868 33.7872 95.858 33.8411 95.7225 33.8453ZM92.5627 30.7573C92.1704 31.0124 91.7707 31.3484 91.7707 31.9049C91.7707 32.488 92.1621 32.864 92.769 32.864C93.275 32.864 93.6022 32.6489 93.9377 32.3253L94.0028 32.264L92.6278 30.7146L92.5627 30.7573ZM93.1778 28.3475C92.9211 28.3475 92.5636 28.5511 92.5636 28.8826C92.5636 29.192 92.7204 29.3804 93.0531 29.7084L93.0999 29.7546L93.1576 29.7253C93.6132 29.4942 93.8442 29.2337 93.8442 28.9529C93.8451 28.5369 93.4996 28.3475 93.1778 28.3475Z" fill="white"/>
</g>
<path d="M23.5156 100.834C21.3281 102.104 19.375 102.992 17.6562 103.5C19.375 104.008 21.3281 104.896 23.5156 106.166L21.6406 109.365C19.2448 107.943 17.474 106.75 16.3281 105.785C16.6927 107.359 16.875 109.441 16.875 112.031H13.125C13.125 109.441 13.3073 107.359 13.6719 105.785C12.526 106.75 10.7552 107.943 8.35938 109.365L6.48438 106.166C8.67188 104.896 10.625 104.008 12.3438 103.5C10.625 102.992 8.67188 102.104 6.48438 100.834L8.35938 97.6348C10.7552 99.0566 12.526 100.25 13.6719 101.215C13.3073 99.6406 13.125 97.5586 13.125 94.9688H16.875C16.875 97.5586 16.6927 99.6406 16.3281 101.215C17.474 100.25 19.2448 99.0566 21.6406 97.6348L23.5156 100.834Z" fill="#FFCECE" stroke="#FFCECE" stroke-width="1.5625"/>
</g>
<defs>
<clipPath id="clip0_4173_2593">
<rect width="185" height="161" fill="white"/>
</clipPath>
<clipPath id="clip1_4173_2593">
<rect width="176" height="175" fill="white" transform="translate(-24 33)"/>
</clipPath>
<clipPath id="clip2_4173_2593">
<rect width="10" height="10" fill="white" transform="translate(87.6138 139.941) rotate(-10)"/>
</clipPath>
<clipPath id="clip3_4173_2593">
<rect width="33" height="32" fill="white" transform="translate(69 6)"/>
</clipPath>
</defs>
</svg>
