<svg width="185" height="161" viewBox="0 0 185 161" fill="none" xmlns="http://www.w3.org/2000/svg">
<g clip-path="url(#clip0_4173_2391)">
<g clip-path="url(#clip1_4173_2391)">
<path d="M29.3631 36.2982C27.4276 36.3471 25.6139 36.4253 23.8003 36.4286C20.4119 36.4286 17.0218 36.471 13.6367 36.3536C11.1033 36.2656 8.59163 35.8874 6.272 34.7758C5.60056 34.4581 4.95467 34.0914 4.33981 33.6788C1.55926 31.7847 0.485451 28.9518 1.24196 25.7342C1.83481 23.1718 3.42131 21.3218 5.58897 19.8825C8.0923 18.2248 10.9012 17.3609 13.8738 17.0039C17.6113 16.5556 21.3454 16.6665 25.0812 17.1033C28.6016 17.5157 32.0418 18.228 35.3551 19.4733C35.9329 19.6918 36.4372 19.6168 36.995 19.4228C40.2532 18.2981 43.4829 17.074 46.7945 16.1188C53.0854 14.3128 59.4498 12.7561 65.9628 11.8303C71.7627 11.0039 77.606 10.7496 83.4661 10.8637C86.2483 10.9175 89.0322 10.8637 91.8161 10.9207C97.9843 11.0621 104.123 11.7953 110.144 13.1098C117.494 14.704 124.747 16.6029 131.761 19.3266C132.114 19.4753 132.495 19.5541 132.88 19.5586C133.264 19.5631 133.647 19.4931 134.004 19.3527C139.568 17.3755 145.338 16.66 151.238 16.7447C153.343 16.7516 155.442 16.98 157.497 17.4261C160.101 18.0178 162.507 19.0398 164.57 20.7301C166.61 22.3976 167.799 24.5133 167.983 27.1197C168.167 29.6625 167.215 31.7538 165.161 33.3365C163.237 34.8165 161.019 35.6185 158.619 35.9983C155.436 36.502 152.23 36.5492 149.019 36.4873L139.685 36.3243C139.685 36.6633 139.667 37.0301 139.685 37.3952C139.924 41.8777 140.251 46.3602 140.388 50.846C140.565 56.5868 140.612 62.3326 140.674 68.0783C140.744 74.4858 140.749 80.8934 140.819 87.3009C140.857 90.957 140.986 94.6115 141.043 98.2675C141.133 104.742 141.288 111.22 141.23 117.694C141.188 122.421 140.869 127.148 140.637 131.875C140.498 134.69 140.311 137.503 140.102 140.315C139.824 144.064 139.409 147.803 138.432 151.458C137.738 154.093 136.597 156.597 135.057 158.866C134.318 159.932 133.462 160.915 132.504 161.8C130.7 163.5 128.496 164.343 125.974 164.121C124.589 164.024 123.218 163.783 121.884 163.402C118.416 162.343 116.063 160.023 115.061 156.635C114.435 154.543 114.171 152.346 113.813 150.185C113.6 148.881 113.518 147.567 113.366 146.165C94.1307 150.817 74.9741 150.659 55.689 146.209C55.6405 146.507 55.5721 146.829 55.5403 147.153C55.2631 149.958 54.9191 152.75 54.3279 155.52C53.8788 157.668 52.7578 159.628 51.1196 161.128C49.4813 162.628 47.4065 163.595 45.1813 163.896C44.3007 164.028 43.413 164.111 42.5227 164.144C40.4352 164.212 38.6065 163.508 36.9983 162.239C35.3283 160.935 34.0808 159.291 33.0638 157.469C31.4439 154.566 30.3183 151.492 29.8791 148.217C29.4399 144.943 29.0258 141.655 28.7803 138.362C28.4012 133.26 28.0655 128.15 27.9102 123.04C27.7432 117.508 27.7248 111.969 27.7816 106.434C27.8618 98.6343 28.1156 90.838 28.2125 83.0401C28.316 74.996 28.2809 66.9504 28.3878 58.9063C28.4496 54.1793 28.635 49.4393 28.832 44.7074C28.9356 42.2053 29.1861 39.7098 29.3648 37.2094C29.3798 36.9355 29.3631 36.6601 29.3631 36.2982Z" fill="#ACA69F"/>
<path d="M108.732 90.0022C105.095 89.9778 101.457 90.0218 97.8184 90.0544C90.7894 90.1196 83.7604 90.232 76.7313 90.2646C68.8088 90.3005 60.8864 90.3005 52.9639 90.2646C44.8989 90.244 36.8345 90.2016 28.7706 90.1375C28.5435 90.1375 28.3147 90.1277 28.0842 90.1179C27.9707 95.5556 27.8321 100.992 27.7769 106.429C27.7202 111.971 27.7369 117.504 27.9055 123.036C28.0608 128.149 28.3965 133.259 28.7756 138.358C29.0211 141.65 29.4336 144.936 29.8745 148.213C30.1079 149.923 30.5237 151.605 31.1153 153.232L46.6246 153.276L54.7458 153.3C55.0915 151.259 55.3319 149.207 55.5357 147.148C55.5674 146.822 55.6359 146.496 55.6843 146.205C74.9695 150.655 94.126 150.813 113.361 146.161C113.513 147.562 113.595 148.883 113.809 150.18C113.989 151.266 114.143 152.359 114.335 153.44C122.16 153.451 129.987 153.46 137.813 153.466C138.05 152.808 138.26 152.137 138.441 151.453C139.41 147.799 139.824 144.063 140.111 140.311C140.32 137.499 140.507 134.685 140.646 131.87C140.878 127.143 141.197 122.416 141.238 117.689C141.297 111.215 141.142 104.737 141.051 98.2631C141.016 95.6844 140.939 93.1074 140.884 90.5303C136.628 90.4081 132.367 90.2858 128.112 90.2043C121.646 90.1082 115.19 90.0446 108.732 90.0022Z" fill="#666B3A"/>
<path d="M67.7615 64.411C67.7291 62.2127 68.1435 60.0299 68.9806 57.9888C70.3851 54.4745 72.5361 51.4949 75.5604 49.1281C78.0254 47.2015 80.8393 46.1403 83.9722 45.8176C85.861 45.6236 87.7398 45.5275 89.6218 45.8486C89.799 45.8623 89.9753 45.8862 90.1496 45.9203C95.036 47.3726 99.1909 49.8584 102.098 54.0703C103.95 56.75 105.165 59.6824 105.183 62.9473C105.208 67.6417 103.717 71.8422 100.532 75.4184C96.691 79.7265 91.7645 81.7754 86.003 81.9221C81.7528 82.0362 78.0454 80.4355 74.7639 77.9302C70.9229 74.9962 68.6851 71.0842 67.845 66.3963C67.7946 66.0518 67.7667 65.7044 67.7615 65.3564C67.7499 65.0369 67.7615 64.724 67.7615 64.411Z" fill="white"/>
<path d="M28.0925 24.5985C27.5915 26.6539 27.1038 28.6409 26.5995 30.7094C24.9896 30.8072 23.4265 30.9441 21.8734 30.9848C19.3116 31.0533 16.7415 31.1625 14.1914 30.7599C12.8587 30.549 11.5395 30.2638 10.2402 29.9058C9.63023 29.7162 9.06686 29.4061 8.58518 28.9946C7.66 28.2301 7.63996 27.0484 8.54009 26.2611C9.03204 25.8586 9.58756 25.5366 10.185 25.3076C11.8367 24.6181 13.5985 24.3296 15.362 24.1291C19.2577 23.6834 23.1972 23.753 27.0738 24.3361C27.2842 24.367 27.4946 24.4127 27.7017 24.46C27.8002 24.4828 27.8954 24.5284 28.0925 24.5985Z" fill="white"/>
<path d="M141.128 24.5985L142.616 30.7094C144.224 30.8072 145.789 30.9441 147.34 30.9848C149.902 31.0533 152.472 31.1625 155.022 30.7599C156.358 30.5492 157.68 30.264 158.982 29.9058C159.592 29.7162 160.155 29.4061 160.637 28.9946C161.562 28.2301 161.582 27.0484 160.684 26.2611C160.195 25.8603 159.645 25.5384 159.052 25.3076C157.4 24.6181 155.639 24.3296 153.875 24.1291C149.979 23.6834 146.04 23.753 142.163 24.3361C141.953 24.367 141.742 24.4127 141.535 24.46C141.42 24.4828 141.325 24.5284 141.128 24.5985Z" fill="white"/>
<path d="M59.3616 48.5285C58.8258 48.5234 58.2963 48.4148 57.8036 48.209C57.311 48.0032 56.8649 47.7042 56.4913 47.3293C56.1176 46.9545 55.8236 46.5111 55.6264 46.0248C55.4291 45.5384 55.3324 45.0188 55.3419 44.4959C55.3603 42.1764 57.3576 40.235 59.719 40.2432C60.2544 40.2476 60.7835 40.3558 61.2757 40.5614C61.7679 40.767 62.2134 41.066 62.5863 41.441C62.9591 41.816 63.252 42.2595 63.4478 42.7459C63.6436 43.2323 63.7385 43.7517 63.727 44.2742C63.712 46.6018 61.723 48.5431 59.3616 48.5285Z" fill="#0A1417"/>
<path d="M110.066 48.5285C109.53 48.5238 109 48.4156 108.507 48.2099C108.014 48.0043 107.568 47.7054 107.194 47.3305C106.82 46.9556 106.525 46.512 106.328 46.0255C106.13 45.539 106.034 45.0191 106.043 44.4959C106.06 42.1764 108.057 40.235 110.419 40.2432C110.954 40.2478 111.483 40.3561 111.975 40.5618C112.467 40.7675 112.912 41.0665 113.285 41.4415C113.658 41.8164 113.951 42.2599 114.147 42.7461C114.343 43.2324 114.438 43.7518 114.427 44.2742C114.417 46.6018 112.426 48.5431 110.066 48.5285Z" fill="#0A1417"/>
<path d="M105.103 140.98C98.2944 140.708 91.4825 140.483 84.6706 140.379C78.0006 140.278 71.3273 140.358 64.6539 140.358C64.6539 140.301 49.0278 140.17 41.2155 140.195C37.124 140.206 33.0325 140.229 28.9443 140.358C28.9878 140.817 29.0328 141.279 29.0813 141.738C31.5662 141.649 34.0529 141.575 36.5395 141.575C51.7732 141.552 67.0075 141.598 82.2424 141.712C89.5169 141.769 96.7948 141.988 104.066 142.26C111.158 142.524 118.244 142.946 125.333 143.305C128.005 143.44 130.677 143.567 133.349 143.741C135.485 143.882 137.618 144.04 139.752 144.198C139.799 143.794 139.841 143.383 139.881 142.984C135.522 142.658 131.163 142.315 126.801 142.063C119.57 141.638 112.337 141.277 105.103 140.98ZM54.7141 107.766C61.2071 107.756 67.7017 107.816 74.1947 107.878C77.1205 107.906 80.0396 108.009 82.9688 108.077C88.7815 108.214 94.5954 108.351 100.41 108.488C105.547 108.604 110.686 108.651 115.819 108.835C121.095 109.018 126.369 109.306 131.641 109.567C134.834 109.73 138.025 109.906 141.217 110.089L141.202 108.747C139.159 108.62 137.119 108.498 135.076 108.392C128.593 108.053 122.107 107.76 115.617 107.513C111.624 107.358 107.628 107.304 103.633 107.218C95.6074 107.042 87.5819 106.87 79.557 106.701C79.557 106.661 66.5711 106.454 60.0781 106.454C53.3698 106.454 46.6614 106.576 39.9546 106.568C35.884 106.544 31.8148 106.726 27.7636 107.115C27.7636 107.555 27.7553 107.994 27.752 108.434C30.1718 108.23 32.595 108.012 35.0114 107.958C41.5812 107.808 48.1477 107.776 54.7141 107.766ZM121.659 127.272C114.719 126.842 107.783 126.344 100.841 125.927C93.2944 125.472 85.7444 125.076 78.196 124.661C72.4629 124.344 66.7298 124.009 60.995 123.732C54.8327 123.427 48.667 123.169 40.7061 122.809C37.4513 122.838 32.7503 122.874 27.9023 122.928C27.9023 122.962 27.9023 122.996 27.9023 123.031C27.9156 123.455 27.9306 123.878 27.9473 124.302C32.1992 124.23 36.4527 124.139 40.7011 124.243C48.5084 124.434 56.3106 124.855 64.1129 125.213C68.6002 125.419 73.0858 125.691 77.5731 125.944C84.4089 126.326 91.2448 126.714 98.0807 127.107C101.818 127.327 105.552 127.596 109.29 127.821C115.911 128.219 122.532 128.609 129.154 128.99C133.019 129.207 136.884 129.417 140.749 129.619C140.773 129.199 140.794 128.778 140.818 128.358C137.645 128.152 134.455 127.945 131.272 127.761C128.089 127.577 124.862 127.477 121.659 127.272Z" fill="#0F211A"/>
<path d="M40.8427 93.805C40.9396 93.7547 41.0515 93.7389 41.1591 93.7603C41.2666 93.7817 41.3632 93.839 41.4322 93.9223C41.8441 94.3719 42.2262 94.8467 42.5762 95.3437C43.0843 96.1165 43.5374 96.9226 43.9322 97.7561C44.5534 99.0683 45.1196 100.408 45.684 101.746C45.9813 102.452 45.851 102.739 45.1647 102.799C42.5394 103.026 39.9209 103.479 37.2689 103.125C37.0526 103.111 36.8374 103.084 36.6243 103.045C36.5427 103.035 36.4645 103.007 36.3951 102.963C36.3258 102.92 36.2669 102.862 36.2227 102.794C36.1785 102.727 36.15 102.65 36.1392 102.571C36.1284 102.491 36.1355 102.41 36.16 102.333C36.2042 102.164 36.2663 102 36.3454 101.844C37.5144 99.2965 38.7869 96.7911 40.3367 94.4472C40.4713 94.2383 40.6208 94.0389 40.7843 93.8506C40.8012 93.8326 40.8209 93.8172 40.8427 93.805Z" fill="#ADAB76"/>
<path d="M83.6297 94.3967C84.6317 94.5124 84.8137 94.7993 84.3461 95.6502C83.1771 97.7692 81.9447 99.8474 80.7339 101.94C80.6573 102.061 80.5695 102.174 80.4717 102.279C79.7804 103.081 79.3612 103.117 78.785 102.252C77.4607 100.268 76.2032 98.2419 74.9273 96.2207C74.7943 96.009 74.6894 95.7817 74.6151 95.5442C74.4113 94.8922 74.5967 94.4798 75.2931 94.3902C76.5105 94.2272 77.7413 94.1832 78.9671 94.1098C79.2894 94.1 82.4089 94.2549 83.6297 94.3967Z" fill="#ADAB76"/>
<path d="M87.8282 102.79C86.9932 102.658 86.8846 102.353 87.2888 101.613C87.3572 101.487 87.4374 101.37 87.5142 101.251C88.868 99.1645 90.2229 97.0792 91.579 94.995C91.6881 94.8125 91.8109 94.6382 91.9464 94.4734C92.2637 94.1099 92.6261 94.0936 92.9768 94.4179C93.1601 94.5884 93.3201 94.7812 93.4527 94.9917C94.2554 96.2446 95.0515 97.5035 95.8408 98.7684C96.3652 99.6111 96.8595 100.472 97.3856 101.314C97.9116 102.157 97.7546 102.48 96.8027 102.537C94.5315 102.677 88.5362 102.904 87.8282 102.79Z" fill="#ADAB76"/>
<path d="M123.593 96.6281C123.571 95.7854 123.799 95.5067 124.612 95.5083C126.603 95.5083 128.595 95.5833 130.585 95.6469C131.2 95.6695 131.814 95.7239 132.422 95.8099C133.48 95.9566 133.645 96.2907 133.147 97.2443C132.918 97.686 132.668 98.1179 132.404 98.5483C131.441 100.087 130.475 101.626 129.495 103.155C129.288 103.487 129.039 103.793 128.755 104.066C128.399 104.392 128 104.353 127.753 103.945C126.506 101.917 125.267 99.8832 124.057 97.8327C123.809 97.3991 123.7 96.902 123.593 96.6281Z" fill="#ADAB76"/>
<path d="M61.9769 101.872C63.3874 99.4082 64.8053 96.948 66.2303 94.491C66.7096 93.6663 67.1221 93.6548 67.6114 94.491C67.9888 95.1316 68.2644 95.8276 68.6134 96.4878C69.4941 98.1862 70.3803 99.8814 71.2721 101.573C71.4053 101.782 71.522 102 71.6211 102.225C71.7597 102.639 71.6077 102.936 71.1335 102.962C68.0306 103.125 64.9277 103.3 61.8282 102.89C61.7881 102.882 61.4408 102.758 61.9769 101.872Z" fill="#ADAB76"/>
<path d="M108.074 95.0274C108.4 95.0193 108.726 95.0368 109.049 95.0795C109.67 95.1888 109.884 95.4919 109.62 96.0575C108.586 98.3151 107.528 100.568 106.045 102.589C105.407 103.456 104.914 103.474 104.221 102.679C102.474 100.69 101.013 98.4785 99.879 96.1048C99.5082 95.324 99.6953 95.0192 100.587 94.8774C100.946 94.8204 105.939 94.998 108.074 95.0274Z" fill="#ADAB76"/>
<path d="M111.606 102.954C111.558 102.951 111.512 102.937 111.471 102.914C111.43 102.89 111.395 102.858 111.369 102.819C111.342 102.78 111.325 102.736 111.319 102.69C111.313 102.644 111.318 102.597 111.334 102.553C111.397 102.35 111.479 102.153 111.578 101.965C112.794 99.836 114.019 97.7115 115.252 95.5914C115.814 94.6314 116.27 94.6216 116.895 95.5719C117.294 96.205 117.66 96.8578 117.99 97.5279C118.725 98.9558 119.433 100.398 120.153 101.833C120.228 101.977 120.292 102.126 120.345 102.279C120.566 102.939 120.377 103.174 119.644 103.239C117.515 103.443 115.369 103.396 113.253 103.099C112.74 103.018 112.222 102.995 111.606 102.954Z" fill="#ADAB76"/>
<path d="M57.8885 94.224C58.9974 94.2403 59.2145 94.5369 58.7569 95.528C57.7549 97.6812 56.7111 99.8165 55.6841 101.958C55.6683 101.99 55.6504 102.02 55.6306 102.05C55.4119 102.405 55.2582 102.954 54.7572 102.847C54.4583 102.781 54.1911 102.358 54.0074 102.032C52.6998 99.7497 51.4139 97.4677 50.128 95.1759C49.7522 94.5076 49.9276 94.1816 50.7225 94.1637C51.9516 94.1327 56.7295 94.2077 57.8885 94.224Z" fill="#ADAB76"/>
<path d="M128.922 130.34C128.828 130.285 128.717 130.263 128.608 130.279C128.5 130.295 128.4 130.348 128.327 130.428C127.895 130.859 127.491 131.316 127.117 131.795C126.572 132.544 126.081 133.328 125.647 134.143C124.962 135.425 124.331 136.738 123.703 138.055C123.369 138.746 123.489 139.033 124.172 139.13C126.784 139.478 129.378 140.051 132.043 139.826C132.26 139.822 132.476 139.805 132.691 139.776C133.065 139.701 133.252 139.465 133.192 139.086C133.155 138.913 133.099 138.744 133.025 138.583C131.978 135.984 130.829 133.432 129.394 131.011C129.269 130.797 129.13 130.591 128.977 130.395C128.962 130.374 128.944 130.355 128.922 130.34Z" fill="#ADAB76"/>
<path d="M86.1514 128.963C85.1377 129.033 84.949 129.311 85.3765 130.183C86.4387 132.351 87.5726 134.487 88.6815 136.632C88.7508 136.756 88.8325 136.874 88.9253 136.984C89.5783 137.815 89.9941 137.87 90.612 137.033C92.0298 135.113 93.3842 133.145 94.7552 131.192C94.8987 130.991 95.0144 130.771 95.0993 130.54C95.3364 129.888 95.1694 129.478 94.478 129.357C93.2706 129.145 92.0432 129.031 90.8224 128.909C90.5001 128.866 87.3772 128.878 86.1514 128.963Z" fill="#ADAB76"/>
<path d="M81.554 137.155C82.389 137.06 82.5159 136.762 82.1485 136.002C82.0867 135.875 82.0116 135.755 81.9414 135.631C80.6889 133.486 79.4359 131.341 78.1823 129.196C78.081 129.009 77.9666 128.829 77.8399 128.658C77.541 128.28 77.1803 128.249 76.8145 128.555C76.624 128.717 76.4557 128.902 76.3135 129.106C75.4518 130.322 74.5962 131.543 73.7467 132.769C73.1823 133.584 72.6462 134.423 72.0767 135.241C71.5073 136.06 71.6492 136.382 72.5978 136.49C74.8623 136.734 80.8392 137.236 81.554 137.155Z" fill="#ADAB76"/>
<path d="M46.1252 129.349C46.187 128.509 45.9749 128.219 45.1633 128.185C43.1727 128.097 41.1804 128.076 39.1881 128.048C38.5747 128.043 37.9616 128.069 37.3511 128.126C36.2873 128.224 36.1069 128.55 36.5561 129.526C36.7649 129.978 36.9953 130.42 37.2375 130.855C38.1282 132.436 39.0227 134.012 39.9212 135.582C40.1117 135.924 40.3451 136.242 40.6159 136.527C40.9499 136.876 41.3557 136.853 41.6263 136.454C42.9623 134.485 44.2983 132.509 45.6126 130.518C45.8731 130.117 46.0067 129.624 46.1252 129.349Z" fill="#ADAB76"/>
<path d="M107.421 137.425C106.128 134.9 104.831 132.377 103.528 129.857C103.089 129.011 102.678 128.98 102.149 129.79C101.741 130.411 101.431 131.094 101.057 131.738C100.097 133.394 99.1305 135.047 98.1574 136.697C98.0135 136.898 97.8861 137.111 97.7767 137.332C97.6097 137.74 97.7549 138.043 98.2276 138.09C101.319 138.4 104.407 138.713 107.526 138.446C107.558 138.442 107.914 138.335 107.421 137.425Z" fill="#ADAB76"/>
<path d="M61.7044 128.47C61.3793 128.445 61.0526 128.445 60.7275 128.47C60.1012 128.55 59.8774 128.843 60.1096 129.42C61.0331 131.724 61.9816 134.022 63.3661 136.103C63.9606 137 64.4532 137.041 65.183 136.278C67.0229 134.371 68.5881 132.229 69.8356 129.909C70.2415 129.147 70.0694 128.834 69.186 128.651C68.8353 128.591 63.837 128.532 61.7044 128.47Z" fill="#ADAB76"/>
<path d="M57.7936 136.225C57.8413 136.225 57.8881 136.213 57.9305 136.191C57.9728 136.17 58.0096 136.139 58.0378 136.102C58.0661 136.064 58.0851 136.021 58.0935 135.975C58.1018 135.929 58.0992 135.882 58.0858 135.837C58.0319 135.632 57.9599 135.432 57.8704 135.239C56.7571 133.057 55.6348 130.878 54.5037 128.703C53.9876 127.725 53.5317 127.689 52.8621 128.608C52.4332 129.221 52.0368 129.854 51.6747 130.506C50.8714 131.899 50.0949 133.308 49.305 134.708C49.225 134.849 49.1553 134.995 49.0962 135.145C48.8424 135.797 49.0211 136.038 49.7508 136.136C51.8662 136.441 54.0115 136.496 56.1403 136.299C56.658 136.237 57.1857 136.237 57.7936 136.225Z" fill="#ADAB76"/>
<path d="M111.873 129.975C110.764 129.939 110.537 130.226 110.943 131.23C111.84 133.427 112.78 135.608 113.702 137.794C113.716 137.826 113.733 137.858 113.752 137.888C113.952 138.253 114.086 138.809 114.587 138.724C114.889 138.672 115.176 138.258 115.375 137.949C116.791 135.733 118.186 133.505 119.582 131.277C119.989 130.625 119.829 130.299 119.036 130.24C117.807 130.156 113.03 130.01 111.873 129.975Z" fill="#ADAB76"/>
<path d="M49.5803 111.805C49.593 111.598 49.5687 111.39 49.5084 111.19C49.4749 111.091 49.4135 111.003 49.3313 110.936C49.249 110.87 49.1492 110.827 49.0432 110.813C48.9372 110.799 48.8293 110.814 48.7317 110.857C48.6342 110.9 48.5509 110.968 48.4914 111.055C48.36 111.259 48.2906 111.495 48.291 111.736C48.291 114.444 48.291 117.153 48.3044 119.862C48.3041 119.931 48.3097 120.001 48.3211 120.069C48.3895 120.467 48.5165 120.825 49.0091 120.864C49.425 120.899 49.7005 120.589 49.7556 120.031C49.7665 119.824 49.7665 119.615 49.7556 119.407C49.764 118.191 49.5869 113.124 49.5803 111.805Z" fill="#ADAB76"/>
<path d="M68.1005 111.419C67.7665 111.231 67.4509 111.435 67.334 111.745C67.1901 112.133 67.104 112.54 67.0785 112.952C66.9549 115.272 66.6977 120.188 66.7027 120.325C66.7194 120.705 66.8513 121.021 67.2789 121.083C67.7598 121.153 67.992 120.855 68.1139 120.455C68.1496 120.322 68.1686 120.184 68.1706 120.046C68.2875 117.381 68.4128 114.716 68.5046 112.051C68.4892 111.923 68.445 111.8 68.3751 111.691C68.3053 111.581 68.2115 111.488 68.1005 111.419Z" fill="#ADAB76"/>
<path d="M122.973 114.284C122.339 114.312 122.329 115.099 122.305 115.262C122.073 117.44 121.637 122.985 121.656 123.575C121.669 123.967 121.88 124.257 122.295 124.283C122.775 124.312 122.999 124.011 123.049 123.575C123.072 123.368 123.065 123.16 123.079 122.951C123.251 120.489 123.423 118.027 123.595 115.566C123.616 115.329 123.69 114.253 122.973 114.284Z" fill="#ADAB76"/>
<path d="M115.689 113.712C115.425 113.712 115.021 113.891 114.931 114.097C114.765 114.516 114.681 114.962 114.684 115.412C114.652 116.52 114.438 121.163 114.437 122.375C114.437 122.838 114.58 123.21 115.105 123.295C115.532 123.366 115.833 123.001 115.898 122.387C115.898 122.318 115.898 122.248 115.898 122.18C115.985 119.584 116.073 116.988 116.162 114.392C116.173 114.033 116.063 113.709 115.689 113.712Z" fill="#ADAB76"/>
<path d="M109.08 113.287C108.7 113.287 108.514 113.536 108.454 113.878C108.427 114.05 108.409 114.223 108.401 114.397C108.247 116.896 108.097 119.395 107.95 121.895C107.937 122.133 107.913 122.42 108.028 122.605C108.144 122.791 108.439 123.05 108.655 123.05C108.87 123.05 109.144 122.807 109.274 122.6C109.404 122.393 109.379 122.131 109.381 121.89C109.381 120.64 109.605 116.054 109.668 115.014C109.69 114.667 109.72 114.32 109.713 113.973C109.707 113.58 109.523 113.287 109.08 113.287Z" fill="#ADAB76"/>
<path d="M36.3458 111.125C35.8665 111.081 35.6611 111.42 35.6127 111.848C35.5884 112.055 35.5751 112.263 35.5726 112.472C35.5726 113.613 35.3972 117.929 35.3956 118.936C35.3956 119.249 35.3655 119.564 35.3839 119.874C35.3803 119.953 35.3928 120.032 35.4206 120.106C35.4484 120.18 35.491 120.249 35.546 120.307C35.6009 120.365 35.6671 120.412 35.7408 120.445C35.8144 120.478 35.894 120.497 35.9751 120.5C36.1366 120.521 36.3006 120.483 36.4347 120.392C36.5688 120.302 36.6634 120.166 36.6998 120.011C36.7575 119.846 36.7906 119.674 36.7984 119.5C36.8368 116.962 36.8668 114.425 36.9036 111.887C36.9052 111.489 36.76 111.163 36.3458 111.125Z" fill="#ADAB76"/>
<path d="M138.189 121.026C138.277 119.52 138.356 118.233 138.424 116.951C138.446 116.561 138.298 116.219 137.878 116.176C137.402 116.129 137.189 116.46 137.142 116.894C137.125 117.032 137.117 117.171 137.108 117.309C136.987 119.221 136.86 121.132 136.748 123.044C136.714 123.598 136.709 124.157 136.724 124.714C136.741 125.383 136.973 125.692 137.417 125.712C137.893 125.736 138.151 125.386 138.186 124.675C138.196 124.467 138.186 124.258 138.186 124.049L138.189 121.026Z" fill="#ADAB76"/>
<path d="M96.0715 112.53C95.5705 112.499 95.3934 112.832 95.3183 113.243C95.2665 113.516 95.2131 113.792 95.1897 114.067C95.0016 116.32 94.8167 118.573 94.6353 120.827C94.5701 121.662 94.7538 122.036 95.2231 122.092C95.6924 122.147 95.9696 121.792 96.0581 120.99C96.0765 120.817 96.0882 120.643 96.0999 120.47C96.2557 118.146 96.4099 115.821 96.5624 113.497C96.6626 112.928 96.4639 112.556 96.0715 112.53Z" fill="#ADAB76"/>
<path d="M75.0663 111.831C74.5653 111.738 74.3699 112.079 74.2496 112.471C74.213 112.606 74.1922 112.743 74.1878 112.882C74.0292 115.277 73.8622 117.671 73.7219 120.067C73.6718 120.912 73.8889 121.269 74.3615 121.293C74.8341 121.317 75.1197 120.967 75.1397 120.152C75.1698 118.9 75.452 113.898 75.5272 112.654C75.5489 112.276 75.5238 111.914 75.0663 111.831Z" fill="#ADAB76"/>
<path d="M56.382 112.095C56.382 111.852 56.4321 111.583 56.3386 111.376C56.2451 111.169 56.0046 110.918 55.8376 110.928C55.7057 110.942 55.579 110.986 55.4672 111.056C55.3554 111.126 55.2616 111.22 55.193 111.331C55.0577 111.634 55.0644 112.009 55.061 112.353C55.0421 114.75 55.0315 117.148 55.0293 119.546C55.0293 120.405 55.2514 120.724 55.7541 120.7C56.2567 120.675 56.4505 120.348 56.4571 119.495C56.4672 118.211 56.3853 113.277 56.382 112.095Z" fill="#ADAB76"/>
<path d="M102.214 113.06C101.736 112.982 101.489 113.305 101.404 114.167C101.25 115.722 101.11 117.279 100.924 119.249C100.924 119.704 100.924 120.573 100.924 121.44C100.924 122.107 101.143 122.441 101.561 122.478C102.018 122.521 102.292 122.162 102.349 121.448C102.349 121.378 102.349 121.31 102.349 121.239C102.468 118.917 102.588 116.595 102.708 114.271C102.758 113.43 102.638 113.129 102.214 113.06Z" fill="#ADAB76"/>
<path d="M62.289 111.402C62.274 111.04 62.1788 110.688 61.7262 110.641C61.2736 110.594 61.0916 110.9 61.0332 111.272C60.97 111.649 60.9343 112.031 60.9263 112.413C60.8906 114.741 60.8628 117.068 60.8428 119.394C60.8428 120.222 61.0615 120.591 61.5308 120.6C62.0001 120.61 62.2673 120.24 62.2773 119.427C62.2923 118.106 62.2656 115.467 62.2573 115.467C62.2573 114.424 62.2573 113.383 62.2573 112.341C62.2623 112.027 62.3057 111.714 62.289 111.402Z" fill="#ADAB76"/>
<path d="M42.71 112.092C42.71 111.847 42.71 111.603 42.6917 111.362C42.6583 110.969 42.5731 110.721 42.0354 110.71C41.4976 110.698 41.4091 111.525 41.4074 111.621C41.3874 114.229 41.3557 116.837 41.354 119.445C41.354 120.274 41.6229 120.641 42.0921 120.617C42.5614 120.592 42.7802 120.206 42.7819 119.393C42.7852 118.11 42.7117 113.239 42.71 112.092Z" fill="#ADAB76"/>
<path d="M82.05 111.917C81.8947 111.877 81.5707 112.08 81.4772 112.243C81.3412 112.526 81.2678 112.833 81.2618 113.145C81.1349 115.507 81.0263 117.872 80.9178 120.234C80.9077 120.441 80.9178 121.399 81.6041 121.399C82.2905 121.399 82.3323 120.387 82.3339 120.144C82.3339 118.961 82.5143 114.232 82.5777 113.05C82.5894 112.848 82.6846 112.08 82.05 111.917Z" fill="#ADAB76"/>
<path d="M89.1893 112.542C89.0608 112.547 88.9348 112.579 88.8197 112.635C88.7046 112.691 88.6029 112.77 88.5213 112.868C88.3744 113.078 88.3627 113.392 88.3343 113.666C88.1161 115.813 87.9062 117.958 87.7047 120.1C87.683 120.341 87.6245 120.618 87.7197 120.817C87.8149 121.016 88.0688 121.306 88.2842 121.332C88.4161 121.328 88.5452 121.294 88.6612 121.233C88.7772 121.171 88.8769 121.084 88.9522 120.978C89.1058 120.729 89.1275 120.387 89.1543 120.08C89.2762 118.696 89.378 117.309 89.4883 115.927C89.5417 115.13 89.5985 114.335 89.6553 113.537C89.6653 113.365 89.707 113.164 89.6352 113.024C89.535 112.832 89.343 112.546 89.1893 112.542Z" fill="#ADAB76"/>
<path d="M130.059 115.46C129.63 115.412 129.336 115.733 129.252 116.491C129.014 118.698 128.805 120.91 128.584 123.119C128.601 123.738 128.853 124.108 129.293 124.118C129.69 124.126 129.976 123.813 130.049 123.269C130.072 123.098 130.062 122.922 130.076 122.749C130.243 120.708 130.39 118.674 130.567 116.628C130.634 115.882 130.5 115.509 130.059 115.46Z" fill="#ADAB76"/>
<path d="M122.559 69.203C122.565 68.169 122.912 67.1643 123.548 66.3377C124.185 65.511 125.077 64.9063 126.093 64.6129C127.051 64.3148 128.083 64.3307 129.032 64.6582C129.98 64.9858 130.792 65.607 131.345 66.4271C131.538 66.6755 131.672 66.9628 131.738 67.2682C131.761 67.4899 131.602 67.8534 131.422 67.9349C131.242 68.0164 130.876 67.8925 130.689 67.7425C130.502 67.5926 130.4 67.2715 130.238 67.0433C129.802 66.4414 129.172 65.9994 128.449 65.7876C127.725 65.5758 126.95 65.6064 126.247 65.8746C125.469 66.1494 124.809 66.6733 124.375 67.3609C123.941 68.0485 123.758 68.8592 123.857 69.661C124.024 71.128 125.169 72.2299 126.734 72.4565C127.016 72.4972 127.332 72.4565 127.569 72.569C127.686 72.6262 127.789 72.7061 127.873 72.8036C127.957 72.9011 128.019 73.0143 128.057 73.1362C128.085 73.2829 127.835 73.5519 127.646 73.6497C127.416 73.743 127.165 73.7762 126.918 73.7458C125.729 73.6893 124.61 73.1836 123.796 72.3357C122.983 71.4879 122.539 70.3644 122.559 69.203Z" fill="#DCDFE4"/>
<path d="M105.146 31.024C105.108 32.3101 104.607 33.4348 103.288 34.0982C103.099 34.1964 102.898 34.2688 102.69 34.3133C102.533 34.3592 102.365 34.3445 102.219 34.2723C102.074 34.2 101.962 34.0758 101.908 33.9254C101.758 33.5701 101.957 33.3337 102.242 33.1397C102.67 32.848 103.223 32.6377 103.49 32.2416C104.148 31.2636 103.922 30.24 103.354 29.288C102.787 28.3361 101.947 27.7021 100.773 27.7021C100.41 27.7021 100.04 27.9205 99.6905 28.077C99.5421 28.173 99.4107 28.2919 99.3014 28.429C99.0208 28.7012 98.6902 28.8512 98.3612 28.5676C97.9854 28.2416 98.1224 27.8634 98.4013 27.5521C99.2463 26.6083 100.31 26.2481 101.574 26.5187C103.582 26.9604 105.116 28.8691 105.146 31.024Z" fill="#DCDFE4"/>
<path d="M75.4086 31.4788C73.58 31.4625 71.9634 30.266 71.5342 28.6034C71.4825 28.4046 71.3906 28.1552 71.4674 28.0003C71.577 27.7642 71.7747 27.5776 72.0202 27.4787C72.1755 27.438 72.4678 27.6417 72.598 27.8145C72.7283 27.9873 72.7483 28.2726 72.8402 28.4975C73.1036 29.1521 73.6137 29.6836 74.2658 29.9827C74.918 30.2819 75.6627 30.3261 76.3472 30.1063C76.6542 30.011 76.9363 29.8516 77.1739 29.6392C77.4115 29.4268 77.599 29.1666 77.7232 28.8764C77.8475 28.5863 77.9055 28.2732 77.8934 27.959C77.8813 27.6447 77.7993 27.3368 77.6531 27.0566C77.5446 26.8398 77.3826 26.6474 77.264 26.4355C77.097 26.1389 77.0436 25.8243 77.3559 25.5912C77.7082 25.3288 78.0322 25.4706 78.2977 25.7542C78.4418 25.9084 78.5668 26.0785 78.6701 26.2611C79.3281 27.4021 79.3849 28.5774 78.7253 29.7379C78.0773 30.8594 76.8482 31.4902 75.4086 31.4788Z" fill="#DCDFE4"/>
<path d="M128.473 46.3767C128.465 45.4283 128.785 44.505 129.381 43.7557C129.527 43.562 129.721 43.4081 129.946 43.3091C130.044 43.2664 130.153 43.2528 130.26 43.2698C130.366 43.2869 130.465 43.3339 130.544 43.4051C130.623 43.4762 130.68 43.5685 130.706 43.6704C130.732 43.7724 130.728 43.8797 130.692 43.979C130.614 44.2366 130.417 44.4582 130.266 44.6946C130.026 45.0633 129.866 45.4762 129.797 45.9077C129.727 46.3393 129.749 46.7802 129.861 47.2032C130.028 47.9236 130.465 48.4794 131.217 48.6897C131.968 48.9 132.616 48.6115 133.152 48.0866C133.319 47.9155 133.461 47.7052 133.618 47.5161C133.862 47.2227 134.147 47.0157 134.532 47.2635C134.916 47.5112 134.866 47.8633 134.679 48.186C133.586 50.0508 131.065 50.794 129.385 48.9799C128.773 48.3262 128.464 47.402 128.473 46.3767Z" fill="#DCDFE4"/>
<path d="M43.7802 42.4534C43.7534 44.5919 41.6092 46.3426 39.6052 45.8601C38.6416 45.627 37.7682 44.7729 37.7515 43.9302C37.7528 43.7846 37.7873 43.6412 37.8526 43.5104C37.9179 43.3795 38.0123 43.2645 38.1289 43.1738C38.4328 42.9913 38.705 43.2244 38.8971 43.5308C39.6402 44.7158 40.2014 44.9391 41.1666 44.4632C42.2454 43.9318 42.7598 42.6702 42.3089 41.6449C42.2371 41.4819 42.0718 41.3336 42.0784 41.1836C42.0901 40.9358 42.1352 40.5756 42.2989 40.4778C42.4227 40.4303 42.5566 40.4132 42.6888 40.428C42.821 40.4428 42.9474 40.489 43.0571 40.5626C43.6165 41.0532 43.7969 41.7264 43.7802 42.4534Z" fill="#DCDFE4"/>
<path d="M48.3111 70.5334C48.109 70.5578 47.9771 70.6165 47.9036 70.5741C47.6782 70.4421 47.3475 70.3019 47.3024 70.1112C47.2573 69.9205 47.4544 69.5717 47.6464 69.4592C48.1909 69.1332 48.8004 69.1626 49.3949 69.3728C49.7666 69.4985 50.1056 69.7021 50.3881 69.9694C50.6705 70.2366 50.8896 70.561 51.0298 70.9197C51.6377 72.3867 51.4891 73.795 50.4453 75.0208C50.1013 75.425 49.5603 75.6907 49.0709 75.9515C48.6952 76.1536 48.2744 76.1145 48.0856 75.6663C47.8969 75.218 48.1892 74.9882 48.5866 74.7942C49.8475 74.1781 50.3401 73.0876 49.9861 71.7869C49.7323 70.8561 49.2045 70.4845 48.3111 70.5334Z" fill="#DCDFE4"/>
<path d="M91.4053 67.8293C90.8292 67.7739 90.754 68.2303 90.6138 68.6329C90.4357 69.124 90.2322 69.606 90.0042 70.0771C89.8979 70.2971 89.7577 70.5 89.5884 70.6785C88.7734 71.5392 87.5844 71.3045 87.2504 70.1895C87.1119 69.6862 87.0423 69.1671 87.0433 68.6459C87.0183 67.2865 87.2103 61.9988 87.2203 60.0461C89.2577 59.2311 90.8943 57.9352 91.8963 55.9857C92.7965 54.2384 91.9615 52.2791 90.0593 51.6923C88.0822 51.0739 85.9812 50.9313 83.9354 51.2766C83.3409 51.3771 82.7665 51.5691 82.2337 51.8455C81.1432 52.4144 80.5821 53.3402 80.5904 54.5676C80.5904 55.5587 81.0614 56.509 81.893 57.4592C82.895 58.6084 83.9889 59.456 85.4401 59.9205C85.4401 61.7592 85.6438 67.2555 85.6171 68.6459C85.6198 69.1672 85.5502 69.6865 85.41 70.1895C85.076 71.3077 83.8903 71.5424 83.072 70.6785C82.9038 70.4995 82.7642 70.2967 82.6579 70.0771C82.4292 69.6063 82.2257 69.1243 82.0483 68.6329C81.9064 68.2303 81.8329 67.7739 81.2568 67.8293C80.8276 67.8684 80.6121 68.4112 80.8493 69.0436C81.1128 69.7989 81.4571 70.525 81.8763 71.2099C82.5276 72.2156 83.5463 72.6248 84.742 72.377C85.0675 72.3192 85.377 72.1954 85.6503 72.0134C85.9236 71.8314 86.1547 71.5955 86.3285 71.3208C86.5026 71.5953 86.7337 71.8312 87.007 72.0132C87.2803 72.1951 87.5896 72.319 87.915 72.377C89.1124 72.6248 90.1311 72.214 90.7824 71.2099C91.2012 70.5249 91.5448 69.7989 91.8078 69.0436C92.05 68.4112 91.8329 67.8684 91.4053 67.8293Z" fill="#0A1417"/>
<path d="M52.0504 51.6402C54.0094 51.6646 56.5344 53.3419 57.2659 55.1072C58.0758 57.0632 56.8484 58.9148 54.7041 58.9067C52.1523 58.8969 50.347 57.5652 49.1931 55.4837C48.0324 53.3745 49.9312 51.4022 52.0504 51.6402Z" fill="#DFC3C4"/>
<path d="M118.597 51.6402C116.638 51.6646 114.113 53.3419 113.38 55.1072C112.57 57.0632 113.797 58.9148 115.941 58.9067C118.493 58.8969 120.298 57.5652 121.452 55.4837C122.613 53.3745 120.719 51.4022 118.597 51.6402Z" fill="#DFC3C4"/>
<path d="M42.1745 115.791L32.4261 116.007C31.6286 116.025 30.9553 116.749 30.9226 117.626L30.8039 120.801C30.7712 121.678 31.3914 122.374 32.1888 122.356L41.9372 122.141C42.7347 122.123 43.4077 121.398 43.4408 120.521L43.5592 117.346C43.5923 116.47 42.972 115.774 42.1745 115.791Z" fill="#9069CD"/>
<path d="M11.4599 68.8895L66.7002 67.6673C68.2953 67.6318 69.5356 69.0247 69.4702 70.778L67.7499 116.811C67.6844 118.565 66.3381 120.015 64.743 120.05L9.5026 121.272C7.90738 121.308 6.66737 119.915 6.73281 118.162L8.45294 72.1279C8.51839 70.3747 9.86465 68.9248 11.4599 68.8895Z" fill="#9069CD"/>
<path d="M41.2245 112.244L33.6427 112.411C32.8451 112.429 32.1717 113.154 32.139 114.031L32.0651 116.015C32.0324 116.892 32.6523 117.588 33.4498 117.57L41.032 117.403C41.8296 117.385 42.5024 116.66 42.5353 115.783L42.6094 113.799C42.6422 112.923 42.0225 112.226 41.2245 112.244Z" fill="#D2E4E8"/>
<path d="M11.1634 105.771L64.5985 104.589L64.2723 113.32C64.2396 114.196 63.5663 114.921 62.7688 114.939L37.4961 115.498L29.1907 115.682L12.2221 116.057C11.4245 116.075 10.8044 115.379 10.8373 114.501L11.1634 105.771Z" fill="#D2E4E8"/>
<path d="M37.4959 115.498C37.6103 112.43 35.4404 109.993 32.6485 110.054L10.9857 110.534L10.7114 117.875L12.4091 72.4373C12.4418 71.5607 13.115 70.8356 13.9127 70.8179L34.1313 70.3707C36.9229 70.3088 39.093 72.7458 38.9784 75.8144C39.093 72.7458 41.4492 70.2085 44.2406 70.1466L64.4594 69.6994C65.2569 69.6817 65.877 70.3783 65.8443 71.255L63.8722 124.035L64.4207 109.351L42.7579 109.831C39.9661 109.893 37.6103 112.43 37.4959 115.498Z" fill="white"/>
<path d="M34.3441 74.3311L16.2918 74.7302C15.6935 74.7436 15.1887 75.2874 15.1641 75.9448L15.1196 77.1355C15.0951 77.7929 15.5601 78.3151 16.1583 78.302L34.2107 77.9025C34.809 77.889 35.3139 77.3453 35.3384 76.6878L35.3827 75.4976C35.4074 74.8397 34.9424 74.3176 34.3441 74.3311Z" fill="#D2E4E8"/>
<path d="M33.7362 90.6004L15.6838 90.9999C15.0856 91.0134 14.5807 91.5572 14.5561 92.2146L14.5117 93.4048C14.4871 94.0627 14.9521 94.5848 15.5504 94.5714L33.6025 94.1722C34.2012 94.1588 34.7059 93.615 34.7302 92.9575L34.775 91.767C34.7994 91.1095 34.3343 90.5873 33.7362 90.6004Z" fill="#D2E4E8"/>
<path d="M30.0613 82.7522L15.9804 83.0638C15.3823 83.0768 14.8774 83.6206 14.8529 84.278L14.8083 85.4687C14.7838 86.1261 15.2487 86.6487 15.847 86.6352L29.9279 86.3236C30.526 86.3106 31.0309 85.7668 31.0554 85.1094L31.0999 83.9188C31.1245 83.2613 30.6596 82.7387 30.0613 82.7522Z" fill="#D2E4E8"/>
<path d="M29.468 98.6257L15.3872 98.9373C14.789 98.9504 14.2841 99.4941 14.2596 100.152L14.2151 101.342C14.1905 102 14.6556 102.522 15.2537 102.509L29.3345 102.197C29.933 102.184 30.4377 101.64 30.4621 100.982L30.5068 99.7923C30.5312 99.1348 30.0662 98.6122 29.468 98.6257Z" fill="#D2E4E8"/>
<path d="M21.2673 67.086L29.5715 66.9022C30.1696 66.8891 30.6347 67.4113 30.6101 68.0687L29.5434 96.6159C29.5188 97.2733 29.014 97.8171 28.4159 97.8301C28.2195 97.8347 28.0291 97.7802 27.8649 97.673L24.7459 95.6349C24.4014 95.4096 23.9581 95.4271 23.6024 95.6796L20.7073 97.7342C20.1907 98.1011 19.5266 97.9553 19.2238 97.4097C19.1188 97.2198 19.0674 96.9981 19.076 96.7698L20.1397 68.3007C20.1642 67.6432 20.6691 67.0995 21.2673 67.086Z" fill="#FF4B4B"/>
<path d="M62.1449 73.7153L44.0927 74.1144C43.4944 74.1279 42.9893 74.6716 42.965 75.3291L42.9206 76.5198C42.8958 77.1772 43.3609 77.6993 43.959 77.6862L62.0114 77.2867C62.6095 77.2736 63.1146 76.73 63.139 76.072L63.1837 74.8819C63.2081 74.2244 62.7431 73.7018 62.1449 73.7153Z" fill="#D2E4E8"/>
<path d="M61.5373 89.9857L43.4845 90.3852C42.8863 90.3987 42.3816 90.9425 42.3568 91.5999L42.3124 92.7905C42.2881 93.448 42.7532 93.9702 43.3513 93.9571L61.4036 93.5576C62.0019 93.5441 62.5066 93.0003 62.5313 92.3429L62.5757 91.1522C62.6005 90.4948 62.1354 89.9727 61.5373 89.9857Z" fill="#D2E4E8"/>
<path d="M57.862 82.1373L43.7812 82.4489C43.1831 82.4619 42.6783 83.0057 42.6536 83.6631L42.6092 84.8538C42.5845 85.5111 43.0494 86.0337 43.648 86.0204L57.7289 85.7088C58.327 85.6957 58.8317 85.1519 58.8565 84.4945L58.9009 83.3039C58.9252 82.6464 58.4601 82.1242 57.862 82.1373Z" fill="#D2E4E8"/>
<path d="M57.2688 98.0108L43.1879 98.3224C42.5898 98.3354 42.0851 98.8792 42.0602 99.5371L42.0159 100.727C41.9916 101.385 42.4565 101.907 43.0548 101.894L57.1357 101.582C57.7338 101.569 58.2385 101.025 58.2632 100.368L58.3076 99.1774C58.3324 98.52 57.8673 97.9979 57.2688 98.0108Z" fill="#D2E4E8"/>
<ellipse cx="35.5" cy="119" rx="12.5" ry="9" fill="#ACA69F"/>
</g>
<g clip-path="url(#clip2_4173_2391)">
<rect x="129" y="93.665" width="16.182" height="19.0705" transform="rotate(-32.3751 129 93.665)" fill="#666B3A"/>
<path d="M161.531 38.0133C168.265 38.7451 174.166 43.3668 177.084 50.1955C179.982 56.9782 179.336 64.9902 175.4 71.0837L171.477 77.1582C167.924 82.6576 161.752 85.2073 155.857 83.6101L149.249 81.8196C147.231 81.2729 145.472 79.8946 144.322 77.9603L140.559 71.6271C137.205 65.9845 137.26 58.6269 140.696 53.047L144.495 46.8773C148.312 40.6793 154.835 37.2856 161.531 38.0133Z" fill="#FFCE8E"/>
<path fill-rule="evenodd" clip-rule="evenodd" d="M161.531 38.0133C168.265 38.7451 174.166 43.3668 177.084 50.1955C179.982 56.9782 179.336 64.9903 175.401 71.0837L171.477 77.1582C168.877 81.1832 164.873 83.6278 160.603 84.0238L138.596 66.7863C137.477 62.1672 138.181 57.1309 140.696 53.047L144.495 46.8773C148.312 40.6793 154.834 37.2856 161.531 38.0133Z" fill="#F34848"/>
<path d="M146.659 73.1016L152.375 77.5789L141.866 97.3754C141.517 98.0327 140.758 98.2489 140.17 97.8586C140.144 97.8413 140.118 97.8222 140.092 97.8026L133.871 92.9297C133.312 92.4913 133.176 91.6284 133.568 91.0024C133.585 90.9739 133.604 90.9463 133.624 90.9192L146.659 73.1016Z" fill="#F0B86F"/>
<path fill-rule="evenodd" clip-rule="evenodd" d="M148.755 74.7437L150.436 76.0603L137.901 96.0855L136.221 94.7689L148.755 74.7437Z" fill="#FFCE8E"/>
<path d="M132.055 47.7849C135.952 47.7849 139.111 44.2513 139.111 39.8925C139.111 35.5335 135.952 32 132.055 32C128.159 32 125 35.5335 125 39.8925C125 44.2513 128.159 47.7849 132.055 47.7849Z" fill="#FFA100"/>
<path d="M130.362 40.208C131.765 40.208 132.902 38.9359 132.902 37.3667C132.902 35.7975 131.765 34.5254 130.362 34.5254C128.959 34.5254 127.822 35.7975 127.822 37.3667C127.822 38.9359 128.959 40.208 130.362 40.208Z" fill="#FFC156"/>
<mask id="mask0_4173_2391" style="mask-type:luminance" maskUnits="userSpaceOnUse" x="116" y="93" width="72" height="78">
<path d="M185.351 94.0727L116.686 93.124L118.562 169.399L187.228 170.348L185.351 94.0727Z" fill="white"/>
</mask>
<g mask="url(#mask0_4173_2391)">
<path d="M135.663 99.6824L118.606 110.558C117.636 111.176 117.333 112.57 117.929 113.673C121.419 120.13 128.852 122.428 134.532 118.806C140.212 115.185 141.987 107.015 138.498 100.559C137.902 99.4565 136.633 99.0642 135.663 99.6824Z" fill="#2B70C9"/>
<path d="M166.612 100.11L184.216 111.464C185.217 112.11 185.589 113.514 185.047 114.601C181.873 120.965 174.547 123.059 168.686 119.279C162.824 115.498 160.644 107.273 163.819 100.909C164.361 99.8224 165.611 99.4648 166.612 100.11Z" fill="#2B70C9"/>
<path fill-rule="evenodd" clip-rule="evenodd" d="M146.258 107.148L155.884 107.281C168.29 107.453 178.623 118.764 178.962 132.545L179.733 163.904C179.76 164.988 178.99 165.856 178.015 165.842L126.995 165.137C126.019 165.124 125.207 164.234 125.18 163.15L124.409 131.791C124.07 118.01 133.852 106.977 146.258 107.148Z" fill="#07DAFF"/>
<path fill-rule="evenodd" clip-rule="evenodd" d="M178.961 132.545L179.202 142.348L168.797 142.204C159.474 142.076 151.71 133.576 151.455 123.22C151.292 116.59 154.247 110.806 158.841 107.536C169.892 109.294 178.65 119.875 178.961 132.545Z" fill="#09B1FD"/>
<path fill-rule="evenodd" clip-rule="evenodd" d="M161.773 112.708C166.74 112.776 170.886 117.25 171.118 122.743L171.127 123.063C171.265 128.647 167.301 133.117 162.274 133.048C157.247 132.978 153.06 128.395 152.923 122.811L152.92 122.693C152.782 117.109 156.746 112.638 161.773 112.708Z" fill="#F9F9F9"/>
<path fill-rule="evenodd" clip-rule="evenodd" d="M140.22 112.41C145.186 112.478 149.332 116.953 149.564 122.445L149.574 122.765C149.711 128.349 145.747 132.819 140.72 132.75C135.693 132.68 131.506 128.097 131.369 122.513L131.366 122.395C131.229 116.811 135.193 112.34 140.22 112.41Z" fill="#F9F9F9"/>
<path fill-rule="evenodd" clip-rule="evenodd" d="M159.165 119.196C161.852 119.234 164.089 121.683 164.162 124.667L164.184 125.536C164.257 128.52 162.139 130.908 159.453 130.872C156.766 130.834 154.529 128.385 154.456 125.401L154.435 124.532C154.424 124.106 154.458 123.692 154.533 123.295C154.944 123.689 155.475 123.931 156.049 123.939C157.313 123.956 158.31 122.832 158.275 121.428C158.257 120.673 157.943 119.99 157.461 119.518C157.988 119.302 158.563 119.188 159.165 119.196Z" fill="#4B4B4B"/>
<path fill-rule="evenodd" clip-rule="evenodd" d="M143.057 118.974C145.743 119.011 147.98 121.46 148.053 124.444L148.074 125.313C148.148 128.297 146.03 130.686 143.344 130.649C140.658 130.612 138.42 128.163 138.347 125.179L138.326 124.31C138.315 123.858 138.354 123.419 138.437 123.001C138.858 123.437 139.418 123.709 140.027 123.717C141.291 123.735 142.288 122.611 142.253 121.207C142.234 120.437 141.91 119.744 141.412 119.271C141.923 119.071 142.476 118.966 143.057 118.974Z" fill="#4B4B4B"/>
<path fill-rule="evenodd" clip-rule="evenodd" d="M148.354 136.203L154.661 136.29L154.785 141.349C154.833 143.284 153.46 144.833 151.718 144.808C149.977 144.784 148.527 143.197 148.479 141.262L148.354 136.203Z" fill="#FF7878"/>
<path fill-rule="evenodd" clip-rule="evenodd" d="M151.558 135.869C152.032 135.876 152.427 136.308 152.44 136.835L152.55 141.284C152.563 141.811 152.189 142.232 151.715 142.225C151.241 142.219 150.846 141.787 150.833 141.26L150.723 136.811C150.711 136.284 151.085 135.863 151.558 135.869Z" fill="#E75252"/>
<path fill-rule="evenodd" clip-rule="evenodd" d="M157.333 130.934L157.605 130.799C161.822 128.71 166.416 127.63 171.099 127.625L171.552 127.628L171.709 134.021L171.417 134.152L170.846 134.402L170.293 134.635L169.758 134.851L169.242 135.05L168.744 135.232C167.032 135.84 165.654 136.137 164.611 136.122C163.568 136.108 162.175 135.773 160.432 135.117L159.924 134.921L159.397 134.708L158.851 134.477L158.287 134.229L157.703 133.963C157.604 133.917 157.505 133.871 157.404 133.823L157.333 130.934Z" fill="#09B1FD"/>
<path fill-rule="evenodd" clip-rule="evenodd" d="M146.034 130.815L145.755 130.672C141.432 128.465 136.782 127.257 132.096 127.123L131.643 127.113L131.8 133.506C133.692 134.973 135.918 135.725 138.478 135.76C141.038 135.796 143.581 135.11 146.105 133.704L146.034 130.815Z" fill="#07DAFF"/>
<path fill-rule="evenodd" clip-rule="evenodd" d="M158.153 131.897C158.226 134.881 156.108 137.27 153.422 137.233L150.005 137.186C147.318 137.149 145.081 134.7 145.008 131.716C144.934 128.732 147.052 126.343 149.739 126.38L153.156 126.427C155.842 126.464 158.079 128.914 158.153 131.897Z" fill="#1899D6"/>
<path fill-rule="evenodd" clip-rule="evenodd" d="M150.247 126.063L152.632 126.096C154.212 126.118 155.528 127.558 155.571 129.314C155.614 131.069 154.368 132.474 152.788 132.452L150.404 132.419C148.824 132.398 147.508 130.957 147.465 129.201C147.421 127.446 148.667 126.041 150.247 126.063Z" fill="#4B4B4B"/>
</g>
<ellipse cx="149" cy="89.5" rx="6" ry="11.5" fill="#ACA69F"/>
</g>
</g>
<defs>
<clipPath id="clip0_4173_2391">
<rect width="185" height="161" fill="white"/>
</clipPath>
<clipPath id="clip1_4173_2391">
<rect width="167" height="163" fill="white" transform="translate(1 6)"/>
</clipPath>
<clipPath id="clip2_4173_2391">
<rect width="149" height="141" fill="white" transform="translate(52 20)"/>
</clipPath>
</defs>
</svg>
