<svg width="115" height="105" viewBox="0 0 115 105" fill="none" xmlns="http://www.w3.org/2000/svg">
<path d="M97.4488 79.0703H22.9748C18.3293 79.0703 14.5636 83.2848 14.5636 88.4838V92.744C14.5636 97.9428 18.3293 102.157 22.9748 102.157H97.4488C98.8877 102.157 100.054 100.852 100.054 99.2414V81.9862C100.054 80.3758 98.8877 79.0703 97.4488 79.0703Z" fill="#E5A259"/>
<mask id="mask0_4112_147" style="mask-type:luminance" maskUnits="userSpaceOnUse" x="14" y="79" width="87" height="24">
<path d="M97.4488 79.0703H22.9748C18.3293 79.0703 14.5636 83.2848 14.5636 88.4838V92.744C14.5636 97.9428 18.3293 102.157 22.9748 102.157H97.4488C98.8877 102.157 100.054 100.852 100.054 99.2414V81.9862C100.054 80.3758 98.8877 79.0703 97.4488 79.0703Z" fill="white"/>
</mask>
<g mask="url(#mask0_4112_147)">
<path d="M-33.7503 85.9541H-17.166M-22.3365 91.6923H-5.10091M58.671 87.2066H75.9065M78.0999 96.4741H95.3355M84.9941 91.6923H97.9209M30.5096 96.4741H51.6927M11.5252 87.2743H24.452" stroke="#DF933F" stroke-width="3.67531" stroke-linecap="round"/>
</g>
<path d="M92.4557 86.7272C92.4557 82.4984 95.5187 79.0703 99.2972 79.0703C103.076 79.0703 106.139 82.4984 106.139 86.7272V93.7737C106.139 98.0024 103.076 101.431 99.2972 101.431C95.5187 101.431 92.4557 98.0024 92.4557 93.7737V86.7272Z" fill="#FFCE8E"/>
<path opacity="0.433" d="M95.9016 86.7021C95.9016 84.6027 97.4222 82.9009 99.298 82.9009C101.174 82.9009 102.694 84.6027 102.694 86.7021V93.7974C102.694 95.8967 101.174 97.5986 99.298 97.5986C97.4222 97.5986 95.9016 95.8967 95.9016 93.7974V86.7021Z" stroke="#E5A259" stroke-width="2.45031"/>
<path fill-rule="evenodd" clip-rule="evenodd" d="M6.89098 101.097H113.256C113.719 101.097 114.162 101.303 114.489 101.669C114.816 102.035 115 102.531 115 103.048C115 103.566 114.816 104.062 114.489 104.428C114.162 104.794 113.719 105 113.256 105H6.89098C6.42857 105 5.9851 104.794 5.65813 104.428C5.33115 104.062 5.14746 103.566 5.14746 103.048C5.14746 102.531 5.33115 102.035 5.65813 101.669C5.9851 101.303 6.42857 101.097 6.89098 101.097Z" fill="#78C800"/>
<path fill-rule="evenodd" clip-rule="evenodd" d="M80.5769 51.6641C80.7434 49.5356 79.6613 47.6072 78.0099 46.7837L77.2916 55.9714C79.0459 55.4813 80.4104 53.7926 80.5769 51.6641Z" fill="#A56644" stroke="#A56644" stroke-width="1.62" stroke-linecap="round" stroke-linejoin="round"/>
<path d="M24.9009 40.5978L26.0663 38.9284C28.0126 36.1405 31.6098 35.6462 34.1009 37.8244L44.5737 46.9817C47.0648 49.1599 47.5065 53.1858 45.5602 55.9737L44.3949 57.6431C42.4486 60.431 38.8514 60.9254 36.3603 58.7472L25.8874 49.5899C23.3963 47.4116 22.9546 43.3858 24.9009 40.5978Z" fill="#A56644"/>
<path d="M66.577 1.81641H57.7812C53.1158 1.81641 49.1447 5.61736 48.4215 10.7754L43.5221 45.7087L33.5119 68.9877C31.2427 74.2645 33.2255 80.6006 37.9402 83.14C39.0024 83.7122 40.1507 84.0574 41.3261 84.1581L69.3651 86.559C74.5825 87.0057 79.1354 82.6344 79.5346 76.7952C79.5417 76.6906 79.5475 76.5859 79.5519 76.4811L80.8359 45.709L75.9365 10.7756C75.2133 5.61736 71.2422 1.81641 66.5773 1.81641H66.577Z" fill="#A56644"/>
<path fill-rule="evenodd" clip-rule="evenodd" d="M77.6146 0.585729C77.4159 0.385396 77.1839 0.230841 76.9317 0.130892C76.6796 0.0309437 76.4124 -0.0124404 76.1453 0.00321813C75.8782 0.0188766 75.6165 0.0932709 75.3751 0.222152C75.1337 0.351033 74.9173 0.531875 74.7384 0.75435L74.168 1.46368C73.8065 1.91305 73.6193 2.50468 73.6476 3.10847C73.6758 3.71226 73.9172 4.27877 74.3186 4.68342C74.5174 4.88376 74.7494 5.03831 75.0015 5.13826C75.2536 5.23821 75.5209 5.28159 75.788 5.26593C76.0551 5.25028 76.3168 5.17588 76.5582 5.047C76.7996 4.91812 77.0159 4.73728 77.1949 4.5148L77.7655 3.80547C78.1269 3.35607 78.3141 2.76442 78.2858 2.16063C78.2575 1.55684 78.0161 0.99035 77.6146 0.585729ZM46.6165 0.585729C46.8152 0.385403 47.0472 0.230843 47.2992 0.130875C47.5513 0.0309075 47.8185 -0.0125098 48.0856 0.00310273C48.3527 0.0187153 48.6144 0.0930518 48.8558 0.221867C49.0972 0.350683 49.3135 0.531455 49.4925 0.753859L49.4927 0.75435L50.0634 1.46368C50.4248 1.91308 50.6119 2.50473 50.5836 3.10852C50.5553 3.71231 50.3139 4.2788 49.9125 4.68342C49.5112 5.08793 48.9828 5.29746 48.4434 5.26593C47.9041 5.2344 47.3981 4.96439 47.0367 4.51529L47.0362 4.5148L46.4658 3.80547C46.1043 3.3561 45.9172 2.76447 45.9454 2.16068C45.9737 1.5569 46.215 0.990384 46.6165 0.585729Z" fill="#A56644"/>
<path fill-rule="evenodd" clip-rule="evenodd" d="M57.564 52.3131C55.8021 50.3412 53.171 49.9345 51.0488 51.0923L58.6549 59.605C59.6894 57.2298 59.326 54.285 57.564 52.3131Z" fill="#BB7149" stroke="#BB7149" stroke-width="2.10594" stroke-linecap="round" stroke-linejoin="round"/>
<path fill-rule="evenodd" clip-rule="evenodd" d="M56.0878 52.3131C57.8497 50.3412 60.4808 49.9345 62.603 51.0923L54.9969 59.605C53.9624 57.2298 54.3258 54.285 56.0878 52.3131Z" fill="#BB7149" stroke="#BB7149" stroke-width="2.10594" stroke-linecap="round" stroke-linejoin="round"/>
<path fill-rule="evenodd" clip-rule="evenodd" d="M59.1019 54.7294C60.3796 54.3462 61.6768 54.9004 62.3691 56.0074L56.843 57.6646C56.9482 56.3184 57.8239 55.1125 59.1019 54.7294ZM54.4132 54.7294C53.1353 54.3462 51.8381 54.9004 51.1455 56.0074L56.6719 57.6646C56.5666 56.3184 55.6909 55.1125 54.413 54.7294H54.4132Z" fill="#BB7149" stroke="#BB7149" stroke-width="2.10594" stroke-linecap="round" stroke-linejoin="round"/>
<path d="M71.9285 52.4213L80.7119 49.7873C81.3184 49.6054 81.9418 50.0083 82.1043 50.687L88.0548 75.5407C88.2173 76.2195 87.8573 76.9172 87.2508 77.0991L78.4674 79.733C77.8609 79.9149 77.2375 79.5121 77.075 78.8333L71.1246 53.9796C70.9621 53.3009 71.322 52.6032 71.9285 52.4213Z" fill="#A56644"/>
<path fill-rule="evenodd" clip-rule="evenodd" d="M86.5559 70.5034H77.0817C75.5011 70.5034 74.2197 71.9376 74.2197 73.7065V75.9155C74.2197 77.6844 75.5011 79.1185 77.0817 79.1185H87.5428C89.1234 79.1185 90.4048 77.6844 90.4048 75.9155V74.811C90.4048 72.4319 88.6814 70.5034 86.5559 70.5034Z" fill="#A56644"/>
<path fill-rule="evenodd" clip-rule="evenodd" d="M80.9086 40.5944L44.3057 38.4958C44.029 38.4799 43.7566 38.5776 43.5398 38.7706C43.3229 38.9636 43.1765 39.2386 43.128 39.5439L42.4473 43.8352L41.3036 44.8622C41.1273 45.0204 40.9972 45.2338 40.9298 45.4752C40.8624 45.7166 40.8608 45.975 40.9252 46.2174C40.9896 46.4598 41.1171 46.6752 41.2914 46.8362C41.4657 46.9971 41.6789 47.0963 41.9038 47.121L81.8917 51.5154C82.0642 51.5344 82.2382 51.5089 82.4006 51.4411C82.5629 51.3732 82.7092 51.2647 82.8284 51.1239C82.9475 50.983 83.0363 50.8136 83.0879 50.6284C83.1396 50.4433 83.1528 50.2474 83.1264 50.0558L81.9742 41.6714C81.9344 41.3821 81.8066 41.117 81.6125 40.9208C81.4184 40.7246 81.1698 40.6093 80.9086 40.5944Z" fill="#FF4B4B"/>
<path fill-rule="evenodd" clip-rule="evenodd" d="M69.1251 38.4891L63.4424 38.0753C63.2092 38.0583 62.9753 38.0952 62.7554 38.1836C62.5355 38.272 62.3341 38.4101 62.1638 38.5892C61.9935 38.7683 61.858 38.9847 61.7655 39.2249C61.6731 39.4651 61.6258 39.7241 61.6265 39.9856L61.7019 67.2311C61.7033 67.7146 61.8685 68.1795 62.1643 68.5319C62.4601 68.8843 62.8643 69.0979 63.2954 69.1297L68.9025 69.542C69.1354 69.5591 69.369 69.5226 69.5887 69.4346C69.8085 69.3467 70.0097 69.2091 70.1801 69.0306C70.3504 68.8521 70.4862 68.6363 70.579 68.3966C70.6719 68.157 70.7197 67.8986 70.7197 67.6374V40.3935C70.7197 39.9088 70.555 39.4422 70.2588 39.0885C69.9627 38.7347 69.5573 38.5206 69.1251 38.4891Z" fill="#FF4B4B"/>
<path d="M47.2543 75.3542L50.3424 77.9585C51.9965 79.3535 52.3269 81.9851 51.0805 83.8363L44.4285 93.7158C43.182 95.567 40.8306 95.9368 39.1765 94.5418L36.0884 91.9375C34.4343 90.5425 34.1039 87.9109 35.3503 86.0597L42.0023 76.1803C43.2488 74.329 45.6002 73.9592 47.2543 75.3542Z" fill="#A56644"/>
<path d="M61.5429 77.5627L64.6309 80.167C66.285 81.562 66.6155 84.1936 65.369 86.0448L58.717 95.9243C57.4706 97.7755 55.1192 98.1453 53.4651 96.7503L50.377 94.146C48.7229 92.751 48.3924 90.1194 49.6389 88.2682L56.2909 78.3888C57.5374 76.5375 59.8888 76.1677 61.5429 77.5627Z" fill="#A56644"/>
<path d="M53.8896 12.061V13.2171C53.8896 14.4173 54.6412 15.3902 55.5684 15.3902C56.4954 15.3902 57.247 14.4173 57.247 13.2171V12.061M62.415 12.061V13.2171C62.415 14.4173 61.6045 15.3902 60.6046 15.3902C59.605 15.3902 58.7944 14.4173 58.7944 13.2171V12.061" stroke="#854C2D" stroke-width="1.125" stroke-linecap="round"/>
<path fill-rule="evenodd" clip-rule="evenodd" d="M56.0215 16.8757C53.9028 16.8757 52.1851 18.7981 52.1851 21.1693V31.0335C52.1851 33.4045 53.9028 35.327 56.0215 35.327C58.1403 35.327 59.8579 33.4047 59.8579 31.0335V21.1688C59.8579 18.7978 58.1403 16.8757 56.0215 16.8757Z" fill="#E5A259"/>
<path fill-rule="evenodd" clip-rule="evenodd" d="M51.172 22.7651C50.6136 22.7651 50.0781 23.0134 49.6832 23.4553C49.2884 23.8972 49.0666 24.4965 49.0666 25.1214V27.0788C49.0666 27.7037 49.2884 28.3031 49.6832 28.745C50.0781 29.1868 50.6136 29.4351 51.172 29.4351C51.7303 29.4351 52.2659 29.1868 52.6607 28.745C53.0555 28.3031 53.2773 27.7037 53.2773 27.0788V25.1214C53.2773 24.4965 53.0555 23.8972 52.6607 23.4553C52.2659 23.0134 51.7303 22.7651 51.172 22.7651Z" fill="#E5A259"/>
<path fill-rule="evenodd" clip-rule="evenodd" d="M51.1724 24.2378C50.8932 24.2378 50.6255 24.3619 50.428 24.5829C50.2306 24.8038 50.1197 25.1035 50.1197 25.4159V26.7843C50.1197 26.939 50.1469 27.0922 50.1999 27.2351C50.2528 27.3781 50.3303 27.5079 50.428 27.6173C50.5258 27.7267 50.6418 27.8135 50.7696 27.8727C50.8973 27.9319 51.0342 27.9624 51.1724 27.9624C51.3106 27.9624 51.4475 27.9319 51.5753 27.8727C51.703 27.8135 51.819 27.7267 51.9168 27.6173C52.0145 27.5079 52.0921 27.3781 52.145 27.2351C52.1979 27.0922 52.2251 26.939 52.2251 26.7843V25.4159C52.2251 25.1035 52.1142 24.8038 51.9168 24.5829C51.7194 24.3619 51.4516 24.2378 51.1724 24.2378Z" fill="#BB7149"/>
<path fill-rule="evenodd" clip-rule="evenodd" d="M55.4044 16.8755H54.3632C53.9862 16.8755 53.6247 17.0431 53.3582 17.3414C53.0917 17.6397 52.9419 18.0442 52.9419 18.4661C52.9419 18.8879 53.0917 19.2925 53.3582 19.5908C53.6247 19.8891 53.9862 20.0567 54.3632 20.0567H55.4044C55.7814 20.0567 56.1429 19.8891 56.4094 19.5908C56.6759 19.2925 56.8257 18.8879 56.8257 18.4661C56.8257 18.0442 56.6759 17.6397 56.4094 17.3414C56.1429 17.0431 55.7814 16.8755 55.4044 16.8755Z" fill="#4B4B4B"/>
<path d="M34.0834 41.0399C33.7065 41.0399 33.4023 40.7318 33.4023 40.35C33.4023 39.9682 33.7065 39.6602 34.0834 39.6602C34.4603 39.6602 34.7644 39.9683 34.7644 40.35C34.7645 40.7318 34.4603 41.0399 34.0834 41.0399ZM34.0834 40.129C33.9644 40.129 33.8652 40.2294 33.8652 40.35C33.8652 40.4705 33.9644 40.571 34.0834 40.571C34.2024 40.571 34.3016 40.4705 34.3016 40.35C34.3016 40.2294 34.2024 40.129 34.0834 40.129Z" fill="#F16723"/>
<path d="M10.1016 45.7017C10.1016 45.7202 10.1051 45.7385 10.1121 45.7556C10.1191 45.7727 10.1293 45.7882 10.1422 45.8012C10.1551 45.8143 10.1704 45.8247 10.1873 45.8317C10.2041 45.8388 10.2222 45.8425 10.2404 45.8425C10.2586 45.8425 10.2767 45.8388 10.2936 45.8317C10.3104 45.8247 10.3257 45.8143 10.3386 45.8012C10.3515 45.7882 10.3617 45.7727 10.3687 45.7556C10.3757 45.7385 10.3793 45.7202 10.3793 45.7017C10.3793 45.6833 10.3757 45.665 10.3687 45.6479C10.3617 45.6308 10.3515 45.6153 10.3386 45.6023C10.3257 45.5892 10.3104 45.5788 10.2936 45.5717C10.2767 45.5647 10.2586 45.561 10.2404 45.561C10.2222 45.561 10.2041 45.5647 10.1873 45.5717C10.1704 45.5788 10.1551 45.5892 10.1422 45.6023C10.1293 45.6153 10.1191 45.6308 10.1121 45.6479C10.1051 45.665 10.1016 45.6833 10.1016 45.7017Z" fill="black"/>
<path d="M9.32666 31.0191C9.32665 31.0376 9.33024 31.0559 9.33721 31.073C9.34418 31.09 9.35441 31.1056 9.3673 31.1186C9.3802 31.1317 9.39551 31.1421 9.41236 31.1491C9.42921 31.1562 9.44727 31.1598 9.4655 31.1598C9.48374 31.1598 9.5018 31.1562 9.51865 31.1491C9.5355 31.1421 9.55081 31.1317 9.56371 31.1186C9.5766 31.1056 9.58683 31.09 9.5938 31.073C9.60077 31.0559 9.60436 31.0376 9.60435 31.0191C9.60436 31.0007 9.60077 30.9824 9.5938 30.9653C9.58683 30.9482 9.5766 30.9327 9.56371 30.9196C9.55081 30.9066 9.5355 30.8962 9.51865 30.8891C9.5018 30.8821 9.48374 30.8784 9.4655 30.8784C9.44727 30.8784 9.42921 30.8821 9.41236 30.8891C9.39551 30.8962 9.3802 30.9066 9.3673 30.9196C9.35441 30.9327 9.34418 30.9482 9.33721 30.9653C9.33024 30.9824 9.32665 31.0007 9.32666 31.0191Z" fill="black"/>
<path d="M34.2549 29.0709C34.2549 29.0894 34.2585 29.1077 34.2654 29.1247C34.2724 29.1418 34.2826 29.1573 34.2955 29.1704C34.3084 29.1834 34.3237 29.1938 34.3406 29.2009C34.3574 29.208 34.3755 29.2116 34.3937 29.2116C34.412 29.2116 34.43 29.208 34.4469 29.2009C34.4637 29.1938 34.479 29.1834 34.4919 29.1704C34.5048 29.1573 34.515 29.1418 34.522 29.1247C34.529 29.1077 34.5326 29.0894 34.5326 29.0709C34.5326 29.0524 34.529 29.0341 34.522 29.017C34.515 29 34.5048 28.9845 34.4919 28.9714C34.479 28.9583 34.4637 28.948 34.4469 28.9409C34.43 28.9338 34.412 28.9302 34.3937 28.9302C34.3755 28.9302 34.3574 28.9338 34.3406 28.9409C34.3237 28.948 34.3084 28.9583 34.2955 28.9714C34.2826 28.9845 34.2724 29 34.2654 29.017C34.2585 29.0341 34.2549 29.0524 34.2549 29.0709Z" fill="black"/>
<path d="M17.1611 22.3325C17.1611 22.3698 17.1758 22.4056 17.2018 22.432C17.2278 22.4584 17.2632 22.4732 17.3 22.4732C17.3368 22.4732 17.3721 22.4584 17.3982 22.432C17.4242 22.4056 17.4388 22.3698 17.4388 22.3325C17.4388 22.2952 17.4242 22.2595 17.3982 22.2331C17.3721 22.2067 17.3368 22.1919 17.3 22.1919C17.2632 22.1919 17.2278 22.2067 17.2018 22.2331C17.1758 22.2595 17.1611 22.2952 17.1611 22.3325Z" fill="black"/>
<path d="M33.3101 38.2799C33.31 38.2983 33.3136 38.3166 33.3206 38.3337C33.3276 38.3508 33.3378 38.3663 33.3507 38.3794C33.3636 38.3924 33.3789 38.4028 33.3958 38.4099C33.4126 38.4169 33.4307 38.4206 33.4489 38.4206C33.4671 38.4206 33.4852 38.4169 33.5021 38.4099C33.5189 38.4028 33.5342 38.3924 33.5471 38.3794C33.56 38.3663 33.5702 38.3508 33.5772 38.3337C33.5842 38.3166 33.5878 38.2983 33.5877 38.2799C33.5878 38.2614 33.5842 38.2431 33.5772 38.226C33.5702 38.209 33.56 38.1934 33.5471 38.1804C33.5342 38.1673 33.5189 38.1569 33.5021 38.1499C33.4852 38.1428 33.4671 38.1392 33.4489 38.1392C33.4307 38.1392 33.4126 38.1428 33.3958 38.1499C33.3789 38.1569 33.3636 38.1673 33.3507 38.1804C33.3378 38.1934 33.3276 38.209 33.3206 38.226C33.3136 38.2431 33.31 38.2614 33.3101 38.2799Z" fill="black"/>
<path d="M34.5791 44.6031C34.5791 44.6216 34.5827 44.6399 34.5897 44.657C34.5966 44.674 34.6068 44.6895 34.6197 44.7026C34.6326 44.7157 34.6479 44.726 34.6648 44.7331C34.6816 44.7402 34.6997 44.7438 34.7179 44.7438C34.7362 44.7438 34.7542 44.7402 34.7711 44.7331C34.7879 44.726 34.8033 44.7157 34.8161 44.7026C34.829 44.6895 34.8393 44.674 34.8462 44.657C34.8532 44.6399 34.8568 44.6216 34.8568 44.6031C34.8568 44.5846 34.8532 44.5663 34.8462 44.5493C34.8393 44.5322 34.829 44.5167 34.8161 44.5036C34.8033 44.4906 34.7879 44.4802 34.7711 44.4731C34.7542 44.466 34.7362 44.4624 34.7179 44.4624C34.6997 44.4624 34.6816 44.466 34.6648 44.4731C34.6479 44.4802 34.6326 44.4906 34.6197 44.5036C34.6068 44.5167 34.5966 44.5322 34.5897 44.5493C34.5827 44.5663 34.5791 44.5846 34.5791 44.6031Z" fill="black"/>
<path d="M11.3904 24.4628C10.954 24.4628 10.6035 24.1078 10.6035 23.6657C10.6035 23.2237 10.954 22.8687 11.3904 22.8687C11.8268 22.8687 12.1773 23.2237 12.1773 23.6657C12.1773 24.1078 11.8268 24.4628 11.3904 24.4628ZM11.3904 23.3375C11.2119 23.3375 11.0664 23.4849 11.0664 23.6657C11.0664 23.8466 11.2119 23.994 11.3904 23.994C11.5689 23.994 11.7144 23.8466 11.7144 23.6657C11.7144 23.4849 11.5689 23.3375 11.3904 23.3375Z" fill="#FBD20A"/>
<path d="M9.92912 41.4825L9.69769 41.4825L9.69769 41.2481C9.69769 41.1208 9.5919 41.0137 9.46626 41.0137C9.34063 41.0137 9.23483 41.1208 9.23483 41.2481L9.23483 41.4825L9.0034 41.4825C8.87777 41.4825 8.77197 41.5897 8.77197 41.7169C8.77197 41.8442 8.87777 41.9514 9.0034 41.9514L9.23483 41.9514L9.23483 42.1858C9.23483 42.3131 9.34063 42.4202 9.46626 42.4202C9.5919 42.4202 9.69769 42.3131 9.69769 42.1858L9.69769 41.9514L9.92912 41.9514C10.0548 41.9514 10.1606 41.8442 10.1606 41.7169C10.1606 41.5897 10.0548 41.4825 9.92912 41.4825Z" fill="#F16723"/>
<path d="M33.4551 27.2687C33.4551 27.3237 33.4767 27.3766 33.5151 27.4155C33.5536 27.4544 33.6057 27.4763 33.6601 27.4763C33.7144 27.4763 33.7666 27.4544 33.805 27.4155C33.8434 27.3766 33.865 27.3237 33.865 27.2687C33.865 27.2136 33.8434 27.1608 33.805 27.1219C33.7666 27.0829 33.7144 27.061 33.6601 27.061C33.6057 27.061 33.5536 27.0829 33.5151 27.1219C33.4767 27.1608 33.4551 27.2136 33.4551 27.2687Z" fill="black"/>
<path d="M33.912 46.6856L33.6806 46.6856L33.6806 46.4512C33.6806 46.324 33.5748 46.2168 33.4492 46.2168C33.3235 46.2168 33.2177 46.324 33.2177 46.4512L33.2177 46.6856L32.9863 46.6856C32.8607 46.6856 32.7549 46.7928 32.7549 46.9201C32.7549 47.0473 32.8607 47.1545 32.9863 47.1545L33.2177 47.1545L33.2177 47.3889C33.2177 47.5162 33.3235 47.6233 33.4492 47.6233C33.5748 47.6233 33.6806 47.5162 33.6806 47.3889L33.6806 47.1545L33.912 47.1545C34.0377 47.1545 34.1435 47.0473 34.1435 46.9201C34.1435 46.7928 34.0377 46.6856 33.912 46.6856Z" fill="#4E9BD4"/>
<path d="M31.8422 29.4257L31.6769 29.3386L31.6769 24.5161L14.69 24.5161C13.3344 24.5161 12.2368 25.628 12.2368 27.001C12.2368 27.0814 12.2434 27.1551 12.2501 27.2287L12.2368 27.2287L12.2368 49.2044C12.2368 50.2962 13.1096 51.1803 14.1874 51.1803L29.9908 51.1803C31.0686 51.1803 31.9414 50.2962 31.9414 49.2044L31.9414 29.4323L31.8422 29.4257Z" fill="white"/>
<path d="M31.8553 29.4257L31.7164 29.3386L31.7164 24.5161L17.0239 24.5161C15.8536 24.5161 14.9014 25.628 14.9014 27.001C14.9014 27.0814 14.908 27.1551 14.908 27.2287L14.9014 27.2287L14.9014 49.2044C14.9014 50.2962 15.6552 51.1803 16.5875 51.1803L30.2551 51.1803C31.1874 51.1803 31.9412 50.2962 31.9412 49.2044L31.9412 29.4323L31.8553 29.4257Z" fill="#3769A5"/>
<path d="M30.1691 29.4257L30.0303 29.3386L30.0303 24.5161L15.6485 24.5161C14.5046 24.5161 13.5723 25.628 13.5723 27.001C13.5723 27.0814 13.5789 27.1551 13.5789 27.2287L13.5723 27.2287L13.5723 49.2044C13.5723 50.2962 14.3128 51.1803 15.2253 51.1803L28.6086 51.1803C29.5211 51.1803 30.2616 50.2962 30.2616 49.2044L30.2616 29.4323L30.1691 29.4257Z" fill="#4E9BD4"/>
<path d="M31.677 29.4661L31.677 26.519C31.677 26.0368 31.2869 25.6416 30.8042 25.6416L14.7694 25.6416C13.6651 25.6416 12.7725 26.5458 12.7725 27.6644L12.7725 28.5284C12.7725 28.5284 13.4601 29.4058 14.981 29.4594C16.5018 29.5197 31.677 29.4661 31.677 29.4661ZM14.2338 47.0346C14.1081 47.0346 14.0024 46.9274 14.0024 46.8002L14.0024 44.6033C14.0024 44.476 14.1081 44.3688 14.2338 44.3688C14.3594 44.3688 14.4652 44.476 14.4652 44.6033L14.4652 46.8002C14.4652 46.9274 14.3594 47.0346 14.2338 47.0346Z" fill="white"/>
<path d="M12.2371 35.4464C12.0189 35.4464 11.8404 35.2655 11.8404 35.0445L11.8404 33.6313C11.8404 33.4103 12.0189 33.2294 12.2371 33.2294C12.4553 33.2294 12.6338 33.4103 12.6338 33.6313L12.6338 35.0445C12.6338 35.2655 12.4553 35.4464 12.2371 35.4464ZM31.9417 40.9386C31.7235 40.9386 31.545 41.1195 31.545 41.3405L31.545 49.244C31.545 50.1147 30.8507 50.8179 29.9911 50.8179L14.1877 50.8179C13.3281 50.8179 12.6338 50.1147 12.6338 49.244L12.6338 35.9822C12.6338 35.7612 12.4553 35.5804 12.2371 35.5804C12.0189 35.5804 11.8404 35.7612 11.8404 35.9822L11.8404 49.244C11.8404 50.5568 12.8917 51.6217 14.1877 51.6217L29.9911 51.6217C31.2871 51.6217 32.3384 50.5568 32.3384 49.244L32.3384 41.3405C32.3384 41.1195 32.1599 40.9386 31.9417 40.9386ZM32.3318 29.4183L32.3318 29.4049C32.3318 29.3848 32.3252 29.3714 32.3186 29.3513L32.3186 29.3447C32.312 29.3312 32.3053 29.3112 32.2987 29.2978C32.2987 29.2978 32.2987 29.2911 32.2921 29.2911C32.2855 29.2777 32.2723 29.2576 32.2657 29.2442L32.2591 29.2375C32.2525 29.2241 32.2392 29.2107 32.226 29.1973C32.226 29.1973 32.226 29.1906 32.2194 29.1906C32.2062 29.1772 32.193 29.1638 32.1797 29.1571L32.1731 29.1504C32.1599 29.137 32.1467 29.1303 32.1268 29.1236C32.1136 29.117 32.0938 29.1102 32.0805 29.1035L32.0739 29.1035L32.0739 24.5088C32.0739 24.2878 31.8954 24.1069 31.6772 24.1069L14.6902 24.1069C13.1165 24.1069 11.8403 25.3996 11.8403 26.9937C11.8403 27.0607 11.8403 27.1277 11.8469 27.1947C11.8403 27.2215 11.8403 27.2482 11.8403 27.2683L11.8403 32.6668C11.8403 32.8879 12.0189 33.0687 12.2371 33.0687C12.4552 33.0687 12.6338 32.8878 12.6338 32.6668L12.6338 28.9897C13.1561 29.5389 13.8835 29.8805 14.6902 29.8805L31.5449 29.8805L31.5449 40.3492C31.5449 40.5702 31.7234 40.7511 31.9416 40.7511C32.1598 40.7511 32.3383 40.5702 32.3383 40.3492L32.3383 29.4786C32.3384 29.4585 32.3384 29.4384 32.3318 29.4183ZM31.2804 29.0768L14.6902 29.0768C14.0885 29.0768 13.5463 28.8155 13.1694 28.3936L13.1694 27.6702C13.1694 26.7794 13.8901 26.0493 14.7696 26.0493L30.8043 26.0493C31.0688 26.0493 31.2804 26.2637 31.2804 26.5249L31.2804 29.0768ZM31.2804 25.3393C31.135 25.2791 30.9697 25.2455 30.8043 25.2455L14.7696 25.2455C13.8901 25.2455 13.1231 25.7278 12.7066 26.4378C12.9446 25.5603 13.7447 24.9106 14.6902 24.9106L31.2804 24.9106L31.2804 25.3393Z" fill="black"/>
<path d="M14.2334 32.575C14.1077 32.575 14.002 32.4678 14.002 32.3406C14.002 31.3024 14.8351 30.4585 15.86 30.4585C15.9856 30.4585 16.0914 30.5657 16.0914 30.6929C16.0914 30.8202 15.9856 30.9273 15.86 30.9273C15.093 30.9273 14.4648 31.5636 14.4648 32.3406C14.4648 32.4678 14.359 32.575 14.2334 32.575ZM14.2334 33.8074C14.1077 33.8074 14.002 33.7002 14.002 33.573L14.002 33.2046C14.002 33.0773 14.1077 32.9702 14.2334 32.9702C14.359 32.9702 14.4648 33.0773 14.4648 33.2046L14.4648 33.573C14.4648 33.7002 14.359 33.8074 14.2334 33.8074ZM24.8792 37.8462L18.948 37.8462C18.5314 37.8462 18.1875 37.5046 18.1875 37.0759L18.1875 34.1557C18.1875 33.7337 18.5248 33.3854 18.948 33.3854L24.8792 33.3854C25.2958 33.3854 25.6396 33.727 25.6396 34.1557L25.6396 37.0759C25.6396 37.4979 25.3024 37.8462 24.8792 37.8462Z" fill="white"/>
<path d="M24.8789 38.2469L18.9477 38.2469C18.3129 38.2469 17.7905 37.7178 17.7905 37.0748L17.7905 34.1545C17.7905 33.5115 18.3129 32.9824 18.9477 32.9824L24.8789 32.9824C25.5137 32.9824 26.0361 33.5115 26.0361 34.1545L26.0361 37.0748C26.036 37.7178 25.5137 38.2469 24.8789 38.2469ZM18.9477 33.7861C18.7493 33.7861 18.584 33.9536 18.584 34.1545L18.584 37.0748C18.584 37.2757 18.7493 37.4432 18.9477 37.4432L24.8789 37.4432C25.0773 37.4432 25.2426 37.2757 25.2426 37.0748L25.2426 34.1545C25.2426 33.9536 25.0773 33.7861 24.8789 33.7861L18.9477 33.7861Z" fill="black"/>
<path d="M29.2231 22.568L28.9916 22.568L28.9916 22.3335C28.9916 22.2063 28.8858 22.0991 28.7602 22.0991C28.6346 22.0991 28.5288 22.2063 28.5288 22.3335L28.5288 22.568L28.2973 22.568C28.1717 22.568 28.0659 22.6751 28.0659 22.8024C28.0659 22.9297 28.1717 23.0368 28.2973 23.0368L28.5288 23.0368L28.5288 23.2712C28.5288 23.3985 28.6346 23.5057 28.7602 23.5057C28.8858 23.5057 28.9916 23.3985 28.9916 23.2712L28.9916 23.0368L29.2231 23.0368C29.3487 23.0368 29.4545 22.9297 29.4545 22.8024C29.4545 22.6751 29.3487 22.568 29.2231 22.568Z" fill="#FBD20A"/>
<path d="M33.9594 42.8028L33.4395 42.7106C31.7168 42.4053 30.5415 40.5948 30.8143 38.6668C31.0872 36.7389 32.7049 35.4235 34.4276 35.7288L34.9474 35.821C36.6701 36.1264 37.8454 37.9368 37.5726 39.8648C37.2997 41.7927 35.682 43.1081 33.9594 42.8028Z" fill="#A56644"/>
</svg>
