<svg width="185" height="161" viewBox="0 0 185 161" fill="none" xmlns="http://www.w3.org/2000/svg">
<g clip-path="url(#clip0_4173_2485)">
<g clip-path="url(#clip1_4173_2485)">
<path d="M86.16 183.363C84.4056 183.643 82.7751 183.925 81.1393 184.164C76.9391 184.776 72.7371 185.361 68.4939 185.585C66.6019 185.686 64.7099 185.803 62.8179 185.999C60.2998 186.264 57.7852 186.16 55.2688 186.027C52.2365 185.869 49.1955 185.792 46.1769 185.495C41.9904 185.082 37.8211 184.507 33.6467 183.979C32.3894 183.819 31.1407 183.583 29.7836 183.365C29.6632 184.338 29.56 185.225 29.4396 186.111C28.9477 189.73 28.0292 193.224 26.4382 196.518C25.4922 198.475 24.3381 200.292 22.7797 201.814C22.2652 202.33 21.7088 202.802 21.1165 203.224C17.8915 205.463 14.5805 205.595 11.2059 203.572C9.14186 202.329 7.59386 200.553 6.2987 198.545C4.01798 195.016 2.6867 191.106 1.88518 186.998C0.939183 182.164 1.41218 171.364 1.38982 170.842C1.29178 168.505 1.0957 166.17 1.0957 163.835C1.0957 159.402 1.17654 154.961 1.2677 150.535C1.39326 144.532 1.5687 138.529 1.70802 132.526C1.76822 129.916 1.83874 127.29 1.81294 124.671C1.76478 119.679 1.64094 114.689 1.5687 109.697C1.5194 106.03 1.49417 102.363 1.49302 98.6967C1.49302 92.0968 1.48098 85.497 1.52226 78.8972C1.54806 74.709 1.69426 70.5191 1.7149 66.3309C1.7149 64.7649 1.51366 63.1989 1.47238 61.6329C1.30038 55.0383 2.16038 48.609 4.56838 42.4442C5.57974 39.8673 6.88178 37.4521 8.66714 35.3276C9.63201 34.1303 10.7926 33.1092 12.0985 32.3087C15.1945 30.4817 18.2665 30.5687 21.2679 32.554C22.8245 33.5824 24.0388 34.9605 25.0811 36.5004C27.1176 39.5088 28.3285 42.874 29.2091 46.3818C29.2762 46.6515 29.3381 46.9247 29.4086 47.1944C29.4473 47.2932 29.4927 47.3891 29.5445 47.4815C48.3064 43.4583 67.694 43.4624 86.4541 47.4937C86.7981 46.2374 87.0974 45.0577 87.45 43.8971C88.267 41.214 89.3781 38.6667 90.976 36.3542C91.9046 34.9613 93.0616 33.739 94.3971 32.7402C97.4312 30.5426 100.94 30.426 104.096 32.4531C106.365 33.913 108.001 35.9731 109.359 38.2752C111.291 41.5446 112.486 45.1029 113.315 48.7969C114.11 52.4116 114.514 56.103 114.519 59.8059C114.531 61.6173 114.328 63.4286 114.251 65.2417C114.213 66.1117 114.227 66.9817 114.237 67.8517C114.29 72.5636 114.347 77.2761 114.409 81.9892C114.433 83.8388 114.497 85.6884 114.506 87.538C114.506 88.9683 114.445 90.4003 114.439 91.8306C114.39 100.352 114.346 108.873 114.304 117.393C114.277 122.246 114.182 127.099 114.217 131.95C114.249 136.557 114.406 141.163 114.523 145.771C114.59 148.457 114.695 151.144 114.765 153.832C114.832 156.442 114.92 159.068 114.915 161.685C114.915 163.498 114.743 165.311 114.695 167.124C114.633 169.32 114.502 171.507 114.695 173.713C115.345 180.986 114.564 188.075 111.638 194.823C110.366 197.76 108.678 200.428 106.205 202.507C104.803 203.685 103.234 204.517 101.418 204.852C99.576 205.2 97.8491 204.852 96.1945 204.041C94.3558 203.14 92.9162 201.745 91.6881 200.128C89.9251 197.797 88.7538 195.162 87.88 192.385C87.1205 189.951 86.6132 187.444 86.3664 184.903C86.3183 184.423 86.2391 183.946 86.16 183.363Z" fill="#462E25"/>
<path d="M114.693 167.129C114.745 165.316 114.911 163.503 114.913 161.69C114.913 159.08 114.831 156.454 114.764 153.837C114.693 151.149 114.592 148.462 114.521 145.776C114.507 145.226 114.492 144.674 114.478 144.125C112.049 144.311 109.626 144.549 107.202 144.781C103.029 145.177 98.8535 145.576 94.6774 145.978C94.9518 141.865 96.0496 137.852 97.9041 134.182C98.9636 132.056 100.106 129.957 101.876 128.351C105.465 125.096 109.545 122.77 114.26 121.717C114.276 120.276 114.288 118.837 114.297 117.398L114.308 115.415C112.448 115.589 110.575 115.679 108.747 116.013C101.65 117.313 95.8762 120.814 91.6846 126.831C88.2773 131.722 86.5796 137.236 86.0086 143.128C85.8916 144.333 85.8366 145.543 85.7867 146.754C84.7771 146.837 83.7691 146.928 82.7647 147.053C81.5486 147.197 80.3309 147.309 79.1131 147.401C76.4437 147.599 73.7691 147.699 71.0945 147.813C68.4199 147.928 65.7814 147.963 63.1274 148.092C58.3716 148.323 53.621 148.675 48.8617 148.833C44.3261 148.984 39.787 149.106 35.2497 148.873C34.5445 148.836 33.8393 148.793 33.1341 148.737C31.3246 148.598 29.5117 148.48 27.7006 148.356C27.6369 146.616 27.5871 144.864 27.4219 143.136C26.8578 137.245 25.1601 131.731 21.7459 126.839C17.5526 120.822 11.7803 117.322 4.68353 116.022C3.68249 115.839 2.66941 115.728 1.65289 115.637C1.69417 117.91 1.73201 120.182 1.76641 122.453C5.40765 123.688 8.64641 125.717 11.5584 128.369C13.33 129.975 14.4703 132.073 15.5316 134.2C17.4094 137.902 18.5164 141.954 18.7841 146.106C18.8133 146.592 18.8477 147.076 18.8839 147.558C15.4318 147.161 11.9849 146.688 8.52773 146.35C6.15069 146.112 3.76161 145.986 1.37425 145.845C1.33641 147.407 1.30087 148.968 1.26761 150.529C1.17473 154.963 1.09561 159.403 1.09561 163.83C1.09561 166.165 0.939093 182.159 1.88509 186.993C2.17525 188.492 2.55025 189.973 3.00825 191.428C7.50777 191.39 16.8783 191.369 28.3697 191.362C28.8492 189.639 29.2095 187.884 29.4481 186.111C29.5668 185.225 29.67 184.338 29.7921 183.365C31.1492 183.583 32.3979 183.819 33.6552 183.979C37.8297 184.501 41.9989 185.082 46.1854 185.495C49.204 185.792 52.245 185.869 55.2773 186.027C57.7937 186.159 60.3083 186.264 62.8264 185.999C64.7184 185.803 66.6104 185.686 68.5024 185.585C72.7457 185.361 76.9476 184.776 81.1479 184.164C82.7836 183.925 84.4159 183.642 86.1685 183.363C86.2477 183.944 86.3268 184.423 86.3749 184.903C86.5882 187.111 86.9975 189.295 87.5979 191.428C99.4521 191.461 108.917 191.505 112.882 191.557C114.774 185.805 115.24 179.828 114.693 173.72C114.5 171.512 114.631 169.33 114.693 167.129Z" fill="#E57211"/>
<path d="M86.2529 99.2443C86.1902 104.313 85.31 109.338 83.6471 114.12C82.1593 118.428 79.569 122.019 76.3474 125.163C75.5287 125.962 74.6721 126.729 73.7863 127.446C71.4317 129.36 68.6263 130.187 65.7453 130.846C62.7543 131.532 59.7013 131.774 56.6999 131.224C52.7679 130.503 48.8326 129.621 45.6385 126.898C41.5965 123.448 38.2666 119.449 36.3849 114.37C35.2126 111.16 34.4087 107.824 33.989 104.428C33.6261 101.618 33.4248 98.8058 33.7275 95.9731C34.0193 93.0823 34.9214 90.2887 36.3729 87.7812C37.5769 85.7088 39.2969 84.3099 41.5019 83.4312C43.8601 82.4829 46.3179 81.94 48.8154 81.6268C51.244 81.324 53.6795 81.0474 56.1185 80.8508C57.1746 80.7655 58.2496 80.9134 59.3177 80.9534C61.3817 81.03 63.456 81.0248 65.5097 81.197C69.7031 81.545 73.8809 82.0044 77.8937 83.459C80.4737 84.4004 82.4397 86.0133 83.7589 88.4633C85.5701 91.8319 86.3423 95.4302 86.2529 99.2443Z" fill="white"/>
<path d="M14.231 151.68C13.7632 151.68 11.4171 156.047 10.9166 158.276C10.7944 158.924 10.7683 159.588 10.8392 160.244C10.8977 160.99 11.2916 161.549 12.0621 161.742C13.3642 162.067 14.7986 161.502 15.4178 160.294C15.7618 159.633 16.1867 158.38 15.7928 156.557C15.4815 155.134 14.6989 151.68 14.231 151.68Z" fill="#FFB311"/>
<path d="M44.2659 159.789C44.5462 158.232 42.9879 153.604 42.441 153.675C41.894 153.746 40.229 156.765 39.7509 157.801C39.5448 158.279 39.4282 158.792 39.4069 159.313C39.3226 160.717 40.3064 161.721 41.6738 161.7C42.7918 161.674 43.7843 160.978 44.2659 159.789Z" fill="#FFB311"/>
<path d="M69.2007 157.087C69.1215 155.504 67.5787 152.521 67.1745 152.521C66.7703 152.521 65.052 155.629 64.8972 157.099C64.8852 158.384 65.3221 159.187 66.1012 159.473C67.0128 159.809 67.8023 159.502 68.4783 158.876C68.7246 158.653 68.9176 158.375 69.0428 158.066C69.1679 157.756 69.2219 157.421 69.2007 157.087Z" fill="#FFB311"/>
<path d="M108.257 156.483C108.502 156.26 108.695 155.983 108.819 155.674C108.944 155.364 108.997 155.03 108.975 154.696C108.898 153.111 107.354 150.129 106.951 150.129C106.549 150.129 104.835 153.238 104.672 154.714C104.662 156 105.097 156.802 105.876 157.087C106.791 157.416 107.579 157.11 108.257 156.483Z" fill="#FFB311"/>
<path d="M91.9649 156.243C91.9907 154.79 90.4478 151.197 90.1657 151.197C89.8837 151.197 88.6177 154.202 88.2462 155.394C88.068 155.994 88.0234 156.626 88.1155 157.246C88.2772 158.34 89.2524 158.858 90.2913 158.519C90.7787 158.379 91.2067 158.079 91.5092 157.668C91.8117 157.257 91.9718 156.756 91.9649 156.243Z" fill="#FFB311"/>
<path d="M48.8738 148.831C53.633 148.672 58.3837 148.321 63.1395 148.09C65.7934 147.961 68.4526 147.924 71.1065 147.811C73.7605 147.698 76.4557 147.597 79.1252 147.399C77.8902 144.324 76.1169 141.619 73.4715 139.569C70.2637 137.095 66.5915 135.77 62.6183 135.278C56.1649 134.474 50.0623 135.736 44.259 138.633C41.8232 139.817 39.6778 141.533 37.9776 143.658C36.766 145.211 35.8456 146.975 35.2617 148.864C39.7991 149.104 44.3382 148.982 48.8738 148.831Z" fill="white"/>
<path d="M51.7356 56.8218C51.7803 56.4199 51.7975 56.0144 51.8698 55.6177C52.1415 54.1474 52.3651 52.6597 52.7384 51.219C52.9486 50.5206 53.2915 49.8704 53.748 49.305C54.6338 48.1549 56.0907 48.0104 57.2551 48.8735C58.0488 49.4508 58.6336 50.2753 58.92 51.2207C59.2898 52.4492 59.5289 53.7176 59.8007 54.9739C59.8884 55.3741 59.9004 55.79 60.0965 56.2128C60.2599 55.5899 60.3872 54.9565 60.5936 54.3493C60.9357 53.2545 61.3377 52.1799 61.7976 51.1303C62.116 50.473 62.5469 49.878 63.0704 49.3729C64.2486 48.2158 65.7244 48.3671 66.7512 49.6721C67.3795 50.4681 67.7517 51.4397 67.8176 52.4561C67.8984 53.6341 67.8916 54.8208 67.8916 56.0023C67.8916 56.5243 67.8107 57.0463 67.8812 57.61C67.9965 57.3873 68.11 57.1628 68.2252 56.9436C68.9132 55.6612 69.529 54.3145 70.3494 53.1156C71.0176 52.1439 71.8251 51.2783 72.7454 50.5474C74.2642 49.3502 75.9171 49.6774 77.0884 51.2155C77.7592 52.0994 78.0585 53.1295 78.2012 54.217C78.473 56.2946 78.2202 58.3234 77.6732 60.3279C76.6437 64.1757 74.9983 67.827 72.8022 71.1368C70.9334 73.9218 68.5017 76.2739 65.6676 78.0376C61.7357 80.5154 57.7126 80.15 53.76 78.0498C49.46 75.7704 46.3933 72.2504 44.018 68.0431C41.7218 63.9749 40.6915 59.5501 40.578 54.9217C40.5143 52.2804 42.1518 49.9505 44.2725 49.4581C46.2677 48.997 47.9585 49.5051 49.3001 51.0833C50.1979 52.1395 50.6675 53.4166 51.0321 54.7373C51.2368 55.4246 51.6788 56.8201 51.7356 56.8218Z" fill="#6B4633"/>
<path d="M21.3639 51.4363L9.19317 55.1373C8.80617 54.8032 9.59393 49.129 10.5984 46.914C11.2864 45.3898 12.2909 44.1196 13.7271 43.2426C15.9803 41.8663 18.0271 42.3831 19.3653 44.6642C20.1117 45.9396 20.5366 47.3403 20.8445 48.7776C21.0371 49.6545 21.1919 50.5402 21.3639 51.4363Z" fill="#6B4633"/>
<path d="M22.1948 93.2815C19.6251 93.2815 17.7521 91.4771 17.4511 88.8723C17.1862 86.579 18.6654 84.1882 20.8257 83.4261C21.6752 83.1165 22.598 83.0777 23.4699 83.3151C24.3418 83.5525 25.1208 84.0546 25.7019 84.7537C28.189 87.7117 26.5086 92.5089 22.7349 93.2136C22.4975 93.2571 22.2567 93.2728 22.1948 93.2815Z" fill="#BA621C"/>
<path d="M32.4874 78.2652C32.5132 76.9898 33.5194 75.9667 34.7079 76.0206C35.2291 76.0533 35.7174 76.2891 36.0703 76.6785C36.4231 77.0679 36.613 77.5805 36.5999 78.1086C36.6054 78.4031 36.5529 78.6957 36.4455 78.9695C36.3381 79.2432 36.1779 79.4926 35.9743 79.7031C35.7707 79.9136 35.5277 80.0811 35.2595 80.1957C34.9913 80.3103 34.7032 80.3697 34.4121 80.3706C33.2683 80.3619 32.4616 79.4762 32.4874 78.2652Z" fill="white"/>
<path d="M94.6362 51.4363L106.807 55.1373C107.196 54.8032 106.406 49.129 105.402 46.914C104.714 45.3898 103.709 44.1196 102.273 43.2426C100.02 41.8663 97.973 42.3831 96.6349 44.6642C95.8884 45.9396 95.4653 47.3403 95.1574 48.7776C94.9596 49.6545 94.8082 50.5402 94.6362 51.4363Z" fill="#6B4633"/>
<path d="M93.2324 93.2815C95.8021 93.2815 97.6752 91.4771 97.9762 88.8723C98.2411 86.579 96.7619 84.1882 94.6016 83.4261C93.7521 83.1165 92.8292 83.0777 91.9573 83.3151C91.0854 83.5525 90.3064 84.0546 89.7254 84.7537C87.2382 87.7117 88.9187 92.5089 92.6924 93.2136C92.9297 93.2571 93.1705 93.2728 93.2324 93.2815Z" fill="#BA621C"/>
<path d="M82.9398 78.2652C82.914 76.9898 81.9078 75.9667 80.7193 76.0206C80.1981 76.0533 79.7098 76.2891 79.357 76.6785C79.0041 77.0679 78.8143 77.5805 78.8273 78.1086C78.8218 78.4031 78.8743 78.6957 78.9817 78.9695C79.0891 79.2432 79.2493 79.4926 79.4529 79.7031C79.6565 79.9136 79.8995 80.0811 80.1677 80.1957C80.4359 80.3103 80.724 80.3697 81.0151 80.3706C82.1589 80.3619 82.9656 79.4762 82.9398 78.2652Z" fill="white"/>
<path d="M72.6201 86.2469C72.2431 85.7913 71.8007 85.3954 71.3077 85.0724C70.3457 84.4634 69.3395 83.9288 68.2977 83.4734C65.6472 82.3737 62.8436 82.017 60.0039 81.8917C57.7982 81.7897 55.5881 81.9368 53.4146 82.3302C51.1958 82.7165 49.044 83.3376 47.0506 84.4182C45.795 85.1037 44.6426 85.9302 43.8445 87.1639C42.8727 88.6603 42.8985 90.2959 43.9202 91.7645C44.5356 92.6107 45.3152 93.3212 46.2112 93.8525C47.4832 94.6255 48.8575 95.2114 50.2928 95.5925C52.6014 96.2366 54.9812 96.5839 57.3757 96.626C57.3757 96.6852 57.3757 96.7426 57.3757 96.8C57.3436 99.584 57.3155 102.373 57.2914 105.168C57.2433 110.396 57.1963 115.625 57.1504 120.856C57.1504 120.965 57.1504 121.068 57.159 121.163C55.1978 121.091 53.2781 120.571 51.5432 119.643C51.3948 119.554 51.2415 119.475 51.084 119.404C50.9058 119.33 50.707 119.323 50.5241 119.384C50.3412 119.446 50.1864 119.572 50.0881 119.74C49.9698 119.894 49.9136 120.087 49.9308 120.281C49.9481 120.475 50.0375 120.655 50.181 120.784C50.461 121.042 50.7754 121.259 51.1149 121.428C53.019 122.425 55.0709 122.848 57.202 122.994C58.234 122.919 59.266 122.898 60.298 122.754C61.9509 122.522 63.5368 122.047 64.9523 121.115C65.5199 120.739 65.6782 120.236 65.4288 119.794C65.1794 119.352 64.6874 119.272 64.0682 119.587C63.578 119.841 63.1085 120.163 62.5908 120.335C61.3865 120.744 60.14 121.011 58.8756 121.132C58.8756 121.076 58.8756 121.017 58.8756 120.958C58.926 116.914 58.9707 112.871 59.0097 108.827H58.9994C59.0338 104.818 59.0676 100.808 59.1009 96.7983C59.1009 96.7426 59.1009 96.6869 59.1009 96.6243C60.157 96.586 61.217 96.4973 62.2812 96.3581C64.7201 96.0379 67.0972 95.4498 69.3194 94.3623C70.5716 93.7515 71.7274 92.9946 72.6424 91.9141C74.2025 90.0854 74.2025 88.0409 72.6201 86.2469Z" fill="#1D2424"/>
</g>
<path fill-rule="evenodd" clip-rule="evenodd" d="M169.012 73.1884H159.885C158.469 73.1884 157.105 73.7172 156.082 74.6632L146.828 83.2227C145.953 84.0332 144.501 83.4327 144.501 82.2635V75.8458C144.501 74.3789 143.269 73.1884 141.751 73.1884C139.001 73.1884 134.541 73.3639 133.617 68.9765C132.605 64.156 138.355 60.619 142.403 63.7308C136.76 45.7696 165.275 39.5459 168.976 57.2707C169.023 57.2707 169.067 57.2627 169.114 57.2573C169.158 57.2494 169.205 57.2442 169.251 57.2442C179.894 57.2442 180.491 73.1884 169.012 73.1884ZM173.228 52.5591C173.211 52.5565 173.2 52.5485 173.189 52.5406C173.178 52.5299 173.17 52.5192 173.165 52.506C170.189 45.8838 163.38 41.2998 155.501 41.2998C145.711 41.2998 137.648 48.3658 136.427 57.5019C136.425 57.5231 136.416 57.5418 136.403 57.555C136.389 57.571 136.37 57.5816 136.35 57.5869C131.112 58.8439 127.347 63.6936 128.095 69.2874C128.716 73.9272 132.66 77.6103 137.761 78.3411C138.46 78.4394 139.001 78.9762 139.001 79.6592V85.3752C139.001 90.108 144.925 92.481 148.39 89.1327L158.584 79.2818C159.101 78.7822 159.8 78.5033 160.528 78.5033H168.619C175.868 78.5033 182.336 73.3532 182.949 66.3723C183.513 59.968 179.322 54.3502 173.228 52.5591Z" fill="#BDE3EB"/>
<path d="M166.833 65.9429L167.627 61.6931C167.826 60.6316 166.943 59.6608 165.78 59.6608H159.943C159.365 59.6608 158.925 59.1807 159.018 58.6522L159.765 54.4391C159.886 53.7547 159.851 53.0543 159.663 52.383C159.507 51.8269 159.043 51.3803 158.433 51.1991L158.269 51.1505C157.901 51.041 157.498 51.0665 157.151 51.2214C156.768 51.3919 156.488 51.703 156.384 52.073L155.848 53.9832C155.678 54.591 155.429 55.1777 155.109 55.7321C154.641 56.542 153.918 57.1902 153.166 57.7894L151.545 59.0809C151.089 59.4451 150.849 59.9904 150.901 60.5464L151.815 70.3305C151.899 71.2279 152.711 71.9168 153.684 71.9168H158.92C162.841 71.9168 166.188 69.3902 166.833 65.9429Z" fill="#7B9DE8"/>
<path fill-rule="evenodd" clip-rule="evenodd" d="M147.343 58.8806C147.795 58.8626 148.182 59.177 148.221 59.5939L149.316 71.2986C149.386 72.0504 148.745 72.6985 147.928 72.6985C147.157 72.6985 146.535 72.1205 146.535 71.4096V59.6612C146.535 59.2428 146.891 58.8987 147.343 58.8806Z" fill="#7B9DE8"/>
<path d="M88.5743 93.3027H161.481C163.453 93.3027 165.052 95.1179 165.052 97.3581C165.052 97.6365 165.026 97.915 164.976 98.1882L154.131 157.079C153.785 158.958 152.326 160.304 150.635 160.304H77.7291C75.757 160.304 74.1577 158.488 74.1577 156.248C74.1577 155.969 74.1833 155.691 74.2333 155.418L85.0785 96.528C85.4247 94.6488 86.8837 93.3027 88.5743 93.3027Z" fill="white"/>
<path d="M81.0153 135.244H154.539C155.225 135.244 155.781 135.876 155.781 136.655C155.781 136.769 155.769 136.883 155.745 136.993L151.514 156.411C151.376 157.041 150.879 157.483 150.308 157.483H76.7836C76.0977 157.483 75.5415 156.851 75.5415 156.072C75.5415 155.958 75.5537 155.844 75.5781 155.733L79.8093 136.316C79.9466 135.686 80.444 135.244 81.0153 135.244Z" fill="#BDFD6C"/>
<path d="M161.481 93.3027H88.5412L88.4283 93.3054L88.3952 93.3074C87.6319 93.3509 86.9076 93.6703 86.3223 94.2107C85.69 94.794 85.2478 95.6089 85.0785 96.528L74.2264 155.456L74.2054 155.585L74.2002 155.624C74.1723 155.83 74.1577 156.039 74.1577 156.248C74.1577 157.336 74.5399 158.362 75.2037 159.116C75.8675 159.87 76.7716 160.304 77.7291 160.304H150.668L150.781 160.301L150.815 160.299C151.577 160.255 152.302 159.936 152.887 159.396C153.52 158.813 153.962 157.998 154.131 157.079L164.983 98.1499L165.004 98.0206L165.009 97.9823C165.038 97.7758 165.052 97.5666 165.052 97.3581C165.052 96.27 164.67 95.244 164.006 94.4904C163.342 93.7362 162.438 93.3027 161.481 93.3027ZM159.378 99.2973L149.247 154.309H79.8311L89.9618 99.2973H159.378Z" fill="#777777"/>
<path d="M126.489 140.909H144.122C144.808 140.909 145.365 141.54 145.365 142.319C145.365 142.428 145.353 142.537 145.331 142.642L144.673 145.816C144.541 146.453 144.041 146.903 143.465 146.903H125.831C125.146 146.903 124.589 146.272 124.589 145.493C124.589 145.384 124.6 145.275 124.622 145.17L125.28 141.996C125.412 141.359 125.912 140.909 126.489 140.909Z" fill="#89E219"/>
<path d="M139.781 111.816H122.146C121.35 111.816 120.66 112.439 120.481 113.32L120.123 115.083C120.094 115.226 120.079 115.372 120.079 115.519C120.079 116.59 120.844 117.458 121.787 117.458H139.423C140.218 117.458 140.908 116.835 141.087 115.955L141.445 114.192C141.475 114.049 141.489 113.902 141.489 113.756C141.489 112.684 140.725 111.816 139.781 111.816ZM122.146 112.874H139.781C140.21 112.874 140.558 113.269 140.558 113.756C140.558 113.822 140.551 113.888 140.538 113.954L140.18 115.717C140.098 116.117 139.785 116.4 139.423 116.4H121.787C121.358 116.4 121.011 116.006 121.011 115.519C121.011 115.452 121.017 115.386 121.031 115.32L121.389 113.557C121.47 113.157 121.784 112.874 122.146 112.874Z" fill="#D8D8D8"/>
<path d="M136.987 125.216H119.351C118.555 125.216 117.865 125.839 117.687 126.719L117.328 128.482C117.299 128.626 117.285 128.772 117.285 128.919C117.285 129.99 118.049 130.858 118.992 130.858H136.628C137.423 130.858 138.113 130.235 138.293 129.355L138.65 127.592C138.68 127.449 138.695 127.302 138.695 127.156C138.695 126.085 137.93 125.216 136.987 125.216ZM119.351 126.274H136.987C137.415 126.274 137.763 126.669 137.763 127.156C137.763 127.222 137.756 127.289 137.743 127.354L137.385 129.117C137.303 129.517 136.989 129.8 136.628 129.8H118.992C118.563 129.8 118.216 129.406 118.216 128.919C118.216 128.852 118.222 128.785 118.236 128.721L118.594 126.957C118.676 126.557 118.989 126.274 119.351 126.274Z" fill="#D8D8D8"/>
<path d="M138.229 118.516H120.593C119.797 118.516 119.107 119.139 118.929 120.019L118.57 121.782C118.541 121.926 118.527 122.071 118.527 122.219C118.527 123.29 119.291 124.158 120.235 124.158H137.87C138.666 124.158 139.356 123.534 139.535 122.655L139.893 120.892C139.922 120.749 139.937 120.602 139.937 120.456C139.937 119.384 139.172 118.516 138.229 118.516ZM120.593 119.574H138.229C138.658 119.574 139.005 119.969 139.005 120.456C139.005 120.522 138.998 120.589 138.985 120.653L138.627 122.417C138.546 122.816 138.232 123.1 137.87 123.1H120.235C119.806 123.1 119.458 122.706 119.458 122.219C119.458 122.152 119.465 122.085 119.478 122.02L119.836 120.257C119.918 119.857 120.231 119.574 120.593 119.574Z" fill="#47D7FF"/>
<path d="M116.531 112.169H101.986C101.175 112.169 100.476 112.818 100.313 113.72L97.7145 128.179C97.6918 128.306 97.6802 128.436 97.6802 128.567C97.6802 129.637 98.4446 130.506 99.3882 130.506H113.932C114.744 130.506 115.444 129.857 115.606 128.954L118.204 114.496C118.227 114.368 118.239 114.238 118.239 114.108C118.239 113.037 117.474 112.169 116.531 112.169ZM101.986 113.227H116.531C116.96 113.227 117.307 113.621 117.307 114.108C117.307 114.168 117.302 114.226 117.291 114.284L114.693 128.743C114.619 129.153 114.301 129.448 113.932 129.448H99.3882C98.9595 129.448 98.6116 129.053 98.6116 128.567C98.6116 128.507 98.6168 128.448 98.6273 128.39L101.226 113.932C101.299 113.522 101.618 113.227 101.986 113.227Z" fill="#D8D8D8"/>
<path d="M99.1093 143.906C99.1093 140.498 96.6758 137.735 93.6745 137.735C90.6732 137.735 88.2402 140.498 88.2402 143.906C88.2402 147.314 90.6732 150.077 93.6745 150.077C96.6758 150.077 99.1093 147.314 99.1093 143.906Z" fill="white"/>
<path d="M161.795 92.9497H88.3493L88.2678 92.951C87.4609 92.9748 86.7047 93.2968 86.0961 93.859C85.4632 94.4429 85.0216 95.2572 84.8529 96.1783L73.9193 155.774L73.8989 155.892C73.8617 156.138 73.8442 156.369 73.8442 156.601C73.8442 157.69 74.2253 158.714 74.8902 159.468C75.5546 160.223 76.4563 160.656 77.4151 160.656H150.861L150.942 160.655C151.749 160.631 152.505 160.309 153.114 159.748C153.747 159.163 154.188 158.349 154.357 157.428L165.291 97.8325L165.311 97.7137C165.348 97.4676 165.366 97.2367 165.366 97.0051C165.366 95.9157 164.985 94.8923 164.32 94.1374C163.655 93.3826 162.754 92.9497 161.795 92.9497ZM88.3609 95.0658H161.795C162.254 95.0658 162.684 95.2717 163.003 95.6339C163.321 95.9955 163.503 96.4831 163.503 97.0051C163.503 97.1159 163.494 97.2261 163.478 97.3356L163.464 97.4188L152.533 156.997C152.452 157.437 152.242 157.825 151.939 158.106C151.647 158.375 151.287 158.528 150.906 158.539L150.849 158.541H77.4151C76.9555 158.541 76.5262 158.334 76.2074 157.973C75.8885 157.61 75.707 157.123 75.707 156.601C75.707 156.49 75.7158 156.38 75.7321 156.27L75.7466 156.188L86.6767 96.6098C86.7576 96.1684 86.9682 95.7804 87.2713 95.5006C87.5627 95.2314 87.924 95.0777 88.3039 95.0665L88.3609 95.0658Z" fill="#AFAFAF"/>
<path d="M49.8877 152.545H153.765V156.601C153.765 158.84 152.166 160.656 150.194 160.656H49.8877C47.9153 160.656 46.3164 158.84 46.3164 156.601C46.3164 154.361 47.9153 152.545 49.8877 152.545Z" fill="#AFAFAF"/>
<path d="M95.5566 142.095C95.8836 141.781 96.374 141.827 96.6509 142.199C96.9191 142.558 96.8894 143.092 96.5898 143.411L96.5596 143.441L93.1179 146.75C92.8037 147.052 92.3383 147.021 92.0561 146.687L92.0294 146.653L90.4528 144.585C90.1724 144.216 90.2079 143.66 90.5319 143.341C90.8461 143.032 91.3167 143.06 91.6006 143.398L91.6268 143.431L92.7007 144.84L95.5566 142.095Z" fill="#89E219"/>
<path d="M113.522 140.027C113.951 140.027 114.298 140.422 114.298 140.909C114.298 141.381 113.97 141.767 113.558 141.789L113.522 141.79H101.594C101.165 141.79 100.817 141.396 100.817 140.909C100.817 140.436 101.145 140.05 101.557 140.028L101.594 140.027H113.522Z" fill="#89E219"/>
<path d="M107.804 143.553C108.233 143.553 108.58 143.948 108.58 144.435C108.58 144.908 108.253 145.294 107.841 145.316L107.804 145.316H101.594C101.165 145.316 100.817 144.922 100.817 144.435C100.817 143.962 101.145 143.576 101.557 143.555L101.594 143.553H107.804Z" fill="#89E219"/>
<path d="M151.591 102.359C152.02 102.359 152.367 102.753 152.367 103.24C152.367 103.714 152.039 104.1 151.628 104.121L151.591 104.122H97.5559C97.1271 104.122 96.7798 103.727 96.7798 103.24C96.7798 102.767 97.1079 102.381 97.5198 102.36L97.5559 102.359H151.591Z" fill="#D8D8D8"/>
<path d="M114.326 102.359C114.754 102.359 115.102 102.753 115.102 103.24C115.102 103.714 114.774 104.1 114.362 104.121L114.326 104.122H97.5559C97.1271 104.122 96.7798 103.727 96.7798 103.24C96.7798 102.767 97.1079 102.381 97.5198 102.36L97.5559 102.359H114.326Z" fill="#58CC02"/>
<path d="M108.477 116.825C108.527 116.538 108.773 116.353 109.025 116.411C109.268 116.466 109.428 116.726 109.395 117.001L109.39 117.034L108.106 124.263C108.054 124.549 107.809 124.735 107.556 124.677C107.314 124.621 107.154 124.361 107.187 124.087L107.192 124.054L108.477 116.825Z" fill="#979797"/>
<path d="M110.903 118.869C111.16 118.869 111.368 119.106 111.368 119.397C111.368 119.679 111.175 119.909 110.931 119.926L110.903 119.926H108.623C108.366 119.926 108.157 119.689 108.157 119.397C108.157 119.116 108.35 118.886 108.594 118.869L108.623 118.869H110.903Z" fill="#979797"/>
<path d="M103.942 123.188C103.907 123.305 103.882 123.426 103.867 123.549C103.73 124.653 104.408 125.675 105.38 125.83L105.991 125.927C107.1 126.094 108.115 125.211 108.261 123.957L108.425 122.548L106.528 121.768C106.513 121.762 106.498 121.756 106.483 121.751C105.432 121.351 104.294 121.994 103.942 123.188ZM106.187 122.753L106.211 122.763L107.403 123.253L107.337 123.818C107.259 124.493 106.712 124.969 106.117 124.879L105.51 124.782C105.047 124.709 104.724 124.222 104.789 123.696C104.796 123.638 104.809 123.58 104.825 123.524C105.013 122.884 105.624 122.539 106.187 122.753Z" fill="#979797"/>
<path d="M110.498 124.358C110.369 124.61 110.084 124.696 109.861 124.549C109.032 124.002 108.164 123.554 107.255 123.202C107.012 123.108 106.882 122.807 106.964 122.531C107.047 122.254 107.312 122.106 107.555 122.201C108.523 122.574 109.447 123.052 110.33 123.635C110.552 123.781 110.628 124.105 110.498 124.358Z" fill="#979797"/>
<path d="M124.339 49.6978C125.388 48.665 126.976 48.7935 127.886 49.9848C128.782 51.1594 128.685 52.929 127.676 53.9683L127.633 54.0118L126.111 55.5097C123.376 58.2018 119.517 58.8458 116.219 57.1691L116.12 57.117C114.723 56.3846 113.075 56.7158 111.985 57.9405L111.936 57.9959L110.315 59.8857C109.346 61.0153 107.754 61.0384 106.76 59.9385C105.779 58.8537 105.745 57.0801 106.674 55.9484L106.714 55.9016L108.335 54.0118C110.886 51.0386 114.797 50.1927 118.127 51.8819L118.228 51.934C119.73 52.7225 121.496 52.4533 122.762 51.2504L122.817 51.1956L124.339 49.6978Z" fill="#FF7878"/>
<path d="M92.0112 25.3635C92.2503 23.8105 93.5529 22.7716 94.9206 23.0431C96.2691 23.3109 97.1778 24.7529 96.9731 26.2821L96.9637 26.3468L96.3104 30.5923C95.2958 37.1793 90.9995 42.4867 85.3181 44.1956L85.1453 44.2464C81.4866 45.2943 78.8017 48.829 78.4189 53.0823L78.4085 53.2116L78.0181 58.1657C77.8948 59.7361 76.6731 60.8954 75.2902 60.7549C73.9266 60.6163 72.9149 59.2656 73.0057 57.7216L73.0103 57.6576L73.4001 52.7029C73.9248 46.0425 78.0635 40.4751 83.7426 38.7611L83.9154 38.7103C87.7213 37.6199 90.6162 34.1151 91.3364 29.7418L91.3573 29.609L92.0112 25.3635Z" fill="#CE82FF"/>
<path d="M178.916 113.985L176.72 111.492C176.143 110.836 175.207 110.836 174.629 111.492L172.433 113.985C171.856 114.641 171.856 115.704 172.433 116.36L174.629 118.854C175.207 119.51 176.143 119.51 176.72 118.854L178.916 116.36C179.494 115.704 179.494 114.641 178.916 113.985Z" fill="#47D7FF"/>
<path d="M181.577 39.1657L179.904 37.2659C179.384 36.6757 178.542 36.6757 178.022 37.2659L176.349 39.1657C175.829 39.7559 175.829 40.7128 176.349 41.303L178.022 43.2029C178.542 43.793 179.384 43.793 179.904 43.2029L181.577 41.303C182.097 40.7128 182.097 39.7559 181.577 39.1657Z" fill="#FFAADE"/>
<path d="M6.19377 113.891L4.52073 111.991C4.00098 111.401 3.1583 111.401 2.63855 111.991L0.965499 113.891C0.445747 114.481 0.445745 115.438 0.965494 116.028L2.63855 117.928C3.1583 118.518 4.00098 118.518 4.52073 117.928L6.19377 116.028C6.71351 115.438 6.71351 114.481 6.19377 113.891Z" fill="#CE82FF"/>
<path d="M106.589 40.9353L103.557 37.4918C102.979 36.836 102.043 36.8361 101.466 37.4918L98.4328 40.9353C97.8557 41.5911 97.8557 42.6543 98.4328 43.3101L101.466 46.7535C102.043 47.4093 102.979 47.4093 103.557 46.7535L106.589 43.3101C107.167 42.6543 107.167 41.5911 106.589 40.9353Z" fill="#FFB100"/>
</g>
<defs>
<clipPath id="clip0_4173_2485">
<rect width="185" height="161" fill="white"/>
</clipPath>
<clipPath id="clip1_4173_2485">
<rect width="172" height="174" fill="white" transform="translate(-28 31)"/>
</clipPath>
</defs>
</svg>
