<svg width="21" height="24" viewBox="0 0 21 24" fill="none" xmlns="http://www.w3.org/2000/svg">
<path d="M8.53125 0C8.00911 0 7.50835 0.237053 7.13913 0.65901C6.76992 1.08097 6.5625 1.65326 6.5625 2.25V3.75C6.5625 4.34674 6.76992 4.91903 7.13913 5.34099C7.50835 5.76295 8.00911 6 8.53125 6H12.4688C12.9909 6 13.4917 5.76295 13.8609 5.34099C14.2301 4.91903 14.4375 4.34674 14.4375 3.75V2.25C14.4375 1.65326 14.2301 1.08097 13.8609 0.65901C13.4917 0.237053 12.9909 0 12.4688 0L8.53125 0ZM12.4688 1.5C12.6428 1.5 12.8097 1.57902 12.9328 1.71967C13.0559 1.86032 13.125 2.05109 13.125 2.25V3.75C13.125 3.94891 13.0559 4.13968 12.9328 4.28033C12.8097 4.42098 12.6428 4.5 12.4688 4.5H8.53125C8.3572 4.5 8.19028 4.42098 8.06721 4.28033C7.94414 4.13968 7.875 3.94891 7.875 3.75V2.25C7.875 2.05109 7.94414 1.86032 8.06721 1.71967C8.19028 1.57902 8.3572 1.5 8.53125 1.5H12.4688Z" fill="white"/>
<path d="M5.25 2.25H3.9375C3.24131 2.25 2.57363 2.56607 2.08134 3.12868C1.58906 3.69129 1.3125 4.45435 1.3125 5.25V21C1.3125 21.7956 1.58906 22.5587 2.08134 23.1213C2.57363 23.6839 3.24131 24 3.9375 24H17.0625C17.7587 24 18.4264 23.6839 18.9187 23.1213C19.4109 22.5587 19.6875 21.7956 19.6875 21V5.25C19.6875 4.45435 19.4109 3.69129 18.9187 3.12868C18.4264 2.56607 17.7587 2.25 17.0625 2.25H15.75V3.75C15.75 4.24246 15.6651 4.73009 15.5002 5.18506C15.3353 5.64003 15.0936 6.05343 14.7889 6.40165C14.4843 6.74987 14.1225 7.02609 13.7244 7.21455C13.3263 7.403 12.8996 7.5 12.4688 7.5H8.53125C7.66101 7.5 6.82641 7.10491 6.21106 6.40165C5.5957 5.69839 5.25 4.74456 5.25 3.75V2.25ZM11.1562 11.25V13.5H13.125C13.299 13.5 13.466 13.579 13.589 13.7197C13.7121 13.8603 13.7812 14.0511 13.7812 14.25C13.7812 14.4489 13.7121 14.6397 13.589 14.7803C13.466 14.921 13.299 15 13.125 15H11.1562V17.25C11.1562 17.4489 11.0871 17.6397 10.964 17.7803C10.841 17.921 10.674 18 10.5 18C10.326 18 10.159 17.921 10.036 17.7803C9.91289 17.6397 9.84375 17.4489 9.84375 17.25V15H7.875C7.70095 15 7.53403 14.921 7.41096 14.7803C7.28789 14.6397 7.21875 14.4489 7.21875 14.25C7.21875 14.0511 7.28789 13.8603 7.41096 13.7197C7.53403 13.579 7.70095 13.5 7.875 13.5H9.84375V11.25C9.84375 11.0511 9.91289 10.8603 10.036 10.7197C10.159 10.579 10.326 10.5 10.5 10.5C10.674 10.5 10.841 10.579 10.964 10.7197C11.0871 10.8603 11.1562 11.0511 11.1562 11.25Z" fill="white"/>
</svg>
