<svg width="30" height="27" viewBox="0 0 30 27" fill="none" xmlns="http://www.w3.org/2000/svg">
<path d="M15 11.25C17.7614 11.25 20 9.23528 20 6.75C20 4.26472 17.7614 2.25 15 2.25C12.2386 2.25 10 4.26472 10 6.75C10 9.23528 12.2386 11.25 15 11.25Z" fill="white"/>
<path fill-rule="evenodd" clip-rule="evenodd" d="M20.625 24.75C18.5626 24.75 17.5314 24.75 16.8907 24.1733C16.25 23.5968 16.25 22.6686 16.25 20.8125C16.25 18.9564 16.25 18.0282 16.8907 17.4517C17.5314 16.875 18.5626 16.875 20.625 16.875C22.6874 16.875 23.7186 16.875 24.3593 17.4517C25 18.0282 25 18.9564 25 20.8125C25 22.6686 25 23.5968 24.3593 24.1733C23.7186 24.75 22.6874 24.75 20.625 24.75ZM21.3541 19.0625C21.3541 18.7001 21.0278 18.4062 20.625 18.4062C20.2223 18.4062 19.8959 18.7001 19.8959 19.0625V20.1563H18.6805C18.2779 20.1563 17.9514 20.45 17.9514 20.8125C17.9514 21.175 18.2779 21.4687 18.6805 21.4687H19.8959V22.5625C19.8959 22.9249 20.2223 23.2188 20.625 23.2188C21.0278 23.2188 21.3541 22.9249 21.3541 22.5625V21.4687H22.5695C22.9721 21.4687 23.2986 21.175 23.2986 20.8125C23.2986 20.45 22.9721 20.1563 22.5695 20.1563H21.3541V19.0625Z" fill="white"/>
<path d="M19.2684 15.1958C18.0058 14.8322 16.55 14.625 15 14.625C10.1675 14.625 6.25 16.6398 6.25 19.125C6.25 21.5332 9.92805 23.4995 14.5526 23.6193C14.5188 23.4772 14.4925 23.3361 14.4719 23.1976C14.3748 22.5477 14.3749 21.7536 14.375 20.9093V20.7158C14.3749 19.8714 14.3748 19.0773 14.4719 18.4274C14.5799 17.7041 14.8381 16.9125 15.5649 16.2584C16.2918 15.6043 17.1713 15.3719 17.9749 15.2746C18.3649 15.2274 18.8015 15.2057 19.2684 15.1958Z" fill="white"/>
</svg>
