<svg width="138" height="136" viewBox="0 0 138 136" fill="none" xmlns="http://www.w3.org/2000/svg">
<g clip-path="url(#clip0_4117_512)">
<path d="M131.606 95.1884C131.402 88.525 131.176 81.8637 130.994 75.2003C130.854 69.7668 130.616 64.3395 130.039 58.9305C129.775 56.1394 129.351 53.3641 128.768 50.6171C128.01 47.2415 126.816 44.0414 124.903 41.1064C122.205 36.9783 116.344 35.7545 112.022 38.3917C110.574 39.2982 109.345 40.4854 108.415 41.8754C106.374 44.8185 105.015 48.039 104.121 51.4513C104.046 51.7368 103.939 52.0162 103.829 52.3507C97.5701 50.891 91.2167 49.8227 84.8102 49.1526C75.5071 48.1825 66.1253 48.0957 56.8041 48.8936C49.4841 49.5271 42.2244 50.6813 35.0862 52.3467C34.9745 52.0162 34.8951 51.8266 34.85 51.6287C34.3797 49.6607 33.7022 47.7427 32.8277 45.9036C31.9238 43.9578 30.8719 42.0916 29.4034 40.468C27.6708 38.5508 25.5519 37.3087 22.8404 37.1088C19.0339 36.8294 15.9703 38.0144 13.9737 41.2186C12.5616 43.447 11.478 45.8489 10.7534 48.3572C9.58119 52.469 9.08956 56.6788 8.69882 60.8987C8.40255 64.0988 8.21792 67.3091 8.07193 70.5174C7.87442 74.8883 7.73487 79.2632 7.61679 83.6361C7.41713 91.1214 7.18742 98.6067 7.09081 106.094C6.9942 113.581 6.98346 121.071 7.01781 128.558C7.03928 133.345 7.2325 138.128 7.30764 142.915C7.36775 146.537 7.34628 150.164 7.41284 153.786C7.51804 159.425 7.72413 165.063 7.77995 170.715C7.83577 176.366 8.03758 181.989 8.88345 187.586C9.45667 191.363 10.3863 195.047 12.3721 198.396C14.4654 201.927 17.0481 205.012 20.8631 207.064C25.6098 209.62 30.3308 209.61 35.0325 207.113C38.3945 205.329 40.8463 202.751 41.7909 199.11C42.1601 197.578 42.4467 196.029 42.6497 194.47C42.7914 193.503 42.7956 192.518 42.8643 191.472C43.5084 191.472 44.0816 191.472 44.6527 191.472C49.3315 191.555 54.0095 191.641 58.6869 191.731C59.8741 191.751 76.8624 191.771 77.5988 191.755C83.1034 191.649 88.6087 191.555 94.1148 191.474C94.7589 191.461 95.4029 191.474 95.9568 191.474C96.2638 193.717 96.5021 195.789 96.8392 197.843C97.4188 201.378 99.3725 204.144 102.397 206.193C105.753 208.468 109.482 209.557 113.611 208.718C116.729 208.078 119.585 206.59 121.829 204.435C125.126 201.344 127.529 197.498 128.806 193.268C130.129 188.973 130.575 184.543 130.872 180.115C131.183 175.477 131.219 170.823 131.333 166.177C131.43 162.246 131.471 158.314 131.533 154.384C131.614 149.353 131.694 144.328 131.771 139.311C131.829 135.619 131.909 131.928 131.951 128.234C132.076 117.211 131.961 106.195 131.606 95.1884Z" fill="#E5A043"/>
<path d="M85 48C85 47.9715 84.9871 47.943 84.9785 47.9166C84.0532 44.5017 81.9186 41.8495 79.0029 39.7505C77.0275 38.3268 74.9618 37.0088 72.9283 35.6563C71.0864 34.436 69.3778 33.0916 68.1405 31.2794C66.531 28.9221 66.4535 26.4916 67.7253 23.9919C68.4351 22.6462 69.3908 21.4295 70.5484 20.398C71.4759 19.5418 72.4657 18.7445 73.434 17.9289C75.1942 16.4421 76.7435 14.7804 77.8689 12.8116C79.7302 9.56756 78.3853 6.11605 74.7509 4.76554C72.9657 4.0976 71.0323 3.86131 69.1261 4.07809C64.7285 4.55773 60.5725 6.23288 57.162 8.90044C51.5673 13.2164 48.899 19.0821 48.1567 25.6923C47.4251 32.1885 49.2885 38.1905 53.0628 43.6434C53.8349 44.7499 54.7254 45.7784 55.7203 46.7125C56.1012 47.0725 56.51 47.4102 56.9296 47.7295C66.2727 46.9379 75.676 47.0285 85 48Z" fill="#E08343"/>
<path d="M131.995 116.621C131.074 116.522 130.176 116.422 129.277 116.336C123.424 115.772 117.563 115.868 111.7 116.096C107.168 116.258 102.663 116.815 98.2427 117.761C97.5448 117.919 96.8585 118.12 96.1881 118.36C95.7833 118.503 95.4057 118.706 95.0695 118.96C94.1657 119.649 94.1227 120.586 95.0223 121.272C95.5411 121.684 96.1466 121.99 96.8 122.171C98.466 122.571 100.149 123.019 101.852 123.17C107.294 123.652 112.747 124.014 118.198 124.409C122.789 124.745 127.38 125.074 131.973 125.397C131.999 122.467 132.006 119.542 131.995 116.621ZM101.042 110.172C101.651 110.527 102.324 110.776 103.028 110.906C105.005 111.258 107 111.516 109.005 111.681C116.399 112.165 123.798 112.569 131.194 113.004L131.975 113.052C131.948 109.701 131.898 106.351 131.825 103C130.676 103.02 129.53 103.04 128.39 103.082C121.475 103.328 114.607 103.943 107.878 105.52C106.11 105.965 104.369 106.498 102.663 107.119C101.995 107.365 101.38 107.722 100.849 108.172C100.048 108.827 100.132 109.661 101.042 110.172ZM112.421 126.452C109.828 126.55 107.256 126.84 104.772 127.593C104.187 127.756 103.621 127.973 103.084 128.242C101.725 128.972 101.684 130.121 102.97 130.946C104.022 131.624 105.231 131.964 106.457 132.245C109.018 132.833 111.635 133.063 114.255 133.213C119.102 133.492 123.952 133.712 128.804 133.94C129.818 133.988 130.833 133.988 131.851 133.994C131.89 131.834 131.928 129.673 131.954 127.511C131.954 127.409 131.954 127.311 131.954 127.205C130.88 127.105 129.843 127.005 128.809 126.935C123.355 126.542 117.894 126.244 112.421 126.452ZM35.4662 128.25C34.9283 127.981 34.3621 127.763 33.7766 127.601C31.2947 126.848 28.7206 126.558 26.1292 126.46C20.6545 126.26 15.1949 126.55 9.73949 126.943C8.83992 127.007 7.94465 127.089 7.01718 127.173C7.01718 127.399 7.01718 127.623 7.01718 127.847C7.01718 129.897 7.0687 131.95 7.11808 134C7.99403 134 8.86998 134 9.74379 133.948C14.5959 133.72 19.4458 133.5 24.2936 133.221C26.9128 133.071 29.53 132.841 32.0913 132.253C33.3172 131.972 34.5259 131.632 35.5779 130.954C36.8682 130.113 36.8231 128.972 35.4662 128.242V128.25ZM43.4786 118.954C43.1435 118.699 42.7666 118.497 42.3622 118.354C41.6912 118.113 41.0042 117.913 40.3054 117.755C35.8863 116.809 31.3816 116.252 26.8506 116.09C20.9852 115.862 15.124 115.766 9.27361 116.33C8.52218 116.402 7.77075 116.484 7.00644 116.567C6.99785 119.491 6.99785 122.416 7.00644 125.343C11.4549 125.026 15.9019 124.707 20.3475 124.387C25.7964 123.988 31.2518 123.63 36.6921 123.148C38.3968 122.999 40.08 122.549 41.7439 122.149C42.3981 121.968 43.0044 121.662 43.5237 121.25C44.4276 120.572 44.3825 119.635 43.4786 118.946V118.954ZM29.5471 111.681C31.5515 111.516 33.5457 111.258 35.5221 110.906C36.2264 110.776 36.8993 110.527 37.508 110.172C38.4183 109.661 38.502 108.827 37.7076 108.174C37.1764 107.724 36.5617 107.367 35.8935 107.121C34.1876 106.5 32.4467 105.967 30.6786 105.522C23.9501 103.945 17.0799 103.324 10.1667 103.084C9.15767 103.048 8.14861 103.028 7.1374 103.01C7.12023 103.943 7.1052 104.883 7.09232 105.83C7.0594 108.228 7.03721 110.626 7.02576 113.024L7.35854 113.004C14.7547 112.569 22.1531 112.165 29.5471 111.681Z" fill="#E08343"/>
<path d="M33.3837 100.999C31.6802 100.968 30.0568 100.27 28.8629 99.0549C27.6689 97.8394 27 96.2038 27 94.5C27 92.7962 27.6689 91.1606 28.8629 89.9451C30.0568 88.7296 31.6802 88.0315 33.3837 88.001C34.2469 87.9856 35.1046 88.1423 35.9066 88.4619C36.7086 88.7816 37.4389 89.2578 38.0549 89.8629C38.6708 90.4679 39.1601 91.1895 39.494 91.9857C39.828 92.7819 40 93.6366 40 94.5C40 95.3634 39.828 96.2181 39.494 97.0143C39.1601 97.8105 38.6708 98.5321 38.0549 99.1371C37.4389 99.7422 36.7086 100.218 35.9066 100.538C35.1046 100.858 34.2469 101.014 33.3837 100.999Z" fill="#FED6E5"/>
<path d="M45.2712 87.4228C44.9018 86.1513 44.9099 84.7929 45.2945 83.5263C45.3419 83.3676 45.3976 83.2117 45.4612 83.0592C45.9806 81.7975 47.3801 81.6438 48.2329 82.7013C48.4249 82.9317 48.5747 83.197 48.6748 83.4839C49.1402 84.8374 49.105 86.3234 48.576 87.6513C48.293 88.361 47.8743 89 47.0351 89C46.1958 89 45.6201 88.4824 45.3546 87.6897C45.3236 87.6007 45.2964 87.5118 45.2712 87.4228Z" fill="black"/>
<path d="M108.125 100.999C109.96 100.968 111.708 100.27 112.994 99.0549C114.28 97.8394 115 96.2038 115 94.5C115 92.7962 114.28 91.1606 112.994 89.9451C111.708 88.7296 109.96 88.0315 108.125 88.001C107.196 87.9856 106.272 88.1423 105.408 88.4619C104.545 88.7816 103.758 89.2578 103.095 89.8629C102.431 90.4679 101.905 91.1895 101.545 91.9857C101.185 92.7819 101 93.6366 101 94.5C101 95.3634 101.185 96.2181 101.545 97.0143C101.905 97.8105 102.431 98.5321 103.095 99.1371C103.758 99.7422 104.545 100.218 105.408 100.538C106.272 100.858 107.196 101.014 108.125 100.999Z" fill="#FED6E5"/>
<path d="M95.7287 87.4228C96.0982 86.1513 96.0901 84.7929 95.7055 83.5263C95.657 83.3666 95.6027 83.2109 95.5407 83.0592C95.0193 81.7975 93.6197 81.6438 92.7668 82.7013C92.5746 82.9313 92.4254 83.1967 92.3268 83.4839C91.8598 84.837 91.8944 86.3234 92.4237 87.6513C92.7067 88.361 93.1274 89 93.9745 89C94.8216 89 95.3895 88.4824 95.6551 87.6897C95.6764 87.6007 95.7035 87.5118 95.7287 87.4228Z" fill="black"/>
<path d="M76.2599 102.545C77.3136 102.215 78.2687 101.639 79.042 100.866C80.3143 99.5592 80.3143 98.0185 79.0717 96.6911C78.2595 95.8601 77.2468 95.2414 76.1263 94.8916C74.4702 94.3283 72.7568 94.0757 70.5854 94.0032C68.7375 93.9672 66.8966 94.2353 65.1399 94.7963C63.9566 95.196 62.8391 95.7137 61.9591 96.6186C60.6867 97.9232 60.6867 99.468 61.9209 100.795C62.656 101.556 63.5714 102.129 64.5864 102.462C66.0643 102.989 67.6075 103.32 69.1752 103.448C69.2685 105.473 69.4488 109.319 69.4339 110.389C69.4287 111.332 69.1396 112.251 68.6027 113.034C68.0535 113.835 67.3473 114.042 66.5012 113.543C66.0504 113.278 65.6778 112.902 65.4198 112.454C65.0741 111.82 64.8939 111.102 64.6479 110.416C64.5673 110.189 64.4189 109.381 63.7424 109.393C63.6258 109.42 63.5228 109.486 63.452 109.58C63.3812 109.675 63.3473 109.79 63.3565 109.907C63.6555 111.661 64.0414 113.427 65.7294 114.481C67.2371 115.424 68.6981 115.057 69.6629 113.585C69.8715 113.261 70.0503 112.92 70.1973 112.566C70.3443 112.92 70.5232 113.261 70.7317 113.585C71.688 115.057 73.1576 115.424 74.6653 114.481C76.3617 113.425 76.7391 111.661 77.0381 109.907C77.0473 109.79 77.0134 109.675 76.9426 109.58C76.8718 109.486 76.7688 109.42 76.6522 109.393C75.9757 109.375 75.8273 110.189 75.7467 110.416C75.5007 111.102 75.3226 111.82 74.9749 112.454C74.7168 112.902 74.3442 113.278 73.8934 113.543C73.0452 114.042 72.3412 113.835 71.7919 113.034C71.2535 112.252 70.9629 111.332 70.9565 110.389C70.9416 109.327 71.1197 105.525 71.213 103.49C72.9331 103.414 74.633 103.096 76.2599 102.545Z" fill="black"/>
<path d="M18.3955 50.5672C18.657 49.8715 19.0823 49.2393 19.64 48.717C20.6744 47.7139 21.8986 47.7771 22.8969 48.8202C23.3096 49.2333 23.6468 49.7067 23.8952 50.2216C24.5886 51.7431 25.2074 53.2962 25.8557 54.8367C25.8988 54.9339 25.9343 55.0339 25.9618 55.1359C26.0544 55.5194 26.0025 55.865 25.5372 55.9788C25.1261 56.08 24.898 55.8187 24.7715 55.5026C24.3469 54.4489 23.9765 53.3721 23.5135 52.3416C23.1671 51.5234 22.7446 50.7351 22.2509 49.9856C21.5733 48.9846 20.8957 48.9972 20.1346 49.9455C19.4991 50.75 19.1722 51.7305 19.2063 52.7293C19.2425 54.4868 19.3802 56.2443 19.4819 57.9976C19.4932 58.1704 19.6106 58.9101 19.256 58.9944C19.1334 59.0082 19.009 58.9964 18.8919 58.96C18.7747 58.9235 18.6676 58.8633 18.5784 58.7837C18.4252 58.5832 18.3388 58.3449 18.33 58.0988C18.1583 56.6363 17.6479 53.2435 18.3955 50.5672Z" fill="white"/>
<path d="M119.654 50.5674C119.426 49.8713 119.054 49.2388 118.565 48.717C117.66 47.7139 116.589 47.7771 115.715 48.8203C115.356 49.2345 115.061 49.7077 114.842 50.2218C114.235 51.7434 113.693 53.2966 113.128 54.8372C113.089 54.934 113.057 55.0341 113.033 55.1365C112.952 55.52 112.998 55.8657 113.405 55.9795C113.765 56.0806 113.964 55.8193 114.075 55.5032C114.446 54.4494 114.773 53.3725 115.178 52.3419C115.48 51.5237 115.849 50.7353 116.28 49.9857C116.873 48.9847 117.466 48.9973 118.132 49.9457C118.688 50.7502 118.974 51.7308 118.944 52.7297C118.913 54.4874 118.792 56.245 118.703 57.9984C118.703 58.1713 118.591 58.911 118.901 58.9953C119.007 59.0078 119.114 58.9954 119.214 58.9589C119.315 58.9225 119.407 58.863 119.484 58.7845C119.618 58.5839 119.694 58.3458 119.703 58.0996C119.863 56.637 120.308 53.2439 119.654 50.5674Z" fill="white"/>
<path d="M81.8264 48.5173C81.8199 48.19 81.7927 47.8634 81.7449 47.5394C79.5162 47.3437 77.2875 47.201 75.0587 47.1114C75.0587 47.2417 75.0734 47.3719 75.0734 47.5022C75.0943 52.0775 75.0504 56.6548 75.0964 61.228C75.1381 65.4249 75.3429 69.6157 76.1829 73.7423C76.4228 75.0011 76.7946 76.2316 77.2923 77.4141C77.9484 78.913 79.4361 78.9461 80.253 77.5258C80.5917 76.8821 80.8345 76.1934 80.9739 75.481C81.7428 72.1173 81.9726 68.6833 81.9956 65.2575C82.0248 59.6774 81.9016 54.0974 81.8264 48.5173ZM63.3936 47.1342C63.73 53.934 64.0434 60.738 64.4153 67.5358C64.6451 71.7927 64.9752 76.0434 65.6689 80.2548C65.9238 81.7909 66.1808 83.3394 66.9602 84.7288C67.3446 85.4131 67.8189 86.0561 68.7216 85.9961C69.5782 85.9403 70.0107 85.2766 70.2343 84.582C70.5958 83.4656 70.9719 82.3222 71.0847 81.1665C71.3647 78.3072 71.5778 75.4356 71.676 72.5639C71.9685 64.0542 72.1921 55.5425 72.4428 47.0308C69.4285 46.9674 66.4121 47.0019 63.3936 47.1342ZM52.0063 48.1679C52.1922 52.9809 52.2549 57.8002 52.7961 62.5946C53.3101 67.143 53.9076 71.6769 54.9523 76.1364C55.4016 78.055 56.0221 79.9343 56.6239 81.8116C56.8328 82.4318 57.2068 82.9921 57.5537 83.5503C57.819 83.9638 58.193 84.3153 58.7572 84.2346C59.384 84.1457 59.5929 83.6558 59.7371 83.141C59.86 82.707 59.9418 82.2626 59.9815 81.8137C60.0798 80.3974 60.1905 78.9792 60.2093 77.5609C60.3096 68.584 60.1278 59.6051 60.5833 50.6323C60.6397 49.5242 60.6982 48.4139 60.7609 47.2789C57.8357 47.4636 54.9154 47.7393 52 48.1059L52.0063 48.1679Z" fill="#A54811"/>
<path d="M69.577 10.8448C68.9869 9.94173 68.1929 9.17463 67.2525 8.59899C65.565 7.48819 63.7187 6.61296 61.7699 6C58.5148 7.47589 55.6511 9.62928 53.3913 12.3005C54.8285 12.57 56.2615 12.8599 57.7052 13.0926C60.4293 13.5356 66.3115 14.4197 68.3653 13.8786C69.9766 13.4274 70.4299 12.2249 69.577 10.8448ZM59.2219 23.2579C57.9973 23.4232 56.8093 23.6948 55.8146 24.4298C54.2334 25.5935 54.3473 27.3656 56.1003 28.2599C56.8268 28.6356 57.6161 28.8891 58.4335 29.0091C60.3562 29.2705 65.0074 29.5522 66.9668 29.6216C66.3222 27.8127 66.507 25.961 67.463 24.0704C67.5275 23.9398 67.5984 23.8132 67.6779 23.6846C67.3685 23.6417 67.0591 23.5988 66.7498 23.5621C64.2469 23.2681 61.7505 22.9169 59.2219 23.2579ZM65.4522 36.5611C64.9152 36.2218 64.3207 35.9732 63.6948 35.8261C61.9179 35.4208 60.0953 35.2254 58.268 35.2443C55.1502 35.2548 52.0428 35.5861 49 36.2324C49.6652 38.2404 50.5569 40.1742 51.6597 42C54.083 41.5753 56.5021 41.1119 58.9039 40.5872C60.5109 40.234 62.0986 39.7705 63.6669 39.2785C64.3454 39.0577 64.9774 38.7245 65.5338 38.2944C66.2105 37.7738 66.1676 37.0327 65.4479 36.5611H65.4522Z" fill="#A54811"/>
<path d="M130.744 126.058L132.808 123.917L127.726 118.776L132.886 113.423L130.853 111.366L125.693 116.719L123.66 114.663L128.82 109.31L126.787 107.254L121.627 112.607L119.594 110.55L124.754 105.197L122.721 103.141L117.562 108.494L112.479 103.353L110.415 105.494L115.498 110.635L113.434 112.776L108.352 107.636L106.288 109.777L111.37 114.918L109.306 117.059L104.224 111.918L102.16 114.059L107.242 119.2L102.082 124.553L104.115 126.61L109.275 121.257L111.308 123.313L106.148 128.666L108.181 130.722L113.341 125.369L115.374 127.426L110.214 132.779L112.247 134.835L117.406 129.482L122.489 134.623L124.553 132.482L119.47 127.341L121.534 125.199L126.617 130.34L128.68 128.199L123.598 123.058L125.662 120.917L130.744 126.058Z" fill="#FF9800"/>
<path d="M115.544 104.339L103.16 117.186C102.025 118.364 102.011 120.253 103.129 121.384L115.327 133.722C116.445 134.853 118.288 134.814 119.424 133.637L131.807 120.789C132.942 119.612 132.956 117.723 131.838 116.592L119.641 104.254C118.523 103.123 116.679 103.161 115.544 104.339Z" fill="#4CAF50"/>
<path d="M117.429 126.334L110.314 119.136C109.755 118.571 109.762 117.626 110.33 117.037L115.49 111.684C116.057 111.096 116.979 111.076 117.538 111.642L124.653 118.839C125.212 119.405 125.205 120.349 124.638 120.938L119.478 126.291C118.91 126.88 117.988 126.899 117.429 126.334Z" fill="#37474F"/>
<path d="M73.5233 47.0627C74.9027 46.0036 75.4931 44.8902 74.9193 43.2764C74.4612 41.9887 73.6718 40.5998 75.1927 38.5049L73.1818 36.6675C72.1762 37.5858 70.0418 37.5962 69 37.0468C67.9585 37.5962 65.8242 37.5859 64.8187 36.6675L62.8076 38.5049C64.3284 40.5997 63.5391 41.9886 63.081 43.2764C62.5072 44.8901 63.0978 46.0036 64.477 47.0627C66.236 48.4135 68.1442 48.6314 69 49.4138C69.8789 48.6111 71.7643 48.4134 73.5233 47.0627Z" fill="#EFBD54"/>
<path d="M64.4768 47.0623C63.0976 46.0031 62.507 44.8897 63.0807 43.276C63.5388 41.9883 64.3283 40.5994 62.8074 38.5045L64.8185 36.667C65.8237 37.5853 67.9582 37.5958 68.9998 37.0463C70.0415 37.5958 72.1759 37.5854 73.1816 36.667L75.1924 38.5045C73.6716 40.5993 74.461 41.9882 74.9191 43.276C75.4929 44.8896 74.9024 46.0031 73.523 47.0623C71.7641 48.4131 69.8786 48.6107 68.9998 49.4134C68.144 48.631 66.2358 48.413 64.4768 47.0623ZM92.6686 53.5959C92.6686 53.5959 101.936 42.8335 92.6961 42.8335C83.4564 42.8335 79.5503 31.104 69.0001 31.104C58.4502 31.104 54.5436 42.8334 45.3039 42.8334C36.0643 42.8334 45.3316 53.5958 45.3316 53.5958H57.5132H80.43H92.6686V53.5959Z" fill="#6C686F"/>
<path d="M80.43 53.5962H57.5132H45.3315L46.5431 60.2816H91.4569L92.6686 53.5962H80.43Z" fill="#E8863B"/>
<path d="M91.4568 60.2812H46.543C55.3772 68.3543 82.0088 68.915 91.4568 60.2812Z" fill="#6C686F"/>
<path d="M97.5955 43.8624C96.8433 42.447 95.1951 41.7294 92.6961 41.7294C88.7052 41.7294 85.6941 39.1662 82.506 36.4526C78.9529 33.4281 74.9256 30 69.0001 30C63.0746 30 59.0473 33.4279 55.4942 36.4525C52.3062 39.1662 49.2949 41.7294 45.3039 41.7294C42.8049 41.7294 41.1565 42.447 40.4045 43.8624C39.571 45.4307 40.027 47.7008 41.7593 50.6099C42.7037 52.1956 43.7609 53.5292 44.1882 54.0485L45.3507 60.4622C45.352 60.4695 45.3542 60.4766 45.3559 60.4839C45.3583 60.4956 45.3613 60.5073 45.3642 60.5188C45.3736 60.5579 45.3851 60.5961 45.3986 60.6331C45.4019 60.6421 45.4047 60.6512 45.4082 60.66C45.4265 60.706 45.4479 60.7502 45.4721 60.7926C45.4758 60.7994 45.48 60.8057 45.4842 60.8123C45.5071 60.8505 45.5326 60.8872 45.56 60.9224C45.5657 60.9295 45.5709 60.9369 45.5768 60.944C45.6087 60.983 45.6434 61.0197 45.6803 61.0541C45.6832 61.0568 45.6853 61.0598 45.6881 61.0625C50.1366 65.1275 59.1532 67.6527 69.2196 67.6527C79.163 67.6527 87.7952 65.1891 92.3112 61.0627C92.3508 61.0266 92.3868 60.9873 92.4207 60.9463C92.4251 60.9411 92.4297 60.936 92.4339 60.9307C92.465 60.8916 92.4931 60.8504 92.5186 60.8076C92.5225 60.8008 92.5263 60.7942 92.5301 60.7874C92.5547 60.744 92.5769 60.699 92.5953 60.6521C92.5956 60.6509 92.5958 60.6499 92.5963 60.6489C92.6132 60.6053 92.6263 60.5598 92.6372 60.5137C92.6396 60.5039 92.6419 60.4943 92.6441 60.4846C92.6456 60.4768 92.6478 60.4694 92.6493 60.4616L93.8118 54.0479C94.2391 53.5286 95.2962 52.1951 96.2407 50.6093C97.973 47.7008 98.4288 45.4306 97.5955 43.8624ZM46.7567 54.7008H57.5104C57.5117 54.7008 57.5128 54.7011 57.514 54.7011C57.5154 54.7011 57.5164 54.7008 57.5177 54.7008H80.425C80.4262 54.7008 80.4275 54.7011 80.4286 54.7011C80.4298 54.7011 80.431 54.7008 80.4322 54.7008H91.243L90.4317 59.1771H47.568L46.7567 54.7008ZM69.2198 65.4439C61.5184 65.4439 54.5389 63.9308 50.0487 61.3862H87.9926C83.564 63.9599 76.8336 65.4439 69.2198 65.4439ZM92.0707 52.4917H82.5235L83.894 50.3227C84.2279 49.7945 84.0297 49.1191 83.4518 48.8139C82.8736 48.5089 82.1343 48.69 81.8005 49.2181L79.7322 52.4917H58.2107L56.1423 49.2181C55.8085 48.6899 55.0693 48.5089 54.4911 48.8139C53.9129 49.119 53.7149 49.7945 54.0488 50.3227L55.4192 52.4917H45.9291C43.9553 50.0696 41.771 46.3463 42.579 44.827C42.9698 44.0925 44.2763 43.9384 45.3037 43.9384C50.2464 43.9384 53.7517 40.9545 57.1419 38.0687C60.6821 35.0553 64.0259 32.2089 69.0001 32.2089C73.9743 32.2089 77.3181 35.0553 80.8582 38.0689C84.2484 40.9545 87.7537 43.9384 92.6962 43.9384C93.7236 43.9384 95.0301 44.0926 95.4209 44.827C96.2288 46.3463 94.0445 50.0696 92.0707 52.4917Z" fill="#000003"/>
<path d="M76.047 37.7234L74.0358 35.8859C73.5639 35.4547 72.7988 35.4547 72.3267 35.8859C72.0432 36.1449 71.438 36.3122 70.7853 36.3122C70.2249 36.3122 69.7985 36.1922 69.6037 36.0896C69.2298 35.8924 68.7696 35.8926 68.3958 36.0896C68.201 36.1922 67.7746 36.3122 67.2143 36.3122C66.5616 36.3122 65.9567 36.1448 65.673 35.8859C65.2011 35.4548 64.436 35.4546 63.964 35.8859L61.9528 37.7234C61.546 38.0952 61.4822 38.6772 61.8002 39.1153C62.835 40.5402 62.5044 41.4125 62.0862 42.5168C62.0327 42.6579 61.9801 42.7972 61.931 42.9352C61.0257 45.4802 62.5064 46.992 63.6989 47.908C64.7985 48.7523 65.9227 49.198 66.8261 49.5559C67.3891 49.7791 67.9211 49.9899 68.1447 50.1943C68.3715 50.4015 68.6788 50.5179 68.9994 50.5179H68.9995C69.3201 50.5179 69.6276 50.4014 69.8543 50.1944C70.0904 49.9786 70.6273 49.7666 71.1954 49.5424C72.091 49.1888 73.2058 48.7486 74.3004 47.908C75.4928 46.9923 76.9735 45.4805 76.0684 42.9352C76.0194 42.7971 75.9667 42.6578 75.9133 42.5168C75.495 41.4125 75.1647 40.5401 76.1991 39.115C76.5175 38.6772 76.4537 38.0953 76.047 37.7234ZM72.7454 46.2169C71.9219 46.8494 71.0267 47.2028 70.2368 47.5145C69.8024 47.686 69.3814 47.8524 68.9965 48.0535C68.6216 47.8596 68.2113 47.6969 67.7881 47.5293C66.9894 47.2127 66.084 46.854 65.2545 46.2169C64.1244 45.349 63.8565 44.669 64.2303 43.6181C64.2747 43.493 64.3225 43.3672 64.3708 43.2395C64.7958 42.1177 65.3592 40.6295 64.3165 38.6879L64.9733 38.0878C65.6183 38.3689 66.3901 38.5214 67.2141 38.5214H67.2145C67.8576 38.5214 68.4713 38.4289 68.9999 38.256C69.5286 38.4289 70.1424 38.5214 70.7854 38.5214C71.6096 38.5214 72.3815 38.3688 73.0266 38.0878L73.6834 38.6879C72.6408 40.6297 73.2041 42.1178 73.6291 43.2397C73.6775 43.3671 73.7252 43.4931 73.7696 43.6182C74.1433 44.669 73.8752 45.3491 72.7454 46.2169Z" fill="#000003"/>
<path d="M85.1955 46.04C84.6152 45.7385 83.8773 45.9242 83.5472 46.4544L83.5331 46.4773C83.2032 47.0077 83.4063 47.6819 83.9867 47.9833C84.1754 48.0814 84.3804 48.1279 84.583 48.1279C85.0035 48.1279 85.4122 47.927 85.6349 47.5689L85.6492 47.5461C85.9788 47.0158 85.7757 46.3415 85.1955 46.04Z" fill="#000003"/>
</g>
<defs>
<clipPath id="clip0_4117_512">
<rect width="138" height="136" fill="white"/>
</clipPath>
</defs>
</svg>
