<svg width="149" height="77" viewBox="0 0 149 77" fill="none" xmlns="http://www.w3.org/2000/svg">
<g clip-path="url(#clip0_4008_197)">
<path d="M71.3162 13.2903L37.4835 4.27839C36.026 3.89019 34.573 4.72752 34.1811 6.18143L14.3068 79.915C13.9149 81.3689 14.7521 82.8163 16.2095 83.2045L50.0423 92.216C51.4997 92.6045 52.9527 91.7675 53.3446 90.3129L73.219 16.5798C73.5968 15.1778 72.7736 13.6785 71.3162 13.2903Z" fill="#EDCA00"/>
<path d="M40.0496 4.96084L24.9627 0.940841C23.246 0.483398 21.4636 1.51085 21.002 3.22409L1.41768 75.9066C0.956052 77.6198 1.98299 79.3958 3.69977 79.8532L18.7866 83.8733C20.5034 84.3307 22.2858 83.3033 22.7474 81.59L42.3317 8.90751C42.7933 7.19429 41.7664 5.41829 40.0496 4.96084Z" fill="#FFD900"/>
<path d="M24.8577 38.1872L21.4757 37.2862C19.1864 36.6762 16.8096 38.0462 16.194 40.3307L8.42916 69.1451C7.81357 71.4295 9.18303 73.7976 11.4723 74.4075L14.8543 75.3086C17.1437 75.9185 19.5204 74.5485 20.136 72.2642L27.9009 43.4497C28.5165 41.1653 27.1471 38.7972 24.8577 38.1872Z" fill="#FFE65A"/>
<path d="M100.991 13.2903L67.1582 4.27839C65.7008 3.89019 64.2478 4.72752 63.8559 6.18142L43.9816 79.915C43.5897 81.3689 44.4269 82.8163 45.8843 83.2045L79.7171 92.216C81.1744 92.6045 82.6275 91.7675 83.0194 90.3129L102.893 16.5798C103.272 15.1778 102.448 13.6785 100.991 13.2903Z" fill="#9069CD"/>
<path d="M69.7244 4.96084L54.6376 0.940841C52.9208 0.483397 51.1385 1.51085 50.6768 3.22409L31.0925 75.9066C30.6308 77.6198 31.6578 79.3958 33.3746 79.8532L48.4614 83.8733C50.1783 84.3307 51.9605 83.3033 52.4222 81.59L72.0065 8.90751C72.4682 7.19429 71.4412 5.41829 69.7244 4.96084Z" fill="#7E56BE"/>
<path d="M97.0331 28.1689H74.8706L75.0493 109.69H97.2115L97.0331 28.1689Z" fill="#DC7D04"/>
<path d="M85.7946 28.1011H70.1483C68.3678 28.1011 66.9111 29.5519 66.9111 31.3252V106.554C66.9111 108.327 68.3678 109.778 70.1483 109.778H85.7946C87.575 109.778 89.0322 108.327 89.0322 106.554V31.3252C89.0322 29.4982 87.575 28.1011 85.7946 28.1011Z" fill="#F49000"/>
<path d="M79.861 60.8799H75.0052C73.2248 60.8799 71.7681 62.3307 71.7681 64.1039V85.5979C71.7681 87.3712 73.2248 88.8223 75.0052 88.8223H79.861C81.6415 88.8223 83.0983 87.3712 83.0983 85.5979V64.1039C83.0983 62.277 81.6415 60.8799 79.861 60.8799Z" fill="#FF9E12"/>
<path d="M145.684 28.1011H110.614C109.103 28.1011 107.916 29.2832 107.916 30.7878V107.091C107.916 108.596 109.103 109.778 110.614 109.778H145.684C147.194 109.778 148.381 108.596 148.381 107.091V30.7878C148.381 29.2832 147.194 28.1011 145.684 28.1011Z" fill="#2A7DE8"/>
<path d="M140.827 40.9976H123.562C121.781 40.9976 120.325 42.4484 120.325 44.2217V53.3566C120.325 55.1298 121.781 56.5806 123.562 56.5806H140.827C142.608 56.5806 144.065 55.1298 144.065 53.3566V44.2217C144.065 42.3947 142.608 40.9976 140.827 40.9976Z" fill="#2575DD"/>
<path d="M138.13 67.865H126.26C122.968 67.865 120.325 70.4979 120.325 73.7758V92.5831C120.325 95.861 122.968 98.494 126.26 98.494H138.13C141.421 98.494 144.065 95.861 144.065 92.5831V73.7758C144.065 70.4979 141.421 67.865 138.13 67.865Z" fill="#2575DD"/>
<path d="M113.311 28.1011H97.6653C95.8849 28.1011 94.4277 29.5519 94.4277 31.3252V106.554C94.4277 108.327 95.8849 109.778 97.6653 109.778H113.311C115.092 109.778 116.549 108.327 116.549 106.554V31.3252C116.549 29.4982 115.092 28.1011 113.311 28.1011Z" fill="#1E6ACD"/>
<path fill-rule="evenodd" clip-rule="evenodd" d="M133.598 27.0264H123.779C123.347 27.0264 123.023 27.3488 123.023 27.7787V59.7508C123.023 60.1807 123.347 60.5032 123.779 60.5032C123.887 60.5032 124.048 60.4494 124.156 60.3957L129.228 57.5477L133.167 60.2345C133.49 60.4494 133.976 60.3957 134.192 60.0195C134.3 59.9121 134.3 59.7508 134.3 59.5896V27.7249C134.354 27.3488 134.03 27.0264 133.598 27.0264Z" fill="#FF4B4B"/>
</g>
<defs>
<clipPath id="clip0_4008_197">
<rect width="148.372" height="76.33" fill="white" transform="translate(0.00927734)"/>
</clipPath>
</defs>
</svg>
