<svg width="111" height="108" viewBox="0 0 111 108" fill="none" xmlns="http://www.w3.org/2000/svg">
<g clip-path="url(#clip0_4112_237)">
<path d="M53.3179 23.6521C55.3748 23.7245 57.4349 23.8076 59.4651 24.1197C59.1404 23.3063 58.8806 22.4697 58.6881 21.6174C58.4406 20.4996 58.303 19.3645 58.566 18.2327C58.9712 16.4885 59.847 15.0596 61.5364 14.1891C62.8096 13.5336 64.6877 13.5714 65.7943 15.0348C66.1562 15.5132 66.4992 16.0068 66.8355 16.5014C67.1841 17.0155 67.5592 17.5026 68.0565 17.8881C68.7591 18.4281 69.535 18.5642 70.3875 18.3201C71.1146 18.1128 71.7573 17.7607 72.2268 17.1861C72.6422 16.7042 73.0032 16.1803 73.3035 15.6234C74.8941 12.4611 74.5012 9.43821 72.4643 6.60429C71.109 4.71969 69.3053 3.31785 67.1696 2.32209C64.7829 1.20734 62.2271 0.47433 59.6005 0.151293C57.7624 -0.0798269 55.9065 -0.0787468 54.0938 0.392133C49.8181 1.50453 46.719 3.97881 44.9852 7.99209C43.2636 11.9687 42.9872 16.0921 43.7309 20.3041C43.9815 21.6617 44.3188 23.0028 44.741 24.3195C45.5724 24.1932 46.406 24.0744 47.2396 23.9577C49.2524 23.6805 51.2865 23.5782 53.3179 23.6521Z" fill="#904211"/>
<path d="M83.8406 67.4308C83.8306 63.1961 83.7296 58.9614 83.6885 54.7268C83.6763 53.3487 83.6774 51.9706 83.6752 50.5925C83.6696 47.8925 83.6485 45.1925 83.4698 42.499C83.3899 41.2775 83.3288 40.0528 83.2201 38.8335C83.0413 36.8474 82.866 34.8591 82.6229 32.8794C82.3332 30.5186 82.0124 28.1598 81.6317 25.8119C81.4246 24.4248 81.0324 23.0698 80.465 21.7814C79.9578 20.6614 79.2751 19.6624 78.3139 18.8654C76.8797 17.6774 75.0238 17.591 73.482 18.6396C72.4861 19.3078 71.6597 20.1879 71.0656 21.2133C70.2464 22.6259 69.6936 24.1379 69.2629 25.6964C69.2085 25.8918 69.1519 26.0884 69.0931 26.3174C68.376 26.1338 67.7211 25.9523 67.0607 25.7979C64.8773 25.287 62.7039 24.7319 60.5039 24.2999C60.1587 24.2319 59.8124 24.1736 59.4649 24.1196C57.4348 23.8074 55.3746 23.7243 53.3178 23.6519C51.2866 23.5752 49.2525 23.6746 47.2394 23.9489C46.4058 24.0656 45.5744 24.1844 44.7408 24.3107C43.7085 24.4662 42.6784 24.6347 41.6517 24.8183C39.3051 25.2395 36.9408 25.5959 34.642 26.2439C34.5322 26.2635 34.4207 26.2729 34.309 26.272C34.2524 26.0636 34.2036 25.8789 34.1525 25.6953C33.7218 24.1368 33.1702 22.6248 32.351 21.2133C31.7458 20.1733 30.9035 19.2821 29.889 18.6083C29.1054 18.0629 28.1381 17.8274 27.1828 17.9495C26.1416 18.0705 25.3358 18.5856 24.6298 19.2941C23.4321 20.4983 22.7595 21.9758 22.3077 23.5623C21.6284 25.9469 21.3087 28.3964 21.0234 30.8458C20.7204 33.4173 20.4684 35.9942 20.2287 38.5721C19.9031 42.1296 19.741 45.6936 19.7425 49.2641C19.7425 52.3799 19.7425 55.4946 19.7136 58.6094C19.6814 62.2673 19.586 65.9242 19.5815 69.5811C19.5815 73.2207 19.6404 76.8603 19.6925 80.4999C19.7569 85.1892 19.8035 89.8797 20.2609 94.5528C20.4096 96.0508 20.575 97.5445 20.9058 99.0187C21.4565 101.512 22.6711 103.821 24.4278 105.715C25.3357 106.723 26.5349 107.441 27.8688 107.776C30.0022 108.316 31.8926 107.884 33.4832 106.363C34.9961 104.919 35.7443 103.103 36.0828 101.113C36.2227 100.287 36.2615 99.4431 36.3448 98.6082C36.377 98.2842 36.4047 97.9538 36.438 97.5866C36.6977 97.6341 36.9053 97.6762 37.114 97.7097C38.355 97.9073 39.5904 98.1547 40.8392 98.2875C43.0592 98.5229 45.2792 98.7076 47.4992 98.8761C48.9854 98.9841 50.4751 99.0586 51.9647 99.104C52.7717 99.1288 53.5808 99.0683 54.3878 99.0327C55.987 98.9607 57.5854 98.8837 59.183 98.8016C59.4689 98.7768 59.7529 98.7342 60.0333 98.6741C60.313 98.6234 60.5883 98.5402 60.868 98.5013C62.0968 98.335 63.3278 98.1924 64.5554 98.0164C65.3513 97.9019 66.1405 97.7464 66.9608 97.6038C66.983 97.7453 67.0085 97.862 67.0196 97.9808C67.0851 98.7119 67.155 99.4442 67.2094 100.176C67.3273 101.628 67.7349 103.043 68.4093 104.343C68.9074 105.319 69.6211 106.176 70.4995 106.852C71.5614 107.687 72.9129 108.092 74.2735 107.983C76.1349 107.864 77.6967 107.086 78.9488 105.751C80.5278 104.083 81.6721 102.071 82.2854 99.8827C82.7079 98.3439 82.9741 96.7686 83.0802 95.1792C83.2511 92.8756 83.4631 90.5741 83.5542 88.2672C83.5764 87.6776 83.596 87.0882 83.613 86.4993C83.6796 84.1676 83.704 81.8337 83.7329 79.502C83.7895 75.48 83.8517 71.456 83.8406 67.4308Z" fill="#A54811"/>
<path d="M91.2273 67.3562C90.5703 62.6798 88.9084 58.1904 86.35 54.1802C85.5418 52.9284 84.6481 51.7309 83.6749 50.5957C83.6749 51.9738 83.6749 53.3519 83.6882 54.7299C83.726 58.9646 83.8303 63.1993 83.8403 67.434C83.8514 71.4591 83.7892 75.4832 83.7371 79.5084C83.7082 81.8401 83.6838 84.174 83.6172 86.5057C84.0394 86.1823 84.4364 85.8289 84.8049 85.4484C87.1881 82.9838 89.014 80.1801 90.1529 76.9736C91.2629 73.8481 91.6969 70.6319 91.2273 67.3562Z" fill="#904211"/>
<path d="M67.1816 2.32075C64.7949 1.20599 62.2391 0.472982 59.6125 0.149946C57.7621 -0.0800943 55.9062 -0.0790143 54.0936 0.391866C52.1478 0.898386 50.4461 1.68787 49.0054 2.77435C48.9265 3.00223 48.8566 3.23443 48.7956 3.47311C48.2228 5.71627 49.6414 7.65378 51.9291 7.9065C52.2221 7.9389 52.5141 7.98534 52.8282 8.02854C52.7345 8.27144 52.6544 8.51913 52.5884 8.7705C52.4774 9.31698 52.3243 9.86778 52.3187 10.4186C52.3032 11.977 53.5475 12.9793 55.1403 12.7471C55.3623 12.7136 55.5921 12.6736 55.843 12.6326C55.843 13.0408 55.8141 13.4253 55.843 13.8055C55.9673 15.217 56.8963 16.2625 58.3216 16.5379C58.5802 16.5875 58.8422 16.6329 59.0986 16.6718C59.6023 15.6037 60.4578 14.7296 61.5295 14.1878C62.8027 13.5322 64.6808 13.57 65.7874 15.0334C66.1493 15.5119 66.4923 16.0054 66.8286 16.5001C66.8841 16.5811 67.2993 17.1848 67.4835 17.3554C68.2838 18.2281 68.8533 18.2993 68.9066 18.3328C69.391 18.4737 69.9078 18.4692 70.3895 18.3199C71.1166 18.1125 71.7593 17.7604 72.2288 17.1859C72.6442 16.704 73.0051 16.18 73.3055 15.6231C74.8961 12.4609 74.5032 9.43794 72.4663 6.60403C71.121 4.71835 69.3172 3.31651 67.1816 2.32075Z" fill="#FBEFDF"/>
<path d="M29.8457 46.8776C29.8402 45.195 31.1877 43.8428 32.8793 43.8374C34.571 43.832 35.9574 45.2058 35.9707 46.9035C35.9763 47.2977 35.902 47.689 35.7521 48.0553C35.6022 48.4215 35.3797 48.7554 35.0971 49.0379C34.8146 49.3204 34.4776 49.546 34.1055 49.7018C33.7333 49.8576 33.3333 49.9405 32.9282 49.9459C31.2343 49.9513 29.8524 48.5765 29.8457 46.8776Z" fill="#E5A043"/>
<path d="M29.7544 28.3953L25.098 31.4636C25.0633 31.3813 25.0383 31.2954 25.0236 31.2076C24.987 29.35 25.1246 27.5108 25.6463 25.7137C25.8328 25.0732 26.0726 24.4533 26.4744 23.9058C27.1892 22.9338 27.994 22.9813 28.5889 24.0321C28.983 24.7287 29.1684 25.4955 29.3382 26.2634C29.4947 26.9762 29.619 27.6966 29.7544 28.3953Z" fill="#27282D"/>
<path d="M72.9492 28.3953L77.6057 31.4636C77.6404 31.3813 77.6653 31.2954 77.68 31.2076C77.7178 29.35 77.579 27.5108 77.0573 25.7137C76.872 25.0732 76.6322 24.4533 76.2293 23.9058C75.5144 22.9338 74.7097 22.9813 74.1203 24.0321C73.7262 24.7287 73.5408 25.4955 73.3721 26.2634C73.209 26.9762 73.0846 27.6966 72.9492 28.3953Z" fill="#27282D"/>
<path d="M44.1458 46.6278C44.1454 46.6951 44.1282 46.7614 44.0958 46.8209C44.0634 46.8804 44.0168 46.9314 43.9598 46.9697C43.9029 47.0079 43.8373 47.0323 43.7686 47.0406C43.6999 47.049 43.6302 47.0411 43.5653 47.0177C43.4205 46.9496 43.2873 46.8604 43.1702 46.7531C41.9321 45.7451 40.6967 44.7342 39.4639 43.7204C39.3429 43.6211 39.1952 43.5163 39.1397 43.3824C39.1123 43.3142 39.1009 43.2409 39.1063 43.1679C39.1117 43.0948 39.1337 43.0238 39.1708 42.9601C39.2485 42.8672 39.4506 42.837 39.5926 42.8456C39.7036 42.8521 39.8146 42.9536 39.9079 43.0292C41.191 44.0372 42.4723 45.0478 43.7518 46.0608C43.9461 46.2152 44.1547 46.3654 44.1458 46.6278Z" fill="#27282D"/>
<path d="M74.5197 46.8776C74.5263 45.195 73.1777 43.8428 71.4872 43.8374C69.7966 43.832 68.408 45.2058 68.3958 46.9035C68.3901 47.2976 68.4642 47.689 68.614 48.0552C68.7638 48.4214 68.9862 48.7553 69.2687 49.0378C69.5511 49.3204 69.888 49.546 70.2601 49.7018C70.6322 49.8576 71.0322 49.9405 71.4372 49.9459C73.1311 49.9513 74.513 48.5765 74.5197 46.8776Z" fill="#E5A043"/>
<path d="M60.221 46.6278C60.2215 46.6951 60.2386 46.7614 60.271 46.8209C60.3034 46.8804 60.35 46.9314 60.407 46.9697C60.4639 47.0079 60.5295 47.0323 60.5982 47.0406C60.6669 47.049 60.7366 47.0411 60.8015 47.0177C60.9462 46.9493 61.0794 46.8601 61.1967 46.7531C62.4332 45.7451 63.6683 44.7342 64.9018 43.7204C65.0239 43.6211 65.1716 43.5163 65.2271 43.3824C65.2542 43.3141 65.2655 43.2409 65.2601 43.1679C65.2547 43.0949 65.2328 43.0239 65.196 42.9601C65.1183 42.8672 64.9163 42.837 64.7731 42.8456C64.6621 42.8521 64.5511 42.9536 64.4578 43.0292C63.1747 44.0372 61.8934 45.0478 60.6139 46.0608C60.4197 46.2152 60.2121 46.3654 60.221 46.6278Z" fill="#27282D"/>
<path d="M48.0185 34.7231C48.06 34.6055 48.0901 34.4844 48.1084 34.3613C48.0607 33.7133 47.8864 33.1733 47.3914 32.7867C47.1816 32.6225 46.9374 32.5599 46.6932 32.7197C46.5932 32.7828 46.5187 32.8776 46.4821 32.9879C46.4455 33.0983 46.4491 33.2175 46.4923 33.3256C46.6333 33.7576 46.802 34.182 46.974 34.6022C47.0261 34.7135 47.1018 34.8128 47.196 34.8938C47.5013 35.1713 47.8565 35.1 48.0185 34.7231Z" fill="#904211"/>
<path d="M51.7125 29.8836C51.6847 29.78 51.6228 29.6882 51.5361 29.6222C51.4495 29.5563 51.3429 29.5198 51.2329 29.5186C51.1148 29.5192 51.0004 29.5589 50.9084 29.6311C50.8165 29.7033 50.7524 29.8038 50.7268 29.916C50.6761 30.0904 50.6353 30.2675 50.6047 30.4463C50.5458 30.7645 50.5458 31.0903 50.6047 31.4086C50.6679 31.7488 50.7334 32.0954 50.8211 32.4378C50.8833 32.6786 51.0897 32.8018 51.3706 32.7294C51.6114 32.6668 51.8756 32.6484 51.8878 32.3082C51.9045 31.8373 51.9789 31.3654 51.9555 30.8966C51.9206 30.55 51.8388 30.2094 51.7125 29.8836Z" fill="#904211"/>
<path d="M58.3649 31.2053C58.0319 31.1319 57.8099 31.3079 57.6534 31.5574C57.2776 32.1315 57.0569 32.7887 57.0118 33.4679C56.9974 33.6969 57.0384 33.9291 57.2993 34.0349C57.5124 34.1213 57.9409 34.0155 58.0763 33.8189C58.4638 33.267 58.7035 32.6295 58.7734 31.9645C58.7745 31.5358 58.6246 31.2625 58.3649 31.2053Z" fill="#904211"/>
<path d="M50.3718 42.401C50.0532 42.1753 49.6725 42.3275 49.5881 42.7055C49.5401 42.9088 49.5431 43.1203 49.597 43.3222C49.7189 43.7028 49.8645 44.0757 50.0333 44.4389C50.114 44.5929 50.2119 44.7378 50.3252 44.8709C50.4706 45.0621 50.6493 45.2036 50.9157 45.1323C51.1821 45.061 51.2332 44.831 51.2554 44.5988C51.2554 44.1571 51.0456 43.4205 50.8502 42.942C50.7428 42.7236 50.5777 42.5369 50.3718 42.401Z" fill="#904211"/>
<path d="M55.0683 31.3642C55.2403 30.8523 55.4845 29.8014 55.459 29.795C55.459 29.742 55.459 29.687 55.459 29.6373C55.4357 29.2053 55.2614 28.9482 54.9751 28.9148C54.7198 28.8845 54.4478 29.0735 54.3268 29.445C54.2165 29.7948 54.1382 30.1533 54.0926 30.5164C54.0678 30.759 54.0719 31.0037 54.1048 31.2454C54.1337 31.5327 54.2336 31.6277 54.4855 31.6828C54.6058 31.7067 54.7309 31.6877 54.838 31.6292C54.945 31.5707 55.0268 31.4766 55.0683 31.3642Z" fill="#904211"/>
<path d="M47.7833 29.4914C47.6802 29.5273 47.592 29.5949 47.5319 29.6839C47.4718 29.773 47.4432 29.8786 47.4503 29.9849C47.4503 30.7604 47.6534 31.471 48.2195 32.0434C48.4659 32.2929 48.7679 32.2313 48.8944 31.9019C48.9413 31.7505 48.9704 31.5943 48.981 31.4364C48.9455 30.7323 48.8234 30.1577 48.4093 29.6793C48.3409 29.5852 48.2424 29.5157 48.1292 29.4817C48.0159 29.4477 47.8943 29.4511 47.7833 29.4914Z" fill="#904211"/>
<path d="M53.7052 32.9496C53.4077 32.9669 53.2534 33.1591 53.1979 33.414C53.128 33.738 53.1003 34.9919 53.1546 35.2824C53.1935 35.4919 53.2934 35.6863 53.562 35.7025C53.6716 35.7119 53.781 35.6828 53.8705 35.6207C53.9601 35.5585 54.0239 35.4673 54.0504 35.3634C54.1758 34.9823 54.269 34.5918 54.329 34.1959C54.3569 33.9365 54.3374 33.6744 54.2713 33.4216C54.1958 33.1095 53.9561 32.9399 53.7052 32.9496Z" fill="#904211"/>
<path d="M48.4894 37.1777C48.3607 36.9995 48.1897 36.8613 47.95 36.9045C47.8327 36.924 47.726 36.9823 47.6478 37.0694C47.5695 37.1565 47.5245 37.2673 47.5204 37.3829C47.4628 38.0141 47.6305 38.6454 47.9955 39.1703C48.1242 39.3658 48.3285 39.3928 48.5671 39.2977C48.9345 39.1509 48.9379 38.8657 48.9146 38.5601C48.8957 38.0644 48.788 37.5924 48.4894 37.1777Z" fill="#904211"/>
<path d="M51.1198 39.0279C51.0199 38.7892 50.8256 38.6283 50.537 38.6553C50.2984 38.678 50.1285 38.9069 50.1241 39.2482C50.12 39.8606 50.2989 40.461 50.6391 40.9762C50.7568 41.1598 50.9288 41.311 51.1719 41.2311C51.415 41.1512 51.5194 40.9373 51.5105 40.6911C51.5016 40.4665 51.4628 40.2429 51.4372 40.0183C51.3518 39.6823 51.2458 39.3516 51.1198 39.0279Z" fill="#904211"/>
<path d="M55.7699 42.5932C55.4835 42.5165 55.1972 42.6774 55.0684 43.0911C54.9305 43.5566 54.8321 44.0323 54.7743 44.5134C54.7332 44.8374 54.8853 45.0146 55.1283 45.0804C55.4114 45.155 55.5846 44.994 55.6833 44.7802C55.8854 44.3223 56.4748 42.8654 55.7699 42.5932Z" fill="#904211"/>
<path d="M51.0502 36.9413C51.1612 36.9305 51.3199 36.7664 51.3543 36.6432C51.4287 36.3776 51.3721 35.0848 51.2433 34.7511C51.1889 34.615 50.9569 34.4962 50.7871 34.4649C50.5707 34.426 50.4275 34.6031 50.3675 34.7986C50.2626 35.1237 50.2295 35.4667 50.2704 35.805C50.3114 36.1434 50.4254 36.4696 50.6051 36.762C50.6661 36.8744 50.9026 36.9543 51.0502 36.9413Z" fill="#904211"/>
<path d="M53.6377 37.0666C53.318 37.0471 53.1792 37.2761 53.1126 37.5072C53.0101 37.9126 52.9359 38.3243 52.8906 38.7395C52.8904 38.8442 52.8964 38.9487 52.9084 39.0527C52.945 39.2687 53.0005 39.4739 53.2669 39.5139C53.375 39.5304 53.4856 39.5121 53.582 39.4618C53.6784 39.4115 53.7552 39.3319 53.8008 39.2352C54.0998 38.7514 54.2108 38.1794 54.1139 37.6228C54.045 37.2523 53.883 37.0806 53.6377 37.0666Z" fill="#904211"/>
<path d="M53.2278 41.3176C52.9802 41.3058 52.7716 41.4354 52.7105 41.7572C52.6155 42.2869 52.55 42.8212 52.514 43.3578C52.4985 43.5662 52.5795 43.7898 52.847 43.8265C53.1145 43.8632 53.2699 43.7131 53.3476 43.51C53.5208 43.0564 53.7572 42.5748 53.7306 41.849C53.6784 41.5326 53.4842 41.3317 53.2278 41.3176Z" fill="#904211"/>
<path d="M56.2037 35.1217C55.7342 35.6693 55.5799 36.3173 55.6232 37.0139C55.6354 37.2126 55.7986 37.2968 55.985 37.3465C56.0704 37.3758 56.164 37.373 56.2474 37.3386C56.3308 37.3043 56.3979 37.2408 56.4357 37.1607C56.7099 36.6704 57.1394 35.4165 56.731 35.0202C56.5733 34.8841 56.3413 34.9619 56.2037 35.1217Z" fill="#904211"/>
<path d="M56.0459 38.8799C55.8239 38.8053 55.6552 38.9144 55.5353 39.0775C55.2057 39.5391 55.0119 40.0794 54.9747 40.6403C54.957 40.8303 55.0302 41.0215 55.23 41.0453C55.3821 41.0636 55.6119 41.0129 55.6996 40.9081C56.0503 40.4735 56.2776 39.957 56.3589 39.4101C56.3423 39.1607 56.2901 38.9609 56.0459 38.8799Z" fill="#904211"/>
<path d="M75.8306 62.1345C75.5309 59.7315 74.8438 57.4418 73.5829 55.3423C72.0799 52.841 69.9765 51.0223 67.1449 50.0125C65.6036 49.4703 63.9714 49.2138 62.333 49.2565C59.9721 49.3008 57.8542 49.8635 55.9683 50.9186C54.8872 52.0505 53.8071 53.1827 52.7282 54.3153L52.7249 54.3239C52.6871 55.2397 52.6261 56.8964 52.6405 57.3932C52.6354 57.8515 52.7736 58.3005 53.0368 58.6806C53.4708 59.2714 54.0358 59.3059 54.5009 58.7368C54.6973 58.4981 54.8061 58.1892 54.9449 57.9084C55.0159 57.768 55.0426 57.5941 55.1447 57.4851C55.1938 57.4422 55.2519 57.4103 55.315 57.3917C55.3781 57.373 55.4446 57.368 55.5099 57.3771C55.5931 57.3933 55.6963 57.5477 55.7052 57.6481C55.7729 58.4139 54.8172 59.6234 54.0402 59.7692C53.8467 59.81 53.6462 59.8074 53.4539 59.7615C53.2615 59.7157 53.0825 59.6278 52.9302 59.5046C52.6066 59.2544 52.3572 58.9249 52.2076 58.5499C52.058 58.9249 51.8086 59.2544 51.485 59.5046C51.3327 59.6277 51.1536 59.7155 50.9613 59.7613C50.769 59.8071 50.5685 59.8099 50.375 59.7692C49.598 59.6234 48.639 58.4139 48.71 57.6481C48.7189 57.5477 48.821 57.3933 48.9054 57.3771C48.9708 57.3681 49.0375 57.3731 49.1007 57.3918C49.164 57.4104 49.2223 57.4422 49.2717 57.4851C49.3738 57.5931 49.4004 57.768 49.4715 57.9084C49.6135 58.1892 49.7212 58.4981 49.9155 58.7368C50.3839 59.3059 50.9444 59.2714 51.3796 58.6806C51.6423 58.3003 51.7804 57.8515 51.7758 57.3932C51.7891 56.9148 51.7325 55.3607 51.6948 54.4286C51.6219 54.3611 51.5536 54.289 51.4906 54.2126C50.4116 52.9037 49.3364 51.5926 48.2649 50.2793C47.1719 49.7418 45.9823 49.4154 44.7617 49.3181C43.0301 49.1798 41.3096 49.2284 39.6557 49.817C37.2703 50.6648 35.2879 52.0732 33.6484 53.9513C30.3917 57.6719 28.9897 62.0081 29.0353 66.84C29.0482 68.5399 29.2341 70.2344 29.5903 71.8987H74.9115C75.8273 68.7106 76.2458 65.4663 75.8306 62.1345Z" fill="#FBEFDF"/>
<path d="M74.9115 71.8989H19.5913C19.6068 74.7663 19.6546 77.6348 19.6934 80.5022C19.7578 85.1916 19.8044 89.882 20.2617 94.5552C20.4105 96.0531 20.5759 97.5468 20.9067 99.021C21.0745 99.7745 21.3027 100.514 21.5893 101.233H21.627L30.4738 101.324L36.0337 101.382C36.0515 101.293 36.0681 101.205 36.0837 101.115C36.2235 100.289 36.2624 99.4454 36.3457 98.6106C36.3778 98.2866 36.4056 97.9561 36.4389 97.5889C36.6986 97.6364 36.9062 97.6785 37.1149 97.712C38.3559 97.9096 39.5913 98.157 40.84 98.2898C43.06 98.5253 45.28 98.7099 47.5 98.8784C48.9863 98.9864 50.476 99.0609 51.9656 99.1063C52.7714 99.1311 53.5817 99.0706 54.3887 99.035C55.9878 98.963 57.5862 98.886 59.1839 98.8039C59.4698 98.7791 59.7538 98.7365 60.0342 98.6764C60.3139 98.6257 60.5892 98.5425 60.8689 98.5036C62.0977 98.3373 63.3286 98.1948 64.5563 98.0187C65.3522 97.9043 66.1414 97.7487 66.9617 97.6062C66.9839 97.7476 67.0094 97.8643 67.0205 97.9831C67.086 98.7142 67.1559 99.4465 67.2103 100.179C67.2503 100.705 67.3308 101.228 67.4512 101.743C71.1823 101.781 74.913 101.817 78.6433 101.851C79.6279 101.858 80.6113 101.856 81.577 101.851C81.8641 101.214 82.1026 100.557 82.2908 99.886C82.7132 98.3473 82.9794 96.772 83.0855 95.1826C83.2565 92.879 83.4685 90.5775 83.5595 88.2706C83.5817 87.681 83.6013 87.0916 83.6183 86.5027C83.6849 84.171 83.7094 81.8371 83.7382 79.5054C83.7715 76.9695 83.807 74.4348 83.8281 71.8989H74.9115Z" fill="#282828"/>
<path d="M51.687 54.4319C51.7247 55.3639 51.7813 56.9159 51.768 57.3965C51.7726 57.8547 51.6344 58.3035 51.3717 58.6838C50.9366 59.2746 50.3727 59.3091 49.9076 58.74C49.7101 58.5013 49.6024 58.1924 49.4636 57.9116C49.3926 57.7712 49.366 57.5973 49.2638 57.4883C49.2145 57.4455 49.1562 57.4136 49.0929 57.395C49.0297 57.3763 48.963 57.3713 48.8975 57.3803C48.8143 57.3965 48.7111 57.5509 48.7022 57.6513C48.6356 58.4171 49.5902 59.6267 50.3672 59.7725C50.5607 59.8131 50.7612 59.8103 50.9535 59.7645C51.1458 59.7187 51.3249 59.6309 51.4772 59.5079C51.8008 59.2576 52.0502 58.9281 52.1998 58.5531C52.3494 58.9281 52.5988 59.2576 52.9224 59.5079C53.0746 59.6311 53.2537 59.7189 53.446 59.7647C53.6383 59.8106 53.8389 59.8132 54.0324 59.7725C54.8094 59.6267 55.7695 58.4171 55.6974 57.6513C55.6885 57.5509 55.5864 57.3965 55.502 57.3803C55.4367 57.3712 55.3702 57.3762 55.3071 57.3949C55.244 57.4135 55.1859 57.4454 55.1368 57.4883C55.0347 57.5963 55.0081 57.7712 54.937 57.9116C54.795 58.1924 54.6862 58.5013 54.493 58.74C54.0235 59.3091 53.463 59.2746 53.0289 58.6838C52.7658 58.3037 52.6276 57.8547 52.6327 57.3965C52.6183 56.8997 52.6793 55.2429 52.717 54.3271L52.7248 54.3195C53.8052 53.1877 54.8852 52.0555 55.9649 50.9229L56.1647 50.7134C56.4289 50.4369 56.5421 50.2814 56.5199 50.0654C56.5055 49.9358 55.2934 48.3731 54.1301 48.0005C52.2808 47.4453 50.8289 47.6311 49.2339 48.7565C48.7524 49.0895 48.3541 49.5235 48.0684 50.0265C48.1338 50.1259 48.1671 50.1875 48.2104 50.2425L48.2493 50.289C49.3223 51.6008 50.3975 52.9119 51.4749 54.2223C51.5408 54.2967 51.6116 54.3667 51.687 54.4319Z" fill="#27282D"/>
<path d="M49.2841 76.3854C49.0277 76.097 48.4327 75.4793 47.9377 75.3475C47.8677 75.3236 47.793 75.3153 47.7193 75.3232C47.6455 75.331 47.5745 75.3548 47.5114 75.3929C47.3105 75.5257 47.5836 76.3076 48.0576 77.1587L46.7911 77.9762C46.7911 77.9762 46.0318 78.2225 46.2361 78.7592C46.4403 79.296 48.0787 78.6242 48.0787 78.6242L48.7291 78.203C49.3651 79.067 50.1033 79.7388 50.6017 79.4893C51.3221 79.1297 50.6827 78.0702 50.0989 77.3293L51.3199 76.5474C51.3199 76.5474 51.7561 76.1888 51.5263 75.6747C51.3454 75.2643 49.8935 76.0387 49.2841 76.3854Z" fill="white"/>
<path d="M59.3959 71.4883L51.5407 73.1486L51.5 73.1401V96.6548H63.479L69 72.2039L59.3959 71.4883Z" fill="#282828"/>
<path d="M59.3958 71.4883H43.604L51.4999 92.4988L59.3958 71.4883Z" fill="#DCDCDE"/>
<path d="M51.5 71.4883V92.4988L59.3959 71.4883H51.5Z" fill="#CECFD0"/>
<path d="M51.5 92.4987L61.6106 80.0863L59.5475 78.3061L63.5153 73.7944L57.2898 70.3091L51.5 92.4987Z" fill="#E5E5E5"/>
<path d="M51.5001 92.4987L45.7104 70.3091L39.4849 73.7944L43.4526 78.3061L41.3895 80.0863L51.5001 92.4987Z" fill="#F5F6F6"/>
<path d="M50.0629 73.4918L46.4275 75.2037C45.6491 75.533 44.7255 75.1034 44.6226 74.3645C44.5508 73.8489 44.4971 73.1794 44.4971 72.3306C44.4971 71.4817 44.5508 70.8122 44.6226 70.2967C44.7255 69.5579 45.6491 69.1282 46.4275 69.4574L50.0629 71.1693L51.4999 72.3305L50.0629 73.4918Z" fill="#D02D7F"/>
<path d="M52.937 73.4918L56.5724 75.2037C57.3508 75.533 58.2744 75.1034 58.3773 74.3645C58.4491 73.8489 58.5028 73.1794 58.5028 72.3306C58.5028 71.4817 58.4491 70.8122 58.3773 70.2967C58.2744 69.5579 57.3508 69.1282 56.5724 69.4574L52.937 71.1693L51.5 72.3305L52.937 73.4918Z" fill="#C42C78"/>
<path d="M52.3104 73.7436H50.6894C50.3435 73.7436 50.063 73.5032 50.063 73.2066V71.4544C50.063 71.1579 50.3435 70.9175 50.6894 70.9175H52.3104C52.6563 70.9175 52.9369 71.1579 52.9369 71.4544V73.2067C52.937 73.5032 52.6564 73.7436 52.3104 73.7436Z" fill="#C42C78"/>
<path d="M52.3105 73.7436H51.5V70.9175H52.3105C52.6564 70.9175 52.9369 71.1579 52.9369 71.4544V73.2067C52.937 73.5033 52.6564 73.7436 52.3105 73.7436Z" fill="#B82971"/>
<path d="M47.3715 71.6568L50.3306 72.2305L50.4581 71.7473L47.499 71.1737L47.3715 71.6568Z" fill="#C42C78"/>
<path d="M47.3725 73.0046L47.5 73.4878L50.4591 72.9142L50.3316 72.431L47.3725 73.0046Z" fill="#C42C78"/>
<path d="M52.5419 71.7473L52.6694 72.2305L55.6285 71.6568L55.501 71.1737L52.5419 71.7473Z" fill="#B82971"/>
<path d="M52.5424 72.9132L55.5015 73.4868L55.629 73.0037L52.6699 72.43L52.5424 72.9132Z" fill="#B82971"/>
<path d="M68.25 40.208H57.2109C56.0156 40.208 55.1016 41.0408 55.1016 42.1299V46.8064C55.1016 47.8955 56.0156 48.7283 57.2109 48.7283H68.25C69.4453 48.7283 70.3594 47.8955 70.3594 46.8064V42.1299C70.3594 41.1049 69.4453 40.208 68.25 40.208ZM47.7188 40.208H36.6797C35.4844 40.208 34.5703 41.0408 34.5703 42.1299V46.8064C34.5703 47.8955 35.4844 48.7283 36.6797 48.7283H47.7188C48.9141 48.7283 49.8281 47.8955 49.8281 46.8064V42.1299C49.8281 41.1049 48.9141 40.208 47.7188 40.208Z" fill="#9DE8F7"/>
<path d="M71.7656 42.3221V42.1299C71.7656 40.3361 70.2188 38.9268 68.25 38.9268H57.2109C55.2422 38.9268 53.6953 40.3361 53.6953 42.1299V42.3221H51.3047V42.1299C51.3047 40.3361 49.7578 38.9268 47.7891 38.9268H36.6797C34.7109 38.9268 33.1641 40.3361 33.1641 42.1299V42.3221H30V43.6033H33.1641V46.8064C33.1641 48.6002 34.7109 50.0096 36.6797 50.0096H47.7188C49.6875 50.0096 51.2344 48.6002 51.2344 46.8064V43.6033H53.625V46.8064C53.625 48.6002 55.1719 50.0096 57.1406 50.0096H68.1797C70.1484 50.0096 71.6953 48.6002 71.6953 46.8064V43.6033H75V42.3221H71.7656ZM49.8281 46.8064C49.8281 47.8955 48.9141 48.7283 47.7188 48.7283H36.6797C35.4844 48.7283 34.5703 47.8955 34.5703 46.8064V42.1299C34.5703 41.0408 35.4844 40.208 36.6797 40.208H47.7188C48.9141 40.208 49.8281 41.1049 49.8281 42.1299V46.8064ZM70.3594 46.8064C70.3594 47.8955 69.4453 48.7283 68.25 48.7283H57.2109C56.0156 48.7283 55.1016 47.8955 55.1016 46.8064V42.1299C55.1016 41.0408 56.0156 40.208 57.2109 40.208H68.25C69.4453 40.208 70.3594 41.1049 70.3594 42.1299V46.8064Z" fill="black"/>
<path d="M96.3599 86.5529V80.9355C96.3599 80.903 96.3512 80.8728 96.3498 80.8408V80.6212H96.3263C96.1632 79.5479 95.1937 78.7202 94.0104 78.7202H66.9897C65.8063 78.7202 64.8368 79.548 64.6736 80.6212H64.6401V88.5928H64.6503V90.1819C64.6489 90.2141 64.6401 90.2443 64.6401 90.2766V100.238C64.6401 100.271 64.6489 100.301 64.6503 100.333V100.553H64.6737C64.8368 101.626 65.8063 102.453 66.9897 102.453H94.0102C95.1936 102.453 96.1631 101.626 96.3263 100.553H96.3599V88.2368H96.3498V86.6476C96.3514 86.6156 96.3599 86.5854 96.3599 86.5529Z" fill="#C4BCB1"/>
<path d="M96.3599 86.5529V80.9355C96.3599 80.903 96.3512 80.8728 96.3498 80.8408V80.6212H96.3263C96.1632 79.5479 95.1937 78.7202 94.0104 78.7202H66.9897C65.8063 78.7202 64.8368 79.548 64.6736 80.6212H64.6401V88.5928H64.6503V90.1819C64.6489 90.2141 64.6401 90.2443 64.6401 90.2766V92.9455C64.6401 92.978 64.6489 93.0082 64.6503 93.0402V93.2599H64.6737C64.8368 94.3332 65.8063 95.1608 66.9897 95.1608H94.0102C95.1936 95.1608 96.1631 94.333 96.3263 93.2599H96.3599V88.2368H96.3498V86.6476C96.3514 86.6156 96.3599 86.5854 96.3599 86.5529Z" fill="#928B82"/>
<path d="M82.3622 94.8542C82.3622 95.8238 81.5285 96.6098 80.5002 96.6098C79.4719 96.6098 78.6382 95.8238 78.6382 94.8542C78.6382 93.8847 79.4719 93.0986 80.5002 93.0986C81.5285 93.0986 82.3622 93.8847 82.3622 94.8542Z" fill="#FCE38A"/>
<path d="M71.1898 97.0154C71.1898 97.1586 71.1295 97.296 71.022 97.3973C70.9146 97.4987 70.7689 97.5556 70.6169 97.5556C70.4649 97.5556 70.3192 97.4987 70.2118 97.3973C70.1043 97.296 70.0439 97.1586 70.0439 97.0154V93.2341C70.0439 93.0908 70.1043 92.9534 70.2118 92.8521C70.3192 92.7508 70.4649 92.6938 70.6169 92.6938C70.7689 92.6938 70.9146 92.7508 71.022 92.8521C71.1295 92.9534 71.1898 93.0908 71.1898 93.2341V97.0154ZM90.9561 97.0154C90.9561 97.1586 90.8957 97.296 90.7883 97.3973C90.6808 97.4987 90.5351 97.5556 90.3831 97.5556C90.2312 97.5556 90.0855 97.4987 89.978 97.3973C89.8706 97.296 89.8102 97.1586 89.8102 97.0154V93.2341C89.8102 93.0908 89.8706 92.9534 89.978 92.8521C90.0855 92.7508 90.2312 92.6938 90.3831 92.6938C90.5351 92.6938 90.6808 92.7508 90.7883 92.8521C90.8957 92.9534 90.9561 93.0908 90.9561 93.2341V97.0154Z" fill="#FCE38A"/>
<path d="M86.3338 77.4271V75.3608C86.3338 75.349 86.3306 75.3377 86.3301 75.326V75.2452H86.3215C86.2615 74.8505 85.905 74.5459 85.4696 74.5459H75.5308C75.0956 74.5459 74.739 74.8503 74.6789 75.2452H74.6665V78.1774H74.6702V78.7618C74.6697 78.7735 74.6665 78.7847 74.6665 78.7966V79.7784C74.6665 79.7903 74.6697 79.8015 74.6702 79.8132V79.894H74.6788C74.7388 80.2887 75.0954 80.5933 75.5307 80.5933H76.1167V80.3399C76.1167 80.3277 76.1192 80.3164 76.1195 80.3044V79.7086H76.1167V76.7196H76.126C76.1712 76.3172 76.4391 76.0068 76.7662 76.0068H84.2341C84.5612 76.0068 84.8291 76.3172 84.8743 76.7196H84.8807V76.8019C84.8811 76.814 84.8835 76.8252 84.8835 76.8374V78.9436C84.8835 78.9559 84.8811 78.9671 84.8807 78.9791V79.5749H84.8835V80.5931H85.4696C85.9048 80.5931 86.2615 80.2887 86.3215 79.8939H86.3339V78.0462H86.3303V77.4618C86.3306 77.4501 86.3338 77.439 86.3338 77.4271Z" fill="#928B82"/>
<circle cx="80" cy="80" r="4" fill="#282828"/>
</g>
<defs>
<clipPath id="clip0_4112_237">
<rect width="111" height="108" fill="white"/>
</clipPath>
</defs>
</svg>
