<svg width="88" height="99" viewBox="0 0 88 99" fill="none" xmlns="http://www.w3.org/2000/svg">
<path d="M42.6392 93.074C42.6966 93.5562 42.7847 94.0349 42.8835 94.5143C43.1724 95.9182 43.9791 97.0072 45.1972 97.8243C46.6137 98.7753 48.1934 99.2296 49.9393 98.8855C51.2617 98.6221 52.4729 98.0039 53.4243 97.1067C54.713 95.9234 55.6809 94.47 56.2474 92.8672C56.203 92.9903 56.1568 93.1121 56.1087 93.2328C51.6174 93.1799 47.1275 93.1269 42.6392 93.074Z" fill="black"/>
<path d="M18.8681 92.7919C15.0296 92.7443 11.1908 92.7008 7.35177 92.6613C7.3187 92.5614 7.28788 92.4608 7.25781 92.3602C7.48297 93.139 7.80468 93.8898 8.21619 94.5967C9.08362 96.0617 10.1548 97.3441 11.737 98.1983C13.7064 99.2609 15.6653 99.2631 17.6219 98.2297C19.05 97.4754 20.0746 96.3743 20.4617 94.8322C20.621 94.2006 20.7045 93.5476 20.7969 92.9054C20.839 92.6085 20.8495 92.3081 20.8661 91.9912C20.851 92.2767 20.8413 92.5493 20.8082 92.8169L18.8681 92.7919Z" fill="black"/>
<path d="M57.907 48.6205C57.8246 45.6413 57.7228 42.6628 57.6479 39.6836C57.588 37.2941 57.4929 34.907 57.257 32.5304C57.1312 31.2665 56.9837 30.007 56.7209 28.7621C56.4146 27.3162 55.9309 25.9465 55.1806 24.6718C54.7807 23.9961 54.276 23.417 53.5377 23.1263C52.0723 22.5502 50.681 22.6636 49.411 23.6681C48.9571 24.0391 48.5687 24.4858 48.2623 24.9892C47.4461 26.2722 46.8957 27.6701 46.5355 29.1494C46.5048 29.2773 46.4606 29.4021 46.415 29.5581C36.921 27.2001 27.4403 27.2001 17.9728 29.5581C17.9264 29.4059 17.8979 29.3069 17.8657 29.2073C17.7159 28.686 17.5856 28.1556 17.4037 27.645C16.9769 26.4449 16.4467 25.2958 15.6275 24.3104C14.9086 23.4421 14.0101 22.8919 12.8726 22.8097C11.3173 22.6979 10.0646 23.2207 9.24312 24.6216C8.65835 25.6068 8.20865 26.6686 7.90649 27.7774C7.41976 29.5976 7.21608 31.4605 7.05359 33.3279C6.92928 34.7578 6.85365 36.1938 6.793 37.629C6.71138 39.5482 6.65372 41.4689 6.6058 43.3896C6.52343 46.7013 6.43057 50.0101 6.38864 53.3271C6.34671 56.6442 6.34446 59.9545 6.35794 63.2685C6.36543 65.2653 6.44405 67.2614 6.477 69.2582C6.49397 70.2667 6.5082 71.2753 6.51968 72.2838L7.36434 72.2519C9.74507 72.1712 12.1255 72.0926 14.5058 72.016C14.7589 72.0076 15.012 71.9946 15.2651 71.9954C17.379 72.0053 19.4929 72.0319 21.6068 72.0258C24.2568 72.0175 26.9069 71.9794 29.5569 71.9596C32.207 71.9399 34.857 71.9193 37.5071 71.9102C41.0804 71.898 44.6538 71.8797 48.2271 71.898C50.0729 71.9071 51.918 71.9924 53.7638 72.0357C55.1446 72.0685 56.5254 72.0905 57.9063 72.1118L57.8681 74.7159C57.901 72.4923 57.9337 70.2687 57.9662 68.0452C57.9909 66.3961 58.0231 64.7471 58.041 63.0988C58.0957 58.2727 58.0403 53.4459 57.907 48.6205Z" fill="#E2D4C4"/>
<path d="M6.42454 81.8405C6.41468 80.8435 6.38387 79.8498 6.35059 78.8496C6.38387 79.8466 6.41468 80.8403 6.42454 81.8405C6.45536 84.5335 6.57739 87.221 7.17645 89.891C6.57616 87.221 6.45413 84.5335 6.42454 81.8405Z" fill="#E2D4C4"/>
<path d="M57.117 74.6903L57.1547 72.0642C55.7895 72.0412 54.4244 72.019 53.0592 71.9875C51.2343 71.9438 49.4102 71.8578 47.5853 71.8486C44.0524 71.8302 40.5196 71.8486 36.9868 71.8609C34.3665 71.8701 31.7465 71.8867 29.1267 71.9108C26.5067 71.9307 23.8867 71.9691 21.2667 71.9775C19.1767 71.9837 17.0868 71.9568 14.9969 71.9468C14.7466 71.9468 14.4964 71.9591 14.2462 71.9676C11.8929 72.0458 9.53942 72.1251 7.18567 72.2054L6.35059 72.2377L6.37502 74.1891C6.38242 74.7785 6.39056 75.3668 6.39945 75.9541C6.41425 76.9149 6.43646 77.8726 6.45571 78.8372C6.47496 79.8018 6.49421 80.7557 6.50013 81.7195C6.51864 84.3148 6.59193 86.9048 6.95173 89.4778C6.96728 89.5899 6.98356 89.7011 7.00059 89.8132C7.00577 89.8431 7.01022 89.8738 7.0154 89.9037C7.02798 89.9858 7.04057 90.0672 7.05464 90.1485C7.05982 90.183 7.06648 90.2176 7.0724 90.2521C7.08573 90.3288 7.09906 90.4056 7.11312 90.4823C7.11978 90.5161 7.12571 90.5506 7.13237 90.5844C7.14718 90.6611 7.16198 90.7379 7.17827 90.82C7.18419 90.8522 7.19086 90.8837 7.19752 90.9159C7.21455 90.9972 7.23157 91.0786 7.24934 91.1592C7.256 91.1876 7.26267 91.2167 7.26859 91.2459C7.28858 91.3311 7.30857 91.4162 7.3293 91.5014C7.33522 91.5252 7.3404 91.549 7.34632 91.5728C7.37001 91.6664 7.3937 91.7593 7.42036 91.8513C7.4248 91.8675 7.4285 91.8828 7.43294 91.8982C7.46256 92.0064 7.49291 92.1146 7.52548 92.222C11.3061 92.268 15.0869 92.3148 18.868 92.3624L20.7788 92.3885C20.8114 92.1007 20.821 91.8076 20.8358 91.5007C20.8402 91.4116 20.8447 91.3218 20.8499 91.2305C21.166 91.2305 21.4577 91.2259 21.7486 91.2305C23.9415 91.2689 26.1343 91.3098 28.3272 91.3533H28.5633H32.0221C33.528 91.3533 34.9501 91.3533 35.0908 91.3487C36.9169 91.3057 38.7431 91.2715 40.5692 91.2459C41.2444 91.2359 41.9195 91.2459 42.6421 91.2459C42.6421 91.2766 42.6421 91.305 42.648 91.3318C42.6539 91.4193 42.6591 91.4853 42.6599 91.5567C42.6599 91.6595 42.6599 91.7616 42.6658 91.8636C42.6658 91.9158 42.671 91.9672 42.6732 92.0171C42.6754 92.067 42.6784 92.11 42.6813 92.156C42.6858 92.2266 42.691 92.2972 42.6969 92.3678C42.6969 92.3893 42.7006 92.4115 42.7021 92.4338C42.7102 92.5174 42.7176 92.6011 42.7272 92.6847C47.0591 92.7512 51.3942 92.8121 55.7325 92.8674C55.7789 92.7379 55.8236 92.6072 55.8665 92.4752C55.8665 92.4683 55.871 92.4607 55.8739 92.4537C55.9179 92.3182 55.9593 92.1813 55.9983 92.0432C56.1279 91.5828 56.2367 91.1223 56.3292 90.6619L56.3537 90.5383C56.3966 90.3148 56.4363 90.091 56.4729 89.8669C56.4929 89.7449 56.5114 89.6229 56.5291 89.5001C56.5647 89.255 56.597 89.01 56.6261 88.7649C56.6552 88.5199 56.6814 88.2738 56.7046 88.0267C56.7283 87.7804 56.7498 87.5333 56.769 87.2869C56.7794 87.1549 56.7897 87.0237 56.7986 86.8917C56.8159 86.6533 56.8319 86.4147 56.8467 86.1757C56.9097 85.1482 56.9452 84.1191 56.9704 83.0893C56.9837 82.5634 56.9948 82.0375 57.0037 81.5116C57.014 80.9928 57.0237 80.4741 57.0355 79.9553C57.0748 78.1995 57.091 76.4445 57.117 74.6903Z" fill="#2B6684"/>
<path d="M57.8046 45.5541C57.5746 45.4094 57.343 45.2661 57.1059 45.1327C55.2776 44.1021 53.293 43.444 51.2487 42.9208C48.5403 42.2272 45.8037 41.9218 43.0011 42.1058C41.2591 42.2204 39.7753 42.8861 38.4714 43.9438C37.3268 44.8718 36.9963 46.0788 37.3056 47.4751C37.6761 49.1465 38.4416 50.6415 39.4762 52.0151C40.6428 53.5658 42.048 54.9093 43.4964 56.2105C47.8346 60.1059 52.5959 63.4563 57.6696 66.4093C57.7732 66.4696 57.8792 66.5261 57.9836 66.5842C58.004 65.39 58.0252 64.1966 58.0401 63.0024C58.0966 58.2197 58.0401 53.4384 57.8988 48.6579C57.8695 47.6231 57.8381 46.5885 57.8046 45.5541Z" fill="black"/>
<path d="M24.2451 43.9368C23.0636 42.8853 21.7192 42.2198 20.1401 42.1056C17.6014 41.9223 15.121 42.2265 12.6712 42.9176C10.8218 43.4388 9.02075 44.0946 7.36338 45.1214C7.08312 45.2956 6.80997 45.4819 6.53967 45.6742C6.47778 48.2093 6.41803 50.7436 6.38674 53.2794C6.3469 56.5498 6.34477 59.821 6.35757 63.0922C6.36184 64.2564 6.38958 65.4207 6.41803 66.5842C6.56528 66.5008 6.70896 66.4107 6.85194 66.3198C11.4485 63.3776 15.7648 60.0396 19.6948 56.1585C21.0079 54.862 22.2805 53.5235 23.3382 51.9785C24.2757 50.6084 24.9686 49.1204 25.3043 47.4551C25.5817 46.0641 25.2815 44.8615 24.2451 43.9368Z" fill="black"/>
<path d="M19.6915 47.747C19.6155 47.6052 19.5158 47.4912 19.401 47.4152C19.2861 47.3391 19.1597 47.3032 19.0326 47.3105C18.6647 47.33 18.2746 47.7974 18.1877 48.3702C18.0885 48.972 18.1617 49.6039 18.3918 50.1318C18.4421 50.2486 18.503 50.3558 18.5731 50.4507C19.0192 51.0422 19.5877 50.9002 19.8338 50.1066C19.9644 49.8105 19.9749 49.1386 19.9452 48.6996C19.9177 48.3581 19.8306 48.0311 19.6915 47.747Z" fill="white"/>
<path d="M56.5342 79.3125C54.1253 78.8619 51.7112 78.4426 49.2919 78.0547C47.5291 77.771 45.758 77.5339 43.9862 77.3106C41.5843 77.0048 39.1786 76.7409 36.7752 76.4504C34.3999 76.1636 32.0306 75.8509 29.6554 75.5763C27.0307 75.2705 24.4054 74.9761 21.7763 74.7214C19.62 74.5142 17.4519 74.3613 15.2882 74.1999C13.6396 74.0791 11.9888 73.9981 10.3395 73.8833C8.99675 73.7901 7.65548 73.6899 6.35059 73.5928L6.35727 74.0959L7.00971 74.1464C8.9965 74.2932 10.984 74.4329 12.9723 74.5654C14.0182 74.6373 15.0655 74.6824 16.1098 74.7643C18.1993 74.9279 20.2888 75.09 22.3753 75.2865C24.1968 75.4586 26.0124 75.6689 27.8324 75.8776C29.7088 76.094 31.583 76.3311 33.4587 76.5551C35.6113 76.8121 37.7691 77.0529 39.9216 77.3198C42.645 77.6631 45.3691 78.008 48.0865 78.3949C50.2628 78.7069 52.4361 79.0526 54.5976 79.4548C55.4482 79.6138 56.2967 79.7866 57.1443 79.9663C57.1443 79.8838 57.1443 79.8012 57.1495 79.7186C57.1495 79.6222 57.1495 79.5259 57.1547 79.4295C56.9479 79.3908 56.741 79.3518 56.5342 79.3125ZM48.9497 88.3548C44.9712 88.1163 40.9868 88.049 36.9993 87.9779C33.4877 87.9144 29.976 87.8333 26.4644 87.7607V87.7844H25.0504C18.9542 87.7844 12.8573 87.8609 6.7618 87.792C6.77813 87.9519 6.7952 88.1124 6.81376 88.2723C10.1695 88.3013 13.5253 88.3296 16.8811 88.3281C22.1051 88.3281 27.3291 88.2463 32.5532 88.3969C38.1884 88.559 43.8281 88.5368 49.4582 88.8939C50.8863 88.9842 52.3152 89.0729 53.7425 89.1868C54.7015 89.2633 55.6613 89.3245 56.6218 89.3627C56.6485 89.1868 56.6732 89.0109 56.696 88.8351C56.0569 88.8137 55.4178 88.7877 54.7795 88.7525C52.8355 88.6431 50.8945 88.468 48.9497 88.3548ZM40.3128 80.052C36.8041 79.8861 33.2917 79.7951 29.5032 79.662C26.8578 79.662 23.9363 79.6498 21.0132 79.662C17.2188 79.6819 13.4303 79.8845 9.64475 80.1453C8.58628 80.2182 7.52732 80.2929 6.46786 80.3693C6.46786 80.5383 6.47232 80.7066 6.47454 80.8755C7.82026 80.7754 9.16673 80.6806 10.5139 80.5995C13.431 80.4252 16.3511 80.3051 19.2726 80.2049C24.2911 80.0329 29.3088 80.1499 34.325 80.3303C37.2005 80.4323 40.076 80.549 42.9515 80.6806C44.6617 80.758 46.3711 80.8559 48.0798 80.9742C49.8167 81.0958 51.5521 81.2457 53.286 81.4009C54.5612 81.5148 55.8342 81.6425 57.1079 81.7664C57.1079 81.6066 57.1146 81.446 57.1176 81.2862C54.876 81.0614 52.6351 80.8335 50.3897 80.6614C47.034 80.406 43.6737 80.211 40.3128 80.052ZM44.1391 85.0989C42.5886 84.8962 41.038 84.6875 39.4829 84.5208C36.9451 84.247 34.4059 83.9855 31.8636 83.7561C29.2768 83.5267 26.6878 83.3179 24.0966 83.1489C21.0043 82.9471 17.9091 82.7979 14.8183 82.6259C12.0445 82.4806 9.2699 82.4508 6.49458 82.4691C6.49458 82.6323 6.49731 82.7949 6.50275 82.957C9.15634 82.9616 11.8107 82.9983 14.4628 83.1329C16.4223 83.2323 18.3827 83.3187 20.3422 83.4326C22.566 83.5626 24.7894 83.7064 27.0122 83.8639C28.9985 84.0077 30.9835 84.1716 32.9674 84.3556C34.8616 84.5322 36.7529 84.7341 38.6457 84.9497C40.8155 85.197 42.9832 85.4595 45.1486 85.7374C47.0216 85.9764 48.8928 86.2313 50.7623 86.502C52.7939 86.7918 54.824 87.0939 56.8541 87.3952C56.8689 87.2234 56.883 87.0508 56.8964 86.8775C55.0734 86.6022 53.2519 86.3231 51.4267 86.0677C48.9973 85.7289 46.5686 85.4154 44.1391 85.0996V85.0989Z" fill="#032E42"/>
<path d="M34.344 61.5347C34.2571 61.5088 34.1231 61.5644 34.0421 61.6261C33.9611 61.6878 33.928 61.7983 33.8698 61.8859C33.2328 62.852 32.3461 63.3716 31.2186 63.4302H31.1376C31.1451 63.3895 31.1495 63.3482 31.1509 63.3068C31.156 63.1857 31.1568 63.0645 31.1546 62.9434C31.1502 62.5495 31.1391 62.1556 31.1384 61.7617C31.1384 59.7923 31.1384 57.8229 31.1281 55.8527C31.1281 55.823 31.1281 55.7933 31.1281 55.7628C31.6812 55.7191 32.2269 55.6042 32.7526 55.4207C33.1453 55.2902 33.4972 55.0535 33.7718 54.735C34.2557 54.1606 34.2778 53.3576 33.7858 52.7907C33.5783 52.5588 33.3308 52.3689 33.056 52.2308C32.2223 51.8121 31.2956 51.6314 30.3717 51.7074C29.488 51.7691 28.6736 52.0281 28.0638 52.7496C27.9513 52.8672 27.8613 53.0057 27.7987 53.158C27.5247 53.9899 27.7604 54.6718 28.4784 55.1647C29.1095 55.5975 29.8091 55.7742 30.6567 55.7803C30.6634 56.0218 30.6678 56.2633 30.6648 56.5041C30.6523 57.4435 30.6766 61.9568 30.6759 63.2748C30.6759 63.3228 30.6759 63.3723 30.6803 63.4188C29.5617 63.3342 28.6183 62.7994 27.8141 61.94C27.7288 61.837 27.6296 61.7472 27.5196 61.6734C27.4805 61.6593 27.4387 61.6553 27.3978 61.6617C27.3568 61.6681 27.318 61.6846 27.2847 61.7099C27.2578 61.7426 27.2382 61.7809 27.227 61.8222C27.2158 61.8635 27.2134 61.9068 27.2198 61.9492C27.2447 62.0362 27.2912 62.115 27.3546 62.1777C28.323 63.287 29.5204 63.9018 30.7834 63.9559C32.3299 63.9559 33.5487 63.3038 34.263 62.1891C34.3311 62.0906 34.3893 61.9852 34.4368 61.8745C34.492 61.7465 34.5038 61.585 34.344 61.5347Z" fill="black"/>
<path d="M43.0369 47.7471C43.1513 47.6051 43.3014 47.4911 43.4742 47.4151C43.647 47.339 43.8373 47.3031 44.0285 47.3105C44.5809 47.33 45.1683 47.7974 45.2981 48.3702C45.4348 48.9893 45.3542 49.5873 44.9956 50.1318C44.92 50.2486 44.8283 50.3558 44.7229 50.4507C44.0522 51.0422 43.1973 50.9002 42.8273 50.1066C42.6309 49.8105 42.6152 49.1386 42.6599 48.6997C42.6999 48.3585 42.8294 48.0315 43.0369 47.7471Z" fill="white"/>
<path d="M18.0388 28.7761C17.8911 28.2885 17.7627 27.7924 17.5832 27.3147C17.1624 26.1922 16.6396 25.1173 15.8318 24.1955C15.123 23.384 14.2369 22.8694 13.1153 22.7925C11.5817 22.6879 10.3464 23.1769 9.53644 24.4873C8.95982 25.4089 8.51639 26.4021 8.21844 27.4393C7.7385 29.142 7.53766 30.8845 7.37743 32.6314C7.33091 33.1432 7.29252 33.6557 7.25781 34.1682C9.49287 31.8234 18.1444 29.1043 18.1444 29.1043C18.0986 28.9619 18.0676 28.8694 18.0388 28.7761Z" fill="black"/>
<path d="M57.1547 34.1682C57.1044 33.4251 57.0431 32.6828 56.9662 31.9412C56.8421 30.7533 56.6966 29.5697 56.4372 28.3997C56.135 27.0409 55.6577 25.7536 54.9173 24.5557C54.5228 23.9228 54.0248 23.3786 53.2963 23.1054C51.8503 22.564 50.4774 22.6706 49.2243 23.6146C48.7765 23.9632 48.3932 24.383 48.0909 24.8561C47.2855 26.0618 46.7424 27.3756 46.387 28.7659C46.3567 28.886 46.3131 29.0033 46.2681 29.1499C46.2681 29.1499 54.7711 31.7781 57.1547 34.1682Z" fill="black"/>
<path d="M14.0413 49.9471C14.8584 49.9593 15.918 50.7661 16.2244 51.6141C16.5649 52.5523 16.0494 53.4477 15.1519 53.4424C14.0849 53.4378 13.329 52.7968 12.8489 51.7982C12.3641 50.7829 13.1533 49.8348 14.0413 49.9471Z" fill="#F2B0A5"/>
<path d="M49.4633 49.9471C48.6462 49.9593 47.5874 50.7661 47.281 51.6141C46.9406 52.5523 47.4553 53.4477 48.3527 53.4424C49.4204 53.4378 50.1755 52.7968 50.6562 51.7982C51.1417 50.7829 50.3512 49.8348 49.4633 49.9471Z" fill="#F2B0A5"/>
<path d="M81.342 13.4098C80.2997 7.28585 75.3846 2.62842 69.5207 2.62842C64.7814 2.62842 60.5668 5.66238 58.6217 10.2429C53.2423 10.6105 48.9684 15.5328 48.9684 21.5316C48.9684 23.2763 49.3367 24.9845 50.0291 26.5278L46.848 29.7243L41.7319 34.8658H48.6669H78.1627H79.3897L79.5015 34.7244C84.3565 33.9015 88 29.3435 88 23.8094C88 19.0759 85.2559 14.957 81.342 13.4098ZM78.1733 31.894L78.1627 31.9072H48.6669L53.5349 27.0143C52.3699 25.5471 51.6623 23.6299 51.6623 21.5316C51.6623 16.9177 55.0673 13.1797 59.2666 13.1797C59.6795 13.1797 60.085 13.217 60.4798 13.2862C61.5122 8.8596 65.1681 5.58705 69.5207 5.58705C74.6579 5.58705 78.8244 10.1442 78.8527 15.7801C82.4898 16.2789 85.3061 19.6797 85.3061 23.8095C85.306 28.1917 82.1339 31.7527 78.1733 31.894Z" fill="white"/>
<path d="M63.8393 17.982C61.7588 18.5121 60.4899 20.4228 60.8569 21.7273C61.2248 23.0322 62.6135 21.5459 64.694 21.0155C66.7737 20.4847 68.7569 21.1117 68.3899 19.8067C68.0224 18.5018 65.9198 17.4512 63.8393 17.982Z" fill="#704040"/>
<path d="M62.2289 17.3741C62.8558 17.1578 62.9358 15.8625 62.6019 14.9891C62.268 14.1164 61.4888 13.5849 60.8619 13.8019C60.2354 14.0192 59.998 14.9029 60.3319 15.7755C60.6659 16.6486 61.6016 17.5914 62.2289 17.3741Z" fill="#704040"/>
<path d="M64.7867 16.7003C65.4512 16.6448 65.8802 15.4138 65.7951 14.4878C65.7103 13.5624 65.1025 12.8577 64.438 12.9121C63.7735 12.9679 63.3032 13.7629 63.3884 14.6883C63.4739 15.6137 64.1214 16.7557 64.7867 16.7003Z" fill="#704040"/>
<path d="M67.7241 13.9917C67.0574 13.9917 66.5171 14.7446 66.5171 15.6734C66.5171 16.6029 67.0578 17.7935 67.7241 17.7935C68.3912 17.7935 68.9315 16.6029 68.9315 15.6734C68.9319 14.7443 68.3912 13.9917 67.7241 13.9917Z" fill="#704040"/>
<path d="M58.3774 16.3748C57.7996 16.6917 57.7266 17.6013 58.2157 18.4062C58.7036 19.2105 59.7979 19.9846 60.3754 19.6674C60.9533 19.3501 60.7959 18.0613 60.3076 17.257C59.8192 16.4521 58.9546 16.0575 58.3774 16.3748Z" fill="#704040"/>
<path d="M74.0586 25.7525C71.9781 25.2217 69.8748 26.2726 69.5077 27.5772C69.1398 28.8821 71.1238 28.2552 73.2039 28.786C75.2844 29.3164 76.6728 30.8027 77.0399 29.4978C77.4077 28.1932 76.1384 26.2829 74.0586 25.7525Z" fill="#704040"/>
<path d="M75.6688 25.1453C76.295 25.3615 77.2315 24.4187 77.5654 23.5457C77.8993 22.6727 77.662 21.789 77.0355 21.572C76.4085 21.3547 75.6301 21.8866 75.2962 22.7596C74.9623 23.6326 75.0419 24.9279 75.6688 25.1453Z" fill="#704040"/>
<path d="M73.1114 24.47C73.7759 24.5254 74.4239 23.3837 74.5086 22.4584C74.5934 21.533 74.1242 20.7376 73.4597 20.6822C72.7952 20.6274 72.1878 21.3324 72.1019 22.2581C72.0172 23.1839 72.4469 24.4145 73.1114 24.47Z" fill="#704040"/>
<path d="M70.1726 25.564C70.8401 25.564 71.3804 24.3734 71.3804 23.4439C71.3804 22.5151 70.8397 21.7622 70.1726 21.7622C69.5055 21.7622 68.9648 22.5151 68.9648 23.4446C68.9648 24.3734 69.5063 25.564 70.1726 25.564Z" fill="#704040"/>
<path d="M79.52 24.1448C78.9421 23.8276 78.0782 24.2221 77.5902 25.0267C77.1026 25.8313 76.9449 27.1201 77.5217 27.4374C78.0996 27.7546 79.1938 26.9805 79.6818 26.1763C80.1697 25.3717 80.0971 24.462 79.52 24.1448Z" fill="#704040"/>
</svg>
