<svg width="138" height="136" viewBox="0 0 138 136" fill="none" xmlns="http://www.w3.org/2000/svg">
<g clip-path="url(#clip0_4117_441)">
<path d="M100.168 188.746C98.2254 189.047 96.4204 189.35 94.6096 189.606C89.9599 190.264 85.3082 190.892 80.6109 191.134C78.5164 191.242 76.4219 191.367 74.3275 191.579C71.5399 191.863 68.7562 191.751 65.9705 191.609C62.6136 191.438 59.2472 191.356 55.9056 191.036C51.2711 190.593 46.6556 189.974 42.0345 189.408C40.6426 189.236 39.2603 188.981 37.7579 188.747C37.6247 189.793 37.5104 190.746 37.3771 191.698C36.8326 195.588 35.8158 199.343 34.0545 202.883C33.0073 204.986 31.7297 206.939 30.0046 208.575C29.435 209.129 28.8191 209.636 28.1633 210.09C24.5932 212.496 20.9279 212.638 17.1921 210.463C14.9072 209.128 13.1936 207.219 11.7598 205.061C9.23501 201.269 7.76126 197.067 6.87397 192.652C5.82673 187.457 6.35035 175.85 6.32559 175.289C6.21706 172.778 6 170.268 6 167.759C6 162.994 6.08949 158.222 6.19041 153.465C6.3294 147.013 6.52362 140.562 6.67785 134.111C6.74449 131.306 6.82256 128.484 6.794 125.67C6.74068 120.305 6.60359 114.941 6.52362 109.577C6.46904 105.636 6.44111 101.695 6.43984 97.7545C6.43984 90.6617 6.42651 83.5689 6.47221 76.4761C6.50077 71.975 6.66261 67.4721 6.68546 62.9711C6.68546 61.2881 6.46269 59.6052 6.41699 57.9222C6.22658 50.835 7.17862 43.9254 9.84431 37.3001C10.9639 34.5307 12.4053 31.9351 14.3817 29.6519C15.4498 28.3652 16.7346 27.2678 18.1803 26.4075C21.6076 24.444 25.0083 24.5375 28.3309 26.6712C30.0541 27.7763 31.3984 29.2573 32.5522 30.9123C34.8066 34.1455 36.1471 37.762 37.122 41.5319C37.1962 41.8217 37.2648 42.1153 37.3429 42.4051C37.3856 42.5113 37.4359 42.6144 37.4933 42.7137C58.263 38.3899 79.7253 38.3944 100.493 42.7268C100.874 41.3767 101.205 40.1088 101.596 38.8615C102.5 35.978 103.73 33.2404 105.499 30.7552C106.527 29.2582 107.808 27.9447 109.286 26.8713C112.645 24.5095 116.529 24.3842 120.023 26.5627C122.535 28.1316 124.345 30.3457 125.85 32.8196C127.988 36.3333 129.311 40.1574 130.229 44.1274C131.109 48.012 131.556 51.9791 131.562 55.9587C131.575 57.9054 131.35 59.852 131.265 61.8005C131.223 62.7355 131.238 63.6705 131.25 64.6055C131.308 69.6694 131.371 74.7339 131.44 79.799C131.467 81.7868 131.537 83.7746 131.547 85.7624C131.547 87.2995 131.48 88.8385 131.472 90.3756C131.419 99.5335 131.369 108.691 131.324 117.847C131.293 123.063 131.189 128.278 131.227 133.492C131.263 138.443 131.436 143.393 131.566 148.345C131.64 151.232 131.756 154.119 131.834 157.008C131.908 159.813 132.005 162.635 132 165.448C132 167.396 131.809 169.345 131.756 171.293C131.687 173.653 131.543 176.004 131.756 178.375C132.476 186.191 131.611 193.81 128.372 201.061C126.963 204.218 125.096 207.084 122.358 209.319C120.806 210.585 119.069 211.479 117.059 211.84C115.019 212.214 113.108 211.84 111.276 210.968C109.24 210 107.647 208.5 106.287 206.763C104.336 204.257 103.039 201.426 102.072 198.441C101.231 195.825 100.669 193.131 100.396 190.401C100.343 189.884 100.255 189.372 100.168 188.746Z" fill="#462E25"/>
<path d="M131.756 170.693C131.813 168.74 131.998 166.788 132 164.835C132 162.024 131.909 159.197 131.834 156.379C131.756 153.483 131.644 150.59 131.566 147.697C131.551 147.105 131.534 146.511 131.518 145.919C128.83 146.119 126.147 146.376 123.465 146.625C118.844 147.052 114.223 147.482 109.6 147.914C109.904 143.486 111.119 139.164 113.172 135.211C114.345 132.922 115.609 130.662 117.568 128.932C121.542 125.426 126.058 122.921 131.277 121.787C131.294 120.236 131.308 118.685 131.318 117.136L131.33 115C129.272 115.187 127.198 115.285 125.174 115.645C117.319 117.044 110.927 120.815 106.287 127.294C102.516 132.562 100.636 138.5 100.004 144.845C99.8749 146.144 99.8139 147.446 99.7587 148.75C98.6411 148.84 97.5254 148.937 96.4135 149.072C95.0674 149.228 93.7194 149.348 92.3714 149.447C89.4165 149.661 86.4559 149.768 83.4953 149.891C80.5347 150.015 77.614 150.052 74.6762 150.191C69.4118 150.44 64.1532 150.819 58.885 150.989C53.8643 151.152 48.8398 151.283 43.8172 151.032C43.0366 150.993 42.256 150.946 41.4754 150.886C39.4724 150.736 37.4657 150.609 35.4608 150.476C35.3904 148.602 35.3352 146.715 35.1524 144.854C34.5279 138.509 32.6487 132.571 28.8694 127.304C24.2276 120.824 17.838 117.054 9.98233 115.654C8.87423 115.457 7.75281 115.337 6.62758 115.24C6.67328 117.687 6.71517 120.134 6.75325 122.58C10.7839 123.91 14.369 126.095 17.5924 128.951C19.5534 130.68 20.8157 132.94 21.9905 135.23C24.0691 139.217 25.2944 143.581 25.5908 148.053C25.6232 148.576 25.6613 149.097 25.7012 149.616C21.88 149.189 18.0645 148.679 14.2376 148.315C11.6064 148.059 8.96181 147.924 6.31915 147.772C6.27726 149.453 6.23791 151.135 6.2011 152.816C6.09829 157.591 6.01071 162.373 6.01071 167.14C6.01071 169.655 5.83745 186.879 6.88462 192.085C7.2058 193.699 7.62091 195.294 8.12789 196.861C13.1086 196.82 23.4812 196.798 36.2015 196.79C36.7322 194.935 37.1311 193.045 37.3952 191.135C37.5266 190.181 37.6408 189.225 37.776 188.178C39.2782 188.412 40.6605 188.667 42.0523 188.839C46.6731 189.402 51.2883 190.027 55.9224 190.471C59.2639 190.792 62.63 190.874 65.9867 191.045C68.7721 191.187 71.5557 191.3 74.343 191.015C76.4374 190.803 78.5317 190.678 80.626 190.569C85.3231 190.327 89.9744 189.698 94.6238 189.038C96.4344 188.781 98.2413 188.476 100.181 188.176C100.269 188.802 100.357 189.317 100.41 189.834C100.646 192.212 101.099 194.564 101.764 196.861C114.886 196.897 125.363 196.944 129.751 197C131.846 190.805 132.362 184.368 131.756 177.791C131.543 175.413 131.688 173.063 131.756 170.693Z" fill="#E57211"/>
<path d="M99.9925 98.3443C99.9247 103.943 98.9723 109.492 97.173 114.774C95.5632 119.532 92.7604 123.499 89.2747 126.972C88.3888 127.854 87.462 128.701 86.5036 129.493C83.9558 131.607 80.9204 132.52 77.8031 133.248C74.5667 134.006 71.2634 134.273 68.0158 133.665C63.7614 132.87 59.5033 131.895 56.0474 128.888C51.6739 125.077 48.0709 120.66 46.0349 115.051C44.7664 111.505 43.8966 107.82 43.4424 104.069C43.0497 100.966 42.832 97.86 43.1595 94.7313C43.4752 91.5385 44.4514 88.4529 46.0219 85.6834C47.3246 83.3945 49.1856 81.8493 51.5715 80.8788C54.123 79.8314 56.7825 79.2318 59.4847 78.8859C62.1125 78.5515 64.7478 78.2459 67.3868 78.0288C68.5295 77.9346 69.6926 78.098 70.8483 78.1422C73.0816 78.2267 75.326 78.221 77.5481 78.4112C82.0854 78.7956 86.6059 79.3029 90.9478 80.9096C93.7393 81.9493 95.8665 83.7308 97.294 86.4367C99.2537 90.1574 100.089 94.1317 99.9925 98.3443Z" fill="white"/>
<path d="M62.4207 52.4645C62.4705 52.0171 62.4896 51.5658 62.57 51.1243C62.8725 49.4877 63.1214 47.8318 63.5368 46.2281C63.7708 45.4507 64.1525 44.727 64.6606 44.0977C65.6465 42.8175 67.268 42.6567 68.564 43.6173C69.4474 44.2599 70.0983 45.1777 70.4172 46.23C70.8288 47.5974 71.0949 49.0093 71.3973 50.4077C71.495 50.8531 71.5084 51.316 71.7266 51.7866C71.9085 51.0933 72.0501 50.3883 72.2799 49.7124C72.6607 48.4939 73.1081 47.2977 73.62 46.1293C73.9743 45.3978 74.4539 44.7355 75.0366 44.1732C76.348 42.8853 77.9905 43.0537 79.1334 44.5063C79.8327 45.3923 80.2469 46.4738 80.3204 47.6052C80.4103 48.9163 80.4027 50.2372 80.4027 51.5523C80.4027 52.1333 80.3127 52.7143 80.3912 53.3419C80.5195 53.094 80.6458 52.8441 80.7741 52.6001C81.5398 51.1727 82.2252 49.6736 83.1383 48.3392C83.882 47.2576 84.7808 46.2941 85.8051 45.4805C87.4955 44.148 89.3353 44.5121 90.639 46.2242C91.3856 47.2081 91.7187 48.3547 91.8776 49.5652C92.1801 51.8777 91.8986 54.1359 91.2899 56.3671C90.144 60.65 88.3126 64.7142 85.8683 68.3983C83.7883 71.4983 81.0817 74.1164 77.9274 76.0795C73.551 78.8375 69.0733 78.4308 64.674 76.0931C59.888 73.5559 56.4746 69.6378 53.8308 64.9547C51.2751 60.4266 50.1283 55.5014 50.002 50.3496C49.9312 47.4095 51.7537 44.8162 54.1141 44.2681C56.3348 43.7549 58.2167 44.3204 59.7099 46.077C60.7092 47.2527 61.2319 48.6743 61.6377 50.1443C61.8655 50.9093 62.3575 52.4626 62.4207 52.4645Z" fill="#6B4633"/>
<path d="M29 47.197L15.1145 51C14.673 50.6567 15.5718 44.8262 16.7178 42.5502C17.5027 40.9839 18.6487 39.6787 20.2872 38.7776C22.8579 37.3634 25.1931 37.8944 26.7198 40.2384C27.5714 41.5489 28.0561 42.9882 28.4074 44.4651C28.6272 45.3662 28.8038 46.2763 29 47.197Z" fill="#6B4633"/>
<path d="M29.0485 92C26.3313 92 24.3507 90.0387 24.0324 87.2074C23.7523 84.7146 25.3164 82.1159 27.6008 81.2875C28.499 80.9509 29.4749 80.9088 30.3968 81.1668C31.3188 81.4249 32.1425 81.9706 32.757 82.7306C35.3869 85.9458 33.6099 91.1602 29.6196 91.9262C29.3686 91.9735 29.114 91.9905 29.0485 92Z" fill="#BA621C"/>
<path d="M41.0006 75.5811C41.0257 74.1158 42.004 72.9404 43.1597 73.0023C43.6665 73.0399 44.1413 73.3109 44.4844 73.7582C44.8274 74.2056 45.0121 74.7945 44.9994 75.4012C45.0047 75.7395 44.9537 76.0757 44.8492 76.3903C44.7448 76.7048 44.589 76.9913 44.3911 77.2332C44.1931 77.475 43.9568 77.6674 43.696 77.799C43.4352 77.9307 43.1551 77.999 42.872 78C41.7599 77.99 40.9755 76.9725 41.0006 75.5811Z" fill="white"/>
<path d="M110 47.197L122.893 51C123.305 50.6567 122.468 44.8262 121.404 42.5502C120.676 40.9839 119.611 39.6787 118.09 38.7776C115.703 37.3634 113.535 37.8944 112.117 40.2384C111.326 41.5489 110.878 42.9882 110.552 44.4651C110.343 45.3662 110.182 46.2763 110 47.197Z" fill="#6B4633"/>
<path d="M108.447 92C111.436 92 113.614 90.0387 113.964 87.2074C114.272 84.7146 112.552 82.1159 110.039 81.2875C109.051 80.9509 107.978 80.9088 106.963 81.1668C105.949 81.4249 105.043 81.9706 104.367 82.7306C101.474 85.9458 103.429 91.1602 107.818 91.9262C108.095 91.9735 108.375 91.9905 108.447 92Z" fill="#BA621C"/>
<path d="M96.9994 75.5811C96.9743 74.1158 95.996 72.9404 94.8403 73.0023C94.3335 73.0399 93.8587 73.3109 93.5156 73.7582C93.1726 74.2056 92.9879 74.7945 93.0006 75.4012C92.9953 75.7395 93.0463 76.0757 93.1508 76.3903C93.2552 76.7048 93.4109 76.9913 93.6089 77.2332C93.8069 77.475 94.0432 77.6674 94.304 77.799C94.5648 77.9307 94.8449 77.999 95.128 78C96.2401 77.99 97.0245 76.9725 96.9994 75.5811Z" fill="white"/>
<path d="M85.6815 84.6922C85.2636 84.2049 84.7733 83.7814 84.2269 83.4359C83.1606 82.7844 82.0453 82.2126 80.8906 81.7254C77.9529 80.5491 74.8454 80.1675 71.6979 80.0335C69.2531 79.9244 66.8035 80.0818 64.3945 80.5026C61.9352 80.9158 59.5503 81.5802 57.3407 82.7361C55.949 83.4694 54.6717 84.3535 53.7872 85.6731C52.71 87.2738 52.7386 89.0234 53.8711 90.5943C54.5532 91.4995 55.4173 92.2595 56.4104 92.8278C57.8202 93.6547 59.3435 94.2814 60.9343 94.689C63.4932 95.3781 66.1309 95.7495 68.7849 95.7946C68.7849 95.8579 68.7849 95.9193 68.7849 95.9807C68.7493 98.9587 68.7182 101.942 68.6915 104.931C68.6381 110.524 68.586 116.118 68.5352 121.713C68.5352 121.83 68.5352 121.94 68.5447 122.042C66.3709 121.964 64.2432 121.408 62.3203 120.415C62.1558 120.321 61.9858 120.236 61.8113 120.16C61.6138 120.08 61.3935 120.073 61.1907 120.139C60.988 120.205 60.8164 120.34 60.7074 120.519C60.5764 120.684 60.5141 120.89 60.5332 121.098C60.5523 121.305 60.6514 121.498 60.8104 121.636C61.1208 121.912 61.4693 122.144 61.8456 122.325C63.956 123.391 66.2303 123.844 68.5924 124C69.7362 123.92 70.8801 123.898 72.0239 123.743C73.856 123.496 75.6137 122.987 77.1827 121.99C77.8118 121.588 77.9872 121.05 77.7107 120.577C77.4343 120.104 76.8891 120.019 76.2028 120.356C75.6595 120.627 75.139 120.972 74.5652 121.156C73.2304 121.593 71.8488 121.879 70.4473 122.008C70.4473 121.949 70.4473 121.886 70.4473 121.822C70.5032 117.497 70.5528 113.171 70.596 108.846H70.5846C70.6227 104.557 70.6602 100.268 70.6971 95.9789C70.6971 95.9193 70.6971 95.8597 70.6971 95.7927C71.8676 95.7518 73.0426 95.6569 74.222 95.508C76.9253 95.1655 79.56 94.5364 82.0231 93.3731C83.4109 92.7198 84.692 91.9102 85.7062 90.7543C87.4354 88.7982 87.4354 86.6112 85.6815 84.6922Z" fill="#1D2424"/>
<path d="M72.1771 55.8322C60.5854 55.8322 51.1875 51.6657 51.1875 44.9989V34.1655H93.1667V44.9989C93.1667 50.6008 83.7687 55.8322 72.1771 55.8322Z" fill="#203442"/>
<path d="M101.523 29.8225L75.9689 19.8266C74.5773 19.2827 73.0489 19 71.5001 19C69.9513 19 68.423 19.2827 67.0314 19.8266L41.4769 29.8225C40.717 30.1195 40.0797 30.5848 39.6408 31.1632C39.2019 31.7416 38.98 32.4087 39.0014 33.0851C39.0228 33.7615 39.2866 34.4188 39.7615 34.9787C40.2364 35.5386 40.9023 35.9775 41.68 36.2434L45.0939 37.4156L67.4959 45.0845C68.7614 45.5177 70.1236 45.741 71.5001 45.741C72.8766 45.741 74.2389 45.5177 75.5044 45.0845L97.9064 37.4156L101.32 36.2477C102.099 35.9824 102.767 35.5434 103.243 34.9831C103.719 34.4227 103.983 33.7646 104.005 33.0874C104.026 32.4101 103.804 31.7422 103.364 31.1633C102.924 30.5844 102.285 30.1189 101.523 29.8225Z" fill="#4C5665"/>
<path d="M93.1668 60.1656C92.8077 60.1656 92.4632 60.0514 92.2093 59.8483C91.9553 59.6451 91.8127 59.3695 91.8127 59.0822V39.9733L72.7433 32.1506C72.4236 32.0193 72.1823 31.7917 72.0723 31.5181C71.9624 31.2444 71.9928 30.947 72.1569 30.6913C72.3211 30.4356 72.6054 30.2425 72.9475 30.1545C73.2896 30.0666 73.6613 30.0909 73.981 30.2222L94.521 38.6495V59.0822C94.521 59.3695 94.3783 59.6451 94.1244 59.8483C93.8704 60.0514 93.526 60.1656 93.1668 60.1656Z" fill="#ECF0F1"/>
<path d="M72.1772 34.1655C75.5427 34.1655 78.271 32.7105 78.271 30.9155C78.271 29.1206 75.5427 27.6655 72.1772 27.6655C68.8118 27.6655 66.0835 29.1206 66.0835 30.9155C66.0835 32.7105 68.8118 34.1655 72.1772 34.1655Z" fill="#203442"/>
<path d="M93.1667 65.5822C96.1582 65.5822 98.5833 63.6421 98.5833 61.2489C98.5833 58.8556 96.1582 56.9155 93.1667 56.9155C90.1751 56.9155 87.75 58.8556 87.75 61.2489C87.75 63.6421 90.1751 65.5822 93.1667 65.5822Z" fill="#FACE53"/>
<path d="M111.292 98.3864C110.789 98.3864 110.354 98.063 110.295 97.6242C110.138 96.4771 109.352 93.9626 108.04 93.9626C107.485 93.9626 107.035 93.5768 107.035 93.1009C107.035 92.625 107.485 92.2393 108.04 92.2393C111.496 92.2393 112.221 96.8953 112.292 97.4262C112.356 97.8989 111.96 98.3263 111.408 98.3806C111.369 98.3847 111.33 98.3864 111.292 98.3864Z" fill="#F7A872"/>
<path d="M116.842 90.7858V89H114.759C112.154 89 110.042 90.8103 110.042 93.0434V94.8293H112.125C114.73 94.8293 116.842 93.019 116.842 90.7858Z" fill="#4EB79B"/>
<path d="M115.349 110.628C118.54 109.327 120.746 106.539 120.746 103.308C120.746 98.8335 116.514 94.6265 111.294 97.5247C106.073 94.6265 101.841 98.8335 101.841 103.308C101.841 106.539 104.047 109.327 107.239 110.628C107.836 110.872 114.752 110.872 115.349 110.628Z" fill="#4EB79B"/>
<path d="M132.283 137H92.6209C90.241 137 88.0846 136.172 86.5244 134.835C84.9658 133.498 84 131.651 84 129.61C84 125.528 87.8595 122.219 92.6208 122.219L113.804 118.431L132.283 122.219" fill="#D37250"/>
<path d="M133.487 125.229H109.326V134.534H133.487V125.229Z" fill="#E6E6E6"/>
<path d="M136.1 126.442H114.063C112.026 126.442 110.369 127.864 110.369 129.609C110.369 131.356 112.026 132.777 114.063 132.777H136.101V137H114.063C111.683 137 109.527 136.172 107.966 134.835C106.408 133.497 105.442 131.651 105.442 129.609C105.442 125.528 109.301 122.218 114.063 122.218L122.113 118.66L132.884 122.218H136.1V126.442Z" fill="#E88158"/>
<path d="M132.884 110.834H109.363V110.84C109.296 110.837 109.229 110.834 109.162 110.834H85.6406V114.281H87.8519V118.772H85.6406V122.219H109.162C109.229 122.219 109.296 122.216 109.363 122.213V122.219H132.884C134.527 122.219 135.861 121.076 135.861 119.667V113.384C135.861 111.976 134.527 110.834 132.884 110.834Z" fill="#F4BD64"/>
<path d="M109.326 112.994H87.8525V120.059H109.326V112.994Z" fill="#CCCCCC"/>
<path d="M85.6406 118.772H108.118V114.281H85.6406V110.834H109.162C110.805 110.834 112.139 111.976 112.139 113.384V119.667C112.139 121.076 110.805 122.219 109.162 122.219H85.6406V118.772Z" fill="#DDA758"/>
<path d="M111.359 110.628C111.544 110.704 112.333 110.756 113.355 110.785C111.077 110.849 107.65 110.796 107.239 110.628C104.048 109.327 101.841 106.539 101.841 103.308C101.841 99.2056 105.399 95.3283 110.012 96.9458C107.563 97.904 105.961 100.555 105.961 103.308C105.961 106.539 108.168 109.327 111.359 110.628Z" fill="#40A084"/>
</g>
<defs>
<clipPath id="clip0_4117_441">
<rect width="138" height="136" fill="white"/>
</clipPath>
</defs>
</svg>
