<svg width="186" height="102" viewBox="0 0 186 102" fill="none" xmlns="http://www.w3.org/2000/svg">
<g clip-path="url(#clip0_4003_112)">
<path fill-rule="evenodd" clip-rule="evenodd" d="M146.459 84.6072C143.409 85.9521 141.996 89.6139 143.291 92.7721L155.728 123.162C157.023 126.32 160.556 127.781 163.605 126.436C166.656 125.091 168.069 121.43 166.774 118.27L154.336 87.8812C153.042 84.7227 149.508 83.2623 146.459 84.6072Z" fill="#C6775C"/>
<path fill-rule="evenodd" clip-rule="evenodd" d="M139.847 75.612L138.611 76.3092C134.641 78.496 133.122 83.6399 135.225 87.7909L148.377 113.363C150.479 117.514 155.444 119.083 159.418 116.853L160.655 116.156C164.624 113.97 166.143 108.826 164.041 104.675L150.894 79.0602C148.787 74.9512 143.822 73.3832 139.847 75.612Z" fill="#D83867"/>
<path fill-rule="evenodd" clip-rule="evenodd" d="M105.064 84.5218C108.138 85.8102 109.613 89.4447 108.37 92.6262L96.4304 123.233C95.1878 126.413 91.6777 127.938 88.6043 126.649C85.5303 125.361 84.0557 121.727 85.2988 118.545L97.2373 87.9391C98.5225 84.7988 101.991 83.2334 105.064 84.5218Z" fill="#C6775C"/>
<path fill-rule="evenodd" clip-rule="evenodd" d="M111.557 75.4119L112.806 76.0859C116.812 78.1983 118.416 83.3119 116.382 87.5001L103.652 113.347C101.618 117.535 96.6774 119.195 92.6651 117.04L91.4162 116.366C87.4102 114.254 85.8064 109.14 87.8409 104.953L100.57 79.1052C102.611 74.9589 107.511 73.3055 111.557 75.4119Z" fill="#D83867"/>
<path fill-rule="evenodd" clip-rule="evenodd" d="M124.418 64.7156H126.996C142.058 64.7156 154.254 77.3375 154.254 92.9247C154.254 108.511 142.058 121.133 126.996 121.133H124.418C109.356 121.133 97.1602 108.511 97.1602 92.9247C97.1602 77.3375 109.356 64.7156 124.418 64.7156Z" fill="#D83867"/>
<mask id="mask0_4003_112" style="mask-type:luminance" maskUnits="userSpaceOnUse" x="97" y="64" width="58" height="58">
<path fill-rule="evenodd" clip-rule="evenodd" d="M124.418 64.7156H126.996C142.058 64.7156 154.254 77.3375 154.254 92.9247C154.254 108.511 142.058 121.133 126.996 121.133H124.418C109.356 121.133 97.1602 108.511 97.1602 92.9247C97.1602 77.3375 109.356 64.7156 124.418 64.7156Z" fill="white"/>
</mask>
<g mask="url(#mask0_4003_112)">
<path d="M115.345 83.3613C115.018 83.3613 114.65 83.2342 114.404 82.9801L111.458 79.9304C110.966 79.4222 110.966 78.5328 111.458 78.0245C111.948 77.5162 112.808 77.5162 113.299 78.0245L115.304 80.0999L117.309 78.0245C117.801 77.5162 118.66 77.5162 119.152 78.0245C119.642 78.5328 119.642 79.4222 119.152 79.9304L116.205 82.9801C116.041 83.1919 115.713 83.3613 115.345 83.3613Z" fill="#C52F5B"/>
<path d="M115.345 91.1128C115.018 91.1128 114.65 90.9857 114.404 90.7316L111.458 87.682C110.966 87.1737 110.966 86.2842 111.458 85.776C111.948 85.2677 112.808 85.2677 113.299 85.776L115.304 87.8514L117.309 85.776C117.801 85.2677 118.66 85.2677 119.152 85.776C119.642 86.2842 119.642 87.1737 119.152 87.682L116.205 90.7316C116.041 90.9433 115.713 91.1128 115.345 91.1128Z" fill="#C52F5B"/>
<path d="M136.136 83.3613C135.808 83.3613 135.441 83.2342 135.195 82.9801L132.248 79.9304C131.757 79.4222 131.757 78.5328 132.248 78.0245C132.739 77.5162 133.599 77.5162 134.09 78.0245L136.095 80.0999L138.101 78.0245C138.592 77.5162 139.451 77.5162 139.943 78.0245C140.434 78.5328 140.434 79.4222 139.943 79.9304L136.996 82.9801C136.791 83.1919 136.464 83.3613 136.136 83.3613Z" fill="#C52F5B"/>
<path d="M136.136 91.1128C135.808 91.1128 135.441 90.9857 135.195 90.7316L132.248 87.682C131.757 87.1737 131.757 86.2842 132.248 85.776C132.739 85.2677 133.599 85.2677 134.09 85.776L136.095 87.8514L138.101 85.776C138.592 85.2677 139.451 85.2677 139.943 85.776C140.434 86.2842 140.434 87.1737 139.943 87.682L136.996 90.7316C136.791 90.9433 136.464 91.1128 136.136 91.1128Z" fill="#C52F5B"/>
<path d="M126.069 83.3613C125.742 83.3613 125.373 83.2342 125.128 82.9801L122.181 79.9304C121.69 79.4222 121.69 78.5328 122.181 78.0245C122.673 77.5162 123.532 77.5162 124.023 78.0245L126.029 80.0999L128.034 78.0245C128.524 77.5162 129.385 77.5162 129.875 78.0245C130.367 78.5328 130.367 79.4222 129.875 79.9304L126.928 82.9801C126.724 83.1919 126.397 83.3613 126.069 83.3613Z" fill="#C52F5B"/>
<path d="M126.069 91.1128C125.742 91.1128 125.373 90.9857 125.128 90.7316L122.181 87.682C121.69 87.1737 121.69 86.2842 122.181 85.776C122.673 85.2677 123.532 85.2677 124.023 85.776L126.029 87.8514L128.034 85.776C128.524 85.2677 129.385 85.2677 129.875 85.776C130.367 86.2842 130.367 87.1737 129.875 87.682L126.928 90.7316C126.724 90.9433 126.397 91.1128 126.069 91.1128Z" fill="#C52F5B"/>
</g>
<path d="M136.188 2.68698C125.491 -3.19973 112.208 1.00217 106.52 12.0722C100.832 23.1422 104.892 36.8884 115.589 42.7751C126.285 48.6618 139.568 44.4599 145.256 33.3899C150.945 22.3199 146.884 8.57369 136.188 2.68698Z" fill="#1C5D88"/>
<path opacity="0.2085" d="M140.801 6.05908L119.765 22.2813L121.115 24.1448L142.357 7.71095C141.865 7.16032 141.333 6.60971 140.801 6.05908Z" fill="black"/>
<path fill-rule="evenodd" clip-rule="evenodd" d="M116.712 24.4336L125.962 17.4873L135.088 24.4336C138.158 26.7631 139.959 30.448 139.959 34.3871V66.5349H111.76V34.4295C111.76 30.4904 113.602 26.7631 116.712 24.4336Z" fill="#C6775C"/>
<mask id="mask1_4003_112" style="mask-type:luminance" maskUnits="userSpaceOnUse" x="111" y="17" width="29" height="50">
<path fill-rule="evenodd" clip-rule="evenodd" d="M116.712 24.4336L125.962 17.4873L135.088 24.4336C138.158 26.7631 139.959 30.448 139.959 34.3871V66.5349H111.76V34.4295C111.76 30.4904 113.602 26.7631 116.712 24.4336Z" fill="white"/>
</mask>
<g mask="url(#mask1_4003_112)">
<path fill-rule="evenodd" clip-rule="evenodd" d="M130.663 25.9595C132.833 25.9595 134.592 27.7808 134.592 30.0256V33.2869C134.592 35.5318 132.833 37.3531 130.663 37.3531C128.494 37.3531 126.734 35.5318 126.734 33.2869V30.0256C126.734 27.7808 128.494 25.9595 130.663 25.9595Z" fill="white"/>
<path fill-rule="evenodd" clip-rule="evenodd" d="M120.39 25.9595C118.221 25.9595 116.461 27.7808 116.461 30.0256V33.2869C116.461 35.5318 118.221 37.3531 120.39 37.3531C122.559 37.3531 124.319 35.5318 124.319 33.2869V30.0256C124.319 27.7808 122.559 25.9595 120.39 25.9595Z" fill="white"/>
<path fill-rule="evenodd" clip-rule="evenodd" d="M121.086 28.8401C120.185 28.8401 119.448 29.6024 119.448 30.5343V32.6944C119.448 33.6262 120.185 34.3886 121.086 34.3886C121.986 34.3886 122.723 33.6262 122.723 32.6944V30.5343C122.763 29.6024 121.986 28.8401 121.086 28.8401Z" fill="#4B4B4B"/>
<path fill-rule="evenodd" clip-rule="evenodd" d="M129.925 29.0088C129.025 29.0088 128.289 29.7711 128.289 30.703V32.8631C128.289 33.7949 129.025 34.5573 129.925 34.5573C130.826 34.5573 131.562 33.7949 131.562 32.8631V30.703C131.562 29.7711 130.826 29.0088 129.925 29.0088Z" fill="#4B4B4B"/>
</g>
<mask id="mask2_4003_112" style="mask-type:luminance" maskUnits="userSpaceOnUse" x="111" y="17" width="29" height="50">
<path fill-rule="evenodd" clip-rule="evenodd" d="M116.712 24.4336L125.962 17.4873L135.088 24.4336C138.158 26.7631 139.959 30.448 139.959 34.3871V66.5349H111.76V34.4295C111.76 30.4904 113.602 26.7631 116.712 24.4336Z" fill="white"/>
</mask>
<g mask="url(#mask2_4003_112)">
<path d="M121.747 42.4773C120.232 41.249 117.982 40.3595 115.076 39.8513L115.894 34.6838C119.7 35.3192 122.729 36.5475 124.939 38.3688L121.747 42.4773Z" fill="#C6775C"/>
</g>
<mask id="mask3_4003_112" style="mask-type:luminance" maskUnits="userSpaceOnUse" x="111" y="17" width="29" height="50">
<path fill-rule="evenodd" clip-rule="evenodd" d="M116.712 24.4336L125.962 17.4873L135.088 24.4336C138.158 26.7631 139.959 30.448 139.959 34.3871V66.5349H111.76V34.4295C111.76 30.4904 113.602 26.7631 116.712 24.4336Z" fill="white"/>
</mask>
<g mask="url(#mask3_4003_112)">
<path d="M129.236 42.4769L126.085 38.4108C128.254 36.6318 131.282 35.3612 135.13 34.7258L135.948 39.8933C133.002 40.3592 130.75 41.2062 129.236 42.4769Z" fill="#C6775C"/>
</g>
<path fill-rule="evenodd" clip-rule="evenodd" d="M115.321 39.9004H135.662C140.941 39.9004 145.239 44.3477 145.239 49.8116C145.239 55.2755 140.941 59.7228 135.662 59.7228H115.279C110.001 59.7228 105.703 55.2755 105.703 49.8116C105.744 44.3053 110.041 39.9004 115.321 39.9004Z" fill="#3D3D3D"/>
<path d="M123.739 50.7232C120.26 50.7232 117.191 48.9867 115.104 45.7676C113.671 43.6075 114.203 40.6002 116.331 39.1178C117.354 38.3978 118.582 38.1436 119.769 38.3554C120.997 38.6096 122.02 39.2872 122.716 40.3462C123.248 41.1509 123.493 41.1932 123.943 41.1085C126.481 40.812 128.732 42.7603 129.018 45.3441C129.265 47.9701 127.422 50.2996 124.926 50.5961C124.516 50.7232 124.107 50.7232 123.739 50.7232ZM118.869 40.6426C118.418 40.6426 117.928 40.7697 117.559 41.0661C116.495 41.8286 116.208 43.3533 116.945 44.4546C118.827 47.3348 121.529 48.6901 124.68 48.3513C125.949 48.2242 126.89 46.9959 126.768 45.6829C126.645 44.3276 125.458 43.3957 124.19 43.5228C122.756 43.6922 121.774 43.1416 120.834 41.7438C120.465 41.1932 119.933 40.8544 119.319 40.7273C119.196 40.6426 119.032 40.6426 118.869 40.6426Z" fill="#3D3D3D"/>
<mask id="mask4_4003_112" style="mask-type:luminance" maskUnits="userSpaceOnUse" x="116" y="40" width="11" height="9">
<path fill-rule="evenodd" clip-rule="evenodd" d="M120.833 41.7016C121.774 43.1418 122.797 43.65 124.189 43.4806C125.499 43.3535 126.645 44.3277 126.767 45.6407C126.89 46.9961 125.949 48.182 124.68 48.3091C121.529 48.6479 118.827 47.2926 116.944 44.4124C116.208 43.3111 116.494 41.7864 117.558 41.0239C118.623 40.2616 120.096 40.6004 120.833 41.7016Z" fill="white"/>
</mask>
<g mask="url(#mask4_4003_112)">
<path fill-rule="evenodd" clip-rule="evenodd" d="M120.342 38.6099H127.504C128.773 38.6099 129.796 39.6687 129.796 40.9818V42.2948C129.796 43.6078 128.773 44.6667 127.504 44.6667H120.342C119.073 44.6667 118.05 43.6078 118.05 42.2948V40.9818C118.05 39.6687 119.073 38.6099 120.342 38.6099Z" fill="white"/>
</g>
<mask id="mask5_4003_112" style="mask-type:luminance" maskUnits="userSpaceOnUse" x="116" y="40" width="11" height="9">
<path fill-rule="evenodd" clip-rule="evenodd" d="M120.833 41.7016C121.774 43.1418 122.797 43.65 124.189 43.4806C125.499 43.3535 126.645 44.3277 126.767 45.6407C126.89 46.9961 125.949 48.182 124.68 48.3091C121.529 48.6479 118.827 47.2926 116.944 44.4124C116.208 43.3111 116.494 41.7864 117.558 41.0239C118.623 40.2616 120.096 40.6004 120.833 41.7016Z" fill="white"/>
</mask>
<g mask="url(#mask5_4003_112)">
<path fill-rule="evenodd" clip-rule="evenodd" d="M120.342 43.9043H127.504C128.773 43.9043 129.796 44.9632 129.796 46.2762V47.5893C129.796 48.9023 128.773 49.9612 127.504 49.9612H120.342C119.073 49.9612 118.05 48.9023 118.05 47.5893V46.2762C118.05 44.9632 119.073 43.9043 120.342 43.9043Z" fill="white"/>
</g>
<path fill-rule="evenodd" clip-rule="evenodd" d="M124.079 37.5286H126.863C127.967 37.5286 128.868 38.4604 128.868 39.604C128.868 40.7476 127.967 41.6794 126.863 41.6794H124.079C122.975 41.6794 122.074 40.7476 122.074 39.604C122.074 38.4604 122.975 37.5286 124.079 37.5286Z" fill="#C6775C"/>
<path fill-rule="evenodd" clip-rule="evenodd" d="M111.186 65.0603H140.613C141.391 65.0603 142.005 65.6956 142.005 66.5003V67.771C142.005 68.5758 141.391 69.2112 140.613 69.2112H111.186C110.409 69.2112 109.795 68.5758 109.795 67.771V66.5003C109.795 65.738 110.409 65.0603 111.186 65.0603Z" fill="#D83867"/>
<path fill-rule="evenodd" clip-rule="evenodd" d="M9.459 60.3794C12.0783 60.3794 14.2065 62.5819 14.2065 65.2927V98.4566C14.2065 101.167 12.0783 103.37 9.459 103.37C6.83964 103.37 4.71143 101.167 4.71143 98.4566V65.2927C4.75235 62.5819 6.88057 60.3794 9.459 60.3794Z" fill="#3D3D3D"/>
<path fill-rule="evenodd" clip-rule="evenodd" d="M53.0464 65.928C55.6658 65.928 57.794 68.1304 57.794 70.8413V104.005C57.794 106.716 55.6658 108.919 53.0464 108.919C50.4271 108.919 48.2988 106.716 48.2988 104.005V70.8413C48.3398 68.1304 50.4271 65.928 53.0464 65.928Z" fill="#3D3D3D"/>
<path fill-rule="evenodd" clip-rule="evenodd" d="M18.7486 67.5801C21.3679 67.5801 23.4961 69.7825 23.4961 72.4933V105.657C23.4961 108.368 21.3679 110.571 18.7486 110.571C16.1292 110.571 14.001 108.368 14.001 105.657V72.4933C14.0419 69.7825 16.1701 67.5801 18.7486 67.5801Z" fill="#3D3D3D"/>
<path fill-rule="evenodd" clip-rule="evenodd" d="M55.2153 58.5156C57.8346 58.5156 59.9629 60.7181 59.9629 63.4289V84.7337C59.9629 87.4445 57.8346 89.6469 55.2153 89.6469C52.596 89.6469 50.4678 87.4445 50.4678 84.7337V63.4289C50.4678 60.7181 52.596 58.5156 55.2153 58.5156Z" fill="#3D3D3D"/>
<path fill-rule="evenodd" clip-rule="evenodd" d="M27.7111 17.9817C40.3985 17.9817 50.6713 28.6128 50.6713 41.7431V79.7783C50.6713 92.9081 40.3985 103.54 27.7111 103.54C15.0237 103.54 4.75098 92.9081 4.75098 79.7783V41.7431C4.75098 28.6128 15.0237 17.9817 27.7111 17.9817Z" fill="#3D3D3D"/>
<path fill-rule="evenodd" clip-rule="evenodd" d="M50.1401 39.2864H51.9001C57.8345 39.2864 62.623 44.242 62.623 50.3835V83.5479C62.623 89.6894 57.8345 94.6449 51.9001 94.6449H50.1401C44.2058 94.6449 39.4173 89.6894 39.4173 83.5479V50.3835C39.3763 44.242 44.2058 39.2864 50.1401 39.2864Z" fill="#3D3D3D"/>
<path fill-rule="evenodd" clip-rule="evenodd" d="M25.5689 90.7236C27.7647 91.1562 29.1855 93.3824 28.7695 95.6558L24.723 117.578C24.307 119.852 22.1981 121.311 20.0023 120.879C17.8066 120.446 16.3858 118.22 16.8018 115.947L20.8482 94.0247C21.2643 91.7511 23.364 90.2499 25.5689 90.7236Z" fill="#A56644"/>
<path fill-rule="evenodd" clip-rule="evenodd" d="M28.5645 85.0422L29.4118 85.3001C32.3582 86.1806 34.0425 89.3258 33.1911 92.3761L28.2119 110.558C27.3605 113.608 24.3218 115.353 21.3733 114.515C21.3733 114.515 21.3733 114.515 21.3323 114.512L20.485 114.254C17.5386 113.373 15.8543 110.229 16.7057 107.178L21.6849 88.9964C22.5363 85.946 25.5771 84.1594 28.5645 85.0422Z" fill="#FFB100"/>
<path fill-rule="evenodd" clip-rule="evenodd" d="M30.3727 80.9224H38.9265C43.6332 80.9224 47.4394 84.8614 47.4394 89.7323V93.5442C47.4394 96.2973 45.2703 98.5422 42.61 98.5422H26.7302C24.07 98.5422 21.9009 96.2973 21.9009 93.5442V89.7323C21.9009 84.8614 25.7071 80.9224 30.3727 80.9224Z" fill="#FFB100"/>
<path fill-rule="evenodd" clip-rule="evenodd" d="M34.3416 36.1099H35.3648C42.527 36.1099 48.3386 42.1244 48.3386 49.5366V55.8475C48.3386 63.2597 42.527 69.2742 35.3648 69.2742H34.3416C27.1794 69.2742 21.3677 63.2597 21.3677 55.8475V49.5366C21.3677 42.1244 27.1794 36.1099 34.3416 36.1099Z" fill="#FFB100"/>
<path fill-rule="evenodd" clip-rule="evenodd" d="M34.8327 42.9712C42.2815 42.9712 48.2977 49.2398 48.2977 56.9061V67.9609C48.2977 71.9423 45.1873 75.1614 41.3402 75.1614H28.3253C24.4781 75.1614 21.3677 71.9423 21.3677 67.9609V56.9485C21.3677 49.2398 27.384 42.9712 34.8327 42.9712Z" fill="#A56644"/>
<path fill-rule="evenodd" clip-rule="evenodd" d="M35.0594 66.8321C33.586 66.4509 32.1536 66.0697 30.6802 65.7308C29.4524 65.4344 28.2655 64.9261 27.0376 64.2908C26.5056 63.9942 25.8508 64.206 25.6053 64.7567C25.5233 64.9261 25.4824 65.0955 25.4824 65.2649V68.1451C25.4824 70.517 27.3242 72.423 29.6161 72.423H34.8548C35.4278 72.423 35.9189 71.9148 35.9189 71.3218V67.9334C35.878 67.4251 35.5505 66.9591 35.0594 66.8321Z" fill="#932626"/>
<mask id="mask6_4003_112" style="mask-type:luminance" maskUnits="userSpaceOnUse" x="25" y="64" width="11" height="9">
<path fill-rule="evenodd" clip-rule="evenodd" d="M35.0594 66.8321C33.586 66.4509 32.1536 66.0697 30.6802 65.7308C29.4524 65.4344 28.2655 64.9261 27.0376 64.2908C26.5056 63.9942 25.8508 64.206 25.6053 64.7567C25.5233 64.9261 25.4824 65.0955 25.4824 65.2649V68.1451C25.4824 70.517 27.3242 72.423 29.6161 72.423H34.8548C35.4278 72.423 35.9189 71.9148 35.9189 71.3218V67.9334C35.878 67.4251 35.5505 66.9591 35.0594 66.8321Z" fill="white"/>
</mask>
<g mask="url(#mask6_4003_112)">
<path d="M25.2282 69.798C23.1727 70.9292 22.3925 73.5707 23.4856 75.698C24.5786 77.8253 27.1311 78.6327 29.1866 77.5014C31.2421 76.3703 32.0223 73.7287 30.9293 71.6014C29.8362 69.4742 27.2838 68.6668 25.2282 69.798Z" fill="#FF4B4B"/>
</g>
<mask id="mask7_4003_112" style="mask-type:luminance" maskUnits="userSpaceOnUse" x="25" y="64" width="11" height="9">
<path fill-rule="evenodd" clip-rule="evenodd" d="M35.0594 66.8321C33.586 66.4509 32.1536 66.0697 30.6802 65.7308C29.4524 65.4344 28.2655 64.9261 27.0376 64.2908C26.5056 63.9942 25.8508 64.206 25.6053 64.7567C25.5233 64.9261 25.4824 65.0955 25.4824 65.2649V68.1451C25.4824 70.517 27.3242 72.423 29.6161 72.423H34.8548C35.4278 72.423 35.9189 71.9148 35.9189 71.3218V67.9334C35.878 67.4251 35.5505 66.9591 35.0594 66.8321Z" fill="white"/>
</mask>
<g mask="url(#mask7_4003_112)">
<path fill-rule="evenodd" clip-rule="evenodd" d="M36.7785 62.2156H28.5112C27.5289 62.2156 26.7104 63.0626 26.7104 64.0792V66.3664C26.7104 67.3829 27.5289 68.2301 28.5112 68.2301H36.7785C37.7608 68.2301 38.5793 67.3829 38.5793 66.3664V64.0792C38.5384 63.0626 37.7608 62.2156 36.7785 62.2156Z" fill="white"/>
</g>
<path fill-rule="evenodd" clip-rule="evenodd" d="M40.1954 50.3835C42.4055 50.3835 44.2063 52.2472 44.2063 54.5344V57.8805C44.2063 60.1676 42.4055 62.0313 40.1954 62.0313C37.9854 62.0313 36.1846 60.1676 36.1846 57.8805V54.5344C36.1846 52.2472 37.9854 50.3835 40.1954 50.3835Z" fill="white"/>
<path fill-rule="evenodd" clip-rule="evenodd" d="M29.6769 50.3835C27.4669 50.3835 25.666 52.2472 25.666 54.5344V57.8805C25.666 60.1676 27.4669 62.0313 29.6769 62.0313C31.887 62.0313 33.6878 60.1676 33.6878 57.8805V54.5344C33.6878 52.2472 31.887 50.3835 29.6769 50.3835Z" fill="white"/>
<path fill-rule="evenodd" clip-rule="evenodd" d="M30.3718 53.3484C29.4305 53.3484 28.6938 54.1531 28.6938 55.085V57.3298C28.6938 58.3039 29.4714 59.0664 30.3718 59.0664C31.3132 59.0664 32.0498 58.2616 32.0498 57.3298V55.085C32.0498 54.1107 31.3132 53.3484 30.3718 53.3484Z" fill="#4B4B4B"/>
<path fill-rule="evenodd" clip-rule="evenodd" d="M39.4993 53.3484C38.5579 53.3484 37.8213 54.1531 37.8213 55.085V57.3298C37.8213 58.3039 38.5989 59.0664 39.4993 59.0664C40.4406 59.0664 41.1773 58.2616 41.1773 57.3298V55.085C41.1773 54.1107 40.3997 53.3484 39.4993 53.3484Z" fill="#4B4B4B"/>
<path d="M29.39 63.9791C28.3668 63.005 26.5252 62.2002 23.9058 61.5225L24.5607 58.8118C27.6711 59.6165 29.8402 60.6331 31.2318 61.9037L29.39 63.9791Z" fill="#A56644"/>
<path fill-rule="evenodd" clip-rule="evenodd" d="M34.915 55.5505C35.488 55.5505 35.9791 56.0165 36.02 56.6095L36.5111 63.1745C36.593 64.1064 35.8973 64.9111 35.0378 64.9535C34.9968 64.9535 34.9559 64.9535 34.915 64.9535C34.0146 64.9535 33.3188 64.1911 33.3188 63.3016C33.3188 63.2593 33.3188 63.2169 33.3188 63.1745L33.81 56.6095C33.8509 56.0165 34.342 55.5505 34.915 55.5505Z" fill="#8D4D2B"/>
<path fill-rule="evenodd" clip-rule="evenodd" d="M34.9143 61.6921C36.1013 61.6921 37.0425 62.6664 37.0425 63.8947C37.0425 65.1229 36.1013 66.0972 34.9143 66.0972C33.7275 66.0972 32.7861 65.1229 32.7861 63.8947C32.7861 62.6664 33.7275 61.6921 34.9143 61.6921Z" fill="#8D4D2B"/>
<path fill-rule="evenodd" clip-rule="evenodd" d="M26.976 29.8416C29.1043 29.8416 30.8232 31.6205 30.8232 33.823V45.6825C30.8232 47.885 29.1043 49.6639 26.976 49.6639C24.8478 49.6639 23.1289 47.885 23.1289 45.6825V33.823C23.1289 31.6205 24.8478 29.8416 26.976 29.8416Z" fill="#3D3D3D"/>
<path fill-rule="evenodd" clip-rule="evenodd" d="M30.9863 74.0601H38.3122V80.7523H30.9863V74.0601Z" fill="#A56644"/>
<path d="M4.99731 50.1293C4.62896 50.1293 4.30154 50.0869 3.9332 50.0022C1.72313 49.4092 0.41346 47.0797 1.02737 44.7925C3.60578 34.7543 7.28923 28.401 12.3233 25.3514C14.2878 24.1654 16.8252 24.8431 17.9303 26.8761C19.0763 28.9093 18.4214 31.5353 16.4569 32.6788C14.4105 33.9072 11.4228 37.4227 8.96728 46.9103C8.47611 48.8586 6.83903 50.1293 4.99731 50.1293Z" fill="#3D3D3D"/>
<path d="M61.6402 61.311C59.8394 61.311 58.1614 60.0827 57.6703 58.1768C55.7467 50.9763 53.5776 48.7315 52.4725 48.0114C50.5079 46.7831 49.8941 44.1994 51.081 42.1663C52.2679 40.1333 54.7644 39.498 56.7289 40.7263C60.658 43.1828 63.5637 48.1385 65.6101 55.9319C66.2241 58.2191 64.9143 60.5487 62.7452 61.184C62.3769 61.2686 62.0085 61.311 61.6402 61.311Z" fill="#3D3D3D"/>
<path fill-rule="evenodd" clip-rule="evenodd" d="M49.3206 53.8994C50.7531 53.8994 51.899 55.0854 51.899 56.5678V59.3632C51.899 60.8457 50.7531 62.0317 49.3206 62.0317C47.8882 62.0317 46.7422 60.8457 46.7422 59.3632V56.5678C46.7013 55.0854 47.8882 53.8994 49.3206 53.8994Z" fill="#A56644"/>
<path fill-rule="evenodd" clip-rule="evenodd" d="M20.1819 53.8994C21.6144 53.8994 22.7603 55.0854 22.7603 56.5678V59.3632C22.7603 60.8457 21.6144 62.0317 20.1819 62.0317C18.7495 62.0317 17.6035 60.8457 17.6035 59.3632V56.5678C17.6035 55.0854 18.7495 53.8994 20.1819 53.8994Z" fill="#A56644"/>
<path fill-rule="evenodd" clip-rule="evenodd" d="M28.1625 75.2041H41.7094C42.2006 75.2041 42.6099 75.6277 42.6099 76.136V83.7176C42.6099 84.2259 42.2006 84.6494 41.7094 84.6494H28.1216C27.6305 84.6494 27.2212 84.2259 27.2212 83.7176V76.136C27.2621 75.5854 27.6305 75.2041 28.1625 75.2041Z" fill="#FFB100"/>
<path fill-rule="evenodd" clip-rule="evenodd" d="M25.8042 98.52H36.2407L37.755 144.73C37.7959 145.958 36.8546 146.975 35.6677 147.017C35.6268 147.017 35.6268 147.017 35.5858 147.017H27.7278C26.5409 147.017 25.5996 146.043 25.5996 144.814L25.8042 98.52Z" fill="#1CB0F6"/>
<path fill-rule="evenodd" clip-rule="evenodd" d="M44.0177 98.52H33.4995L41.03 145.153C41.1938 146.212 42.0942 147.017 43.1583 147.017H51.0163C52.2032 147.017 53.1446 146.043 53.1446 144.814C53.1446 144.645 53.1446 144.518 53.1036 144.348L44.0177 98.52Z" fill="#1CB0F6"/>
<path fill-rule="evenodd" clip-rule="evenodd" d="M26.1566 97.7793H43.5097C43.7553 97.7793 44.0008 97.9493 44.0417 98.2029L44.5328 100.617C44.5737 100.914 44.4101 101.211 44.1235 101.295C44.0826 101.295 44.0417 101.295 44.0008 101.295H26.1566C25.87 101.295 25.6245 101.041 25.6245 100.745V98.3297C25.6245 98.0338 25.87 97.7793 26.1566 97.7793Z" fill="#3D3D3D"/>
<path fill-rule="evenodd" clip-rule="evenodd" d="M42.439 80.7463L54.6353 89.0057C57.2137 90.7422 57.9095 94.3003 56.2315 96.9688C56.0677 97.2225 55.8631 97.477 55.6585 97.7306L48.4143 105.905C48.1279 106.202 47.6777 106.244 47.3912 105.948C47.2684 105.821 47.1866 105.694 47.1866 105.566L42.439 80.7463Z" fill="#FFB100"/>
<path fill-rule="evenodd" clip-rule="evenodd" d="M44.6908 95.5289L47.3511 96.3329C48.3333 96.6297 49.0291 97.5615 49.0291 98.6624V104.55C49.0291 105.863 48.0059 106.965 46.6963 106.965C46.4097 106.965 46.1642 106.923 45.9186 106.837L41.7031 105.27V97.816C41.7031 96.5029 42.7263 95.4011 44.036 95.4011C44.2406 95.4434 44.4861 95.4434 44.6908 95.5289Z" fill="#A56644"/>
<path fill-rule="evenodd" clip-rule="evenodd" d="M41.8259 95.3589H43.7904C44.7317 95.3589 45.5093 96.1639 45.5093 97.1379V97.3079C45.5093 98.282 44.7317 99.0869 43.7904 99.0869H41.8259C40.8846 99.0869 40.1069 98.282 40.1069 97.3079V97.1379C40.1069 96.1639 40.8846 95.3589 41.8259 95.3589Z" fill="#A56644"/>
<path fill-rule="evenodd" clip-rule="evenodd" d="M39.6562 97.9854H42.8485C43.9945 97.9854 44.8949 98.9594 44.8949 100.103C44.8949 101.289 43.9536 102.221 42.8485 102.221H39.6562C38.5103 102.221 37.6099 101.247 37.6099 100.103C37.6099 98.9171 38.5103 97.9854 39.6562 97.9854Z" fill="#A56644"/>
<path fill-rule="evenodd" clip-rule="evenodd" d="M40.7613 102.305L42.644 101.246C43.5853 100.696 44.7722 101.035 45.3042 102.051C45.8363 103.026 45.4679 104.254 44.5266 104.805L42.644 105.863C41.7026 106.414 40.5158 106.075 39.9837 105.058C39.4926 104.084 39.82 102.856 40.7613 102.305Z" fill="#A56644"/>
<path d="M66.8741 56.6936C69.3604 56.6936 71.3761 54.6077 71.3761 52.0346C71.3761 49.4614 69.3604 47.3755 66.8741 47.3755C64.3877 47.3755 62.3721 49.4614 62.3721 52.0346C62.3721 54.6077 64.3877 56.6936 66.8741 56.6936Z" fill="#E79B7E"/>
<path d="M100.843 56.6936C103.33 56.6936 105.345 54.6077 105.345 52.0346C105.345 49.4614 103.33 47.3755 100.843 47.3755C98.3567 47.3755 96.3408 49.4614 96.3408 52.0346C96.3408 54.6077 98.3567 56.6936 100.843 56.6936Z" fill="#E79B7E"/>
<path fill-rule="evenodd" clip-rule="evenodd" d="M65.8478 81.1515C68.3417 82.2484 69.5067 85.2156 68.4474 87.7968L56.0033 118.168C55.5483 119.244 54.378 119.753 53.3384 119.281L48.06 116.971C47.0204 116.501 46.529 115.288 46.984 114.212L59.4282 83.8413C60.4874 81.2601 63.3539 80.0547 65.8478 81.1515Z" fill="#E79B7E"/>
<path fill-rule="evenodd" clip-rule="evenodd" d="M67.7418 76.633C70.2357 77.7298 71.4006 80.697 70.3414 83.2782L57.9731 113.477L48.9131 109.523L61.2813 79.3241C62.3813 76.7415 65.2479 75.5361 67.7418 76.633Z" fill="#1CB0F6"/>
<path fill-rule="evenodd" clip-rule="evenodd" d="M52.0241 99.8322L61.6265 104.064C62.4574 104.416 62.8599 105.418 62.4794 106.279L59.9059 112.518C59.5665 113.378 58.5978 113.794 57.7655 113.401L48.1631 109.169C47.3322 108.817 46.9298 107.815 47.3102 106.954L49.8837 100.715C50.2232 99.8552 51.1933 99.4812 52.0241 99.8322Z" fill="#42C2FF"/>
<path fill-rule="evenodd" clip-rule="evenodd" d="M75.8254 73.8337H83.9699C96.7804 73.8337 107.176 84.5921 107.176 97.8491V150.667C107.176 152.404 105.784 153.843 104.106 153.843H63.8337C62.1557 153.843 60.7642 152.404 60.7642 150.667V89.4206C60.7642 80.8224 67.5171 73.8337 75.8254 73.8337Z" fill="#1CB0F6"/>
<mask id="mask8_4003_112" style="mask-type:luminance" maskUnits="userSpaceOnUse" x="60" y="73" width="48" height="81">
<path fill-rule="evenodd" clip-rule="evenodd" d="M75.8254 73.8337H83.9699C96.7804 73.8337 107.176 84.5921 107.176 97.8491V150.667C107.176 152.404 105.784 153.843 104.106 153.843H63.8337C62.1557 153.843 60.7642 152.404 60.7642 150.667V89.4206C60.7642 80.8224 67.5171 73.8337 75.8254 73.8337Z" fill="white"/>
</mask>
<g mask="url(#mask8_4003_112)">
<path fill-rule="evenodd" clip-rule="evenodd" d="M86.1799 80.3143L88.8402 94.1642C89.004 95.0115 88.6763 95.901 88.0217 96.4514L84.7884 99.0354C84.502 99.2899 84.0927 99.2899 83.8061 99.0354L80.5729 96.4514C79.8772 95.901 79.5907 95.0115 79.7544 94.1642L82.4147 80.2295C81.8416 80.0178 81.3915 79.5942 81.1459 79.0012L80.2864 77.0953C79.7544 75.9093 80.2864 74.5539 81.3915 74.0033C81.678 73.8762 82.0054 73.7915 82.3328 73.7915H86.4665C87.6943 73.7915 88.7171 74.8505 88.7171 76.1211C88.7171 76.46 88.6356 76.7988 88.5128 77.0953L87.6533 79.0012C87.3668 79.6789 86.7938 80.1448 86.1799 80.3143Z" fill="#189AE8"/>
</g>
<path fill-rule="evenodd" clip-rule="evenodd" d="M69.765 50.1108C65.7541 50.1108 62.48 46.7647 62.48 42.6562C62.48 38.5477 65.7541 35.2017 69.765 35.2017C73.7758 35.2017 77.0501 38.5477 77.0501 42.6562C77.0501 46.7647 73.8168 50.1108 69.765 50.1108ZM96.8182 50.1108C92.8068 50.1108 89.5332 46.7647 89.5332 42.6562C89.5332 38.5477 92.8068 35.2017 96.8182 35.2017C100.829 35.2017 104.103 38.5477 104.103 42.6562C104.103 46.7647 100.869 50.1108 96.8182 50.1108Z" fill="#807A7A"/>
<path fill-rule="evenodd" clip-rule="evenodd" d="M96.8182 35.1604C92.8077 35.1604 89.5332 38.5065 89.5332 42.6149C89.5332 42.7844 89.5332 42.9538 89.574 43.1232H104.103C104.103 42.9538 104.144 42.7844 104.144 42.6149C104.144 38.5065 100.87 35.1604 96.8182 35.1604Z" fill="#3D3D3D"/>
<path fill-rule="evenodd" clip-rule="evenodd" d="M77.0901 42.6149C77.0901 38.5065 73.8159 35.1604 69.805 35.1604C65.7942 35.1604 62.52 38.5065 62.52 42.6149C62.52 42.7844 62.52 42.9538 62.5609 43.1232H77.0492C77.0492 42.9962 77.0901 42.8268 77.0901 42.6149Z" fill="#3D3D3D"/>
<path d="M78.9211 26.7861C75.4686 24.886 71.1901 26.2255 69.3648 29.7779C67.5395 33.3301 68.8585 37.7501 72.311 39.6502C75.7635 41.5501 80.0421 40.2107 81.8673 36.6584C83.6927 33.106 82.3736 28.686 78.9211 26.7861Z" fill="#3D3D3D"/>
<path fill-rule="evenodd" clip-rule="evenodd" d="M83.7613 30.0452C91.619 30.0452 97.9634 36.6103 97.9634 44.7425V75.7467H69.5596V44.7425C69.5596 36.6103 75.9032 30.0452 83.7613 30.0452Z" fill="#E79B7E"/>
<mask id="mask9_4003_112" style="mask-type:luminance" maskUnits="userSpaceOnUse" x="69" y="30" width="29" height="46">
<path fill-rule="evenodd" clip-rule="evenodd" d="M83.7613 30.0452C91.619 30.0452 97.9634 36.6103 97.9634 44.7425V75.7467H69.5596V44.7425C69.5596 36.6103 75.9032 30.0452 83.7613 30.0452Z" fill="white"/>
</mask>
<g mask="url(#mask9_4003_112)">
<path fill-rule="evenodd" clip-rule="evenodd" d="M78.3478 41.8879C76.3833 41.8879 74.7871 43.5398 74.7871 45.5729V48.5377C74.7871 50.5708 76.3833 52.2227 78.3478 52.2227C80.3123 52.2227 81.9084 50.5708 81.9084 48.5377V45.5729C81.9084 43.5398 80.3123 41.8879 78.3478 41.8879Z" fill="white"/>
<path fill-rule="evenodd" clip-rule="evenodd" d="M79.0032 44.0059C78.0618 44.0059 77.2842 44.8106 77.2842 45.8272V48.1143C77.2842 49.1309 78.0618 49.9356 79.0032 49.9356C79.9444 49.9356 80.7221 49.1309 80.7221 48.1143V45.8272C80.7221 44.8106 79.9444 44.0059 79.0032 44.0059Z" fill="#4B4B4B"/>
<path fill-rule="evenodd" clip-rule="evenodd" d="M89.1611 41.8879C91.1256 41.8879 92.7217 43.5398 92.7217 45.5729V48.5377C92.7217 50.5708 91.1256 52.2227 89.1611 52.2227C87.1962 52.2227 85.6001 50.5708 85.6001 48.5377V45.5729C85.6001 43.5398 87.1962 41.8879 89.1611 41.8879Z" fill="white"/>
<path fill-rule="evenodd" clip-rule="evenodd" d="M88.506 44.0059C89.4474 44.0059 90.2251 44.8106 90.2251 45.8272V48.1143C90.2251 49.1309 89.4474 49.9356 88.506 49.9356C87.5647 49.9356 86.7871 49.1309 86.7871 48.1143V45.8272C86.7871 44.8106 87.5647 44.0059 88.506 44.0059Z" fill="#4B4B4B"/>
<path d="M80.9865 53.1975C80.7 53.1975 80.4135 53.1552 80.168 53.0281C78.8174 52.4775 76.8529 52.1387 74.3154 52.0539C73.0876 52.0116 72.1053 50.9103 72.1463 49.6397C72.1872 48.369 73.2513 47.3525 74.4791 47.3948C77.5487 47.5219 79.9633 47.9455 81.8051 48.7079C82.951 49.1738 83.524 50.5292 83.0738 51.715C82.7464 52.6469 81.8869 53.1975 80.9865 53.1975Z" fill="#E79B7E"/>
<path fill-rule="evenodd" clip-rule="evenodd" d="M83.7696 41.4653C84.5063 41.4653 85.0794 42.1007 85.0794 42.8207V52.3507C85.0794 53.1131 84.4654 53.7061 83.7696 53.7061C83.033 53.7061 82.4599 53.0707 82.4599 52.3507V42.8207C82.419 42.1007 83.033 41.4653 83.7696 41.4653Z" fill="#C75E49"/>
</g>
<path d="M87.7468 53.9825L86.2734 51.9494C87.8287 50.7634 89.9976 49.8316 92.9851 49.1963L93.4767 51.6953C90.9391 52.2459 89.0153 53.0506 87.7468 53.9825Z" fill="#E79B7E"/>
<path d="M83.776 57.328C83.4894 57.328 83.2029 57.328 82.9165 57.2857C80.9519 57.0315 79.2329 56.0574 78.0052 54.4479L77.8415 54.2361C77.5959 53.8973 77.6368 53.3889 77.9643 53.1348C78.2917 52.8807 78.7828 52.923 79.0284 53.2619L79.192 53.4736C80.1743 54.7443 81.5249 55.5491 83.0801 55.7185C84.6354 55.8879 86.1497 55.4644 87.3775 54.4479C87.7868 54.109 88.1551 53.7278 88.4416 53.3043C88.6868 52.9654 89.1784 52.8807 89.5061 53.1348C89.8329 53.3889 89.9153 53.8973 89.6691 54.2361C89.2599 54.7867 88.8099 55.2949 88.3189 55.7185C87.0092 56.7351 85.413 57.328 83.776 57.328Z" fill="#D87E64"/>
<path fill-rule="evenodd" clip-rule="evenodd" d="M97.8973 78.0405C95.8513 79.8618 95.6467 83.0808 97.4067 85.1985L108.088 97.9053C109.848 100.023 112.959 100.235 115.005 98.4134C117.052 96.5921 117.256 93.3732 115.496 91.2554L104.814 78.5488C103.013 76.3887 99.9442 76.1769 97.8973 78.0405Z" fill="#1CB0F6"/>
<path fill-rule="evenodd" clip-rule="evenodd" d="M68.1431 73.2119H100.762C101.13 73.2119 101.417 73.5084 101.417 73.8896V76.5156C101.417 76.8121 101.253 77.0662 101.008 77.151L92.8221 80.37L84.1866 75.4991L75.8374 80.37L67.8976 77.151C67.652 77.0662 67.4883 76.8121 67.4883 76.5156V73.8896C67.4883 73.5084 67.8157 73.2119 68.1431 73.2119Z" fill="#42C2FF"/>
<path d="M92.6945 21.2591C87.9247 18.6343 82.0192 20.4744 79.5041 25.3691C76.989 30.2639 78.8167 36.3598 83.5863 38.9847C88.3559 41.6096 94.2613 39.7694 96.7767 34.8746C99.2913 29.9798 97.464 23.884 92.6945 21.2591Z" fill="#3D3D3D"/>
<path fill-rule="evenodd" clip-rule="evenodd" d="M119.27 75.9548L116.506 78.0351C114.774 79.3398 114.382 81.8932 115.639 83.6863L117.643 86.5454C118.9 88.3384 121.364 88.741 123.097 87.4364L125.859 85.356C127.592 84.0514 127.984 81.4979 126.727 79.7049L124.723 76.8458C123.472 75.0109 121.048 74.6149 119.27 75.9548Z" fill="#E79B7E"/>
<path fill-rule="evenodd" clip-rule="evenodd" d="M116.868 72.947C118.025 72.9643 118.987 73.9795 118.968 75.1776L118.869 80.1377C118.85 81.3359 117.869 82.3338 116.713 82.3165C115.556 82.2991 114.594 81.284 114.613 80.0858L114.712 75.1257C114.697 73.8791 115.671 72.923 116.868 72.947Z" fill="#E79B7E"/>
<path fill-rule="evenodd" clip-rule="evenodd" d="M126.014 71.9136C125.195 71.0501 123.829 71.0417 122.988 71.9341L119.591 75.4552C118.756 76.3056 118.746 77.7199 119.606 78.5899C120.426 79.4533 121.791 79.4617 122.632 78.5694L126.03 75.0483C126.831 74.1493 126.834 72.7769 126.014 71.9136Z" fill="#E79B7E"/>
<path fill-rule="evenodd" clip-rule="evenodd" d="M130.026 75.4874C129.393 74.4829 128.073 74.1814 127.103 74.8381L123.087 77.5292C122.116 78.1859 121.823 79.5541 122.455 80.5586C123.089 81.5631 124.408 81.8646 125.379 81.2078L129.395 78.5168C130.366 77.8601 130.659 76.4919 130.026 75.4874Z" fill="#E79B7E"/>
<path fill-rule="evenodd" clip-rule="evenodd" d="M131.578 80.5011C131.126 79.3973 129.884 78.8511 128.778 79.3142L124.38 81.2563C123.314 81.7259 122.785 83.0127 123.23 84.1584C123.682 85.2622 124.924 85.8083 126.03 85.3453L130.428 83.4032C131.535 82.9402 132.07 81.6115 131.578 80.5011Z" fill="#E79B7E"/>
<path fill-rule="evenodd" clip-rule="evenodd" d="M118.627 84.7525C116.364 83.2444 113.334 83.8891 111.824 86.2628L109.087 90.6087C107.629 92.9532 108.248 96.0904 110.538 97.6507C112.8 99.1587 115.83 98.5136 117.34 96.14L120.077 91.7945C121.536 89.4498 120.877 86.3014 118.627 84.7525Z" fill="#1CB0F6"/>
<path fill-rule="evenodd" clip-rule="evenodd" d="M123.66 86.2466L114.816 80.5392C114.059 80.05 113.058 80.2824 112.584 81.0679L109.075 86.8169C108.601 87.6025 108.824 88.6385 109.583 89.1277L118.426 94.8353C119.185 95.3241 120.185 95.0916 120.658 94.306L124.13 88.5458C124.641 87.7719 124.418 86.7358 123.66 86.2466Z" fill="#42C2FF"/>
<path fill-rule="evenodd" clip-rule="evenodd" d="M163.527 45.22C173.513 45.22 181.78 53.3099 182.271 63.6446L182.517 68.3884L183.54 78.7655C183.622 79.6973 182.967 80.5444 182.067 80.6291C182.026 80.6291 181.944 80.6291 181.903 80.6291H145.151C144.25 80.6291 143.513 79.8667 143.513 78.9349C143.513 78.8926 143.513 78.8078 143.513 78.7655L144.536 68.3884L144.782 63.6446C145.273 53.3099 153.54 45.22 163.527 45.22Z" fill="#4B4B4B"/>
<path fill-rule="evenodd" clip-rule="evenodd" d="M154.686 59.5359H172.408C172.94 59.5359 173.349 59.9594 173.349 60.51V75.8004C173.349 81.3913 168.969 85.9233 163.567 85.9233C158.164 85.9233 153.786 81.3913 153.786 75.8004V60.51C153.745 59.9594 154.154 59.5359 154.686 59.5359Z" fill="#FFC6B7"/>
<path d="M164.304 76.1822C164.018 76.1822 163.731 76.1399 163.404 76.0551C163.077 75.9704 162.913 75.6316 162.994 75.2927C163.077 74.9539 163.404 74.7845 163.731 74.8692C164.918 75.208 166.147 74.4457 166.473 73.2173C166.556 72.8784 166.883 72.7091 167.21 72.7938C167.538 72.8784 167.701 73.2173 167.62 73.5561C167.21 75.1233 165.819 76.1822 164.304 76.1822Z" fill="#EE9583"/>
<path fill-rule="evenodd" clip-rule="evenodd" d="M151.331 69.3623C153.417 69.3623 155.096 71.0989 155.096 73.2591C155.096 75.4192 153.417 77.1557 151.331 77.1557C149.243 77.1557 147.564 75.4192 147.564 73.2591C147.564 71.0989 149.243 69.3623 151.331 69.3623Z" fill="#FFC6B7"/>
<path fill-rule="evenodd" clip-rule="evenodd" d="M175.273 69.3623C177.36 69.3623 179.038 71.0989 179.038 73.2591C179.038 75.4192 177.36 77.1557 175.273 77.1557C173.185 77.1557 171.508 75.4192 171.508 73.2591C171.508 71.0989 173.185 69.3623 175.273 69.3623Z" fill="#FFC6B7"/>
<path fill-rule="evenodd" clip-rule="evenodd" d="M152.272 58.3503H159.803C160.948 58.3503 161.931 59.3246 161.931 60.5528V69.024C161.931 70.2099 160.99 71.2264 159.803 71.2264H152.272C151.127 71.2264 150.145 70.2523 150.145 69.024V60.5528C150.145 59.3246 151.085 58.3503 152.272 58.3503Z" fill="white"/>
<path fill-rule="evenodd" clip-rule="evenodd" d="M163.281 61.9507C164.058 61.9507 164.672 62.586 164.672 63.3907V71.396C164.672 72.2007 164.058 72.836 163.281 72.836C162.503 72.836 161.889 72.2007 161.889 71.396V63.4331C161.889 62.6284 162.503 61.9507 163.281 61.9507Z" fill="#EE9583"/>
<path fill-rule="evenodd" clip-rule="evenodd" d="M159.434 63.1782C160.416 63.1782 161.194 63.983 161.194 64.9995V66.9479C161.194 67.9644 160.416 68.7692 159.434 68.7692C158.452 68.7692 157.675 67.9644 157.675 66.9479V64.9995C157.675 63.983 158.452 63.1782 159.434 63.1782Z" fill="#4B4B4B"/>
<path fill-rule="evenodd" clip-rule="evenodd" d="M166.802 58.3503H174.333C175.479 58.3503 176.461 59.3246 176.461 60.5528V69.024C176.461 70.2099 175.519 71.2264 174.333 71.2264H166.802C165.656 71.2264 164.674 70.2523 164.674 69.024V60.5528C164.715 59.3246 165.656 58.3503 166.802 58.3503Z" fill="white"/>
<path fill-rule="evenodd" clip-rule="evenodd" d="M162.053 69.6172H164.55C165.327 69.6172 165.982 70.2948 165.982 71.0996C165.982 71.9044 165.327 72.5821 164.55 72.5821H162.053C161.275 72.5821 160.621 71.9044 160.621 71.0996C160.621 70.2948 161.275 69.6172 162.053 69.6172Z" fill="#EE9583"/>
<path fill-rule="evenodd" clip-rule="evenodd" d="M167.661 63.1782C168.644 63.1782 169.421 63.983 169.421 64.9995V66.9479C169.421 67.9644 168.644 68.7692 167.661 68.7692C166.679 68.7692 165.901 67.9644 165.901 66.9479V64.9995C165.901 63.983 166.679 63.1782 167.661 63.1782Z" fill="#4B4B4B"/>
<path fill-rule="evenodd" clip-rule="evenodd" d="M154.675 88.3032H172.11C175.343 88.3032 178.167 90.5057 179.068 93.7251L185.861 118.079C186.434 120.154 185.289 122.315 183.283 122.907C181.85 123.331 180.295 122.865 179.354 121.68L175.834 117.359L163.392 130.574L150.951 117.359L147.431 121.68C146.08 123.331 143.706 123.543 142.11 122.145C140.964 121.129 140.473 119.561 140.923 118.079L147.717 93.7251C148.618 90.548 151.441 88.3032 154.675 88.3032Z" fill="#FFC6B7"/>
<path fill-rule="evenodd" clip-rule="evenodd" d="M154.142 87.7954H172.723C175.997 87.7954 178.617 90.5485 178.617 93.8943C178.617 97.2832 175.956 99.9941 172.723 99.9941H154.142C150.868 99.9941 148.248 97.241 148.248 93.8943C148.207 90.5485 150.868 87.7954 154.142 87.7954Z" fill="#CE82FF"/>
<path fill-rule="evenodd" clip-rule="evenodd" d="M153.119 99.9517H173.665C174.115 99.9517 174.483 100.332 174.483 100.798V105.246C174.483 105.711 174.115 106.093 173.665 106.093H153.119C152.669 106.093 152.3 105.711 152.3 105.246V100.798C152.3 100.332 152.669 99.9517 153.119 99.9517Z" fill="#6F4EA1"/>
<path fill-rule="evenodd" clip-rule="evenodd" d="M158.193 83.8477H168.63C169.899 83.8477 170.922 84.9065 170.922 86.2196C170.922 87.5326 169.899 88.5915 168.63 88.5915H158.193C156.925 88.5915 155.902 87.5326 155.902 86.2196C155.902 84.9065 156.925 83.8477 158.193 83.8477Z" fill="#CE82FF"/>
</g>
<defs>
<clipPath id="clip0_4003_112">
<rect width="186" height="102" fill="white"/>
</clipPath>
</defs>
</svg>
