<svg width="171" height="66" viewBox="0 0 171 66" fill="none" xmlns="http://www.w3.org/2000/svg">
<g clip-path="url(#clip0_4008_213)">
<path d="M28.4807 46.5291L28.7249 46.8409L28.9693 46.5291H55.0742V76.4648C55.0742 77.5043 54.2366 78.3359 53.1896 78.3359H8.41342C7.3664 78.3359 6.52881 77.5043 6.52881 76.4648V46.5291H28.4807Z" fill="#E28B0C"/>
<mask id="mask0_4008_213" style="mask-type:luminance" maskUnits="userSpaceOnUse" x="6" y="46" width="50" height="33">
<path fill-rule="evenodd" clip-rule="evenodd" d="M28.4807 46.5291L28.7249 46.8409L28.9693 46.5291H55.0742V76.4648C55.0742 77.5043 54.2366 78.3359 53.1896 78.3359H8.41342C7.3664 78.3359 6.52881 77.5043 6.52881 76.4648V46.5291H28.4807Z" fill="white"/>
</mask>
<g mask="url(#mask0_4008_213)">
<path d="M6.52881 46.8406H28.7249V78.3356H8.41342C7.3664 78.3356 6.52881 77.504 6.52881 76.4646V46.8406Z" fill="#CD7900"/>
</g>
<path fill-rule="evenodd" clip-rule="evenodd" d="M14.7852 62.2554H18.5892C19.2523 62.2554 19.7759 62.7751 19.7759 63.4334V65.5469C19.7759 66.2052 19.2523 66.725 18.5892 66.725H14.7852C14.1221 66.725 13.5986 66.2052 13.5986 65.5469V63.4334C13.5986 62.7751 14.1221 62.2554 14.7852 62.2554Z" fill="#B36A00"/>
<path fill-rule="evenodd" clip-rule="evenodd" d="M17.4027 57.1626L21.6256 62.637C21.9396 63.0181 21.8349 63.5725 21.451 63.8843C21.3114 63.9883 21.102 64.0576 20.8926 64.0576H12.4469C11.9583 64.0576 11.5396 63.6765 11.5396 63.1567C11.5396 62.9488 11.6093 62.7756 11.714 62.6023L15.9369 57.1279C16.2509 56.7468 16.8094 56.6776 17.1933 56.9548C17.298 57.024 17.3329 57.0933 17.4027 57.1626Z" fill="#B36A00"/>
<path d="M35.6835 55.8662H49.9923C50.5159 55.8662 50.9347 56.282 50.9347 56.8017C50.9347 57.3214 50.5159 57.7372 49.9923 57.7372H35.6835C35.16 57.7372 34.7412 57.3214 34.7412 56.8017C34.7412 56.282 35.16 55.8662 35.6835 55.8662Z" fill="#CD7900"/>
<path d="M35.6835 59.6079H49.9923C50.5159 59.6079 50.9347 60.0237 50.9347 60.5434C50.9347 61.0631 50.5159 61.4789 49.9923 61.4789H35.6835C35.16 61.4789 34.7412 61.0631 34.7412 60.5434C34.7412 60.0237 35.16 59.6079 35.6835 59.6079Z" fill="#CD7900"/>
<path d="M134.205 32.3337L134.472 32.675L134.739 32.3337H163.217V65.0938C163.217 66.2312 162.303 67.1412 161.16 67.1412H112.314C111.172 67.1412 110.258 66.2312 110.258 65.0938V32.3337H134.205Z" fill="#E28B0C"/>
<mask id="mask1_4008_213" style="mask-type:luminance" maskUnits="userSpaceOnUse" x="110" y="32" width="54" height="36">
<path fill-rule="evenodd" clip-rule="evenodd" d="M134.205 32.3337L134.472 32.675L134.739 32.3337H163.217V65.0938C163.217 66.2312 162.303 67.1412 161.16 67.1412H112.314C111.172 67.1412 110.258 66.2312 110.258 65.0938V32.3337H134.205Z" fill="white"/>
</mask>
<g mask="url(#mask1_4008_213)">
<path d="M110.258 32.675H134.472V67.1412H112.314C111.172 67.1412 110.258 66.2312 110.258 65.0938V32.675Z" fill="#CD7900"/>
<path d="M154.155 57.9657C154.041 57.9657 153.926 58.0035 153.85 58.1173L152.899 59.141C152.594 59.4823 152.061 59.4823 151.718 59.1789L151.68 59.141L150.652 58.0035C150.348 57.6623 149.814 57.6623 149.472 57.9657L149.434 58.0035L148.406 59.141C148.102 59.4823 147.569 59.4823 147.226 59.1789L147.188 59.141L146.236 58.1173C146.084 57.9657 145.817 57.9277 145.665 58.0793C145.589 58.1552 145.512 58.269 145.512 58.3827V67.1794H154.536V58.3827C154.574 58.1552 154.384 57.9657 154.155 57.9657Z" fill="#FFCE8E"/>
</g>
<path fill-rule="evenodd" clip-rule="evenodd" d="M119.266 49.5435H123.416C124.139 49.5435 124.71 50.1122 124.71 50.8326V53.1455C124.71 53.866 124.139 54.4347 123.416 54.4347H119.266C118.542 54.4347 117.971 53.866 117.971 53.1455V50.8326C117.971 50.1122 118.542 49.5435 119.266 49.5435Z" fill="#B36A00"/>
<path fill-rule="evenodd" clip-rule="evenodd" d="M122.122 43.9701L126.729 49.9609C127.071 50.378 126.956 50.9847 126.537 51.3259C126.386 51.4397 126.157 51.5155 125.929 51.5155H116.715C116.182 51.5155 115.726 51.0985 115.726 50.5297C115.726 50.3022 115.802 50.1126 115.916 49.923L120.523 43.9322C120.865 43.5151 121.474 43.4393 121.893 43.7426C122.007 43.8185 122.045 43.8943 122.122 43.9701Z" fill="#B36A00"/>
<path d="M142.064 42.5518H157.673C158.245 42.5518 158.701 43.0068 158.701 43.5755C158.701 44.1442 158.245 44.5992 157.673 44.5992H142.064C141.493 44.5992 141.036 44.1442 141.036 43.5755C141.036 43.0068 141.493 42.5518 142.064 42.5518Z" fill="#CD7900"/>
<path d="M142.064 46.647H157.673C158.245 46.647 158.701 47.1019 158.701 47.6707C158.701 48.2395 158.245 48.6945 157.673 48.6945H142.064C141.493 48.6945 141.036 48.2395 141.036 47.6707C141.036 47.1019 141.493 46.647 142.064 46.647Z" fill="#CD7900"/>
<path d="M83.3722 17.3193L83.7719 17.8312L84.1717 17.3193H126.888V66.4593C126.888 68.1656 125.518 69.5306 123.805 69.5306H50.5345C48.8213 69.5306 47.4507 68.1656 47.4507 66.4593V17.3193H83.3722Z" fill="#E28B0C"/>
<mask id="mask2_4008_213" style="mask-type:luminance" maskUnits="userSpaceOnUse" x="47" y="17" width="80" height="53">
<path fill-rule="evenodd" clip-rule="evenodd" d="M83.3722 17.3193L83.7719 17.8312L84.1717 17.3193H126.888V66.4593C126.888 68.1656 125.518 69.5306 123.805 69.5306H50.5345C48.8213 69.5306 47.4507 68.1656 47.4507 66.4593V17.3193H83.3722Z" fill="white"/>
</mask>
<g mask="url(#mask2_4008_213)">
<path d="M47.4507 17.8315H83.7719V69.5309H50.5345C48.8213 69.5309 47.4507 68.1659 47.4507 66.4597V17.8315Z" fill="#CD7900"/>
<path d="M113.296 55.7668C113.125 55.7668 112.953 55.8237 112.84 55.9943L111.412 57.5299C110.955 58.0418 110.155 58.0418 109.642 57.5868L109.584 57.5299L108.043 55.8237C107.585 55.3118 106.786 55.3118 106.272 55.7668L106.215 55.8237L104.673 57.5299C104.216 58.0418 103.417 58.0418 102.903 57.5868L102.846 57.5299L101.418 55.9943C101.189 55.7668 100.79 55.7099 100.561 55.9375C100.447 56.0511 100.333 56.2218 100.333 56.3925V69.5874H113.867V56.3925C113.925 56.0511 113.639 55.7668 113.296 55.7668Z" fill="#FFCE8E"/>
</g>
<path d="M38.6209 0H70.4874C71.1156 0 71.6867 0.284376 72.0293 0.79625L83.7934 17.8588H47.4156L37.0789 2.90062C36.5079 2.04749 36.7363 0.909995 37.5358 0.341249C37.8784 0.113749 38.2782 0 38.6209 0Z" fill="#E28B0C"/>
<path d="M97.0432 0H135.648C136.676 0 137.476 0.853126 137.476 1.82C137.476 2.21813 137.361 2.55937 137.133 2.84375L126.796 17.8018H83.7368L95.5009 0.739374C95.8439 0.284374 96.4148 0 97.0432 0Z" fill="#CD7900"/>
<path fill-rule="evenodd" clip-rule="evenodd" d="M60.9612 43.135H67.1861C68.2712 43.135 69.1278 43.9881 69.1278 45.0687V48.5381C69.1278 49.6187 68.2712 50.4719 67.1861 50.4719H60.9612C59.8762 50.4719 59.0195 49.6187 59.0195 48.5381V45.0687C59.0195 43.9881 59.8762 43.135 60.9612 43.135Z" fill="#B36A00"/>
<path fill-rule="evenodd" clip-rule="evenodd" d="M65.2446 34.774L72.1547 43.7602C72.6687 44.3859 72.4974 45.2958 71.8692 45.8078C71.6407 45.9784 71.2981 46.0921 70.9554 46.0921H57.1352C56.3357 46.0921 55.6504 45.4665 55.6504 44.6134C55.6504 44.2721 55.7646 43.9877 55.9359 43.7034L62.8461 34.7171C63.36 34.0915 64.2738 33.9778 64.9019 34.4328C65.0733 34.5465 65.1304 34.6602 65.2446 34.774Z" fill="#B36A00"/>
<path d="M95.159 32.646H118.574C119.43 32.646 120.115 33.3285 120.115 34.1816C120.115 35.0348 119.43 35.7173 118.574 35.7173H95.159C94.3019 35.7173 93.6167 35.0348 93.6167 34.1816C93.6167 33.3285 94.3019 32.646 95.159 32.646Z" fill="#CD7900"/>
<path d="M95.159 38.7883H118.574C119.43 38.7883 120.115 39.4709 120.115 40.324C120.115 41.1771 119.43 41.8596 118.574 41.8596H95.159C94.3019 41.8596 93.6167 41.1771 93.6167 40.324C93.6167 39.4709 94.3019 38.7883 95.159 38.7883Z" fill="#CD7900"/>
</g>
<defs>
<clipPath id="clip0_4008_213">
<rect width="170.297" height="66.36" fill="white" transform="translate(0.0161133)"/>
</clipPath>
</defs>
</svg>
