<svg width="177" height="135" viewBox="0 0 177 135" fill="none" xmlns="http://www.w3.org/2000/svg">
<path d="M8.31762 127.369C10.8005 132.361 16.0702 134.504 16.0702 134.504C16.0702 134.504 17.3142 128.553 14.8313 123.561C12.3484 118.569 7.07874 116.426 7.07874 116.426C7.07874 116.426 5.83471 122.377 8.31762 127.369Z" fill="#2F2E41"/>
<path d="M10.0241 125.727C14.5068 128.651 16.2332 134.458 16.2332 134.458C16.2332 134.458 10.6918 135.525 6.20909 132.601C1.72642 129.677 0 123.87 0 123.87C0 123.87 5.54143 122.803 10.0241 125.727Z" fill="#6C63FF"/>
<path d="M124.71 1.56934H96.7417V2.00251H124.71V1.56934Z" fill="#F2F2F2"/>
<path d="M104.733 -2.3291H104.333V1.67774H104.733V-2.3291Z" fill="#F2F2F2"/>
<path d="M116.919 -2.3291H116.52V1.67774H116.919V-2.3291Z" fill="#F2F2F2"/>
<path d="M161.869 11.3157H133.9V11.7488H161.869V11.3157Z" fill="#F2F2F2"/>
<path d="M141.891 7.41724H141.492V11.4241H141.891V7.41724Z" fill="#F2F2F2"/>
<path d="M154.078 7.41724H153.678V11.4241H154.078V7.41724Z" fill="#F2F2F2"/>
<path d="M159.072 111.812H131.103V112.245H159.072V111.812Z" fill="#F2F2F2"/>
<path d="M139.094 107.913H138.695V111.92H139.094V107.913Z" fill="#F2F2F2"/>
<path d="M151.281 107.913H150.881V111.92H151.281V107.913Z" fill="#F2F2F2"/>
<path d="M111.325 42.2876H83.3564V42.7208H111.325V42.2876Z" fill="#F2F2F2"/>
<path d="M91.3478 38.3889H90.9482V42.3958H91.3478V38.3889Z" fill="#F2F2F2"/>
<path d="M103.534 38.3889H103.134V42.3958H103.534V38.3889Z" fill="#F2F2F2"/>
<path d="M120.116 94.4846H92.147V94.9178H120.116V94.4846Z" fill="#F2F2F2"/>
<path d="M100.138 90.5862H99.7383V94.593H100.138V90.5862Z" fill="#F2F2F2"/>
<path d="M112.324 90.5862H111.925V94.593H112.324V90.5862Z" fill="#F2F2F2"/>
<path d="M164.866 78.6738H136.897V79.107H164.866V78.6738Z" fill="#F2F2F2"/>
<path d="M144.888 74.7754H144.488V78.7822H144.888V74.7754Z" fill="#F2F2F2"/>
<path d="M157.074 74.7754H156.675V78.7822H157.074V74.7754Z" fill="#F2F2F2"/>
<path d="M72.3312 125.083H25.0269V124.714H71.9908V106.82H29.0036L26.9153 102.103L27.2222 101.944L29.2178 106.451H72.3312V125.083Z" fill="#2F2E41"/>
<path d="M31.3229 134.123C33.2964 134.123 34.8962 132.388 34.8962 130.249C34.8962 128.109 33.2964 126.375 31.3229 126.375C29.3494 126.375 27.7495 128.109 27.7495 130.249C27.7495 132.388 29.3494 134.123 31.3229 134.123Z" fill="#3F3D56"/>
<path d="M66.5455 134.123C68.519 134.123 70.1189 132.388 70.1189 130.249C70.1189 128.109 68.519 126.375 66.5455 126.375C64.572 126.375 62.9722 128.109 62.9722 130.249C62.9722 132.388 64.572 134.123 66.5455 134.123Z" fill="#3F3D56"/>
<path d="M108.065 50.3701C109.286 50.3701 110.277 49.2964 110.277 47.9719C110.277 46.6474 109.286 45.5737 108.065 45.5737C106.843 45.5737 105.853 46.6474 105.853 47.9719C105.853 49.2964 106.843 50.3701 108.065 50.3701Z" fill="#3F3D56"/>
<path d="M77.3905 100.732H24.2201L12.7153 59.9629H89.2387L89.169 60.2028L77.3905 100.732ZM24.4719 100.363H77.1409L88.7747 60.3318H13.1753L24.4719 100.363Z" fill="#2F2E41"/>
<path d="M73.2401 98.6106H26.5387L16.4336 62.4531H83.6467L83.5856 62.666L73.2401 98.6106Z" fill="#F2F2F2"/>
<path d="M90.1923 56.3205L89.8633 56.2258L92.109 47.0493H105.172V47.4184H92.3709L90.1923 56.3205Z" fill="#2F2E41"/>
<path d="M85.4147 72.3228H16.4331V72.6917H85.4147V72.3228Z" fill="#2F2E41"/>
<path d="M81.4644 85.9158H20.269V86.2847H81.4644V85.9158Z" fill="#2F2E41"/>
<path d="M51.1465 60.1472H50.8062V100.548H51.1465V60.1472Z" fill="#2F2E41"/>
<path d="M66.3829 60.1358L63.9399 100.535L64.2796 100.559L66.7225 60.1599L66.3829 60.1358Z" fill="#2F2E41"/>
<path d="M35.5765 60.1352L35.2368 60.1592L37.6656 100.56L38.0052 100.536L35.5765 60.1352Z" fill="#2F2E41"/>
<path d="M179 134.356H0V134.79H179V134.356Z" fill="#2F2E41"/>
<path d="M32.2135 45.5364H31.814V49.5432H32.2135V45.5364Z" fill="#F2F2F2"/>
<path d="M77.9624 27.9929H49.9937V28.4261H77.9624V27.9929Z" fill="#F2F2F2"/>
<path d="M70.3712 28.3176H69.9717V32.3245H70.3712V28.3176Z" fill="#F2F2F2"/>
<path d="M58.1847 28.3176H57.7852V32.3245H58.1847V28.3176Z" fill="#F2F2F2"/>
<path d="M30.4155 27.7764H2.44678V28.2095H30.4155V27.7764Z" fill="#F2F2F2"/>
<path d="M22.8244 28.1011H22.4248V32.1079H22.8244V28.1011Z" fill="#F2F2F2"/>
<path d="M10.6378 28.1011H10.2383V32.1079H10.6378V28.1011Z" fill="#F2F2F2"/>
<path d="M63.978 6.11768H36.0093V6.55085H63.978V6.11768Z" fill="#F2F2F2"/>
<path d="M44.0006 2.21899H43.6011V6.22583H44.0006V2.21899Z" fill="#F2F2F2"/>
<path d="M56.1872 2.21899H55.7876V6.22583H56.1872V2.21899Z" fill="#F2F2F2"/>
<path d="M107.94 64.8704C106.965 64.897 106.051 64.9397 105.137 64.9414C103.429 64.9414 101.72 64.9645 100.014 64.9006C98.7376 64.8526 97.4718 64.6466 96.3027 64.041C95.9643 63.8679 95.6388 63.6682 95.3289 63.4434C93.9276 62.4115 93.3864 60.8682 93.7677 59.1153C94.0665 57.7193 94.866 56.7115 95.9585 55.9274C97.2201 55.0243 98.6358 54.5536 100.134 54.3591C102.018 54.1149 103.9 54.1753 105.782 54.4133C107.557 54.638 109.29 55.026 110.96 55.7045C111.251 55.8235 111.506 55.7826 111.787 55.6769C113.429 55.0642 115.057 54.3973 116.726 53.877C119.896 52.8931 123.104 52.045 126.386 51.5406C129.309 51.0904 132.254 50.9519 135.207 51.0141C136.61 51.0434 138.013 51.0141 139.416 51.0451C142.524 51.1221 145.618 51.5216 148.653 52.2377C152.357 53.1062 156.012 54.1407 159.547 55.6245C159.725 55.7055 159.917 55.7485 160.111 55.7509C160.305 55.7534 160.498 55.7152 160.678 55.6388C163.482 54.5616 166.39 54.1718 169.363 54.218C170.425 54.2217 171.482 54.3461 172.518 54.5891C173.83 54.9115 175.043 55.4683 176.082 56.3891C177.111 57.2975 177.71 58.4502 177.803 59.8701C177.895 61.2554 177.416 62.3947 176.38 63.2569C175.411 64.0632 174.293 64.5001 173.084 64.707C171.479 64.9814 169.863 65.0072 168.245 64.9734L163.541 64.8846C163.541 65.0693 163.532 65.2691 163.541 65.468C163.661 67.91 163.826 70.352 163.895 72.7958C163.984 75.9233 164.008 79.0535 164.039 82.1837C164.075 85.6745 164.077 89.1652 164.112 92.6559C164.132 94.6477 164.197 96.6386 164.225 98.6304C164.271 102.158 164.349 105.686 164.319 109.214C164.298 111.789 164.138 114.364 164.021 116.939C163.951 118.473 163.857 120.005 163.751 121.537C163.611 123.58 163.402 125.617 162.91 127.608C162.56 129.043 161.985 130.408 161.209 131.644C160.836 132.224 160.404 132.76 159.922 133.242C159.013 134.168 157.902 134.627 156.631 134.506C155.933 134.454 155.242 134.322 154.57 134.115C152.822 133.538 151.636 132.274 151.131 130.428C150.815 129.289 150.682 128.092 150.502 126.914C150.394 126.204 150.353 125.488 150.276 124.724C140.582 127.259 130.928 127.172 121.208 124.748C121.184 124.911 121.149 125.086 121.133 125.262C120.994 126.791 120.82 128.312 120.522 129.82C120.296 130.991 119.731 132.058 118.905 132.876C118.08 133.693 117.034 134.22 115.912 134.384C115.469 134.456 115.021 134.501 114.573 134.519C113.52 134.556 112.599 134.173 111.788 133.481C110.947 132.77 110.318 131.875 109.805 130.883C108.989 129.301 108.422 127.626 108.2 125.842C107.979 124.058 107.77 122.267 107.647 120.473C107.456 117.694 107.286 114.91 107.208 112.126C107.124 109.112 107.115 106.095 107.143 103.079C107.184 98.8302 107.312 94.5829 107.36 90.3347C107.413 85.9524 107.395 81.5692 107.449 77.187C107.48 74.6118 107.573 72.0295 107.673 69.4516C107.725 68.0885 107.851 66.729 107.941 65.3668C107.949 65.2176 107.94 65.0675 107.94 64.8704Z" fill="#ACA69F"/>
<path d="M147.941 94.1272C146.108 94.1138 144.275 94.1378 142.441 94.1556C138.898 94.1911 135.356 94.2524 131.813 94.2701C127.82 94.2897 123.827 94.2897 119.835 94.2701C115.77 94.2589 111.706 94.2358 107.642 94.2009C107.527 94.2009 107.412 94.1955 107.296 94.1902C107.238 97.1526 107.169 100.114 107.141 103.076C107.112 106.096 107.121 109.109 107.206 112.123C107.284 114.909 107.453 117.693 107.644 120.471C107.768 122.264 107.976 124.055 108.198 125.839C108.316 126.771 108.525 127.688 108.823 128.574L116.64 128.598L120.733 128.611C120.907 127.499 121.028 126.381 121.131 125.26C121.147 125.082 121.181 124.904 121.206 124.745C130.925 127.17 140.58 127.256 150.274 124.721C150.351 125.485 150.392 126.204 150.5 126.911C150.59 127.503 150.668 128.098 150.765 128.687C154.709 128.693 158.653 128.698 162.597 128.701C162.717 128.343 162.822 127.977 162.914 127.605C163.402 125.614 163.611 123.579 163.756 121.534C163.861 120.003 163.955 118.47 164.025 116.936C164.142 114.361 164.303 111.786 164.324 109.211C164.353 105.684 164.275 102.155 164.229 98.6275C164.212 97.2227 164.173 95.8188 164.145 94.4149C162 94.3483 159.853 94.2817 157.708 94.2373C154.449 94.1849 151.196 94.1502 147.941 94.1272Z" fill="#666B3A"/>
<path d="M127.292 80.1856C127.276 78.988 127.485 77.7988 127.907 76.6869C128.614 74.7724 129.698 73.1491 131.223 71.8597C132.465 70.8101 133.883 70.232 135.462 70.0562C136.414 69.9505 137.361 69.8981 138.309 70.0731C138.399 70.0805 138.488 70.0936 138.575 70.1121C141.038 70.9033 143.132 72.2575 144.597 74.5521C145.531 76.012 146.143 77.6095 146.152 79.3882C146.165 81.9456 145.413 84.234 143.808 86.1823C141.872 88.5293 139.389 89.6455 136.486 89.7254C134.344 89.7875 132.475 88.9155 130.821 87.5507C128.885 85.9523 127.758 83.8211 127.334 81.2672C127.309 81.0795 127.295 80.8902 127.292 80.7006C127.286 80.5266 127.292 80.3561 127.292 80.1856Z" fill="white"/>
<path d="M107.3 58.4961C107.048 59.6158 106.802 60.6983 106.548 61.8252C105.736 61.8785 104.949 61.9531 104.166 61.9753C102.875 62.0126 101.579 62.072 100.294 61.8527C99.6225 61.7378 98.9577 61.5824 98.3028 61.3874C97.9954 61.2841 97.7115 61.1152 97.4688 60.891C97.0025 60.4745 96.9924 59.8307 97.446 59.4018C97.694 59.1826 97.9739 59.0071 98.2751 58.8824C99.1075 58.5067 99.9954 58.3496 100.884 58.2403C102.848 57.9975 104.833 58.0355 106.787 58.3531C106.893 58.37 106.999 58.3948 107.103 58.4206C107.153 58.433 107.201 58.4579 107.3 58.4961Z" fill="white"/>
<path d="M164.268 58.4961L165.017 61.8252C165.828 61.8785 166.617 61.9531 167.399 61.9753C168.69 62.0126 169.985 62.072 171.27 61.8527C171.943 61.7379 172.609 61.5825 173.266 61.3874C173.573 61.2841 173.857 61.1152 174.1 60.891C174.566 60.4745 174.576 59.8307 174.123 59.4018C173.877 59.1835 173.6 59.0081 173.301 58.8824C172.469 58.5067 171.581 58.3496 170.692 58.2403C168.729 57.9975 166.743 58.0355 164.789 58.3531C164.683 58.37 164.577 58.3948 164.473 58.4206C164.415 58.433 164.367 58.4579 164.268 58.4961Z" fill="white"/>
<path d="M123.059 71.533C122.789 71.5302 122.522 71.4711 122.274 71.359C122.025 71.2468 121.801 71.084 121.612 70.8797C121.424 70.6755 121.276 70.434 121.176 70.169C121.077 69.9041 121.028 69.621 121.033 69.3361C121.042 68.0725 122.049 67.0149 123.239 67.0193C123.509 67.0217 123.776 67.0806 124.024 67.1926C124.272 67.3047 124.496 67.4675 124.684 67.6718C124.872 67.8761 125.02 68.1178 125.118 68.3827C125.217 68.6477 125.265 68.9307 125.259 69.2153C125.251 70.4834 124.249 71.541 123.059 71.533Z" fill="#0A1417"/>
<path d="M148.613 71.533C148.343 71.5305 148.076 71.4715 147.828 71.3595C147.579 71.2475 147.354 71.0846 147.166 70.8804C146.977 70.6761 146.829 70.4345 146.729 70.1694C146.63 69.9044 146.581 69.6211 146.586 69.3361C146.594 68.0725 147.601 67.0149 148.791 67.0193C149.061 67.0218 149.327 67.0808 149.575 67.1929C149.823 67.3049 150.048 67.4678 150.236 67.6721C150.424 67.8764 150.571 68.118 150.67 68.3829C150.769 68.6478 150.817 68.9307 150.811 69.2153C150.806 70.4834 149.803 71.541 148.613 71.533Z" fill="#0A1417"/>
<path d="M146.112 121.899C142.68 121.751 139.247 121.629 135.814 121.572C132.453 121.517 129.089 121.56 125.726 121.56C125.726 121.529 117.851 121.458 113.913 121.471C111.851 121.478 109.789 121.49 107.729 121.56C107.751 121.811 107.773 122.062 107.798 122.312C109.05 122.264 110.303 122.224 111.557 122.224C119.234 122.211 126.912 122.236 134.59 122.298C138.257 122.329 141.924 122.448 145.589 122.597C149.164 122.74 152.735 122.97 156.308 123.166C157.654 123.239 159.001 123.309 160.348 123.404C161.424 123.48 162.499 123.566 163.574 123.652C163.598 123.432 163.619 123.208 163.639 122.991C161.442 122.813 159.246 122.627 157.047 122.489C153.403 122.258 149.758 122.061 146.112 121.899ZM120.716 103.805C123.989 103.799 127.262 103.832 130.534 103.866C132.009 103.881 133.48 103.937 134.956 103.974C137.886 104.049 140.816 104.123 143.747 104.198C146.336 104.261 148.925 104.287 151.513 104.387C154.171 104.487 156.829 104.644 159.486 104.786C161.096 104.875 162.704 104.971 164.313 105.07L164.305 104.339C163.276 104.27 162.247 104.203 161.218 104.146C157.95 103.961 154.681 103.801 151.411 103.667C149.398 103.583 147.384 103.553 145.371 103.506C141.326 103.41 137.281 103.317 133.237 103.225C133.237 103.203 126.692 103.09 123.42 103.09C120.039 103.09 116.658 103.156 113.278 103.152C111.226 103.139 109.176 103.238 107.134 103.45C107.134 103.69 107.13 103.929 107.128 104.169C108.347 104.058 109.569 103.939 110.787 103.909C114.098 103.828 117.407 103.81 120.716 103.805ZM154.456 114.431C150.958 114.197 147.463 113.926 143.964 113.699C140.16 113.451 136.355 113.235 132.551 113.009C129.662 112.837 126.772 112.654 123.882 112.503C120.776 112.337 117.669 112.196 113.657 112C112.016 112.016 109.647 112.036 107.204 112.065C107.204 112.084 107.204 112.102 107.204 112.121C107.21 112.352 107.218 112.583 107.226 112.813C109.369 112.774 111.513 112.725 113.654 112.781C117.589 112.885 121.521 113.114 125.453 113.31C127.715 113.422 129.976 113.57 132.237 113.708C135.682 113.916 139.127 114.127 142.573 114.342C144.456 114.462 146.338 114.608 148.222 114.731C151.559 114.947 154.896 115.16 158.233 115.367C160.181 115.486 162.129 115.6 164.077 115.71C164.089 115.481 164.1 115.252 164.111 115.023C162.512 114.911 160.905 114.798 159.3 114.698C157.696 114.597 156.07 114.543 154.456 114.431Z" fill="#0F211A"/>
<path d="M113.726 96.1991C113.775 96.1717 113.831 96.1631 113.885 96.1747C113.94 96.1864 113.988 96.2176 114.023 96.263C114.231 96.508 114.423 96.7666 114.6 97.0374C114.856 97.4584 115.084 97.8975 115.283 98.3516C115.596 99.0665 115.881 99.7964 116.166 100.525C116.316 100.91 116.25 101.066 115.904 101.099C114.581 101.223 113.261 101.469 111.925 101.277C111.816 101.269 111.707 101.254 111.6 101.233C111.559 101.227 111.519 101.212 111.484 101.188C111.45 101.165 111.42 101.133 111.398 101.096C111.375 101.06 111.361 101.018 111.356 100.974C111.35 100.931 111.354 100.887 111.366 100.845C111.388 100.753 111.42 100.664 111.459 100.579C112.049 99.1908 112.69 97.8259 113.471 96.549C113.539 96.4352 113.614 96.3266 113.697 96.224C113.705 96.2141 113.715 96.2057 113.726 96.1991Z" fill="#ADAB76"/>
<path d="M135.29 96.5213C135.795 96.5843 135.886 96.7406 135.651 97.2041C135.061 98.3585 134.44 99.4907 133.83 100.631C133.791 100.697 133.747 100.758 133.698 100.816C133.35 101.253 133.138 101.272 132.848 100.801C132.18 99.7199 131.547 98.6161 130.904 97.5149C130.837 97.3996 130.784 97.2758 130.746 97.1464C130.644 96.7912 130.737 96.5666 131.088 96.5177C131.702 96.4289 132.322 96.4049 132.94 96.365C133.102 96.3597 134.674 96.444 135.29 96.5213Z" fill="#ADAB76"/>
<path d="M137.405 101.094C136.985 101.022 136.93 100.856 137.134 100.452C137.168 100.384 137.208 100.32 137.247 100.255C137.929 99.1186 138.612 97.9826 139.296 96.8471C139.351 96.7477 139.413 96.6528 139.481 96.563C139.641 96.365 139.823 96.3561 140 96.5328C140.093 96.6256 140.173 96.7307 140.24 96.8454C140.645 97.5279 141.046 98.2138 141.444 98.9029C141.708 99.362 141.957 99.8308 142.222 100.29C142.487 100.749 142.408 100.925 141.928 100.956C140.784 101.032 137.762 101.156 137.405 101.094Z" fill="#ADAB76"/>
<path d="M155.43 97.7368C155.419 97.2777 155.534 97.1258 155.944 97.1267C156.947 97.1267 157.951 97.1676 158.954 97.2022C159.264 97.2145 159.573 97.2442 159.88 97.291C160.413 97.3709 160.496 97.553 160.245 98.0724C160.13 98.3131 160.004 98.5484 159.871 98.7828C159.385 99.6211 158.899 100.459 158.405 101.292C158.3 101.473 158.175 101.64 158.032 101.789C157.853 101.966 157.652 101.945 157.527 101.723C156.898 100.618 156.274 99.5101 155.664 98.393C155.539 98.1568 155.484 97.886 155.43 97.7368Z" fill="#ADAB76"/>
<path d="M124.377 100.594C125.088 99.2515 125.802 97.9112 126.521 96.5727C126.762 96.1234 126.97 96.1172 127.217 96.5727C127.407 96.9217 127.546 97.3009 127.722 97.6605C128.165 98.5858 128.612 99.5093 129.061 100.431C129.129 100.545 129.187 100.663 129.237 100.786C129.307 101.012 129.231 101.173 128.992 101.188C127.428 101.276 125.864 101.371 124.302 101.149C124.282 101.144 124.107 101.077 124.377 100.594Z" fill="#ADAB76"/>
<path d="M147.609 96.8651C147.774 96.8608 147.938 96.8703 148.101 96.8936C148.414 96.9531 148.522 97.1182 148.389 97.4264C147.868 98.6562 147.334 99.8835 146.587 100.985C146.265 101.457 146.017 101.467 145.668 101.033C144.787 99.9501 144.051 98.7453 143.479 97.4521C143.292 97.0268 143.387 96.8607 143.836 96.7835C144.017 96.7524 146.534 96.8492 147.609 96.8651Z" fill="#ADAB76"/>
<path d="M149.389 101.183C149.365 101.182 149.342 101.174 149.321 101.161C149.3 101.149 149.282 101.131 149.269 101.11C149.256 101.089 149.247 101.065 149.244 101.039C149.241 101.014 149.244 100.989 149.252 100.965C149.283 100.854 149.325 100.747 149.375 100.644C149.988 99.4846 150.605 98.3272 151.226 97.1722C151.51 96.6492 151.74 96.6439 152.054 97.1616C152.256 97.5065 152.44 97.8622 152.606 98.2272C152.977 99.0051 153.334 99.7909 153.696 100.572C153.734 100.651 153.766 100.732 153.793 100.816C153.904 101.175 153.809 101.303 153.44 101.339C152.367 101.45 151.286 101.424 150.219 101.262C149.96 101.218 149.699 101.206 149.389 101.183Z" fill="#ADAB76"/>
<path d="M122.316 96.427C122.875 96.4359 122.985 96.5975 122.754 97.1374C122.249 98.3105 121.723 99.4738 121.205 100.641C121.197 100.658 121.188 100.674 121.178 100.69C121.068 100.884 120.991 101.183 120.738 101.125C120.587 101.089 120.453 100.858 120.36 100.681C119.701 99.4374 119.053 98.1942 118.405 96.9456C118.216 96.5815 118.304 96.4039 118.705 96.3942C119.324 96.3773 121.732 96.4182 122.316 96.427Z" fill="#ADAB76"/>
<path d="M158.116 116.103C158.069 116.072 158.013 116.061 157.958 116.069C157.904 116.078 157.854 116.107 157.817 116.15C157.599 116.385 157.395 116.634 157.207 116.896C156.932 117.303 156.685 117.731 156.466 118.174C156.121 118.873 155.803 119.588 155.486 120.305C155.318 120.682 155.379 120.838 155.723 120.892C157.039 121.081 158.346 121.393 159.69 121.271C159.799 121.268 159.908 121.259 160.016 121.243C160.205 121.202 160.299 121.074 160.269 120.868C160.25 120.773 160.222 120.681 160.184 120.593C159.657 119.178 159.078 117.787 158.355 116.468C158.292 116.352 158.221 116.24 158.144 116.133C158.137 116.121 158.127 116.111 158.116 116.103Z" fill="#ADAB76"/>
<path d="M136.561 115.352C136.05 115.39 135.955 115.542 136.171 116.017C136.706 117.198 137.277 118.362 137.836 119.53C137.871 119.598 137.912 119.662 137.959 119.722C138.288 120.175 138.498 120.205 138.809 119.749C139.524 118.703 140.206 117.631 140.897 116.567C140.97 116.457 141.028 116.338 141.071 116.212C141.19 115.857 141.106 115.633 140.758 115.567C140.149 115.452 139.53 115.389 138.915 115.323C138.753 115.3 137.179 115.306 136.561 115.352Z" fill="#ADAB76"/>
<path d="M134.244 119.815C134.665 119.764 134.729 119.601 134.544 119.187C134.513 119.118 134.475 119.052 134.439 118.985C133.808 117.816 133.177 116.648 132.545 115.479C132.494 115.377 132.436 115.279 132.372 115.186C132.222 114.98 132.04 114.963 131.855 115.13C131.759 115.218 131.675 115.319 131.603 115.43C131.169 116.093 130.737 116.758 130.309 117.426C130.025 117.87 129.755 118.327 129.468 118.773C129.181 119.218 129.252 119.394 129.73 119.453C130.872 119.586 133.884 119.86 134.244 119.815Z" fill="#ADAB76"/>
<path d="M116.388 115.563C116.419 115.105 116.313 114.947 115.904 114.929C114.9 114.881 113.896 114.869 112.892 114.854C112.583 114.851 112.274 114.865 111.966 114.897C111.43 114.95 111.339 115.128 111.566 115.66C111.671 115.906 111.787 116.146 111.909 116.383C112.358 117.245 112.809 118.103 113.262 118.958C113.358 119.145 113.475 119.318 113.612 119.474C113.78 119.664 113.985 119.651 114.121 119.434C114.794 118.361 115.468 117.285 116.13 116.199C116.261 115.981 116.329 115.713 116.388 115.563Z" fill="#ADAB76"/>
<path d="M147.28 119.963C146.628 118.587 145.975 117.213 145.318 115.84C145.097 115.379 144.89 115.362 144.623 115.803C144.417 116.142 144.261 116.514 144.072 116.864C143.589 117.767 143.102 118.667 142.611 119.566C142.539 119.676 142.475 119.791 142.419 119.912C142.335 120.134 142.408 120.299 142.647 120.325C144.205 120.494 145.761 120.664 147.333 120.519C147.349 120.517 147.528 120.458 147.28 119.963Z" fill="#ADAB76"/>
<path d="M124.24 115.084C124.076 115.07 123.911 115.07 123.747 115.084C123.432 115.128 123.319 115.287 123.436 115.602C123.901 116.857 124.379 118.109 125.077 119.243C125.377 119.731 125.625 119.753 125.993 119.338C126.92 118.299 127.709 117.132 128.338 115.868C128.542 115.453 128.455 115.282 128.01 115.183C127.833 115.15 125.314 115.118 124.24 115.084Z" fill="#ADAB76"/>
<path d="M122.269 119.309C122.293 119.309 122.316 119.302 122.338 119.291C122.359 119.279 122.378 119.262 122.392 119.242C122.406 119.221 122.416 119.198 122.42 119.173C122.424 119.148 122.423 119.122 122.416 119.098C122.389 118.986 122.353 118.877 122.308 118.772C121.746 117.583 121.181 116.396 120.611 115.211C120.351 114.678 120.121 114.659 119.783 115.159C119.567 115.493 119.367 115.838 119.185 116.193C118.78 116.952 118.389 117.72 117.991 118.482C117.95 118.559 117.915 118.638 117.885 118.72C117.758 119.076 117.848 119.207 118.215 119.26C119.281 119.427 120.363 119.456 121.436 119.349C121.696 119.315 121.962 119.315 122.269 119.309Z" fill="#ADAB76"/>
<path d="M149.524 115.903C148.965 115.884 148.851 116.04 149.056 116.587C149.507 117.784 149.981 118.972 150.446 120.163C150.453 120.181 150.462 120.198 150.471 120.215C150.572 120.414 150.639 120.716 150.892 120.67C151.044 120.642 151.189 120.416 151.289 120.248C152.003 119.041 152.706 117.827 153.409 116.613C153.615 116.258 153.534 116.08 153.134 116.048C152.515 116.002 150.108 115.923 149.524 115.903Z" fill="#ADAB76"/>
<path d="M118.13 106.005C118.136 105.892 118.124 105.779 118.094 105.67C118.077 105.616 118.046 105.568 118.004 105.532C117.963 105.495 117.912 105.472 117.859 105.464C117.806 105.457 117.751 105.465 117.702 105.488C117.653 105.512 117.611 105.549 117.581 105.596C117.515 105.708 117.48 105.836 117.48 105.968C117.48 107.443 117.48 108.918 117.487 110.394C117.487 110.432 117.489 110.47 117.495 110.507C117.53 110.724 117.594 110.919 117.842 110.94C118.051 110.959 118.19 110.79 118.218 110.487C118.224 110.373 118.224 110.26 118.218 110.147C118.222 109.484 118.133 106.723 118.13 106.005Z" fill="#ADAB76"/>
<path d="M127.463 105.795C127.295 105.693 127.136 105.804 127.077 105.972C127.004 106.184 126.961 106.406 126.948 106.63C126.886 107.894 126.756 110.572 126.759 110.647C126.767 110.854 126.834 111.026 127.049 111.06C127.292 111.098 127.409 110.935 127.47 110.718C127.488 110.645 127.498 110.57 127.499 110.495C127.558 109.043 127.621 107.591 127.667 106.139C127.659 106.07 127.637 106.003 127.602 105.943C127.566 105.883 127.519 105.833 127.463 105.795Z" fill="#ADAB76"/>
<path d="M155.118 107.356C154.798 107.371 154.793 107.8 154.781 107.889C154.664 109.075 154.445 112.096 154.454 112.417C154.461 112.631 154.567 112.789 154.776 112.803C155.018 112.819 155.131 112.655 155.156 112.417C155.168 112.305 155.164 112.191 155.171 112.077C155.258 110.736 155.345 109.395 155.431 108.054C155.442 107.925 155.479 107.339 155.118 107.356Z" fill="#ADAB76"/>
<path d="M151.447 107.044C151.314 107.044 151.11 107.142 151.065 107.254C150.982 107.482 150.939 107.725 150.94 107.97C150.924 108.574 150.817 111.103 150.816 111.764C150.816 112.016 150.888 112.218 151.153 112.265C151.368 112.304 151.52 112.105 151.552 111.77C151.552 111.733 151.552 111.694 151.552 111.657C151.596 110.243 151.64 108.829 151.685 107.414C151.691 107.219 151.636 107.042 151.447 107.044Z" fill="#ADAB76"/>
<path d="M148.117 106.812C147.925 106.812 147.831 106.948 147.801 107.135C147.787 107.228 147.778 107.322 147.774 107.417C147.697 108.779 147.621 110.14 147.547 111.502C147.54 111.631 147.528 111.788 147.586 111.889C147.644 111.99 147.793 112.131 147.902 112.131C148.011 112.131 148.149 111.999 148.214 111.886C148.28 111.774 148.267 111.631 148.268 111.499C148.268 110.818 148.381 108.32 148.413 107.754C148.424 107.564 148.439 107.375 148.436 107.186C148.432 106.972 148.34 106.812 148.117 106.812Z" fill="#ADAB76"/>
<path d="M111.459 105.635C111.218 105.611 111.114 105.796 111.09 106.028C111.078 106.141 111.071 106.255 111.07 106.368C111.07 106.99 110.981 109.341 110.981 109.89C110.981 110.061 110.965 110.232 110.975 110.401C110.973 110.444 110.979 110.487 110.993 110.527C111.007 110.568 111.029 110.605 111.056 110.637C111.084 110.668 111.117 110.694 111.155 110.712C111.192 110.73 111.232 110.74 111.273 110.742C111.354 110.754 111.437 110.733 111.504 110.683C111.572 110.634 111.62 110.56 111.638 110.475C111.667 110.386 111.684 110.292 111.688 110.197C111.707 108.815 111.722 107.432 111.741 106.05C111.741 105.833 111.668 105.655 111.459 105.635Z" fill="#ADAB76"/>
<path d="M162.787 111.029C162.831 110.208 162.871 109.507 162.905 108.809C162.916 108.596 162.841 108.41 162.63 108.387C162.39 108.361 162.282 108.541 162.259 108.777C162.25 108.853 162.246 108.928 162.242 109.004C162.181 110.046 162.117 111.086 162.06 112.128C162.043 112.43 162.041 112.734 162.048 113.038C162.057 113.402 162.174 113.571 162.398 113.582C162.638 113.595 162.767 113.404 162.785 113.017C162.79 112.903 162.785 112.789 162.785 112.676L162.787 111.029Z" fill="#ADAB76"/>
<path d="M141.56 106.4C141.308 106.383 141.219 106.565 141.181 106.788C141.155 106.937 141.128 107.088 141.116 107.238C141.021 108.465 140.928 109.692 140.836 110.92C140.804 111.375 140.896 111.579 141.133 111.609C141.369 111.639 141.509 111.446 141.554 111.009C141.563 110.915 141.569 110.82 141.575 110.726C141.653 109.459 141.731 108.193 141.808 106.927C141.858 106.617 141.758 106.414 141.56 106.4Z" fill="#ADAB76"/>
<path d="M130.974 106.019C130.721 105.969 130.623 106.154 130.562 106.368C130.544 106.441 130.533 106.517 130.531 106.592C130.451 107.897 130.367 109.201 130.296 110.506C130.271 110.966 130.38 111.161 130.618 111.174C130.857 111.188 131.001 110.997 131.011 110.553C131.026 109.871 131.168 107.145 131.206 106.468C131.217 106.262 131.204 106.065 130.974 106.019Z" fill="#ADAB76"/>
<path d="M121.557 106.163C121.557 106.031 121.582 105.884 121.535 105.772C121.488 105.659 121.367 105.522 121.283 105.527C121.216 105.535 121.153 105.559 121.096 105.597C121.04 105.635 120.993 105.686 120.958 105.747C120.89 105.912 120.893 106.116 120.891 106.304C120.882 107.61 120.877 108.916 120.875 110.222C120.875 110.69 120.987 110.864 121.241 110.851C121.494 110.838 121.592 110.659 121.595 110.195C121.6 109.495 121.559 106.807 121.557 106.163Z" fill="#ADAB76"/>
<path d="M144.656 106.689C144.415 106.646 144.29 106.822 144.247 107.292C144.17 108.139 144.099 108.987 144.006 110.061C144.006 110.309 144.006 110.782 144.006 111.254C144.006 111.617 144.116 111.799 144.327 111.82C144.557 111.843 144.695 111.648 144.724 111.259C144.724 111.22 144.724 111.183 144.724 111.145C144.784 109.88 144.844 108.615 144.905 107.349C144.93 106.891 144.869 106.726 144.656 106.689Z" fill="#ADAB76"/>
<path d="M124.535 105.786C124.527 105.589 124.479 105.397 124.251 105.371C124.023 105.346 123.931 105.512 123.902 105.715C123.87 105.921 123.852 106.128 123.848 106.337C123.83 107.605 123.816 108.872 123.806 110.14C123.806 110.591 123.916 110.792 124.152 110.797C124.389 110.802 124.524 110.601 124.529 110.158C124.536 109.438 124.523 108.001 124.519 108.001C124.519 107.432 124.519 106.865 124.519 106.297C124.521 106.126 124.543 105.956 124.535 105.786Z" fill="#ADAB76"/>
<path d="M114.666 106.162C114.666 106.028 114.666 105.895 114.657 105.764C114.64 105.55 114.597 105.415 114.326 105.409C114.055 105.402 114.011 105.853 114.01 105.905C114 107.326 113.984 108.747 113.983 110.167C113.983 110.619 114.118 110.819 114.355 110.806C114.591 110.792 114.702 110.582 114.703 110.139C114.704 109.44 114.667 106.787 114.666 106.162Z" fill="#ADAB76"/>
<path d="M134.493 106.066C134.415 106.044 134.252 106.155 134.205 106.244C134.136 106.398 134.099 106.565 134.096 106.735C134.032 108.022 133.977 109.31 133.923 110.597C133.918 110.71 133.923 111.232 134.269 111.232C134.615 111.232 134.636 110.68 134.636 110.548C134.636 109.903 134.727 107.327 134.759 106.684C134.765 106.573 134.813 106.155 134.493 106.066Z" fill="#ADAB76"/>
<path d="M138.092 106.406C138.027 106.409 137.964 106.427 137.906 106.457C137.848 106.488 137.796 106.531 137.755 106.584C137.681 106.699 137.675 106.87 137.661 107.019C137.551 108.189 137.445 109.357 137.344 110.524C137.333 110.656 137.303 110.807 137.351 110.915C137.399 111.023 137.527 111.181 137.636 111.195C137.702 111.193 137.767 111.175 137.826 111.141C137.884 111.108 137.934 111.06 137.972 111.003C138.05 110.867 138.061 110.68 138.074 110.513C138.136 109.76 138.187 109.004 138.243 108.251C138.27 107.817 138.298 107.383 138.327 106.949C138.332 106.855 138.353 106.746 138.317 106.669C138.266 106.565 138.169 106.409 138.092 106.406Z" fill="#ADAB76"/>
<path d="M158.689 107.996C158.473 107.97 158.325 108.145 158.283 108.558C158.163 109.761 158.057 110.966 157.946 112.169C157.955 112.506 158.082 112.708 158.303 112.713C158.503 112.718 158.647 112.547 158.684 112.251C158.696 112.157 158.691 112.061 158.698 111.967C158.782 110.855 158.856 109.747 158.945 108.633C158.979 108.226 158.912 108.023 158.689 107.996Z" fill="#ADAB76"/>
<path d="M154.91 82.7963C154.913 82.233 155.087 81.6857 155.408 81.2353C155.729 80.785 156.178 80.4555 156.69 80.2957C157.173 80.1333 157.694 80.142 158.171 80.3204C158.649 80.4988 159.059 80.8373 159.337 81.2841C159.435 81.4194 159.502 81.5759 159.535 81.7423C159.547 81.863 159.467 82.0611 159.376 82.1055C159.285 82.1499 159.101 82.0824 159.007 82.0007C158.912 81.919 158.861 81.7441 158.779 81.6197C158.56 81.2919 158.242 81.0511 157.878 80.9357C157.513 80.8203 157.122 80.8369 156.768 80.983C156.376 81.1328 156.043 81.4182 155.825 81.7928C155.606 82.1674 155.514 82.609 155.563 83.0459C155.648 83.8451 156.225 84.4453 157.014 84.5688C157.156 84.591 157.315 84.5688 157.434 84.6301C157.493 84.6613 157.545 84.7047 157.588 84.7579C157.63 84.811 157.661 84.8727 157.68 84.9391C157.695 85.019 157.568 85.1655 157.473 85.2188C157.357 85.2697 157.231 85.2877 157.106 85.2712C156.507 85.2404 155.943 84.9649 155.533 84.503C155.123 84.0411 154.899 83.4291 154.91 82.7963Z" fill="#DCDFE4"/>
<path d="M146.134 61.9967C146.114 62.6974 145.862 63.3101 145.197 63.6715C145.102 63.725 145.001 63.7645 144.896 63.7887C144.817 63.8137 144.732 63.8057 144.658 63.7664C144.585 63.727 144.529 63.6593 144.502 63.5774C144.426 63.3838 144.526 63.255 144.67 63.1494C144.885 62.9904 145.164 62.8759 145.299 62.6601C145.63 62.1273 145.517 61.5696 145.231 61.051C144.944 60.5324 144.521 60.187 143.929 60.187C143.747 60.187 143.56 60.306 143.384 60.3912C143.309 60.4435 143.243 60.5083 143.188 60.583C143.046 60.7313 142.88 60.813 142.714 60.6585C142.525 60.4809 142.594 60.2749 142.734 60.1053C143.16 59.5911 143.696 59.3949 144.333 59.5423C145.345 59.783 146.118 60.8228 146.134 61.9967Z" fill="#DCDFE4"/>
<path d="M131.147 62.2444C130.225 62.2355 129.41 61.5837 129.194 60.6779C129.168 60.5696 129.122 60.4337 129.16 60.3494C129.216 60.2207 129.315 60.1191 129.439 60.0652C129.517 60.043 129.665 60.154 129.73 60.2481C129.796 60.3423 129.806 60.4977 129.852 60.6202C129.985 60.9769 130.242 61.2664 130.571 61.4294C130.899 61.5923 131.275 61.6164 131.62 61.4967C131.774 61.4447 131.917 61.3579 132.036 61.2422C132.156 61.1265 132.251 60.9847 132.313 60.8266C132.376 60.6686 132.405 60.498 132.399 60.3268C132.393 60.1556 132.352 59.9879 132.278 59.8352C132.223 59.7171 132.141 59.6123 132.082 59.4969C131.998 59.3353 131.971 59.1639 132.128 59.0369C132.306 58.8939 132.469 58.9712 132.603 59.1257C132.675 59.2097 132.738 59.3024 132.79 59.4019C133.122 60.0235 133.151 60.6637 132.818 61.296C132.492 61.9069 131.872 62.2506 131.147 62.2444Z" fill="#DCDFE4"/>
<path d="M157.89 70.3608C157.886 69.8441 158.047 69.3411 158.348 68.9329C158.421 68.8273 158.519 68.7435 158.632 68.6896C158.682 68.6663 158.737 68.6589 158.79 68.6682C158.844 68.6775 158.894 68.7031 158.934 68.7419C158.974 68.7806 159.002 68.8309 159.015 68.8864C159.028 68.942 159.026 69.0004 159.008 69.0545C158.969 69.1948 158.869 69.3156 158.794 69.4444C158.673 69.6452 158.592 69.8702 158.557 70.1053C158.522 70.3404 158.533 70.5806 158.589 70.811C158.673 71.2035 158.894 71.5063 159.273 71.6209C159.651 71.7354 159.978 71.5782 160.248 71.2923C160.332 71.1991 160.404 71.0845 160.483 70.9815C160.606 70.8217 160.75 70.7089 160.943 70.8439C161.137 70.9788 161.112 71.1706 161.017 71.3465C160.467 72.3623 159.196 72.7673 158.349 71.7789C158.041 71.4228 157.886 70.9193 157.89 70.3608Z" fill="#DCDFE4"/>
<path d="M115.206 68.2234C115.193 69.3884 114.112 70.3422 113.102 70.0793C112.617 69.9523 112.176 69.487 112.168 69.0279C112.169 68.9486 112.186 68.8705 112.219 68.7992C112.252 68.7279 112.299 68.6653 112.358 68.6159C112.511 68.5164 112.649 68.6434 112.745 68.8104C113.12 69.4559 113.403 69.5776 113.889 69.3183C114.433 69.0288 114.692 68.3415 114.465 67.7829C114.429 67.6941 114.345 67.6133 114.349 67.5316C114.355 67.3967 114.377 67.2004 114.46 67.1471C114.522 67.1213 114.59 67.1119 114.656 67.12C114.723 67.128 114.787 67.1532 114.842 67.1933C115.124 67.4606 115.215 67.8273 115.206 68.2234Z" fill="#DCDFE4"/>
<path d="M117.49 83.5208C117.388 83.5342 117.321 83.5661 117.284 83.543C117.171 83.4711 117.004 83.3947 116.981 83.2908C116.959 83.187 117.058 82.9969 117.155 82.9356C117.429 82.758 117.736 82.774 118.036 82.8886C118.223 82.9571 118.394 83.068 118.536 83.2136C118.679 83.3592 118.789 83.5359 118.86 83.7313C119.166 84.5305 119.091 85.2977 118.565 85.9655C118.392 86.1857 118.119 86.3305 117.873 86.4725C117.683 86.5827 117.471 86.5613 117.376 86.3171C117.281 86.0729 117.428 85.9477 117.629 85.8421C118.264 85.5064 118.512 84.9123 118.334 84.2037C118.206 83.6967 117.94 83.4942 117.49 83.5208Z" fill="#DCDFE4"/>
<path d="M139.208 82.0477C138.918 82.0176 138.88 82.2662 138.809 82.4855C138.72 82.7531 138.617 83.0157 138.502 83.2723C138.449 83.3922 138.378 83.5027 138.293 83.6C137.882 84.0688 137.283 83.941 137.114 83.3336C137.045 83.0593 137.009 82.7766 137.01 82.4926C136.997 81.752 137.094 78.8714 137.099 77.8075C138.126 77.3635 138.951 76.6576 139.456 75.5955C139.91 74.6436 139.489 73.5762 138.53 73.2565C137.534 72.9196 136.475 72.8419 135.444 73.0301C135.144 73.0848 134.855 73.1894 134.586 73.34C134.036 73.6499 133.754 74.1543 133.758 74.823C133.758 75.3629 133.995 75.8806 134.414 76.3983C134.919 77.0243 135.471 77.4861 136.202 77.7392C136.202 78.7408 136.305 81.7352 136.291 82.4926C136.293 82.7766 136.257 83.0595 136.187 83.3336C136.019 83.9427 135.421 84.0706 135.009 83.6C134.924 83.5024 134.853 83.392 134.8 83.2723C134.685 83.0158 134.582 82.7532 134.493 82.4855C134.421 82.2662 134.384 82.0176 134.094 82.0477C133.877 82.0691 133.769 82.3648 133.888 82.7093C134.021 83.1208 134.195 83.5163 134.406 83.8895C134.734 84.4374 135.248 84.6602 135.85 84.5253C136.014 84.4938 136.17 84.4263 136.308 84.3272C136.446 84.2281 136.562 84.0995 136.65 83.9498C136.738 84.0994 136.854 84.2279 136.992 84.327C137.129 84.4262 137.285 84.4937 137.449 84.5253C138.053 84.6602 138.566 84.4365 138.894 83.8895C139.106 83.5163 139.279 83.1207 139.411 82.7093C139.533 82.3648 139.424 82.0691 139.208 82.0477Z" fill="#0A1417"/>
<path d="M119.374 73.2282C120.361 73.2415 121.634 74.1553 122.003 75.117C122.411 76.1826 121.792 77.1913 120.712 77.1869C119.426 77.1816 118.516 76.4561 117.934 75.3221C117.349 74.173 118.306 73.0985 119.374 73.2282Z" fill="#DFC3C4"/>
<path d="M152.913 73.2282C151.925 73.2415 150.653 74.1553 150.283 75.117C149.875 76.1826 150.494 77.1913 151.574 77.1869C152.86 77.1816 153.77 76.4561 154.352 75.3221C154.937 74.173 153.982 73.0985 152.913 73.2282Z" fill="#DFC3C4"/>
</svg>
