<svg width="87" height="88" viewBox="0 0 87 88" fill="none" xmlns="http://www.w3.org/2000/svg">
<g clip-path="url(#clip0_4112_43)">
<path d="M74.2232 48.4273C74.211 43.9393 74.1145 39.4513 74.0762 34.9633C74.044 31.2242 74.1153 27.4833 73.8717 23.7486C73.7656 22.1179 73.6977 20.482 73.5342 18.8575C73.1975 15.576 72.819 12.2918 72.431 9.01296C72.2438 7.37046 71.9021 5.74978 71.4105 4.17296C70.9659 2.76496 70.3004 1.47752 69.2355 0.4356C69.078 0.28512 68.904 0.15224 68.73 0C66.033 2.29416 63.3186 4.488 60.8391 6.95904C60.693 7.10512 60.5373 7.24328 60.3841 7.3832C60.3103 7.45592 60.2176 7.50612 60.1168 7.52806C60.0161 7.55001 59.9112 7.5428 59.8143 7.50728C59.2714 7.3436 58.725 7.18784 58.1743 7.05408C56.0863 6.54632 54.0088 5.99808 51.9051 5.56424C49.6266 5.104 47.3028 5.00104 44.979 4.9192C43.0541 4.8477 41.1267 4.94664 39.2188 5.21488C37.6206 5.4428 36.0224 5.68392 34.4338 5.97696C32.3397 6.36328 30.2578 6.8024 28.1698 7.22656C27.7504 7.31456 27.3154 7.56008 26.9283 7.49056C26.5176 7.42104 26.1531 7.06904 25.7712 6.83672C22.9411 5.11368 20.1606 3.31672 17.5166 1.31032C17.3995 1.23179 17.2784 1.15953 17.1538 1.09384C17.0242 1.27512 16.9111 1.42648 16.8058 1.58224C16.1255 2.58368 15.6957 3.69424 15.3782 4.86024C14.7396 7.19752 14.4394 9.59728 14.1654 11.997C13.8713 14.5693 13.6277 17.1494 13.3998 19.7296C13.0854 23.3001 12.93 26.8787 12.9335 30.4656C12.9335 33.9099 12.9184 37.3542 12.8882 40.7986C12.8621 43.9296 12.7699 47.0598 12.7725 50.1908C12.7725 54.3127 12.8247 58.4355 12.8908 62.5574C12.9378 65.4966 13.037 68.4341 13.131 71.3724C13.1588 72.2392 13.2449 73.1034 13.305 73.9851C13.5225 74.0678 13.713 74.1426 13.9044 74.2113C17.3722 75.4521 20.8931 76.5204 24.4549 77.4426C24.8029 77.5336 25.1509 77.6233 25.4989 77.7119C26.8535 78.0569 28.2124 78.3798 29.6035 78.5875C31.6724 78.8964 33.7352 79.2475 35.8206 79.4244L35.938 79.4358C37.7546 79.5837 39.5729 79.7078 41.3929 79.8081C42.6605 79.8794 43.9324 79.9542 45.2 79.9216C46.9861 79.8767 48.767 79.7456 50.5549 79.6268C50.6453 79.6211 50.7353 79.6105 50.8246 79.5951C51.0856 79.552 51.3466 79.479 51.6076 79.427C51.725 79.4042 51.8399 79.3619 51.9556 79.3505C54.6639 79.105 57.3374 78.6236 59.9952 78.0674C60.4076 77.9794 60.82 77.8914 61.2324 77.8034C64.989 77.0114 68.7379 76.1746 72.4902 75.3553C72.8538 75.2752 73.2105 75.1626 73.5629 75.0666C73.5951 74.8792 73.6308 74.7446 73.6395 74.6073C73.7473 72.8024 73.8918 70.9993 73.9457 69.1909C74.0327 66.2526 74.0797 63.3134 74.1197 60.3733C74.1754 56.393 74.2345 52.4102 74.2232 48.4273Z" fill="#8D6852"/>
<path d="M68.9685 50.902C68.9485 51.004 68.9302 51.1061 68.9059 51.2064C68.7633 51.8059 68.5592 52.3887 68.2969 52.9453C68.2351 53.0782 68.1725 53.2093 68.1046 53.3413C67.9537 53.6338 67.7791 53.9131 67.5826 54.1764C66.9319 55.0397 65.9566 55.3495 64.9195 55.0468C63.6424 54.6736 62.6706 53.8799 61.8963 52.8124C61.744 52.6021 61.5927 52.3909 61.4152 52.1894C61.3331 52.0965 61.246 52.0084 61.1542 51.9254C61.2116 52.1304 61.2612 52.3372 61.3282 52.5414C61.3586 52.6391 61.3873 52.7368 61.4152 52.8344C61.7162 53.8605 61.8832 54.9077 61.8023 55.9813C61.7496 56.7708 61.6255 57.5537 61.4317 58.3204C61.2949 58.8486 61.1066 59.3618 60.8697 59.8524C60.8305 59.9325 60.7949 60.0126 60.7531 60.0909C60.1641 61.1988 59.4098 61.6925 58.4668 61.5869C58.2784 61.5639 58.0928 61.522 57.9126 61.462C57.6769 61.3832 57.4484 61.284 57.2296 61.1654C56.25 60.6374 55.4896 59.8744 54.8919 58.9337C54.2942 57.993 53.8418 56.981 53.4477 55.9417C53.392 55.7965 53.2137 55.4815 53.1389 55.4392C53.1389 55.8044 53.1484 56.1432 53.1389 56.4847C53.0823 58.1092 52.8631 59.709 52.3141 61.2367C52.1094 61.8084 51.8374 62.3533 51.5041 62.8594C51.3837 63.0423 51.2478 63.2143 51.0979 63.3733C50.9267 63.5546 50.7352 63.715 50.5271 63.8512C50.1812 64.0812 49.7894 64.2314 49.3796 64.2912C49.2009 64.3156 49.0203 64.3232 48.8402 64.314C48.3146 64.2823 47.8027 64.1319 47.3421 63.874C46.432 63.3795 45.7578 62.6755 45.3576 61.696C44.9061 60.5943 44.6677 59.4415 44.478 58.2737C44.4067 57.8337 44.1587 56.9634 44.1213 56.9599C44.0674 57.1852 44.0108 57.4087 43.9604 57.634C43.6646 58.954 43.3514 60.274 42.8233 61.528C42.4838 62.347 42.0432 63.1193 41.5122 63.8265L41.5009 63.8415C41.3389 64.0529 41.1624 64.2526 40.9728 64.439C40.377 65.0277 39.6456 65.4571 38.8448 65.6886C38.7308 65.722 38.6203 65.7484 38.5116 65.7696C38.3232 65.8067 38.1319 65.8264 37.94 65.8285C37.0282 65.8356 36.3061 65.4114 35.7928 64.8508C35.6043 64.6445 35.4392 64.4175 35.3004 64.1741L35.2543 64.0861C34.8976 63.4217 34.7201 62.6922 34.5766 61.9556C34.2085 60.0751 34.246 58.1875 34.5191 56.299C34.5339 56.1969 34.547 56.0948 34.5609 55.9919C34.5339 55.9796 32.8366 59.042 31.723 60.0513C31.0539 60.6576 30.2979 61.0704 29.4027 61.2156C28.744 61.321 28.0695 61.1967 27.4899 60.8631C26.9103 60.5295 26.4601 60.0065 26.2132 59.3799C25.9305 58.6556 25.8652 57.8953 25.8826 57.1253C25.9235 55.2773 27.0867 51.6693 27.2973 50.902H27.1963C26.7068 51.4124 26.2164 51.9225 25.7252 52.4323L25.653 52.5071C25.5016 52.6637 25.3441 52.8124 25.1832 52.9576C24.6598 53.4207 24.0948 53.8332 23.4954 54.1896C22.9762 54.5005 22.3993 54.7 21.8006 54.7757C20.7314 54.9183 19.824 54.4545 19.3037 53.4936C18.8948 52.7376 18.7817 51.9166 18.8252 51.07C18.8252 51.0137 18.8339 50.9574 18.8374 50.9002H12.7778C12.7857 54.7863 12.8309 58.6715 12.8935 62.5567C12.9405 65.495 13.0397 68.4333 13.1337 71.3716C13.1615 72.2384 13.2476 73.1026 13.3077 73.9844C13.5252 74.0671 13.7157 74.1419 13.9071 74.2105C17.3749 75.4513 20.8958 76.5196 24.4576 77.4419C24.8056 77.5328 25.1536 77.6226 25.5016 77.7112C26.8562 78.0561 28.2151 78.3791 29.6062 78.5868C31.6751 78.8956 33.7379 79.2468 35.8233 79.4236L35.9407 79.4351C37.7573 79.5829 39.5756 79.707 41.3956 79.8073C42.6632 79.8786 43.9351 79.9534 45.2027 79.9208C46.9888 79.876 48.7697 79.7448 50.5576 79.626C50.648 79.6203 50.738 79.6097 50.8273 79.5944C51.0883 79.5512 51.3493 79.4782 51.6103 79.4263C51.7277 79.4034 51.8426 79.3612 51.9583 79.3497C54.6666 79.1042 57.3401 78.6228 59.998 78.0667C60.4103 77.9787 60.8227 77.8907 61.2351 77.8027C64.9918 77.0107 68.7406 76.1738 72.4929 75.3545C72.8566 75.2744 73.2133 75.1618 73.5656 75.0659C73.5978 74.8784 73.6335 74.7438 73.6422 74.6065C73.75 72.8016 73.8945 70.9985 73.9484 69.1901C74.0354 66.2518 74.0824 63.3126 74.1224 60.3725C74.1607 57.2151 74.2042 54.0568 74.2164 50.8984L68.9685 50.902Z" fill="#ADAB76"/>
<path d="M19.3033 53.4954C19.8253 54.4563 20.731 54.9201 21.8002 54.7775C22.3989 54.7018 22.9758 54.5023 23.495 54.1914C24.0944 53.835 24.6595 53.4225 25.1828 52.9594C25.3438 52.8142 25.5012 52.6655 25.6526 52.5089L25.7248 52.4341C26.2161 51.9254 26.7065 51.4153 27.196 50.9038L27.3291 50.7656C27.3213 50.8123 27.3105 50.8584 27.2969 50.9038C27.0864 51.6685 25.9232 55.2756 25.8823 57.1271C25.8658 57.8971 25.9301 58.6574 26.2129 59.3817C26.4596 60.009 26.9104 60.5325 27.4909 60.8659C28.0713 61.1993 28.7467 61.3227 29.4058 61.2156C30.301 61.0704 31.0588 60.6577 31.7261 60.0514C32.8397 59.042 34.537 55.9796 34.564 55.9919C34.5501 56.0949 34.537 56.197 34.5223 56.299C34.2491 58.1875 34.2117 60.0751 34.5797 61.9557C34.7232 62.6922 34.9007 63.4218 35.2574 64.0862L35.3035 64.1742C35.4423 64.4175 35.6074 64.6445 35.7959 64.8509C36.3092 65.4114 37.0313 65.8356 37.9431 65.8286C38.135 65.8264 38.3263 65.8067 38.5147 65.7696C38.6234 65.7485 38.7339 65.7221 38.8479 65.6886C39.6491 65.4573 40.3807 65.0278 40.9768 64.439C41.1664 64.2526 41.3429 64.0529 41.5049 63.8415L41.5162 63.8266C42.0472 63.1193 42.4878 62.347 42.8273 61.528C43.3597 60.2758 43.6686 58.9566 43.9644 57.634C44.0148 57.4087 44.0714 57.1852 44.1253 56.9599C44.1627 56.9599 44.4107 57.8399 44.482 58.2738C44.6717 59.4415 44.9101 60.5943 45.3616 61.6961C45.7618 62.6755 46.436 63.3795 47.3461 63.8741C47.8067 64.132 48.3186 64.2823 48.8442 64.3141C49.0243 64.3233 49.2049 64.3156 49.3836 64.2912C49.7934 64.2315 50.1852 64.0813 50.5311 63.8512C50.7392 63.715 50.9307 63.5546 51.1018 63.3734C51.2518 63.2143 51.3877 63.0424 51.5081 62.8594C51.8419 62.3537 52.1145 61.8091 52.3198 61.2376C52.8688 59.7055 53.0881 58.1057 53.1446 56.4856C53.1559 56.1459 53.1446 55.8054 53.1446 55.4402C53.2194 55.4824 53.3978 55.7974 53.4535 55.9426C53.8476 56.9837 54.3017 57.9957 54.8977 58.9346C55.4936 59.8736 56.2531 60.6322 57.2327 61.1602C57.4515 61.2788 57.68 61.378 57.9157 61.4567C58.0959 61.5168 58.2815 61.5586 58.4699 61.5817C59.413 61.6882 60.1672 61.1945 60.7562 60.0857C60.798 60.0074 60.8337 59.9273 60.8728 59.8472C61.1097 59.3565 61.298 58.8433 61.4348 58.3151C61.6286 57.5485 61.7527 56.7656 61.8055 55.9761C61.8864 54.9025 61.7185 53.8553 61.4183 52.8292C61.3896 52.7315 61.3609 52.6338 61.3313 52.5362C61.2661 52.3338 61.2165 52.127 61.1573 51.9202C61.2491 52.0032 61.3363 52.0913 61.4183 52.1842C61.5923 52.3857 61.7472 52.5969 61.8994 52.8072C62.6737 53.8746 63.6455 54.6684 64.9227 55.0415C65.9597 55.3442 66.935 55.0345 67.5857 54.1712C67.7822 53.9079 67.9568 53.6285 68.1077 53.3361C68.1756 53.2058 68.2382 53.0721 68.3 52.9401C68.5624 52.3835 68.7665 51.8007 68.909 51.2012C68.9334 51.1009 68.9516 50.9988 68.9717 50.8967C69.086 50.3316 69.1406 49.7558 69.1343 49.179C69.1117 47.4102 68.6193 45.8042 67.5283 44.3803C66.4872 43.0372 65.2994 41.8174 63.9874 40.7442C62.5954 39.5878 61.139 38.5002 59.6844 37.4213C55.5615 34.3615 51.5334 31.1874 47.9089 27.5283C46.6138 30.0662 45.3181 32.6033 44.0218 35.1394C43.7295 35.7141 43.5746 35.7326 43.2301 35.1887C42.3079 33.7358 40.4461 30.3355 39.1663 27.9613C38.4193 28.5773 37.6737 29.1959 36.9295 29.8172C34.0168 32.2583 31.1179 34.7162 28.1965 37.1476C26.587 38.487 25.0445 39.8941 23.6594 41.4728C21.9577 43.4088 20.5353 45.5331 19.5609 47.9417C19.1653 48.8832 18.921 49.8825 18.837 50.902C18.837 50.9592 18.8275 51.0155 18.8248 51.0718C18.784 51.9202 18.8944 52.7394 19.3033 53.4954Z" fill="#FBEFDF"/>
<path d="M28.0585 61.8297C28.049 64.6888 28.0011 67.5497 27.9541 70.4071C27.9115 73.0233 27.8315 75.6378 27.7949 78.2531C27.9759 78.2919 28.1568 78.3291 28.3378 78.3649C28.3517 77.2913 28.368 76.2177 28.3865 75.1441C28.4474 71.6083 28.5318 68.0724 28.5979 64.8912C28.6032 63.6091 28.6092 62.4026 28.6145 61.2339C28.426 61.2124 28.2401 61.1723 28.0594 61.1143C28.0594 61.353 28.0591 61.5915 28.0585 61.8297Z" fill="#90954C"/>
<path d="M35.2544 64.0859C35.2404 65.7676 35.2326 67.4493 35.203 69.131C35.1665 71.2351 35.1004 73.3391 35.029 75.4415C34.985 76.7386 34.9351 78.0357 34.8794 79.3328L35.4318 79.3883C35.4501 78.9483 35.4666 78.5083 35.484 78.0735C35.5789 75.6095 35.6763 73.1376 35.7259 70.6683C35.7651 68.7323 35.7772 66.7893 35.7938 64.8507C35.6053 64.6443 35.4401 64.4173 35.3013 64.1739L35.2544 64.0859Z" fill="#90954C"/>
<path d="M40.932 70.5434C40.9276 73.6234 40.9668 76.7034 40.985 79.7834L41.3992 79.8089L41.5279 79.816C41.534 77.8412 41.5279 75.8656 41.5279 73.89C41.5279 71.4383 41.4644 68.9858 41.474 66.5341C41.4783 65.6365 41.4896 64.7389 41.5027 63.8413C41.3407 64.0527 41.1642 64.2524 40.9746 64.4388C40.9537 66.4734 40.9346 68.508 40.932 70.5434Z" fill="#90954C"/>
<path d="M16.1819 51.0171C16.1819 50.9784 16.1819 50.9406 16.1767 50.9019H15.646C15.7948 54.5547 15.8696 58.2111 15.9775 61.8658C16.0271 63.5378 16.0923 65.2036 16.1306 66.8721C16.1741 68.7852 16.2359 70.6983 16.2176 72.6106C16.2098 73.4026 16.195 74.2016 16.1845 74.9963C16.3785 75.0614 16.5734 75.1265 16.7674 75.1899C16.7892 72.0518 16.73 68.9137 16.6369 65.7739C16.4864 60.8555 16.3637 55.9355 16.1819 51.0171Z" fill="#90954C"/>
<path d="M37.7956 70.794C37.7495 72.466 37.7034 74.1319 37.6477 75.8004C37.6054 77.0517 37.5636 78.3022 37.5225 79.5518L38.0584 79.5914C38.0706 79.2948 38.0853 78.9983 38.0975 78.7017C38.1845 76.5818 38.2263 74.4601 38.2942 72.3393C38.3646 70.1481 38.4481 67.9578 38.5117 65.7666C38.3233 65.8037 38.132 65.8235 37.9401 65.8256C37.8931 67.4835 37.8452 69.1388 37.7956 70.794Z" fill="#90954C"/>
<path d="M25.1831 52.9574C25.1831 53.1396 25.1831 53.3208 25.1831 53.503C25.1596 57.6953 25.0874 61.8868 25.0404 66.0791C25.0065 69.1591 24.9926 72.232 24.9474 75.3085C24.936 76.0592 24.9213 76.8089 24.9082 77.5587L25.4502 77.6986L25.4685 76.5062C25.5007 74.4197 25.4955 72.3324 25.5224 70.245C25.5607 67.2407 25.6094 64.2364 25.659 61.2312C25.6808 58.2981 25.719 55.3651 25.7269 52.4312L25.6547 52.506C25.5015 52.6635 25.3441 52.8122 25.1831 52.9574Z" fill="#90954C"/>
<path d="M18.3892 52.0124C18.3892 51.6419 18.3996 51.2723 18.4048 50.9019H17.8715C17.8646 51.6915 17.8564 52.4803 17.8472 53.2682C17.8054 56.3227 17.7515 59.3771 17.7036 62.3788C17.7141 62.9535 17.7201 63.4744 17.7323 63.9954C17.8193 67.8603 17.8872 71.7253 17.9985 75.5894L18.5519 75.7654C18.4327 72.3413 18.31 68.9163 18.2909 65.4914C18.2604 60.9963 18.3483 56.5039 18.3892 52.0124Z" fill="#90954C"/>
<path d="M68.3004 52.945C68.2343 56.0321 68.1525 59.1191 68.0968 62.207C68.0516 64.7458 68.0577 67.2864 68.0098 69.8252C67.9733 71.9293 67.9072 74.0325 67.8358 76.1357C67.8358 76.2175 67.8298 76.2994 67.8271 76.3812L68.3857 76.2589C68.4457 74.6265 68.4997 72.995 68.5327 71.3626C68.591 68.4753 68.5875 65.5871 68.6336 62.6998C68.6667 60.6477 68.738 58.5955 68.7911 56.5398H68.7815C68.8207 54.7614 68.8685 52.982 68.9033 51.2026C68.763 51.8031 68.5609 52.3871 68.3004 52.945Z" fill="#90954C"/>
<path d="M61.1611 51.9263C61.2186 52.1313 61.2681 52.3381 61.3351 52.5423C61.3656 52.6399 61.3943 52.7376 61.4221 52.8353V52.1912C61.3401 52.098 61.253 52.0096 61.1611 51.9263Z" fill="#90954C"/>
<path d="M60.8687 62.524C60.8591 65.3831 60.8112 68.244 60.7643 71.1013C60.7269 73.3805 60.6616 75.6589 60.6216 77.9372L61.1653 77.8219C61.1758 77.1613 61.1865 76.5001 61.1975 75.8384C61.2576 72.3017 61.3419 68.7667 61.4081 65.5855C61.4176 62.9499 61.435 60.6249 61.435 58.3193C61.2982 58.8476 61.1099 59.3608 60.873 59.8514C60.8713 60.742 60.8721 61.6334 60.8687 62.524Z" fill="#90954C"/>
<path d="M71.0372 50.9019C71.0145 54.4095 70.938 57.9163 70.8745 61.4231C70.8144 64.7786 70.7005 68.1331 70.6056 71.4886C70.5656 72.9259 70.5236 74.3632 70.4795 75.8006L71.0285 75.68C71.0528 74.8 71.0763 73.92 71.105 73.04C71.1807 70.6587 71.279 68.2775 71.3391 65.8962C71.3939 63.8616 71.4174 61.8271 71.4522 59.7925C71.5026 56.8304 71.5722 53.8683 71.6027 50.9045L71.0372 50.9019Z" fill="#90954C"/>
<path d="M48.8398 64.3138C48.8764 65.398 48.9121 66.4821 48.9364 67.5698C48.9799 69.482 49.0417 71.396 49.0234 73.3083C49.0025 75.452 48.9709 77.5953 48.9286 79.7384L49.5054 79.7006C49.6394 75.2909 49.5733 70.8821 49.4428 66.4733C49.4213 65.7464 49.4004 65.0201 49.3801 64.2944C49.201 64.3177 49.0201 64.3242 48.8398 64.3138Z" fill="#90954C"/>
<path d="M50.5472 64.6895C50.6411 68.8748 50.7116 73.061 50.8395 77.2462C50.8638 78.0236 50.8928 78.8006 50.9265 79.5774C51.1109 79.543 51.2945 79.5008 51.4781 79.4603C51.4508 78.7346 51.4244 78.0089 51.3989 77.2832C51.271 73.5872 51.1301 69.8824 51.1074 66.182C51.1013 65.2457 51.1031 64.3094 51.1074 63.373C50.9363 63.5543 50.7448 63.7147 50.5367 63.8509C50.5315 64.136 50.5367 64.4158 50.5472 64.6895Z" fill="#90954C"/>
<path d="M57.849 66.7734C57.8151 69.8534 57.8011 72.9264 57.7559 76.0028C57.7437 76.8432 57.7272 77.6836 57.7124 78.524L58.2579 78.4202C58.2649 78.0136 58.2712 77.6071 58.277 77.2005C58.3092 75.1132 58.3049 73.0258 58.331 70.9393C58.3693 67.9341 58.418 64.9298 58.4676 61.9255V61.5849C58.2792 61.5619 58.0936 61.52 57.9134 61.46C57.8925 63.2305 57.871 65.0017 57.849 66.7734Z" fill="#90954C"/>
<path d="M25.5047 77.7129C25.4856 77.7569 25.4656 77.8009 25.4465 77.8431C24.934 79.0197 24.3816 80.1787 23.9005 81.3684C23.3906 82.6303 23.0661 83.9433 23.1244 85.3284C23.1467 85.9765 23.3654 86.6019 23.7508 87.1201C24.2946 87.8593 25.1228 88.0758 25.9432 87.6851C26.1897 87.5634 26.4207 87.4121 26.6314 87.2345C27.25 86.7259 27.6093 86.0351 27.9051 85.3047C27.9651 85.1568 28.0347 85.0134 28.1 84.8647C28.16 85.0404 28.1931 85.2244 28.1983 85.4103C28.274 86.1442 28.401 86.8561 28.9378 87.4202C29.6799 88.1998 30.7395 88.1911 31.4094 87.348C31.6626 87.0295 31.8323 86.6379 32.0097 86.2639C32.1246 86.021 32.1837 85.7517 32.309 85.3768C32.4134 85.6619 32.4621 85.8283 32.5335 85.984C32.8632 86.7074 33.2791 87.3542 34.0377 87.6965C34.8137 88.0485 35.5002 87.9403 36.0387 87.2855C36.3265 86.9213 36.5609 86.517 36.7347 86.0852C37.0166 85.412 36.9792 84.6878 36.9087 83.9732C36.753 82.4068 36.3328 80.9047 35.8282 79.4219C33.7402 79.2459 31.68 78.8939 29.6111 78.585C28.2183 78.3808 26.8593 78.0561 25.5047 77.7129Z" fill="#462E25"/>
<path d="M51.9659 79.3514C51.8476 79.3629 51.7327 79.4051 51.6179 79.428C51.3569 79.4799 51.0959 79.553 50.8349 79.5961C50.5887 80.3934 50.3225 81.1854 50.1215 81.9932C49.8788 82.97 49.7178 83.9679 49.7535 84.9852C49.7647 85.7741 50.0367 86.5365 50.526 87.1509C51.164 87.9435 51.9264 88.0992 52.8133 87.6182C53.5093 87.245 53.886 86.6141 54.1879 85.918C54.2514 85.7728 54.3097 85.625 54.4071 85.39C54.4941 85.698 54.5324 85.9074 54.6194 86.094C54.8186 86.5146 54.9909 86.9634 55.2675 87.326C55.934 88.206 57.038 88.2298 57.7618 87.4017C57.9986 87.1279 58.1782 86.8085 58.2899 86.4627C58.4195 86.0553 58.4378 85.6118 58.5048 85.1841C58.5213 85.082 58.5379 84.9808 58.5596 84.8506C58.8337 85.3979 59.0581 85.9066 59.3357 86.3826C59.672 86.9774 60.1914 87.4447 60.8147 87.7132C61.5568 88.0318 62.3015 87.883 62.8157 87.2582C63.041 86.9749 63.2231 86.659 63.3559 86.321C63.6422 85.6258 63.6074 84.8928 63.5186 84.1624C63.3377 82.6602 62.8017 81.2725 62.1779 79.9111C61.8578 79.213 61.5457 78.5113 61.2418 77.8062C60.8294 77.8942 60.4171 77.9822 60.0047 78.0702C57.3477 78.6246 54.6742 79.1059 51.9659 79.3514Z" fill="#462E25"/>
<path d="M17.9498 5.30371L21.576 8.93635L17.9107 11.5482C17.46 10.9234 17.574 6.26115 17.9498 5.30371Z" fill="#462E25"/>
<path d="M68.4123 5.30371L64.7861 8.93635L68.4514 11.5482C68.9038 10.9234 68.7855 6.26115 68.4123 5.30371Z" fill="#462E25"/>
<path d="M44.0743 15.1437C43.8959 15.1437 43.2695 12.6507 43.1225 11.7451C42.9292 10.6981 43.0445 9.61659 43.454 8.63523C43.5443 8.42977 43.6765 8.24594 43.842 8.09579C44.2248 7.74379 44.6824 7.81243 44.8982 8.29027C45.0458 8.6399 45.1445 9.00866 45.1914 9.38587C45.321 10.272 45.1975 11.1529 45.0261 12.0259C44.859 12.8698 44.2526 15.1437 44.0743 15.1437Z" fill="#462E25"/>
<path d="M40.4775 17.4022C40.4923 17.609 40.4993 18.2505 40.3035 18.3315C40.1078 18.4124 39.9677 18.1555 39.9495 18.1273C39.3291 17.1303 38.6923 16.1438 38.0955 15.1353C37.7367 14.5383 37.5555 13.8494 37.5735 13.1509C37.5848 12.6977 37.6605 12.2709 38.1294 12.0703C38.6175 11.8661 38.9542 12.1847 39.2482 12.5024C39.7702 13.0647 40.0104 13.781 40.14 14.5158C40.3088 15.4671 40.4941 17.3996 40.4775 17.4022Z" fill="#462E25"/>
<path d="M48.7279 19.2844C48.6287 19.2369 48.6165 19.1331 48.6209 19.0266C48.6791 17.4831 48.7174 15.936 49.3221 14.4779C49.5015 14.0069 49.7752 13.5785 50.126 13.2195C50.3635 12.9889 50.6323 12.8472 50.9646 12.9678C51.297 13.0883 51.4449 13.3752 51.4484 13.7008C51.459 14.0283 51.4164 14.3553 51.3222 14.6688C51.1669 15.1463 50.9695 15.6087 50.7324 16.0504C50.2974 16.8565 49.8162 17.6344 49.3569 18.4317C49.1872 18.7283 48.8262 19.3311 48.7279 19.2844Z" fill="#462E25"/>
<path d="M48.5625 12.0562C48.4302 12.0157 48.4337 11.874 48.4267 11.8124C48.2701 10.4775 48.1814 9.13988 48.5398 7.82428C48.6468 7.43004 48.8513 7.05516 49.0531 6.69524C49.163 6.51891 49.3146 6.37311 49.4942 6.27108C50.011 5.96044 50.573 6.22532 50.6574 6.8246C50.6954 7.10027 50.6907 7.38024 50.6435 7.65444C50.3825 9.1742 49.7039 10.5162 48.8635 11.7816C48.8017 11.8802 48.6947 12.1011 48.5625 12.0562Z" fill="#462E25"/>
<path d="M34.7076 13.6065C34.5658 13.6743 34.3909 13.4701 34.3083 13.3425C33.688 12.3815 33.0546 11.4294 32.4613 10.4517C32.2394 10.0865 32.0959 9.66761 31.9523 9.26105C31.8917 9.06186 31.8707 8.8525 31.8905 8.64505C31.9192 8.20505 32.2255 8.00794 32.6492 8.12498C33.0192 8.23511 33.3317 8.48795 33.5192 8.82898C33.7758 9.2593 34.0525 9.69754 34.1943 10.171C34.4388 10.9823 34.6006 11.821 34.7641 12.6543C34.8163 12.928 34.8494 13.5387 34.7076 13.6065Z" fill="#462E25"/>
<path d="M40.3922 11.0678C40.2609 11.0933 40.1069 10.7695 40.0442 10.656C39.5666 9.75483 39.0872 8.85283 38.6305 7.94203C38.4454 7.58573 38.3654 7.18316 38.3999 6.78219C38.4356 6.39763 38.5922 6.07819 38.9359 5.88635C39.2195 5.72795 39.6205 5.83179 39.9216 6.12659C40.2817 6.47859 40.4557 6.93267 40.548 7.41403C40.7455 8.44627 40.7037 9.48555 40.5775 10.5231C40.5619 10.6656 40.5236 11.0414 40.3922 11.0678Z" fill="#462E25"/>
<path d="M43.1252 21.6578C43.0025 21.6578 42.8929 21.4123 42.8355 21.282C42.3866 20.2471 41.9429 19.207 41.7645 18.0832C41.7025 17.6542 41.6821 17.22 41.7036 16.787C41.7213 16.5623 41.793 16.3454 41.9124 16.1551C42.1308 15.7882 42.544 15.7407 42.8216 16.0671C43.0188 16.2842 43.1599 16.5472 43.2322 16.8327C43.3623 17.4622 43.44 18.1015 43.4645 18.7441C43.4836 19.5071 43.4184 20.2718 43.3775 21.0321C43.3618 21.2257 43.247 21.6578 43.1252 21.6578Z" fill="#462E25"/>
<path d="M46.1006 21.5856C45.9962 21.5856 45.9092 21.3331 45.8814 21.2336C45.5673 20.0958 45.3002 18.9456 45.3237 17.7576C45.3387 17.4126 45.4068 17.0721 45.5255 16.7483C45.6378 16.4244 45.8805 16.1815 46.2581 16.1991C46.6357 16.2167 46.841 16.4631 46.961 16.7931C47.1742 17.3836 47.1203 17.9935 47.048 18.5945C46.9471 19.4745 46.6792 20.3202 46.3573 21.1465C46.3077 21.2759 46.205 21.5856 46.1006 21.5856Z" fill="#462E25"/>
<path d="M49.6995 22.5129C49.5812 22.446 50.118 19.7989 50.8253 18.5784C50.9926 18.2972 51.2167 18.0549 51.483 17.8673C51.8832 17.5875 52.2973 17.7688 52.353 18.2589C52.3972 18.618 52.3582 18.9825 52.239 19.3237C52.0526 19.8078 51.8065 20.2661 51.5065 20.6877C51.0689 21.3055 49.8178 22.5797 49.6995 22.5129Z" fill="#462E25"/>
<path d="M54.3942 14.6082C54.2498 14.5062 54.3611 14.1832 54.3994 14.0486C54.6848 13.0524 54.9736 12.0562 55.2859 11.068C55.3684 10.8221 55.4962 10.5943 55.6626 10.3966C55.8062 10.2272 55.9843 10.0912 56.1846 9.99792C56.5231 9.83688 56.8493 9.97416 56.9676 10.3341C57.044 10.5437 57.0609 10.7708 57.0164 10.9897C56.9122 11.4072 56.7579 11.8103 56.557 12.19C56.0889 13.0234 55.4512 13.7282 54.7752 14.3962C54.7135 14.4595 54.5395 14.7086 54.3942 14.6082Z" fill="#462E25"/>
<path d="M27.9507 27.1744C27.4739 27.1876 27.2381 27.0292 27.2225 26.708C27.2068 26.3868 27.4217 26.1861 27.8976 26.1747C29.2026 26.143 30.5076 26.1263 31.8126 26.1157C31.9779 26.1157 32.1771 26.1439 32.2981 26.2398C32.3601 26.2926 32.4096 26.3589 32.4429 26.4337C32.4762 26.5085 32.4924 26.5899 32.4903 26.6719C32.4677 26.8048 32.3015 26.9359 32.1676 27.0177C32.0806 27.0723 28.6032 27.1568 27.9507 27.1744Z" fill="#27282D"/>
<path d="M58.2431 27.1744C57.7664 27.1876 57.5306 27.0292 57.515 26.708C57.4993 26.3868 57.7142 26.1861 58.1901 26.1747C59.4951 26.143 60.8001 26.1263 62.1051 26.1157C62.2695 26.1157 62.4696 26.1439 62.5905 26.2398C62.6523 26.2929 62.7016 26.3592 62.7349 26.4339C62.7681 26.5086 62.7845 26.5899 62.7828 26.6719C62.7602 26.8048 62.594 26.9359 62.4592 27.0177C62.373 27.0723 58.8991 27.1568 58.2431 27.1744Z" fill="#27282D"/>
<path d="M39.4416 22.6009C39.3624 22.6352 39.1658 22.5261 39.1058 22.4777C38.3785 21.8881 37.6859 21.2606 37.264 20.4009C37.1357 20.1188 37.0498 19.8189 37.0091 19.5112C36.9734 19.2885 37.0326 19.0421 37.2701 18.933C37.3728 18.8842 37.488 18.8692 37.5996 18.89C37.7111 18.9108 37.8134 18.9665 37.8921 19.0492C38.0974 19.2325 38.281 19.4392 38.4394 19.6652C38.9118 20.4 39.1919 21.2201 39.4094 22.0632C39.4451 22.2075 39.5216 22.5657 39.4416 22.6009Z" fill="#462E25"/>
<path d="M58.1593 39.3912C57.7452 38.3678 57.1318 37.4702 56.4628 36.6016C55.1691 34.9164 53.6562 33.4468 52.0719 32.0555C50.5929 30.7531 49.0591 29.5035 47.5479 28.2363C46.3722 30.5378 45.1969 32.8387 44.0218 35.139C43.7295 35.7137 43.5746 35.7322 43.2301 35.1883C42.3818 33.8525 40.7419 30.8719 39.4891 28.5549C38.0162 29.4842 36.3197 31.2054 35.0173 32.5448C33.2048 34.4076 31.6766 36.5329 30.4828 38.8509C29.8356 40.1049 29.3414 41.4187 29.1422 42.8294C29.0395 43.5571 29.0186 44.2884 29.2405 45.0003C29.5546 46.0088 30.3515 46.4365 31.3363 46.1082C31.6762 45.988 32.0012 45.8282 32.3046 45.6322C33.2077 45.0698 33.9576 44.3306 34.6023 43.4832C34.7667 43.2667 34.9364 43.0538 35.1582 42.7686C35.1649 42.8812 35.1649 42.994 35.1582 43.1066C35.0495 43.7578 34.9181 44.4054 34.8294 45.0593C34.6928 46.0598 34.6171 47.0639 34.7685 48.0724C34.8624 48.7007 35.0216 49.2974 35.4488 49.7884C35.916 50.3261 36.4058 50.4422 37.0696 50.1721C37.5586 49.9723 37.9509 49.6441 38.3041 49.2534C39.3194 48.1358 40.0172 46.8246 40.5905 45.4368C40.6566 45.2775 40.7332 45.1226 40.8567 44.8534C40.935 45.6084 40.9742 46.2323 41.0699 46.8474C41.2378 47.9298 41.4422 49.0052 41.8833 50.0154C42.1522 50.6314 42.5254 51.1594 43.0752 51.5572C43.8626 52.1222 44.7796 52.1046 45.4851 51.4428C45.8362 51.1109 46.1414 50.7326 46.3925 50.3182C47.1433 49.0862 47.5653 47.7301 47.7767 46.3089C47.8811 45.6049 47.922 44.8947 47.9916 44.1863L48.0647 44.1714C48.1073 44.3192 48.1386 44.4706 48.1926 44.6114C48.4196 45.2106 48.6276 45.8205 48.8886 46.4013C49.1739 47.0234 49.6612 47.528 50.2693 47.8313C51.1645 48.2924 52.0702 48.1287 52.7557 47.3825C53.1156 46.9798 53.3567 46.4832 53.4517 45.949C53.6797 44.8217 53.5787 43.7006 53.3969 42.5794C53.3665 42.3929 53.3578 42.2019 53.3395 42.0127C53.4968 42.1423 53.6333 42.2958 53.744 42.4677C54.527 43.5237 55.5867 43.925 56.7769 43.6011C57.6547 43.3626 58.1897 42.7774 58.3994 41.8895C58.6012 41.0333 58.4864 40.2008 58.1593 39.3912Z" fill="#B2B2B2"/>
<path d="M44.022 35.1391C45.1965 32.8382 46.3719 30.5373 47.5481 28.2364L47.9083 27.5324C48.1571 27.0448 48.4062 26.5573 48.6556 26.0698C48.8296 25.7319 49.0036 25.3922 49.1828 25.0305C48.419 23.8592 47.3558 23.1526 46.1248 22.7663C43.5418 21.9576 41.131 22.3624 38.9725 24.0405C38.5845 24.3432 37.8154 25.4397 37.8154 25.4397C37.8154 25.4397 38.3827 26.5089 39.1665 27.9627C39.2701 28.1545 39.3771 28.3534 39.4876 28.5567C40.7421 30.8737 42.3821 33.8543 43.2286 35.1901C43.5757 35.7322 43.7306 35.7137 44.022 35.1391Z" fill="#462E25"/>
<path d="M57.2632 40.7986C56.8564 40.7986 56.5057 40.51 56.4576 40.1183C56.3309 39.0945 55.6963 36.8501 54.6363 36.8501C54.1878 36.8501 53.8242 36.5058 53.8242 36.0811C53.8242 35.6563 54.1878 35.312 54.6363 35.312C57.428 35.312 58.0134 39.4677 58.071 39.9416C58.1224 40.3635 57.8026 40.7449 57.3571 40.7935C57.3255 40.7971 57.2942 40.7986 57.2632 40.7986Z" fill="#F7A872"/>
<path d="M61.747 34.0148V32.4209H60.0639C57.9591 32.4209 56.2529 34.0367 56.2529 36.0298V37.6238H57.9361C60.0408 37.6238 61.747 36.008 61.747 34.0148Z" fill="#4EB79B"/>
<path d="M60.5404 51.725C63.1185 50.5638 64.9008 48.075 64.9008 45.1914C64.9008 41.1977 61.4819 37.4427 57.2646 40.0295C53.0473 37.4427 49.6284 41.1977 49.6284 45.1914C49.6284 48.0749 51.4106 50.5638 53.9888 51.725C54.471 51.9423 60.0582 51.9423 60.5404 51.725Z" fill="#4EB79B"/>
<path d="M74.2206 75.2631H42.1793C40.2567 75.2631 38.5146 74.5243 37.2542 73.3307C35.9951 72.137 35.2148 70.4885 35.2148 68.6666C35.2148 65.024 38.3328 62.07 42.1792 62.07L59.2919 58.689L74.2205 62.07" fill="#D37250"/>
<path d="M75.1936 64.7568H55.6743V73.0621H75.1936V64.7568Z" fill="#E6E6E6"/>
<path d="M77.3049 65.8395H59.5016C57.8563 65.8395 56.5175 67.1085 56.5175 68.6666C56.5175 70.2259 57.8563 71.4936 59.5016 71.4936H77.3049V75.2631H59.5016C57.579 75.2631 55.8369 74.5243 54.5764 73.3307C53.3173 72.137 52.5371 70.4885 52.5371 68.6666C52.5371 65.024 55.655 62.07 59.5015 62.07L66.0051 58.894L74.7061 62.07H77.3049V65.8395Z" fill="#E88158"/>
<path d="M74.7062 51.9092H55.7045V51.915C55.6508 51.9116 55.5968 51.9092 55.5421 51.9092H36.5405V54.9854H38.3269V58.9946H36.5405V62.0708H55.5422C55.5969 62.0708 55.6509 62.0684 55.7046 62.065V62.0708H74.7063C76.0338 62.0708 77.1112 61.0505 77.1112 59.7934V54.1855C77.1111 52.9284 76.0337 51.9092 74.7062 51.9092Z" fill="#F4BD64"/>
<path d="M55.6743 53.8364H38.3271V60.1426H55.6743V53.8364Z" fill="#CCCCCC"/>
<path d="M36.5405 58.9941H54.6987V54.9849H36.5405V51.9087H55.5422C56.8697 51.9087 57.9471 52.9279 57.9471 54.185V59.7929C57.9471 61.05 56.8697 62.0703 55.5422 62.0703H36.5405V58.9941Z" fill="#DDA758"/>
<path d="M57.3172 51.7257C57.4666 51.7934 58.1044 51.8395 58.9295 51.8652C57.0898 51.9226 54.3212 51.8755 53.9888 51.7257C51.4107 50.5639 49.6284 48.0753 49.6284 45.1919C49.6284 41.5303 52.5021 38.0696 56.229 39.5133C54.2508 40.3685 52.9569 42.7351 52.9569 45.1919C52.9568 48.0753 54.7391 50.5639 57.3172 51.7257Z" fill="#40A084"/>
</g>
<defs>
<clipPath id="clip0_4112_43">
<rect width="87" height="88" fill="white"/>
</clipPath>
</defs>
</svg>
