<svg width="138" height="136" viewBox="0 0 138 136" fill="none" xmlns="http://www.w3.org/2000/svg">
<g clip-path="url(#clip0_4117_339)">
<path d="M128.998 111.512C128.978 105.824 128.785 100.136 128.706 94.4489C128.683 92.598 128.685 90.7471 128.681 88.8962C128.67 85.2698 128.63 81.6435 128.288 78.0258C128.135 76.3853 128.018 74.7403 127.81 73.1027C127.468 70.4351 127.132 67.7647 126.667 65.1058C126.112 61.935 125.498 58.767 124.769 55.6135C124.373 53.7504 123.623 51.9305 122.536 50.2001C121.566 48.6958 120.259 47.3541 118.419 46.2836C115.674 44.688 112.122 44.572 109.17 45.9804C107.264 46.8778 105.682 48.0599 104.545 49.4371C102.977 51.3344 101.919 53.3651 101.095 55.4583C100.991 55.7208 100.882 55.9848 100.77 56.2923C99.397 56.0457 98.1435 55.8021 96.8793 55.5946C92.7002 54.9085 88.5401 54.1629 84.3291 53.5827C83.6683 53.4913 83.0054 53.413 82.3404 53.3405C78.4545 52.9213 74.5111 52.8096 70.5742 52.7124C66.6863 52.6093 62.7928 52.7428 58.9396 53.1113C57.344 53.268 55.7527 53.4275 54.1571 53.5972C52.1812 53.8061 50.2095 54.0324 48.2442 54.279C43.7527 54.8447 39.2272 55.3234 34.8271 56.1937C34.6169 56.2199 34.4034 56.2326 34.1897 56.2314C34.0814 55.9515 33.9879 55.7034 33.8901 55.4568C33.0658 53.3637 32.0098 51.3329 30.4419 49.4371C29.2834 48.0402 27.6713 46.8433 25.7294 45.9384C24.2295 45.2058 22.378 44.8896 20.5495 45.0535C18.5566 45.216 17.0141 45.9079 15.6629 46.8595C13.3704 48.4768 12.0828 50.4612 11.2181 52.592C9.91784 55.7948 9.30594 59.0846 8.7599 62.3745C8.17988 65.8282 7.69759 69.2892 7.23867 72.7517C6.61544 77.5297 6.30524 82.3165 6.30807 87.112C6.30807 91.2968 6.30807 95.4802 6.25283 99.6636C6.19122 104.577 6.0085 109.488 6 114.4C6 119.288 6.11261 124.176 6.21246 129.065C6.33569 135.363 6.42493 141.663 7.30028 147.939C7.58498 149.951 7.90155 151.957 8.53469 153.937C9.58885 157.286 11.9136 160.388 15.2762 162.93C17.014 164.285 19.3093 165.25 21.8626 165.7C25.9461 166.425 29.5644 165.845 32.609 163.801C35.5049 161.861 36.9369 159.423 37.5849 156.75C37.8526 155.64 37.927 154.507 38.0863 153.386C38.1479 152.951 38.201 152.507 38.2648 152.014C38.7619 152.078 39.1592 152.134 39.5587 152.179C41.934 152.444 44.2988 152.777 46.689 152.955C50.9383 153.271 55.1875 153.519 59.4368 153.746C62.2817 153.891 65.133 153.991 67.9842 154.052C69.5289 154.085 71.0777 154.004 72.6223 153.956C75.6832 153.859 78.7427 153.756 81.8008 153.646C82.3481 153.612 82.8917 153.555 83.4283 153.474C83.9637 153.406 84.4906 153.295 85.026 153.242C87.3779 153.019 89.7342 152.827 92.084 152.591C93.6074 152.437 95.118 152.228 96.6881 152.037C96.7306 152.227 96.7795 152.384 96.8007 152.543C96.9261 153.525 97.0599 154.509 97.164 155.492C97.3897 157.442 98.1698 159.343 99.4608 161.088C100.414 162.399 101.78 163.55 103.461 164.458C105.494 165.579 108.081 166.123 110.685 165.977C114.248 165.817 117.238 164.773 119.634 162.98C122.657 160.739 124.847 158.036 126.021 155.098C126.83 153.031 127.339 150.915 127.542 148.78C127.869 145.686 128.275 142.595 128.449 139.497C128.492 138.705 128.529 137.913 128.562 137.122C128.689 133.991 128.736 130.856 128.791 127.724C128.9 122.323 129.019 116.918 128.998 111.512Z" fill="#A54811"/>
<path d="M71.6663 53.8473C75.7214 53.9723 79.7831 54.1159 83.7856 54.6549C83.1454 53.2501 82.6332 51.8053 82.2538 50.3333C81.7658 48.4028 81.4944 46.4424 82.0131 44.4877C82.8118 41.4754 84.5385 39.0077 87.8692 37.5044C90.3793 36.3722 94.0821 36.4375 96.2639 38.9648C96.9773 39.7911 97.6535 40.6435 98.3166 41.4978C99.0038 42.3856 99.7434 43.2268 100.724 43.8927C102.109 44.8253 103.639 45.0603 105.319 44.6388C106.753 44.2807 108.02 43.6726 108.946 42.6803C109.765 41.8481 110.476 40.9432 111.068 39.9814C114.204 34.5201 113.43 29.2993 109.414 24.405C106.742 21.1503 103.186 18.7292 98.9753 17.0095C94.2699 15.0843 89.231 13.8183 84.0526 13.2604C80.4287 12.8613 76.7697 12.8632 73.196 13.6764C64.7663 15.5975 58.6563 19.8707 55.238 26.8018C51.8438 33.6695 51.2989 40.7909 52.7651 48.0652C53.2592 50.4098 53.9243 52.7259 54.7566 55C56.3957 54.7818 58.0392 54.5766 59.6827 54.3752C63.6509 53.8964 67.6613 53.7197 71.6663 53.8473Z" fill="#904211"/>
<path d="M98.8575 17.0284C94.1059 15.0934 89.0175 13.821 83.7883 13.2603C80.1045 12.861 76.4096 12.8628 72.8008 13.6802C68.9269 14.5594 65.5392 15.9298 62.6707 17.8157C62.5138 18.2113 62.3746 18.6143 62.2531 19.0286C61.1128 22.9223 63.937 26.2854 68.4916 26.7241C69.075 26.7804 69.6562 26.861 70.2816 26.9359C70.095 27.3576 69.9356 27.7875 69.8042 28.2238C69.5832 29.1724 69.2783 30.1285 69.2672 31.0846C69.2363 33.7897 71.7136 35.5294 74.8847 35.1264C75.3267 35.0682 75.7842 34.9989 76.2836 34.9276C76.2836 35.6363 76.2261 36.3036 76.2836 36.9635C76.5311 39.4137 78.3808 41.2284 81.2183 41.7064C81.7332 41.7927 82.2547 41.8714 82.7652 41.9389C83.7681 40.085 85.4711 38.5677 87.6048 37.6272C90.1395 36.4892 93.8787 36.5549 96.0819 39.095C96.8023 39.9255 97.4852 40.7822 98.1548 41.6408C98.2653 41.7814 99.0918 42.8294 99.4586 43.1255C101.052 44.6403 102.186 44.764 102.292 44.8221C103.256 45.0667 104.285 45.0589 105.244 44.7996C106.692 44.4397 107.971 43.8285 108.906 42.8312C109.733 41.9948 110.451 41.0853 111.049 40.1186C114.216 34.6296 113.434 29.3824 109.379 24.4633C106.7 21.1901 103.109 18.7568 98.8575 17.0284Z" fill="#FBEFDF"/>
<path d="M24 92.4793C23.9883 90.0002 26.8482 88.008 30.4385 88C34.0287 87.9921 36.9711 90.0161 36.9994 92.5175C37.0112 93.0982 36.8536 93.6748 36.5355 94.2144C36.2173 94.754 35.745 95.2459 35.1454 95.6622C34.5457 96.0784 33.8306 96.4108 33.0407 96.6403C32.2509 96.8699 31.4019 96.9921 30.5421 97C26.9471 97.0079 24.0142 94.9823 24 92.4793Z" fill="#E5A043"/>
<path d="M24 60.7961L16.135 66C16.0764 65.8604 16.0342 65.7148 16.0094 65.5659C15.9475 62.4154 16.18 59.296 17.0612 56.248C17.3761 55.1618 17.7811 54.1104 18.4598 53.1818C19.6672 51.5332 21.0265 51.6138 22.0314 53.3961C22.697 54.5775 23.0101 55.878 23.2969 57.1804C23.5613 58.3893 23.7713 59.611 24 60.7961Z" fill="#27282D"/>
<path d="M110 60.7961L119.831 66C119.904 65.8604 119.957 65.7148 119.988 65.5659C120.067 62.4154 119.774 59.296 118.673 56.248C118.282 55.1618 117.776 54.1104 116.925 53.1818C115.416 51.5332 113.717 51.6138 112.472 53.3961C111.64 54.5775 111.249 55.878 110.893 57.1804C110.548 58.3893 110.286 59.611 110 60.7961Z" fill="#27282D"/>
<path d="M52.9995 91.3065C52.9985 91.4187 52.9644 91.5291 52.9002 91.6283C52.836 91.7275 52.7434 91.8126 52.6305 91.8764C52.5175 91.9401 52.3874 91.9807 52.2511 91.9946C52.1149 92.0085 51.9766 91.9954 51.8479 91.9564C51.5606 91.8428 51.2963 91.6941 51.064 91.5153C48.6082 89.8352 46.1575 88.1502 43.7119 86.4605C43.4719 86.2949 43.1791 86.1202 43.069 85.897C43.0146 85.7833 42.9919 85.6612 43.0026 85.5394C43.0132 85.4176 43.057 85.2994 43.1306 85.1932C43.2848 85.0384 43.6855 84.9879 43.9673 85.0023C44.1875 85.0131 44.4077 85.1824 44.5927 85.3084C47.138 86.9885 49.6798 88.6729 52.2178 90.3614C52.6031 90.6188 53.0171 90.8691 52.9995 91.3065Z" fill="#27282D"/>
<path d="M113 92.4793C113.012 90.0002 110.59 88.008 107.553 88C104.517 87.9921 102.022 90.0161 102.001 92.5175C101.99 93.0982 102.123 93.6747 102.392 94.2143C102.661 94.7538 103.061 95.2458 103.568 95.6621C104.076 96.0783 104.681 96.4108 105.349 96.6403C106.017 96.8699 106.736 96.9921 107.463 97C110.506 97.0079 112.988 94.9823 113 92.4793Z" fill="#E5A043"/>
<path d="M85.0005 91.3065C85.0014 91.4187 85.032 91.5291 85.0898 91.6283C85.1476 91.7275 85.2309 91.8126 85.3326 91.8764C85.4343 91.9401 85.5514 91.9807 85.674 91.9946C85.7967 92.0085 85.9212 91.9954 86.037 91.9564C86.2953 91.8424 86.5331 91.6937 86.7426 91.5153C88.9504 89.8352 91.1555 88.1502 93.358 86.4605C93.5761 86.2949 93.8396 86.1202 93.9387 85.897C93.9871 85.7832 94.0073 85.6611 93.9977 85.5395C93.9881 85.4178 93.949 85.2995 93.8832 85.1932C93.7445 85.0384 93.3838 84.9879 93.1281 85.0023C92.93 85.0131 92.7318 85.1824 92.5653 85.3084C90.2743 86.9885 87.9865 88.6729 85.7021 90.3614C85.3552 90.6188 84.9846 90.8691 85.0005 91.3065Z" fill="#27282D"/>
<path d="M60.7822 71.5823C60.8827 71.4374 60.9557 71.2882 61 71.1366C60.8844 70.3383 60.4623 69.6731 59.2632 69.1968C58.755 68.9945 58.1635 68.9174 57.572 69.1143C57.3299 69.192 57.1493 69.3087 57.0607 69.4447C56.972 69.5806 56.9808 69.7275 57.0854 69.8607C57.4268 70.3928 57.8355 70.9157 58.2522 71.4333C58.3784 71.5704 58.5617 71.6928 58.79 71.7925C59.5293 72.1344 60.3897 72.0466 60.7822 71.5823Z" fill="#904211"/>
<path d="M69.4693 62.7908C69.4098 62.5664 69.277 62.3674 69.0913 62.2245C68.9055 62.0817 68.6772 62.0028 68.4414 62C68.1881 62.0015 67.9428 62.0875 67.7457 62.2439C67.5486 62.4003 67.4113 62.6178 67.3563 62.8609C67.2477 63.2388 67.1604 63.6223 67.0946 64.0096C66.9685 64.6989 66.9685 65.4048 67.0946 66.0941C67.2302 66.8311 67.3706 67.5821 67.5586 68.3237C67.6918 68.8454 68.1344 69.1121 68.7364 68.9554C69.2528 68.8197 69.8191 68.7799 69.8452 68.0429C69.8809 67.0229 70.0404 66.0006 69.9904 64.9852C69.9154 64.2344 69.7402 63.4966 69.4693 62.7908Z" fill="#904211"/>
<path d="M81.8422 66.0292C80.8984 65.9016 80.2692 66.2076 79.8256 66.6412C78.7606 67.639 78.1351 68.7812 78.0072 69.9617C77.9663 70.3597 78.0827 70.7632 78.822 70.9472C79.4261 71.0973 80.6404 70.9134 81.0243 70.5718C82.1227 69.6125 82.8018 68.5046 83 67.3488C83.0031 66.6036 82.5784 66.1287 81.8422 66.0292Z" fill="#904211"/>
<path d="M65.4418 85.1848C64.88 84.7896 64.2086 85.0562 64.0599 85.7181C63.9751 86.074 63.9804 86.4444 64.0755 86.7978C64.2904 87.4642 64.5473 88.1172 64.8448 88.7531C64.9871 89.0228 65.1598 89.2764 65.3596 89.5095C65.6161 89.8442 65.9312 90.092 66.401 89.9671C66.8708 89.8423 66.9609 89.4396 67 89.033C67 88.2596 66.63 86.9699 66.2855 86.1322C66.0962 85.7498 65.805 85.4228 65.4418 85.1848Z" fill="#904211"/>
<path d="M75.1492 67.4091C75.5221 66.4888 76.0513 64.5997 75.996 64.588C75.996 64.4929 75.996 64.3939 75.996 64.3046C75.9455 63.5279 75.5678 63.0658 74.9471 63.0056C74.3938 62.9513 73.8044 63.2911 73.5422 63.959C73.3031 64.5877 73.1333 65.2322 73.0346 65.885C72.9809 66.3212 72.9898 66.761 73.061 67.1956C73.1236 67.712 73.3401 67.8829 73.8862 67.9819C74.1469 68.0249 74.418 67.9907 74.65 67.8855C74.8819 67.7803 75.0591 67.6112 75.1492 67.4091Z" fill="#904211"/>
<path d="M59.8724 63.06C59.6032 63.1256 59.3728 63.249 59.2159 63.4117C59.059 63.5743 58.9842 63.7672 59.0028 63.9614C59.0028 65.3775 59.5332 66.6753 61.0115 67.7206C61.655 68.1762 62.4435 68.0638 62.7739 67.4622C62.8964 67.1856 62.9723 66.9004 63 66.6122C62.9072 65.3262 62.5884 64.2769 61.5072 63.4032C61.3285 63.2313 61.0712 63.1045 60.7756 63.0424C60.4799 62.9804 60.1624 62.9865 59.8724 63.06Z" fill="#904211"/>
<path d="M72.4298 69.0009C71.6955 69.0385 71.3146 69.4572 71.1776 70.0123C71.005 70.7179 70.9365 73.4486 71.0708 74.0813C71.1667 74.5376 71.4133 74.961 72.0763 74.9963C72.3468 75.0166 72.6169 74.9534 72.8379 74.818C73.0589 74.6826 73.2163 74.4839 73.2819 74.2577C73.5913 73.4277 73.8214 72.5773 73.9696 71.7151C74.0384 71.1502 73.9902 70.5792 73.8271 70.0287C73.6408 69.349 73.049 68.9797 72.4298 69.0009Z" fill="#904211"/>
<path d="M61.7739 76.5729C61.4095 76.2099 60.9257 75.9282 60.2472 76.0162C59.9154 76.0561 59.6134 76.1747 59.392 76.3523C59.1705 76.5298 59.0432 76.7554 59.0314 76.9909C58.8683 78.2769 59.3432 79.563 60.376 80.6323C60.7404 81.0306 61.3184 81.0856 61.9938 80.892C63.0336 80.5927 63.0431 80.0119 62.9771 79.3892C62.9237 78.3793 62.619 77.4178 61.7739 76.5729Z" fill="#904211"/>
<path d="M67.4358 79.5776C67.2918 79.2105 67.0117 78.963 66.5955 79.0045C66.2514 79.0394 66.0065 79.3916 66.0001 79.9165C65.9942 80.8584 66.2522 81.7818 66.7428 82.5743C66.9124 82.8567 67.1605 83.0893 67.5111 82.9663C67.8616 82.8434 68.0121 82.5145 67.9992 82.1358C67.9864 81.7903 67.9304 81.4464 67.8936 81.1009C67.7704 80.5841 67.6175 80.0755 67.4358 79.5776Z" fill="#904211"/>
<path d="M76.2459 85.0366C75.6042 84.8848 74.9625 85.2035 74.674 86.0228C74.3651 86.9449 74.1446 87.8872 74.015 88.8403C73.9229 89.482 74.2637 89.8329 74.8083 89.9634C75.4425 90.111 75.8305 89.7922 76.0519 89.3687C76.5045 88.4616 77.8252 85.5757 76.2459 85.0366Z" fill="#904211"/>
<path d="M68.1077 75.9972C68.4014 75.9755 68.8212 75.6449 68.9123 75.397C69.109 74.8621 68.9593 72.2591 68.6186 71.5871C68.4748 71.3131 67.8611 71.0739 67.4118 71.0109C66.8392 70.9326 66.4604 71.2892 66.3019 71.6828C66.0243 72.3374 65.9367 73.028 66.045 73.7093C66.1533 74.3907 66.455 75.0474 66.9303 75.6362C67.0918 75.8624 67.7172 76.0233 68.1077 75.9972Z" fill="#904211"/>
<path d="M72.1882 76.0024C71.6798 75.9628 71.4591 76.4292 71.3531 76.9C71.19 77.7259 71.072 78.5646 71 79.4104C70.9997 79.6236 71.0091 79.8366 71.0283 80.0485C71.0865 80.4885 71.1748 80.9065 71.5985 80.9879C71.7704 81.0216 71.9464 80.9844 72.0997 80.8819C72.253 80.7794 72.3752 80.6173 72.4478 80.4203C72.9233 79.4346 73.0999 78.2694 72.9457 77.1354C72.8362 76.3808 72.5784 76.031 72.1882 76.0024Z" fill="#904211"/>
<path d="M71.3452 83.0015C70.5339 82.9779 69.85 83.2355 69.6499 83.8753C69.3387 84.9283 69.1237 85.9905 69.006 87.0572C68.9551 87.4715 69.2206 87.916 70.0974 87.989C70.9741 88.062 71.4835 87.7635 71.7381 87.3599C72.3056 86.4582 73.0805 85.5006 72.9932 84.0578C72.8222 83.4287 72.1856 83.0294 71.3452 83.0015Z" fill="#904211"/>
<path d="M76.9158 72.2839C76.1839 73.1903 75.9434 74.2629 76.0109 75.4161C76.0299 75.745 76.2843 75.8845 76.575 75.9667C76.7081 76.0152 76.854 76.0106 76.9839 75.9537C77.1139 75.8968 77.2186 75.7918 77.2775 75.6592C77.7049 74.8475 78.3745 72.7719 77.7378 72.1158C77.4921 71.8906 77.1304 72.0193 76.9158 72.2839Z" fill="#904211"/>
<path d="M76.7743 79.0436C76.6142 78.9077 76.4925 79.1066 76.4061 79.4041C76.1684 80.246 76.0287 81.2316 76.0019 82.2545C75.989 82.6013 76.0419 82.9499 76.186 82.9933C76.2956 83.0268 76.4613 82.9342 76.5245 82.7431C76.7775 81.9504 76.9414 81.0083 77 80.0108C76.988 79.5558 76.9504 79.1913 76.7743 79.0436Z" fill="#904211"/>
<path d="M116.678 118.616C116.078 114.584 114.703 110.742 112.179 107.219C109.17 103.022 104.959 99.9706 99.291 98.2762C96.2055 97.3663 92.9383 96.936 89.6585 97.0077C84.9323 97.082 80.6926 98.0261 76.9174 99.7966C74.7532 101.696 72.5911 103.596 70.4313 105.496L70.4246 105.51C70.3491 107.047 70.2269 109.827 70.2558 110.661C70.2456 111.43 70.5222 112.183 71.049 112.821C71.9178 113.812 73.0489 113.87 73.9799 112.915C74.3732 112.514 74.5909 111.996 74.8687 111.525C75.0109 111.289 75.0642 110.998 75.2687 110.815C75.3669 110.743 75.4833 110.689 75.6096 110.658C75.7359 110.627 75.869 110.618 75.9997 110.633C76.1664 110.661 76.373 110.92 76.3908 111.088C76.5263 112.373 74.6132 114.403 73.0577 114.647C72.6703 114.716 72.2689 114.711 71.8839 114.634C71.4989 114.558 71.1405 114.41 70.8357 114.203C70.1879 113.784 69.6887 113.231 69.3892 112.601C69.0897 113.231 68.5905 113.784 67.9426 114.203C67.6377 114.41 67.2792 114.557 66.8943 114.634C66.5094 114.711 66.108 114.716 65.7206 114.647C64.1652 114.403 62.2454 112.373 62.3876 111.088C62.4053 110.92 62.6098 110.661 62.7786 110.633C62.9097 110.618 63.0432 110.627 63.1698 110.658C63.2964 110.689 63.4132 110.743 63.5119 110.815C63.7163 110.996 63.7697 111.289 63.9119 111.525C64.1963 111.996 64.4118 112.514 64.8007 112.915C65.7384 113.87 66.8605 113.812 67.7315 112.821C68.2575 112.183 68.534 111.429 68.5248 110.661C68.5515 109.858 68.4382 107.25 68.3626 105.686C68.2166 105.573 68.08 105.452 67.9538 105.324C65.7939 103.127 63.6415 100.927 61.4965 98.7238C59.3086 97.8219 56.9272 97.2742 54.4838 97.111C51.0175 96.879 47.5733 96.9606 44.2625 97.9482C39.4874 99.3708 35.5188 101.734 32.2369 104.885C25.7175 111.128 22.911 118.404 23.0021 126.512C23.0281 129.364 23.4003 132.207 24.1132 135H114.839C116.672 129.65 117.509 124.207 116.678 118.616Z" fill="#FBEFDF"/>
<path d="M68.2764 105.684C68.3522 107.301 68.4661 109.994 68.4393 110.828C68.4486 111.623 68.1708 112.401 67.6425 113.061C66.7675 114.086 65.6337 114.146 64.6984 113.159C64.3011 112.745 64.0846 112.209 63.8056 111.721C63.6628 111.478 63.6092 111.176 63.4039 110.987C63.3047 110.913 63.1874 110.857 63.0602 110.825C62.933 110.793 62.7989 110.784 62.6673 110.799C62.4999 110.827 62.2923 111.095 62.2745 111.27C62.1406 112.598 64.0601 114.697 65.6225 114.95C66.0117 115.021 66.4148 115.016 66.8015 114.936C67.1881 114.857 67.5482 114.705 67.8545 114.491C68.5052 114.057 69.0067 113.485 69.3075 112.834C69.6084 113.485 70.1098 114.057 70.7606 114.491C71.0667 114.705 71.4268 114.857 71.8135 114.937C72.2002 115.016 72.6034 115.021 72.9926 114.95C74.555 114.697 76.4857 112.598 76.3406 111.27C76.3228 111.095 76.1174 110.827 75.9478 110.799C75.8165 110.784 75.6827 110.792 75.5559 110.825C75.429 110.857 75.3121 110.912 75.2134 110.987C75.0081 111.174 74.9545 111.478 74.8117 111.721C74.526 112.209 74.3072 112.745 73.9189 113.159C72.9747 114.146 71.8476 114.086 70.9749 113.061C70.4457 112.402 70.1678 111.623 70.178 110.828C70.149 109.965 70.2718 107.091 70.3477 105.502L70.3633 105.489C72.5358 103.525 74.7075 101.56 76.8785 99.5952L77.2803 99.2317C77.8115 98.752 78.0392 98.4821 77.9945 98.1073C77.9655 97.8825 75.5282 95.1709 73.189 94.5244C69.4705 93.5612 66.551 93.8835 63.3436 95.8361C62.3755 96.4139 61.5746 97.1671 61 98.0399C61.1317 98.2123 61.1986 98.3191 61.2857 98.4146L61.3638 98.4952C63.5214 100.771 65.6835 103.046 67.85 105.32C67.9824 105.449 68.1248 105.57 68.2764 105.684Z" fill="#27282D"/>
<path d="M135.829 134.989C135.381 135.619 134.826 136.126 134.203 136.473C133.579 136.82 132.901 136.999 132.215 137H100.821C100.133 137.008 99.4509 136.836 98.8226 136.495C98.1942 136.153 97.6341 135.651 97.1807 135.022C96.7274 134.393 96.3915 133.652 96.1962 132.851C96.0008 132.049 95.9506 131.206 96.049 130.379L98.0942 113.703C98.1189 113.506 98.2014 113.326 98.3267 113.197C98.452 113.068 98.6115 112.998 98.7759 113H134.226C134.391 112.998 134.55 113.068 134.676 113.197C134.801 113.326 134.884 113.506 134.908 113.703L136.953 130.379C137.049 131.2 136.998 132.037 136.803 132.832C136.609 133.627 136.277 134.363 135.829 134.989Z" fill="#AB7C73"/>
<path d="M122.278 100H110.722C110.531 100 110.347 99.9078 110.212 99.7437C110.076 99.5796 110 99.3571 110 99.125V95.625C110 94.9288 110.228 94.2611 110.635 93.7688C111.041 93.2766 111.592 93 112.167 93H120.833C121.408 93 121.959 93.2766 122.365 93.7688C122.772 94.2611 123 94.9288 123 95.625V99.125C123 99.3571 122.924 99.5796 122.788 99.7437C122.653 99.9078 122.469 100 122.278 100ZM111.444 98.25H121.556V95.625C121.556 95.3929 121.479 95.1704 121.344 95.0063C121.209 94.8422 121.025 94.75 120.833 94.75H112.167C111.975 94.75 111.791 94.8422 111.656 95.0063C111.521 95.1704 111.444 95.3929 111.444 95.625V98.25Z" fill="#6E5B5E"/>
<path d="M135.919 98H97.0807C96.5289 98 95.9996 98.2653 95.6094 98.7376C95.2192 99.2098 95 99.8504 95 100.518V105.748C94.9951 107.595 95.4505 109.401 96.3067 110.93C97.1629 112.459 98.3801 113.639 99.7994 114.318L113.469 120.941C113.551 120.981 113.638 121.001 113.726 121H119.274C119.362 121.001 119.449 120.981 119.531 120.941L133.201 114.318C134.62 113.639 135.837 112.459 136.693 110.93C137.55 109.401 138.005 107.595 138 105.748V100.518C138 99.8504 137.781 99.2098 137.391 98.7376C137 98.2653 136.471 98 135.919 98Z" fill="#D6B5AB"/>
<path d="M120 121.167V137H113V121.167C113 120.062 113.369 119.002 114.025 118.22C114.682 117.439 115.572 117 116.5 117C117.428 117 118.318 117.439 118.975 118.22C119.631 119.002 120 120.062 120 121.167Z" fill="#6E5B5E"/>
<path d="M116.5 124C116.367 124 116.24 123.895 116.146 123.707C116.053 123.52 116 123.265 116 123V121C116 120.735 116.053 120.48 116.146 120.293C116.24 120.105 116.367 120 116.5 120C116.633 120 116.76 120.105 116.854 120.293C116.947 120.48 117 120.735 117 121V123C117 123.265 116.947 123.52 116.854 123.707C116.76 123.895 116.633 124 116.5 124Z" fill="#EEDECF"/>
<path d="M98 76.2061H78.375C76.25 76.2061 74.625 77.9123 74.625 80.1436V89.7248C74.625 91.9561 76.25 93.6623 78.375 93.6623H98C100.125 93.6623 101.75 91.9561 101.75 89.7248V80.1436C101.75 78.0436 100.125 76.2061 98 76.2061ZM61.5 76.2061H41.875C39.75 76.2061 38.125 77.9123 38.125 80.1436V89.7248C38.125 91.9561 39.75 93.6623 41.875 93.6623H61.5C63.625 93.6623 65.25 91.9561 65.25 89.7248V80.1436C65.25 78.0436 63.625 76.2061 61.5 76.2061Z" fill="#9DE8F7"/>
<path d="M104.25 80.5373V80.1436C104.25 76.4686 101.5 73.5811 98 73.5811H78.375C74.875 73.5811 72.125 76.4686 72.125 80.1436V80.5373H67.875V80.1436C67.875 76.4686 65.125 73.5811 61.625 73.5811H41.875C38.375 73.5811 35.625 76.4686 35.625 80.1436V80.5373H30V83.1623H35.625V89.7248C35.625 93.3998 38.375 96.2873 41.875 96.2873H61.5C65 96.2873 67.75 93.3998 67.75 89.7248V83.1623H72V89.7248C72 93.3998 74.75 96.2873 78.25 96.2873H97.875C101.375 96.2873 104.125 93.3998 104.125 89.7248V83.1623H110V80.5373H104.25ZM65.25 89.7248C65.25 91.9561 63.625 93.6623 61.5 93.6623H41.875C39.75 93.6623 38.125 91.9561 38.125 89.7248V80.1436C38.125 77.9123 39.75 76.2061 41.875 76.2061H61.5C63.625 76.2061 65.25 78.0436 65.25 80.1436V89.7248ZM101.75 89.7248C101.75 91.9561 100.125 93.6623 98 93.6623H78.375C76.25 93.6623 74.625 91.9561 74.625 89.7248V80.1436C74.625 77.9123 76.25 76.2061 78.375 76.2061H98C100.125 76.2061 101.75 78.0436 101.75 80.1436V89.7248Z" fill="black"/>
</g>
<defs>
<clipPath id="clip0_4117_339">
<rect width="138" height="136" fill="white"/>
</clipPath>
</defs>
</svg>
