<svg width="170" height="187" viewBox="0 0 170 187" fill="none" xmlns="http://www.w3.org/2000/svg">
<g clip-path="url(#clip0_4146_696)">
<path d="M122.572 117.194C122.069 113.007 120.784 109.009 119.25 105.087C117.135 99.6867 113.73 95.3053 109 92C109.011 98.2269 109.03 104.452 109.057 110.677C109.093 118.053 109.356 125.429 109.398 132.804C109.428 138.2 109.414 143.598 109.354 149C110.934 148.453 112.398 147.634 113.675 146.581C116.934 143.951 119.159 140.598 120.604 136.768C122.317 132.242 122.96 127.536 123 122.725C122.861 120.88 122.793 119.028 122.572 117.194Z" fill="#DCDCDD"/>
<path d="M72.235 42C71.4001 41.5678 70.5311 41.1778 69.7567 40.6628C65.1888 37.6541 61.3314 33.7363 58.4405 29.1692C57.3399 27.4312 56.608 25.4971 56.2878 23.4804C56.0702 22.3177 55.9895 21.1348 56.0473 19.9545C56.2556 17.1809 57.7002 14.9884 59.7374 13.1032C62.0093 11.0193 64.6978 10.4675 67.6362 11.2768C70.213 11.9923 71.9491 13.5704 72.2104 16.3201C72.3089 17.3758 72.3638 18.4371 72.3865 19.4965C72.413 20.8005 72.3316 22.1064 72.3865 23.4068C72.5133 25.9671 74.2097 27.7751 76.7865 28.2312C78.4261 28.52 79.8934 28.1264 81.2149 27.2067C83.379 25.7022 84.975 23.7655 85.8876 21.3211C86.4829 19.7866 86.842 18.1752 86.9535 16.539C87.0898 14.1479 86.9535 11.79 86.1773 9.51845C84.8217 5.53643 81.9363 2.95041 77.9888 1.42565C74.1719 -0.0457637 70.1903 -0.270155 66.1822 0.263234C59.7809 1.11298 54.2108 3.7744 49.417 7.96427C48.6714 8.61093 47.983 9.31723 47.359 10.0758C44.4944 13.5832 42.5841 17.5119 42.1146 22.0347C41.6924 26.1032 42.4307 29.9436 44.4357 33.5522C45.6342 35.7023 47.3382 37.4349 49.3186 38.8861C50.5416 39.7855 51.8101 40.6297 53.0673 41.4832C54.6577 41.4439 56.2487 41.4243 57.8403 41.4243C62.6531 41.4317 67.4545 41.6009 72.235 42Z" fill="#DCDCDD"/>
<path d="M108.975 132.126C108.934 124.772 108.679 117.417 108.644 110.062C108.617 103.853 108.598 97.6455 108.589 91.439C108.569 81.7232 108.558 72.0081 108.557 62.2936C108.57 57.5129 108.182 52.7395 107.399 48.0225C106.845 44.7854 105.99 41.6363 104.363 38.7476C103.275 36.8145 101.827 35.2078 99.8766 34.0725C98.3751 33.1742 96.6028 32.83 94.8711 33.1003C93.1394 33.3707 91.559 34.2383 90.4074 35.5508C88.7599 37.3849 87.8439 39.5693 87.3101 41.9371C87.179 42.5221 87.046 43.1072 86.9001 43.7436C81.8462 42.6736 76.7292 41.9226 71.5797 41.495C66.9162 41.097 62.2361 40.9283 57.543 40.9265C55.9904 40.9265 54.4383 40.946 52.8869 40.9852C44.5757 41.1943 36.3328 41.9976 28.1509 43.7363C28.0327 43.1861 27.9348 42.7441 27.8425 42.302C27.3068 39.7783 26.3797 37.4417 24.6103 35.4884C23.4671 34.21 21.9136 33.3637 20.2135 33.0933C18.5134 32.8228 16.7715 33.1448 15.2833 34.0046C13.067 35.2738 11.5174 37.1226 10.3612 39.3547C9.43144 41.1959 8.72884 43.1419 8.26863 45.1504C7.01641 50.295 6.5436 55.5478 6.51035 60.8153C6.36814 83.9706 6.59162 107.128 6.14096 130.285C5.95627 139.692 5.85654 149.114 6.47341 158.517C6.69135 161.842 7.06258 165.153 7.95096 168.379C8.85965 171.711 9.93642 174.982 11.7372 177.977C13.091 180.231 15.0617 181.625 17.4848 182.501C19.5165 183.235 21.5573 183.11 23.5797 182.446C24.4792 182.149 25.3546 181.753 26.0158 181.056C26.8303 180.199 27.6781 179.347 28.3541 178.393C30.6997 175.123 31.8835 171.385 32.6297 167.487C32.6907 167.168 32.7442 166.847 32.8144 166.448C41.0536 167.711 49.2835 168.084 57.5486 168.087C65.8136 168.091 74.0842 167.697 82.2218 166.47C82.6041 168.067 82.8885 169.554 83.3189 170.998C84.3642 174.514 85.8528 177.784 88.4903 180.476C90.5681 182.597 93.1261 183.284 95.9223 182.885C99.1101 182.426 101.648 180.799 103.358 177.989C105.133 175.082 106.189 171.9 107.085 168.658C108.415 163.834 108.764 158.873 108.868 153.912C108.906 152.03 108.936 150.148 108.96 148.266C109.008 142.891 109.013 137.511 108.975 132.126Z" fill="#A9A8A8"/>
<path d="M108.983 132.718C108.942 125.444 108.687 118.171 108.652 110.897C108.652 110.036 108.652 109.175 108.652 108.312C107.345 108.231 106.042 108.049 104.735 108.006C100.532 107.868 96.3282 107.725 92.124 107.677C87.2494 107.623 82.3729 107.638 77.4983 107.677C70.9114 107.728 64.341 107.342 57.7652 107.095C53.7144 106.943 49.6673 106.745 45.6183 106.596C41.5693 106.448 37.5185 106.31 33.4677 106.215C28.8979 106.108 24.3262 105.985 19.7563 106.001C16.3465 106.014 12.9348 106.183 9.52866 106.382C8.48871 106.444 7.45246 106.551 6.4162 106.673C6.37741 114.75 6.30168 122.829 6.14098 130.908C5.95627 140.211 5.85652 149.529 6.47347 158.828C6.69143 162.117 7.06271 165.391 7.95119 168.581C8.04724 168.932 8.14699 169.283 8.24858 169.632C9.10196 169.661 9.95535 169.686 10.8106 169.713C13.6718 169.804 16.5367 169.884 19.398 169.984C23.4783 170.127 27.5569 170.288 31.6372 170.432L32.0066 170.442C32.2468 169.536 32.4518 168.629 32.631 167.7C32.6919 167.384 32.7455 167.067 32.8157 166.671C41.0558 167.921 49.2867 168.289 57.5528 168.293C65.8188 168.297 74.0903 167.907 82.2289 166.693C82.6112 168.273 82.8957 169.744 83.3261 171.172C83.432 171.52 83.5422 171.866 83.6567 172.209C86.9317 172.333 90.2067 172.467 93.4835 172.585C97.583 172.73 101.682 172.868 105.782 173C106.279 171.643 106.705 170.256 107.092 168.857C108.421 164.087 108.771 159.18 108.874 154.274C108.998 147.089 109.022 139.902 108.983 132.718Z" fill="#90AEDF"/>
<path d="M48.3942 41.267C48.3126 43.9003 48.229 46.5317 48.1177 49.1631C47.8641 54.5998 48.0205 60.0485 48.5854 65.4605C48.684 66.3672 48.8705 67.2614 49.1422 68.13C49.4688 69.1673 50.2409 69.2855 50.9295 68.4389C51.2483 68.057 51.4962 67.6181 51.6607 67.1442C52.0985 65.8719 52.4702 64.5766 52.7743 63.2639C53.6151 59.3492 53.771 55.3506 54.0494 51.3692C54.2907 47.9179 54.48 44.4628 54.9143 41.0325C54.3964 41.042 53.8786 41.0496 53.3608 41.063C51.704 41.1049 50.0485 41.1729 48.3942 41.267ZM57.7613 41.002C57.7613 41.0572 57.7613 41.1125 57.752 41.1678C57.637 43.2653 57.4904 45.3723 57.3957 47.4774C57.2676 50.3033 57.1173 53.133 57.082 55.9608C57.0431 58.9163 57.1229 61.8719 57.1693 64.8274C57.1802 65.2037 57.2517 65.5754 57.3808 65.9277C57.5442 66.3872 57.8634 66.7647 58.3719 66.801C58.8805 66.8372 59.1626 66.4501 59.3408 66.0516C59.6127 65.4887 59.8189 64.8947 59.9551 64.2821C60.5286 61.2312 61.1373 58.1803 61.5828 55.1008C62.0987 51.5256 62.444 47.9255 62.8931 44.3389C63.019 43.2434 63.2049 42.156 63.4499 41.082C61.6471 41.0261 59.8431 40.9988 58.0379 41L57.7613 41.002ZM65.5935 41.164C65.5926 41.1748 65.5926 41.1857 65.5935 41.1964C65.3003 44.9891 64.9495 48.7779 64.7231 52.5743C64.4837 56.5576 64.3519 60.5505 64.2071 64.5395C64.1682 65.6683 64.2721 66.8105 64.7082 67.8726C65.0794 68.784 65.961 68.9938 66.6162 68.2787C67.0105 67.8394 67.3102 67.3196 67.4959 66.7533C67.8116 65.802 68.0506 64.8256 68.2105 63.834C68.6392 61.1034 69.016 58.3634 69.3927 55.6252C70.0405 50.9269 70.7216 46.2323 71 41.4901C69.2009 41.3503 67.3988 41.2416 65.5935 41.164Z" fill="#DCDCDD"/>
<path d="M91.3171 84.9999C88.908 85.0176 87.0294 83.1691 87.0004 80.7525C86.9675 78.1681 89.1191 75.9921 91.6987 76C92.8282 75.9953 93.9138 76.4451 94.7193 77.2516C95.5249 78.0582 95.9851 79.1561 95.9999 80.3066C96.0135 82.816 93.8541 84.9801 91.3171 84.9999Z" fill="#F2B0A5"/>
<path d="M100.925 47L93 45.3643C93.1916 43.5321 93.4465 41.7714 94.6479 40.2625C94.9325 39.9063 95.2951 39.6107 95.7117 39.3952C96.1283 39.1796 96.5893 39.0492 97.0642 39.0125C97.9111 38.9232 98.5971 39.3232 99.1279 39.9053C99.98 40.8642 100.524 42.028 100.697 43.2625C100.875 44.3643 100.91 45.4875 101 46.6018C100.992 46.7368 100.967 46.8704 100.925 47Z" fill="#1D2424"/>
<path d="M15.0671 47L22 45.3643C21.8323 43.5321 21.611 41.7714 20.5598 40.2625C20.3106 39.9061 19.993 39.6103 19.6282 39.3948C19.2633 39.1793 18.8596 39.0489 18.4438 39.0125C17.7028 38.9232 17.1025 39.3232 16.6398 39.9053C15.8942 40.8642 15.4182 42.028 15.2666 43.2625C15.109 44.3643 15.0788 45.4875 15 46.6018C15.0088 46.7367 15.0313 46.8702 15.0671 47Z" fill="#1D2424"/>
<path d="M122.573 127.124C122.544 127.145 122.51 127.16 122.473 127.168C122.437 127.176 122.399 127.177 122.362 127.171C122.325 127.164 122.29 127.151 122.26 127.132C122.229 127.112 122.203 127.087 122.184 127.058L121.815 126.516C121.309 125.76 120.935 125.728 120.257 126.386C119.999 126.637 119.742 126.889 119.44 127.188C119.408 127.218 119.368 127.241 119.324 127.254C119.28 127.266 119.233 127.268 119.188 127.259C119.143 127.25 119.101 127.23 119.066 127.201C119.032 127.173 119.006 127.137 118.992 127.097C118.859 126.722 118.75 126.409 118.626 126.103C118.466 125.707 118.485 125.152 117.895 125.058C117.305 124.964 117.116 125.486 116.804 125.801C116.492 126.116 116.235 126.542 115.765 126.765C115.705 126.794 115.634 126.801 115.568 126.785C115.501 126.768 115.444 126.729 115.409 126.676C115.323 126.555 115.25 126.428 115.19 126.295C115.054 125.966 114.955 125.627 114.83 125.292C114.688 124.912 114.645 124.43 114.107 124.341C113.618 124.261 113.392 124.661 113.121 124.944L112.648 125.442C112.616 125.476 112.574 125.501 112.528 125.515C112.481 125.529 112.431 125.531 112.384 125.52C112.336 125.51 112.292 125.487 112.258 125.456C112.223 125.424 112.199 125.384 112.188 125.34C112.046 124.807 111.929 124.345 111.782 123.892C111.492 122.99 111.019 122.889 110.292 123.556C109.939 123.877 109.596 124.212 109.23 124.564C109.23 124.811 109.24 125.058 109.244 125.305C109.309 125.272 109.371 125.234 109.429 125.191C109.832 124.907 110.161 124.537 110.535 124.215C110.608 124.153 110.685 124.097 110.767 124.046C110.803 124.023 110.844 124.008 110.888 124.003C110.931 123.998 110.975 124.002 111.016 124.016C111.057 124.03 111.094 124.053 111.123 124.083C111.152 124.113 111.172 124.15 111.182 124.188C111.321 124.736 111.436 125.232 111.592 125.717C111.851 126.521 112.332 126.628 112.973 126.036C113.213 125.815 113.433 125.577 113.684 125.31C113.715 125.278 113.755 125.253 113.8 125.239C113.845 125.225 113.893 125.223 113.94 125.231C113.986 125.24 114.029 125.26 114.064 125.289C114.1 125.317 114.126 125.354 114.14 125.396C114.243 125.696 114.335 125.965 114.448 126.224C114.653 126.704 114.742 127.303 115.422 127.424C116.102 127.545 116.506 127.028 116.927 126.631C117.066 126.486 117.196 126.334 117.316 126.176C117.361 126.13 117.418 126.095 117.482 126.075C117.546 126.055 117.615 126.051 117.682 126.063C117.748 126.074 117.81 126.101 117.861 126.142C117.913 126.182 117.952 126.234 117.975 126.292C118.09 126.633 118.199 126.958 118.337 127.273C118.715 128.135 119.284 128.23 120.011 127.561C120.268 127.325 120.512 127.074 120.79 126.8C120.818 126.772 120.852 126.751 120.89 126.737C120.928 126.723 120.97 126.718 121.01 126.721C121.051 126.724 121.091 126.735 121.126 126.755C121.161 126.774 121.191 126.801 121.213 126.832C121.315 126.98 121.408 127.102 121.488 127.223C121.948 127.867 122.299 127.997 122.899 127.673C122.936 127.394 122.969 127.115 123 126.834L122.573 127.124ZM109.674 111.123C110.003 111.478 110.231 111.731 110.477 111.971C110.818 112.307 111.114 112.801 111.703 112.693C112.373 112.568 112.34 111.946 112.482 111.487C112.636 110.974 112.737 110.446 112.872 109.836C112.875 109.819 112.883 109.803 112.895 109.79C112.907 109.777 112.923 109.767 112.941 109.76C112.958 109.754 112.977 109.752 112.996 109.754C113.014 109.757 113.032 109.763 113.047 109.774C113.437 110.022 113.723 110.222 114.021 110.41C114.964 111 115.446 110.833 115.74 109.813C115.824 109.518 115.896 109.219 115.987 108.858C115.992 108.841 116 108.826 116.013 108.813C116.025 108.801 116.041 108.791 116.059 108.785C116.076 108.779 116.095 108.778 116.114 108.78C116.132 108.782 116.15 108.789 116.165 108.799C116.533 109.055 116.841 109.279 117.164 109.486C117.928 109.971 118.279 109.841 118.528 109.009C118.628 108.671 118.602 108.289 118.834 107.964C118.842 107.951 118.854 107.94 118.867 107.932C118.88 107.924 118.896 107.918 118.912 107.916C118.927 107.913 118.944 107.914 118.959 107.918C118.975 107.922 118.989 107.929 119.002 107.939C119.209 108.135 119.447 108.303 119.707 108.437C119.933 108.525 120.379 108.556 120.486 108.437L120.638 108.259C120.553 108.026 120.467 107.793 120.379 107.562C120.307 107.669 120.225 107.77 120.134 107.864C120.112 107.884 120.083 107.894 120.053 107.894C120.023 107.894 119.994 107.884 119.972 107.864C119.732 107.658 119.53 107.478 119.321 107.306C118.737 106.821 118.392 106.906 118.177 107.612C118.049 108.037 117.959 108.47 117.836 108.986C117.833 109.003 117.824 109.018 117.812 109.031C117.799 109.044 117.783 109.054 117.766 109.06C117.748 109.066 117.729 109.068 117.71 109.065C117.692 109.062 117.674 109.055 117.659 109.045C117.269 108.769 116.967 108.541 116.648 108.333C115.943 107.875 115.565 107.994 115.323 108.758C115.194 109.164 115.099 109.58 114.988 110.003C114.98 110.029 114.962 110.052 114.936 110.066C114.911 110.08 114.88 110.084 114.851 110.078C114.762 110.066 114.675 110.042 114.594 110.006C114.402 109.898 114.218 109.779 114.041 109.651C112.735 108.725 112.462 108.819 112.077 110.328C111.946 110.835 111.814 111.342 111.648 111.975C111.643 111.993 111.633 112.01 111.618 112.023C111.604 112.037 111.586 112.046 111.565 112.051C111.545 112.055 111.524 112.055 111.504 112.049C111.485 112.044 111.467 112.033 111.453 112.019C111.04 111.589 110.726 111.254 110.399 110.934C110.12 110.661 109.869 110.28 109.376 110.401C109.223 110.438 109.09 110.524 109 110.643C109 111.373 109.006 112.103 109.019 112.831C109.041 112.782 109.062 112.732 109.078 112.686C109.232 112.225 109.333 111.751 109.483 111.151C109.49 111.135 109.501 111.12 109.515 111.109C109.529 111.097 109.547 111.089 109.565 111.085C109.584 111.082 109.604 111.082 109.622 111.087C109.64 111.092 109.657 111.102 109.67 111.114L109.674 111.123Z" fill="#B2B2B2"/>
<path d="M82.9995 72.0143C82.9966 72.5419 82.7855 73.047 82.4122 73.4191C82.0389 73.7911 81.5339 74 81.0075 74C80.481 73.9945 79.9773 73.7841 79.6027 73.4133C79.2281 73.0425 79.012 72.5403 79 72.0127C78.9983 71.7447 79.0503 71.4791 79.153 71.2317C79.2557 70.9842 79.407 70.76 79.5978 70.5723C79.7887 70.3846 80.0153 70.2373 80.264 70.1391C80.5128 70.0409 80.7788 69.9938 81.0461 70.0007C81.307 70.0018 81.565 70.0551 81.8051 70.1574C82.0453 70.2597 82.2626 70.409 82.4445 70.5965C82.6264 70.7839 82.7691 71.0059 82.8644 71.2493C82.9597 71.4928 83.0056 71.7528 82.9995 72.0143Z" fill="#1D2424"/>
<path d="M24.6818 84.9999C27.0905 85.0176 28.9706 83.1691 28.9996 80.7525C29.0325 78.1681 26.8795 75.9921 24.3023 76C23.1731 75.9958 22.0877 76.4457 21.2822 77.2521C20.4766 78.0584 20.0159 79.1561 20 80.3066C19.9884 82.816 22.1473 84.9801 24.6818 84.9999Z" fill="#F2B0A5"/>
<path d="M33.0005 72.0142C33.0038 72.542 33.2152 73.0471 33.5886 73.4191C33.9619 73.7912 34.4669 74 34.9933 74C35.5196 73.9945 36.0231 73.7841 36.3975 73.4133C36.772 73.0425 36.988 72.5403 37 72.0127C37.0015 71.7448 36.9494 71.4792 36.8466 71.2319C36.7439 70.9845 36.5927 70.7604 36.4019 70.5727C36.2112 70.3851 35.9848 70.2378 35.7362 70.1395C35.4876 70.0412 35.2219 69.994 34.9547 70.0006C34.6938 70.0016 34.4357 70.0547 34.1955 70.1569C33.9553 70.2591 33.7378 70.4084 33.5558 70.5959C33.3739 70.7834 33.231 71.0054 33.1357 71.249C33.0403 71.4925 32.9944 71.7527 33.0005 72.0142Z" fill="#1D2424"/>
<path d="M86.9392 16.4693C86.7302 16.1309 86.3389 16.1855 86.1033 16.5494C85.9348 16.8361 85.7826 17.1312 85.6474 17.4337C85.6394 17.4501 85.6275 17.4645 85.6125 17.4756C85.5975 17.4867 85.5799 17.4942 85.5613 17.4974C85.5426 17.5006 85.5235 17.4995 85.5054 17.4941C85.4873 17.4887 85.4708 17.4792 85.4574 17.4664C84.7849 16.8587 84.6595 16.9206 84.2567 17.7794C84.2218 17.8499 84.1818 17.9179 84.137 17.9832C84.1261 17.9974 84.1118 18.0091 84.0953 18.0171C84.0788 18.0251 84.0605 18.0293 84.042 18.0293C84.0235 18.0293 84.0053 18.0251 83.9888 18.0171C83.9723 18.0091 83.958 17.9974 83.9471 17.9832C83.8806 17.8922 83.8255 17.8139 83.7571 17.7375C83.3068 17.148 82.9972 17.168 82.5925 17.8139C82.469 18.0141 82.319 18.398 82.2335 18.4217C82.148 18.4453 81.4736 17.8321 81.2836 17.8649C81.0936 17.8976 80.9549 18.0978 80.7725 18.4799C80.6605 18.7164 80.5541 18.9566 80.423 19.2422C80.4147 19.2608 80.4014 19.2769 80.3845 19.2889C80.3675 19.3008 80.3475 19.3082 80.3266 19.3102C80.3056 19.3123 80.2845 19.3089 80.2653 19.3005C80.2462 19.292 80.2298 19.2788 80.2178 19.2623C80.1152 19.124 80.0506 19.033 79.9803 18.9475C79.5168 18.3816 79.2204 18.4016 78.8823 19.0057C78.8025 19.1531 78.7341 19.3059 78.6657 19.4515C78.6577 19.468 78.6458 19.4824 78.6308 19.4935C78.6158 19.5046 78.5982 19.512 78.5796 19.5153C78.561 19.5185 78.5418 19.5173 78.5237 19.5119C78.5056 19.5065 78.4891 19.497 78.4757 19.4842C78.2439 19.2568 78.0312 18.9802 77.8317 18.9912C77.5733 19.0039 77.3282 19.2841 77.0718 19.4897C77.0484 19.5071 77.0193 19.5155 76.9898 19.5135C76.9603 19.5115 76.9327 19.4991 76.9122 19.4788C76.2739 18.8674 76.1523 18.9056 75.5614 19.7044C75.5001 19.7835 75.4321 19.8578 75.3582 19.9264C75.3443 19.939 75.3275 19.9482 75.3091 19.9532C75.2908 19.9582 75.2714 19.9589 75.2527 19.9551C75.234 19.9514 75.2165 19.9433 75.2018 19.9316C75.1871 19.92 75.1756 19.9051 75.1682 19.8882C75.1264 19.7881 75.0979 19.7062 75.0694 19.6444C75.0231 19.501 74.9673 19.3606 74.9022 19.2241C74.6705 18.7928 74.3646 18.7364 74.0245 19.0785C73.843 19.2746 73.6742 19.4812 73.5192 19.6971C73.5082 19.7114 73.4939 19.723 73.4774 19.731C73.4609 19.7391 73.4427 19.7432 73.4242 19.7432C73.4057 19.7432 73.3875 19.7391 73.3709 19.731C73.3544 19.723 73.3401 19.7114 73.3292 19.6971C73.2409 19.5194 73.1109 19.3637 72.9493 19.2422C72.7895 19.1717 72.6105 19.152 72.4382 19.1858C72.4382 19.5497 72.4382 19.9136 72.4382 20.2775C72.4486 20.2127 72.4732 20.1507 72.5104 20.0956C72.5202 20.0806 72.5335 20.068 72.5492 20.0587C72.565 20.0494 72.5827 20.0438 72.6011 20.0422C72.6195 20.0406 72.6381 20.0431 72.6553 20.0496C72.6725 20.056 72.6879 20.0661 72.7004 20.0792C73.4356 20.7779 73.4603 20.747 74.1803 19.9428C74.2561 19.8876 74.3399 19.8435 74.4292 19.8118C74.5246 20.0698 74.6349 20.3225 74.7597 20.5687C75.0276 21.0272 75.3506 21.0563 75.7096 20.6542C75.8768 20.4722 76.0193 20.2648 76.1713 20.0574C76.1822 20.0431 76.1965 20.0315 76.213 20.0235C76.2295 20.0155 76.2478 20.0113 76.2663 20.0113C76.2848 20.0113 76.303 20.0155 76.3195 20.0235C76.336 20.0315 76.3503 20.0431 76.3613 20.0574C76.9635 20.8125 77.0566 20.8598 77.7177 20.0465C77.7289 20.0325 77.7432 20.0212 77.7597 20.0134C77.7762 20.0056 77.7943 20.0016 77.8127 20.0016C77.8311 20.0016 77.8492 20.0056 77.8656 20.0134C77.8821 20.0212 77.8965 20.0325 77.9077 20.0465L77.9647 20.1338C78.3446 20.696 78.9146 20.6524 79.2033 20.041C79.2641 19.9136 79.3249 19.7754 79.3933 19.6225C79.4018 19.6045 79.4149 19.589 79.4315 19.5773C79.4481 19.5656 79.4675 19.5582 79.488 19.5558C79.5084 19.5535 79.5291 19.5562 79.5482 19.5637C79.5672 19.5712 79.5839 19.5834 79.5966 19.5989C79.6935 19.7208 79.7714 19.8172 79.8568 19.9082C80.3337 20.4231 80.6471 20.3813 80.9549 19.7535C81.1088 19.4406 81.3349 18.8438 81.3938 18.8038C81.4527 18.7637 82.1537 19.3751 82.3285 19.3496C82.5032 19.3241 82.6343 19.1422 82.8395 18.7856C82.9231 18.64 83.0181 18.4999 83.1283 18.3343C83.1394 18.3204 83.1538 18.309 83.1703 18.3013C83.1868 18.2935 83.2049 18.2894 83.2232 18.2894C83.2416 18.2894 83.2597 18.2935 83.2762 18.3013C83.2927 18.309 83.3071 18.3204 83.3182 18.3343C83.4183 18.4952 83.5294 18.6496 83.6507 18.7965C84.0306 19.2077 84.2947 19.1767 84.5835 18.6982C84.6766 18.5454 84.7564 18.3871 84.8438 18.2197C84.8526 18.2039 84.8651 18.1903 84.8803 18.18C84.8956 18.1697 84.9131 18.163 84.9316 18.1603C84.95 18.1577 84.9689 18.1592 84.9866 18.1648C85.0044 18.1703 85.0205 18.1798 85.0337 18.1924C85.6683 18.8019 85.824 18.7383 86.1736 17.945C86.2591 17.7521 86.3503 17.561 86.451 17.35C86.4594 17.3339 86.4717 17.32 86.4867 17.3094C86.5018 17.2987 86.5193 17.2916 86.5378 17.2885C86.5563 17.2855 86.5753 17.2867 86.5932 17.292C86.6111 17.2973 86.6274 17.3066 86.6409 17.319C86.7252 17.4068 86.7991 17.5032 86.8613 17.6065C86.9202 17.2681 86.9658 16.9297 87 16.5876L86.9392 16.4693ZM60.0004 31.7858C59.9763 31.8265 59.9369 31.8567 59.8902 31.8703C59.8435 31.8838 59.7932 31.8796 59.7496 31.8586C59.6223 31.7949 59.5064 31.7367 59.3944 31.6767C58.2393 31.0107 58.1386 30.9762 57.7643 32.0497C57.7545 32.0757 57.7387 32.0993 57.7179 32.1186C57.6972 32.1379 57.6721 32.1523 57.6446 32.1609C57.6171 32.1695 57.588 32.172 57.5593 32.1682C57.5307 32.1644 57.5033 32.1543 57.4794 32.1388L57.2248 31.9569C56.2312 31.2709 55.9634 31.3783 55.7164 32.5573C55.7069 32.6028 55.6442 32.6374 55.572 32.7101L55.0439 32.3462C53.7634 31.4838 53.3835 31.5402 53.0073 32.8921C52.999 32.9196 52.9839 32.9449 52.9635 32.9658C52.943 32.9867 52.9176 33.0027 52.8895 33.0125C52.8613 33.0222 52.8312 33.0255 52.8015 33.0219C52.7718 33.0184 52.7434 33.0082 52.7185 32.9922C52.3975 32.7775 52.0935 32.5646 51.7687 32.3826C51.0695 31.9842 50.6725 32.1388 50.4388 32.8957C50.3495 33.1832 50.2944 33.4798 50.2241 33.8055C50.2182 33.835 50.2047 33.8626 50.1849 33.8859C50.165 33.9092 50.1395 33.9274 50.1105 33.939C50.0815 33.9505 50.05 33.955 50.0188 33.952C49.9876 33.949 49.9576 33.9387 49.9316 33.9219C49.7967 33.8237 49.6732 33.74 49.5516 33.6417C49.43 33.5435 49.3483 33.4598 49.2457 33.3815C48.6758 32.8921 47.9615 33.0595 47.6651 33.7454C47.6214 33.8455 47.5796 33.951 47.5321 34.0657C47.5212 34.0904 47.5047 34.1125 47.4838 34.1304C47.4629 34.1483 47.4382 34.1616 47.4113 34.1692C47.3844 34.1769 47.3561 34.1788 47.3284 34.1747C47.3007 34.1706 47.2742 34.1607 47.251 34.1457L46.871 33.8892C46.6944 33.7655 46.5291 33.6235 46.3429 33.5162C45.809 33.2123 45.4063 33.2978 45.2334 33.8546C45.2049 33.9492 45.1783 34.0475 45.1517 34.1439C45.3018 34.355 45.4557 34.5624 45.6153 34.7644C45.6514 34.5679 45.6875 34.3641 45.7255 34.153C45.7318 34.1231 45.7458 34.0952 45.7663 34.0718C45.7869 34.0485 45.8132 34.0304 45.8429 34.0194C45.8726 34.0083 45.9047 34.0046 45.9363 34.0085C45.9679 34.0125 45.998 34.024 46.0237 34.042C46.3562 34.284 46.6127 34.4732 46.871 34.6552C47.6309 35.1865 47.8437 35.1264 48.1591 34.3168C48.2199 34.1603 48.2883 34.0074 48.3699 33.8219C48.3818 33.7962 48.3996 33.7734 48.4221 33.7554C48.4446 33.7374 48.4712 33.7247 48.4997 33.7182C48.5282 33.7116 48.558 33.7115 48.5865 33.7178C48.6151 33.7242 48.6418 33.7367 48.6644 33.7545C49.0672 34.093 49.4243 34.4041 49.8043 34.6879C50.4388 35.1628 50.7086 35.0518 50.853 34.2913C50.9346 33.8619 50.8872 33.3943 51.1588 32.9831C51.187 32.9435 51.2303 32.9161 51.2794 32.9069C51.3285 32.8977 51.3793 32.9074 51.421 32.9339C51.8864 33.236 52.3196 33.5398 52.7831 33.7927C53.2467 34.0457 53.5278 33.9201 53.6418 33.3888C53.6931 33.1505 53.7349 32.9103 53.7824 32.641C53.7876 32.6145 53.799 32.5895 53.8155 32.5677C53.8321 32.5459 53.8535 32.5279 53.8783 32.515C53.903 32.5021 53.9304 32.4947 53.9585 32.4932C53.9866 32.4917 54.0147 32.4962 54.0408 32.5064C54.1246 32.5375 54.2054 32.5759 54.2821 32.621C54.6962 32.8939 55.0857 33.1996 55.515 33.4452C56.0393 33.7473 56.3186 33.5999 56.4136 33.0158C56.4364 32.8757 56.4535 32.732 56.4706 32.5628C56.4746 32.5317 56.4869 32.5022 56.5063 32.4771C56.5257 32.4519 56.5516 32.432 56.5814 32.4192C56.6111 32.4064 56.6439 32.4012 56.6764 32.404C56.7089 32.4068 56.7401 32.4177 56.767 32.4354C56.8999 32.5282 57.0082 32.6046 57.1203 32.6774C57.4661 32.9067 57.7871 33.4052 58.2298 33.1341C58.4464 32.9994 58.4977 32.621 58.6097 32.2334C58.6179 32.2074 58.6319 32.1835 58.651 32.1634C58.67 32.1432 58.6935 32.1275 58.7197 32.1172C58.746 32.1069 58.7743 32.1023 58.8026 32.1039C58.8309 32.1054 58.8585 32.113 58.8833 32.1261C59.0391 32.2134 59.2044 32.308 59.3716 32.3936C60.1315 32.7938 60.3784 32.7047 60.6843 31.8968C60.6995 31.8586 60.7128 31.8186 60.728 31.7804C60.5703 31.5839 60.4145 31.3837 60.2606 31.1836C60.1897 31.3903 60.1027 31.5916 60.0004 31.7858ZM45.3303 23.8274C45.6286 24.2932 45.9401 24.3023 46.3543 23.8638C46.5633 23.6436 46.7513 23.4089 46.9755 23.136C46.9884 23.1206 47.005 23.1084 47.0239 23.1005C47.0428 23.0927 47.0634 23.0893 47.084 23.0907C47.1045 23.0921 47.1244 23.0983 47.1419 23.1088C47.1594 23.1192 47.174 23.1335 47.1845 23.1505C47.2928 23.3234 47.3745 23.4435 47.4448 23.5635C47.9748 24.3841 48.2864 24.386 48.8525 23.5836C49.0425 23.3179 49.2438 23.065 49.4737 22.7702C49.4855 22.7548 49.501 22.7423 49.5188 22.7336C49.5366 22.725 49.5563 22.7205 49.5763 22.7205C49.5963 22.7205 49.616 22.725 49.6338 22.7336C49.6516 22.7423 49.6671 22.7548 49.6789 22.7702C49.9335 23.1069 50.1196 23.3707 50.3305 23.6127C50.8492 24.2131 51.1854 24.1967 51.6509 23.5781C51.7762 23.4089 51.9035 23.2433 52.0593 23.0414C52.0723 23.0245 52.0896 23.011 52.1096 23.0023C52.1295 22.9936 52.1514 22.9899 52.1733 22.9915C52.1951 22.9932 52.2162 23.0001 52.2345 23.0117C52.2528 23.0233 52.2677 23.0391 52.2778 23.0577C52.4431 23.378 52.5799 23.6654 52.7356 23.9329C53.032 24.4442 53.4955 24.4442 53.7995 23.9329C53.8679 23.8183 53.9306 23.6964 54.0009 23.569C54.0111 23.5515 54.0256 23.5366 54.0431 23.5255C54.0605 23.5144 54.0805 23.5075 54.1014 23.5054C54.1222 23.5032 54.1433 23.5059 54.1628 23.5132C54.1824 23.5205 54.1998 23.5321 54.2137 23.5472L54.8653 24.2895C54.8844 24.3111 54.9107 24.3258 54.9397 24.3311C54.9687 24.3364 54.9988 24.332 55.0249 24.3186C55.7069 23.9256 55.5948 23.0868 56.197 22.652H56.216C56.1761 22.3918 56.14 22.1298 56.1077 21.8678C55.8982 21.9456 55.7199 22.0851 55.5986 22.2662C55.4089 22.5229 55.2345 22.7895 55.0762 23.065C55.0676 23.0793 55.0561 23.0918 55.0423 23.1016C55.0285 23.1114 55.0127 23.1185 54.996 23.1222C54.9792 23.126 54.9618 23.1264 54.9449 23.1234C54.928 23.1205 54.9119 23.1142 54.8976 23.105C54.5841 22.8994 54.303 22.6356 54.0484 22.6593C53.7938 22.6829 53.5734 22.9613 53.317 23.2051C53.3027 23.2184 53.2854 23.2283 53.2665 23.2342C53.2476 23.24 53.2275 23.2416 53.2078 23.2388C53.1881 23.236 53.1694 23.2288 53.1531 23.2179C53.1368 23.207 53.1233 23.1927 53.1137 23.176C53.0035 22.9759 52.9047 22.7848 52.785 22.6047C52.4241 22.0588 52.0251 22.037 51.5977 22.5355C51.4077 22.7448 51.2557 22.9722 51.0714 23.2233C51.0592 23.2381 51.0436 23.25 51.0258 23.2582C51.008 23.2664 50.9886 23.2707 50.9688 23.2707C50.9491 23.2707 50.9297 23.2664 50.9119 23.2582C50.8941 23.25 50.8785 23.2381 50.8663 23.2233C50.7466 23.0832 50.6535 22.9759 50.5661 22.8594C50.4787 22.743 50.4141 22.6483 50.3362 22.5446C50.2578 22.4255 50.1505 22.3264 50.0233 22.2558C49.8961 22.1853 49.7529 22.1453 49.6061 22.1394C49.4592 22.1335 49.313 22.1618 49.1801 22.2219C49.0472 22.2821 48.9315 22.3722 48.843 22.4846C48.6435 22.7102 48.463 22.9595 48.2522 23.2306C48.2395 23.2466 48.223 23.2595 48.204 23.268C48.1851 23.2766 48.1642 23.2806 48.1433 23.2797C48.1223 23.2788 48.1019 23.273 48.0838 23.2629C48.0657 23.2527 48.0505 23.2385 48.0394 23.2215C47.9197 23.0395 47.8247 22.8758 47.7126 22.7302C47.346 22.2499 47.004 22.2189 46.55 22.6374C46.36 22.8048 46.2042 23.0013 45.98 23.247C45.965 23.2635 45.9456 23.2759 45.9239 23.2829C45.9022 23.2899 45.879 23.2912 45.8565 23.2868C45.8341 23.2823 45.8133 23.2722 45.7963 23.2576C45.7793 23.2429 45.7666 23.2242 45.7597 23.2033C45.6457 22.8521 45.5697 22.5865 45.4595 22.3299C45.184 21.6622 44.8136 21.5785 44.2664 22.0588C44.0404 22.259 43.8276 22.4773 43.5901 22.712C43.5765 22.7251 43.56 22.7352 43.5418 22.7415C43.5236 22.7478 43.5042 22.7501 43.4849 22.7484C43.4657 22.7467 43.4471 22.7409 43.4305 22.7314C43.4138 22.722 43.3996 22.7092 43.3887 22.6938C43.2482 22.4846 43.1513 22.339 43.0506 22.1935C42.9423 22.0109 42.8191 21.8369 42.682 21.6731C42.6113 21.581 42.5188 21.5061 42.4122 21.4546C42.3056 21.403 42.1878 21.3763 42.0684 21.3765C42.0684 21.4238 42.057 21.4711 42.0513 21.5184C42.0304 21.7168 42.0152 21.9169 42 22.1152L42.0266 22.0861C42.0406 22.0736 42.0573 22.0642 42.0755 22.0585C42.0938 22.0529 42.1131 22.0511 42.1321 22.0533C42.1511 22.0556 42.1694 22.0618 42.1856 22.0716C42.2019 22.0813 42.2157 22.0944 42.2261 22.1098C42.4161 22.4118 42.606 22.7011 42.796 22.9777C43.1608 23.4889 43.7877 23.5035 44.1866 23.0159C44.3044 22.8721 44.4203 22.7066 44.5666 22.5119C44.5797 22.4935 44.5978 22.4788 44.619 22.4696C44.6402 22.4604 44.6636 22.4569 44.6868 22.4595C44.7099 22.4621 44.7318 22.4708 44.7501 22.4845C44.7685 22.4982 44.7825 22.5165 44.7908 22.5374C45.0054 23.0832 45.0301 23.1487 45.2296 23.609C45.2593 23.6846 45.2956 23.7576 45.3379 23.8274H45.3303ZM62.8728 10.0866C62.7551 10.0174 62.2022 9.83364 62.187 9.77906C62.1718 9.72447 62.7 9.10403 62.624 8.94755C62.4948 8.67281 62.1737 8.48358 61.8907 8.2525C61.881 8.24472 61.8733 8.23484 61.8684 8.22368C61.8635 8.21252 61.8614 8.2004 61.8623 8.18831C61.8632 8.17622 61.8672 8.16452 61.8737 8.15417C61.8803 8.14382 61.8894 8.13512 61.9002 8.12878C62.0822 8.03227 62.2518 7.91563 62.4055 7.78126C62.5955 7.59931 62.8348 7.36641 62.8462 7.14807C62.8614 6.83148 62.2972 6.64771 62.0711 6.56583C62.06 6.56159 62.0499 6.55498 62.0418 6.5465C62.0337 6.53802 62.0277 6.52789 62.0242 6.51687C62.0207 6.50585 62.0199 6.49422 62.0218 6.48285C62.0236 6.47148 62.0282 6.46066 62.035 6.4512C62.6582 5.50325 62.5442 5.35951 61.3739 4.99561C61.5167 4.81243 61.6812 4.64574 61.8641 4.49889C62.1205 4.28965 62.5157 4.07495 62.3276 3.71469C62.2421 3.54911 61.7425 3.33805 61.5335 3.24344C61.5226 3.23802 61.5131 3.23033 61.5057 3.22092C61.4984 3.21151 61.4933 3.20063 61.4909 3.18909C61.4886 3.17755 61.4889 3.16565 61.492 3.15427C61.4951 3.14289 61.5009 3.13232 61.5088 3.12335C62.0616 2.48653 62.1414 2.27183 61.6494 1.98071C61.5639 1.93158 61.2238 1.81331 61.1858 1.7278C61.163 1.67685 61.3131 1.33479 61.3169 1C61.0453 1.08006 60.7755 1.16375 60.5076 1.24927C60.3461 1.53129 60.1752 1.78602 60.2284 1.97707C60.2815 2.16812 60.671 2.32277 60.9579 2.47925C60.9681 2.48546 60.9767 2.49376 60.9831 2.50354C60.9896 2.51333 60.9937 2.52436 60.9951 2.53585C60.9966 2.54734 60.9954 2.55899 60.9915 2.56996C60.9877 2.58094 60.9814 2.59097 60.9731 2.59934C59.913 3.651 60.2588 3.69103 61.1535 4.024C61.1672 4.0289 61.1792 4.03731 61.1883 4.0483C61.1973 4.0593 61.203 4.07246 61.2048 4.08635C61.2066 4.10024 61.2043 4.11432 61.1983 4.12707C61.1923 4.13982 61.1827 4.15074 61.1706 4.15864C61.0225 4.25406 60.885 4.36381 60.7603 4.48615C60.5836 4.6681 60.274 4.97923 60.329 5.09022C60.443 5.31584 60.7565 5.45412 61.0054 5.60514C61.1569 5.68238 61.3168 5.74339 61.4822 5.78709C61.4939 5.7913 61.5044 5.79801 61.5129 5.80672C61.5215 5.81542 61.5278 5.82588 61.5315 5.8373C61.5352 5.84871 61.536 5.86078 61.5341 5.87258C61.5321 5.88438 61.5274 5.89559 61.5202 5.90536C60.9009 6.76598 60.9085 6.84967 61.7197 7.30637C61.7308 7.31285 61.7402 7.3218 61.747 7.33247C61.7538 7.34314 61.7579 7.35522 61.7588 7.3677C61.7597 7.38017 61.7575 7.39268 61.7524 7.40417C61.7472 7.41566 61.7393 7.42579 61.7292 7.43373C61.6589 7.4865 61.5905 7.53744 61.5183 7.58293C61.2124 7.76488 60.728 7.91408 60.8591 8.3362C60.9351 8.58183 61.3435 8.73285 61.5981 8.93118C61.6418 8.96575 61.7102 9.01669 61.7026 9.06946C61.6462 9.17253 61.5794 9.27004 61.5031 9.36058C61.1326 9.88095 61.0814 9.90642 61.8983 10.4377C61.9146 10.4484 61.9265 10.4644 61.9317 10.4827C61.9369 10.5011 61.9352 10.5206 61.9268 10.5378C61.7368 10.9272 61.6646 11.1437 61.7748 11.2965C62.0726 11.151 62.3804 11.0252 62.6962 10.9199C63.0799 10.4177 63.1673 10.2576 62.8728 10.0866ZM72.6244 14.4079C72.6035 14.1695 72.5807 13.9184 72.5579 13.6655C72.5552 13.641 72.5583 13.6162 72.5669 13.5929C72.5755 13.5697 72.5894 13.5486 72.6076 13.5311C72.6258 13.5137 72.6478 13.5004 72.6721 13.4921C72.6964 13.4839 72.7223 13.481 72.7479 13.4835C73.656 13.5636 73.732 13.3962 73.5078 12.4228C73.496 12.3669 73.496 12.3094 73.5078 12.2536C73.8136 12.1844 74.1955 12.2044 74.3038 12.048C74.4387 11.866 74.4387 11.584 74.4672 11.3038C74.4695 11.2822 74.4763 11.2613 74.4872 11.2423C74.4981 11.2233 74.5127 11.2065 74.5304 11.193C74.5481 11.1795 74.5684 11.1694 74.5902 11.1634C74.6119 11.1575 74.6347 11.1557 74.6572 11.1582C74.7098 11.168 74.7632 11.1741 74.8167 11.1764C75.5083 11.211 75.6773 11.0072 75.4608 10.3904C75.3943 10.2085 75.3164 10.0265 75.2385 9.83001C75.2294 9.808 75.2254 9.78436 75.2267 9.76072C75.228 9.73709 75.2347 9.71401 75.2463 9.69308C75.2578 9.67215 75.274 9.65388 75.2936 9.63951C75.3133 9.62514 75.3359 9.61502 75.3601 9.60985C76.31 9.4006 76.3233 9.31873 76.0953 8.09603C76.0897 8.05606 76.0996 8.01552 76.123 7.98202C76.1465 7.94852 76.1819 7.92436 76.2226 7.91408C76.6025 7.81946 77.0471 7.77216 77.2123 7.55018C77.3776 7.3282 77.2352 6.9079 77.182 6.56765C77.1758 6.52983 77.1834 6.49114 77.2035 6.45803C77.2235 6.42492 77.2548 6.3994 77.2921 6.3857C77.5733 6.28381 77.9267 6.20375 78.0084 6.0218C78.109 5.78709 78.0084 5.46686 77.9419 5.20849C77.9333 5.17275 77.9377 5.1353 77.9543 5.10225C77.9708 5.06919 77.9986 5.0425 78.0331 5.02654C78.318 4.89554 78.6467 4.80274 78.7436 4.60624C78.8405 4.40973 78.7436 4.11679 78.698 3.84751C78.6896 3.80458 78.6993 3.76023 78.7249 3.72411C78.7505 3.68799 78.79 3.66302 78.8348 3.65464C79.8321 3.47269 79.8967 3.39445 79.7372 2.55203C79.7326 2.51169 79.7433 2.47112 79.7674 2.43772C79.7915 2.40432 79.8272 2.38032 79.8682 2.37008C80.0346 2.33948 80.197 2.2919 80.3527 2.22816C79.9271 1.98556 79.4839 1.76358 79.0228 1.56222C78.7265 1.62591 78.6562 1.86244 78.8082 2.29002C78.8557 2.41921 78.9108 2.54475 78.9639 2.66666C78.9737 2.68898 78.9783 2.71308 78.9773 2.73727C78.9763 2.76146 78.9697 2.78514 78.9582 2.80665C78.9466 2.82816 78.9302 2.84698 78.9102 2.86177C78.8902 2.87656 78.867 2.88698 78.8424 2.89227C78.4738 2.96687 78.0824 2.99962 77.9381 3.19613C77.7937 3.39263 77.8944 3.78565 77.9381 4.12589C77.9429 4.16928 77.9296 4.21273 77.9011 4.2468C77.8727 4.28088 77.8313 4.30281 77.7861 4.30784C77.1611 4.3788 76.9806 4.397 77.1972 5.43593C77.2034 5.47522 77.1945 5.51535 77.1721 5.54883C77.1498 5.5823 77.1154 5.60685 77.0756 5.61788C77.0405 5.62748 77.005 5.63538 76.9692 5.64153C76.2093 5.76707 76.12 5.90172 76.3688 6.57675C76.4163 6.70411 76.4619 6.8333 76.517 6.9825C76.5261 7.00747 76.5289 7.03416 76.525 7.06035C76.5211 7.08653 76.5107 7.11145 76.4947 7.133C76.4787 7.15456 76.4576 7.17213 76.433 7.18425C76.4085 7.19637 76.3813 7.20268 76.3537 7.20266C76.2511 7.20266 76.1637 7.20266 76.0782 7.20266C75.3544 7.23541 75.2081 7.421 75.3658 8.1124C75.4095 8.30527 75.4589 8.49632 75.5064 8.68554C75.5167 8.72751 75.5093 8.77168 75.4858 8.80847C75.4623 8.84526 75.4247 8.8717 75.381 8.88205C75.3454 8.89154 75.3092 8.89883 75.2727 8.90388C75.21 8.90388 75.1473 8.90388 75.0827 8.90388C74.3475 8.99304 74.2411 9.16407 74.4805 9.84638C74.5223 9.96283 74.5622 10.0811 74.6059 10.2103C74.6143 10.2351 74.6165 10.2615 74.6122 10.2872C74.6079 10.313 74.5972 10.3374 74.581 10.3584C74.5648 10.3794 74.5436 10.3964 74.5192 10.408C74.4948 10.4196 74.4678 10.4254 74.4406 10.425C73.5249 10.425 73.5838 10.6069 73.6028 11.2656C73.6033 11.2876 73.5992 11.3096 73.5907 11.3301C73.5823 11.3506 73.5696 11.3693 73.5535 11.385C73.5374 11.4008 73.5182 11.4133 73.4969 11.4219C73.4757 11.4304 73.4529 11.4348 73.4299 11.4348H72.784C72.7599 11.4349 72.7362 11.4399 72.7142 11.4493C72.6923 11.4588 72.6726 11.4725 72.6565 11.4896C72.6404 11.5067 72.6283 11.5269 72.6208 11.5488C72.6133 11.5707 72.6106 11.5938 72.613 11.6167C72.6472 11.9151 72.6776 12.1899 72.708 12.461C72.7108 12.4848 72.7082 12.5088 72.7002 12.5315C72.6923 12.5542 72.6793 12.5749 72.6621 12.5923C72.6449 12.6096 72.6239 12.6232 72.6006 12.6319C72.5774 12.6407 72.5524 12.6444 72.5275 12.6429C72.1741 12.6193 71.6973 12.6429 71.6954 12.6921C71.6859 12.894 71.6954 13.0978 71.6954 13.3453C71.6951 13.3718 71.6882 13.3979 71.6754 13.4213C71.6625 13.4448 71.644 13.465 71.6213 13.4803C71.5987 13.4956 71.5726 13.5055 71.5452 13.5092C71.5178 13.513 71.4898 13.5104 71.4636 13.5017C71.6711 13.8287 71.8406 14.1765 71.969 14.5389C72.0513 14.5787 72.1412 14.6022 72.2333 14.6078C72.3254 14.6135 72.4177 14.6011 72.5047 14.5716C72.5419 14.5609 72.5741 14.5382 72.5959 14.5074C72.6177 14.4765 72.6278 14.4395 72.6244 14.4024V14.4079ZM47.156 11.3602C47.1682 11.3828 47.1888 11.4004 47.2136 11.4094C47.2385 11.4185 47.266 11.4184 47.2909 11.4093L48.2028 11.0563C48.2217 11.049 48.2424 11.0471 48.2624 11.0507C48.2824 11.0543 48.301 11.0634 48.3158 11.0768C48.3306 11.0902 48.3411 11.1074 48.346 11.1264C48.3508 11.1453 48.3499 11.1652 48.3434 11.1837C48.2221 11.4845 48.1244 11.7934 48.0508 12.108C48.0327 12.2046 48.0377 12.3039 48.0653 12.3984C48.093 12.493 48.1425 12.5803 48.2104 12.6539C48.3035 12.6952 48.405 12.7167 48.5077 12.7167C48.6104 12.7167 48.7118 12.6952 48.805 12.6539C49.1286 12.5047 49.4414 12.3351 49.7416 12.1462C49.7577 12.1369 49.7762 12.1318 49.7951 12.1315C49.8139 12.1312 49.8326 12.1358 49.849 12.1447C49.8654 12.1536 49.8791 12.1665 49.8886 12.1821C49.8981 12.1977 49.9031 12.2155 49.9031 12.2336V13.4217C49.9029 13.4469 49.9126 13.4713 49.9301 13.4901C49.9476 13.509 49.9719 13.5209 49.9981 13.5236C50.8511 13.6 51.2614 12.8667 51.9624 12.6593C51.9796 12.6539 51.9979 12.6527 52.0157 12.656C52.0335 12.6592 52.0501 12.6668 52.064 12.6779C52.0779 12.689 52.0886 12.7033 52.0951 12.7195C52.1016 12.7357 52.1036 12.7532 52.1011 12.7703C52.0368 13.1316 51.9943 13.4961 51.9738 13.862C51.9605 14.4533 52.2778 14.6135 52.804 14.295C53.1194 14.1131 53.4139 13.8857 53.7691 13.6364C53.7851 13.6252 53.804 13.6186 53.8237 13.6171C53.8434 13.6157 53.8631 13.6195 53.8807 13.6282C53.8982 13.6369 53.9129 13.6501 53.9231 13.6663C53.9332 13.6825 53.9385 13.7012 53.9382 13.7201C53.9382 14.124 53.9173 14.4479 53.9382 14.7736C53.9876 15.3194 54.2802 15.4577 54.757 15.1684C54.9698 15.0392 55.1693 14.89 55.4181 14.7153C55.4328 14.7048 55.4501 14.698 55.4683 14.6957C55.4865 14.6934 55.505 14.6957 55.522 14.7023C55.539 14.7089 55.554 14.7196 55.5654 14.7333C55.5768 14.7471 55.5843 14.7635 55.5872 14.7809C55.5981 14.8698 55.6178 14.9575 55.6461 15.0429C55.724 15.2412 55.8133 15.4359 55.9007 15.6324C55.9062 15.6449 55.9144 15.6563 55.9246 15.6658C55.9348 15.6753 55.947 15.6827 55.9602 15.6876C55.9735 15.6926 55.9877 15.6949 56.002 15.6944C56.0162 15.694 56.0302 15.6908 56.0431 15.6851C56.2586 15.6032 56.4664 15.504 56.6644 15.3886C56.8829 15.2364 57.0916 15.0717 57.2894 14.8955C57.3034 14.8841 57.3201 14.8764 57.338 14.8729C57.356 14.8694 57.3745 14.8704 57.392 14.8757C57.4095 14.8809 57.4252 14.8904 57.4379 14.903C57.4505 14.9157 57.4595 14.9313 57.4642 14.9482C57.4881 15.0394 57.5071 15.1317 57.5212 15.2248C57.7017 14.9501 57.9011 14.679 58.1044 14.4206C57.9315 14.033 57.6238 13.9366 57.1887 14.1713C56.9384 14.317 56.6973 14.4767 56.4668 14.6498C56.4526 14.6595 56.436 14.6657 56.4187 14.6679C56.4014 14.67 56.3838 14.668 56.3674 14.6621C56.3511 14.6561 56.3365 14.6464 56.325 14.6338C56.3135 14.6212 56.3055 14.6061 56.3015 14.5898C56.2863 14.5279 56.273 14.477 56.2616 14.426C56.102 13.6983 55.9064 13.6018 55.2775 13.9748L54.7646 14.2841C54.7481 14.2942 54.7291 14.2997 54.7096 14.3C54.6901 14.3004 54.6709 14.2956 54.654 14.2863C54.6371 14.2769 54.6233 14.2632 54.614 14.2468C54.6047 14.2304 54.6003 14.2118 54.6012 14.1932C54.6164 13.9148 54.6335 13.7001 54.6316 13.4835C54.6316 12.8085 54.2954 12.612 53.6817 12.9268C53.4272 13.0578 53.1897 13.2179 52.8705 13.4217C52.8529 13.4325 52.8325 13.4381 52.8116 13.438C52.7907 13.4379 52.7703 13.432 52.7528 13.4211C52.7354 13.4101 52.7216 13.3945 52.7131 13.3763C52.7047 13.358 52.702 13.3377 52.7052 13.318C52.7679 12.9668 52.8173 12.7248 52.8382 12.481C52.899 11.8278 52.5324 11.5913 51.913 11.9006C51.5331 12.0825 51.1816 12.3191 50.7732 12.572C50.756 12.5827 50.736 12.5884 50.7155 12.5885C50.6951 12.5886 50.675 12.583 50.6577 12.5725C50.6405 12.5619 50.6268 12.5468 50.6183 12.529C50.6098 12.5111 50.6068 12.4913 50.6098 12.4719C50.6402 12.2536 50.6706 12.0662 50.6858 11.8897C50.7409 11.3056 50.3305 11.04 49.7891 11.3111C49.5991 11.4111 49.3882 11.5331 49.1318 11.675C49.1128 11.6858 49.0908 11.6907 49.0688 11.689C49.0467 11.6873 49.0258 11.6791 49.0089 11.6655C48.992 11.6519 48.9799 11.6336 48.9744 11.6131C48.9688 11.5926 48.97 11.571 48.9779 11.5512C49.0919 11.2638 49.1679 11.0563 49.259 10.8471C49.369 10.6328 49.4562 10.4085 49.5193 10.1775C49.5264 10.0936 49.5159 10.0092 49.4885 9.92924C49.4611 9.84926 49.4173 9.77532 49.3597 9.71174C49.297 9.64806 49.0558 9.68081 48.9361 9.74267C48.6986 9.86458 48.4763 10.012 48.1876 10.1975C48.1693 10.2095 48.1476 10.2157 48.1255 10.2152C48.1034 10.2148 48.082 10.2078 48.0643 10.1952C48.0465 10.1826 48.0333 10.165 48.0265 10.1449C48.0196 10.1248 48.0195 10.1031 48.0261 10.0829C48.1111 9.83074 48.1765 9.57288 48.2218 9.31145C48.2536 9.13269 48.22 8.94889 48.1268 8.79107C47.8475 9.08037 47.5777 9.37695 47.3232 9.68445L47.289 9.72629C47.3118 9.73546 47.3307 9.75183 47.3424 9.77269C47.3542 9.79354 47.3581 9.81762 47.3536 9.84092C47.2548 10.3522 46.871 10.7761 47.156 11.3602Z" fill="#B2B2B2"/>
<path d="M69.0224 88.8908C68.9 88.6554 69.3145 88.4828 69.4053 88.4636C73.117 87.6361 76.8326 86.8172 80.5522 86.0071C80.6331 85.9896 80.9627 85.9844 80.9982 86.2424C81.0338 86.5005 80.5246 86.5737 80.3114 86.6208C76.88 87.3856 73.4446 88.1411 70.0053 88.8873C69.7704 88.9274 69.1467 89.1174 69.0224 88.8908Z" fill="#1D2424"/>
<path d="M80.7123 91.002C80.78 90.993 80.8482 91.0142 80.9018 91.0607C80.9554 91.1072 80.99 91.1754 80.9982 91.2502C81.0063 91.325 80.9872 91.4002 80.9451 91.4595C80.903 91.5187 80.8413 91.557 80.7736 91.566C80.6433 91.5907 80.511 91.6008 80.3788 91.5961C79.0909 91.6675 77.8029 91.722 76.5149 91.784C74.9473 91.8542 73.3797 91.9213 71.8121 91.9852C71.6168 92.0049 71.4204 92.0049 71.2251 91.9852C71.1383 91.972 70.9903 91.8329 71.0005 91.7765C71.0209 91.6525 71.106 91.472 71.1962 91.4475C71.4682 91.374 71.7465 91.333 72.0265 91.3254C74.9121 91.2176 77.7972 91.1154 80.6817 91.0189L80.7123 91.002Z" fill="#1D2424"/>
<path d="M69.6045 94.0195C72.6704 94.5193 75.8083 94.7375 78.7881 95.5855C78.8682 95.6072 79.0743 95.7421 78.9722 95.8937C78.8702 96.0453 78.664 95.9953 78.556 95.9787C75.4874 95.4922 72.4155 94.9996 69.3403 94.501C69.2182 94.481 68.9501 94.4227 69.0081 94.1928C69.0661 93.9629 69.4464 93.9895 69.6045 94.0195Z" fill="#1D2424"/>
<path d="M62.9975 92.9238C63.0162 93.1898 62.929 93.4524 62.755 93.6537C62.581 93.8551 62.3346 93.9787 62.0699 93.9975C61.8051 94.0163 61.5438 93.9286 61.3434 93.7538C61.143 93.5791 61.02 93.3314 61.0013 93.0655C60.988 92.7998 61.0795 92.5397 61.256 92.3415C61.4325 92.1433 61.6797 92.0231 61.9439 92.0069C62.0743 91.991 62.2065 92.0027 62.3321 92.0412C62.4577 92.0798 62.5738 92.1443 62.6731 92.2307C62.7723 92.3171 62.8525 92.4234 62.9083 92.5427C62.9642 92.6621 62.9946 92.792 62.9975 92.9238Z" fill="white"/>
<path d="M62.5393 90C62.3902 89.9875 62.2517 89.9218 62.1516 89.8161C62.0515 89.7105 61.9974 89.5727 62.0001 89.4306C62.0199 89.312 62.0831 89.2038 62.1787 89.125C62.2742 89.0462 62.3959 89.002 62.5225 89C62.6493 89.0024 62.7701 89.0517 62.8592 89.1373C62.9483 89.223 62.9988 89.3382 62.9999 89.4586C63.0055 89.7666 62.8019 90.004 62.5393 90Z" fill="white"/>
<path d="M64.8592 91.8154C64.8102 91.877 64.7499 91.9254 64.6827 91.9572C64.6155 91.989 64.543 92.0034 64.4704 91.9993C64.3978 91.9953 64.3269 91.9729 64.2627 91.9338C64.1985 91.8947 64.1426 91.8398 64.0989 91.773C64.0408 91.7018 64.0058 91.6097 64 91.5122C64 91.3317 64.2832 91.0665 64.4713 91.0197C64.5396 90.9963 64.6121 90.9937 64.6815 91.0122C64.751 91.0306 64.8151 91.0695 64.8675 91.1251C64.9199 91.1806 64.9589 91.2508 64.9805 91.3288C65.0022 91.4069 65.0059 91.4901 64.9911 91.5702C64.968 91.6645 64.9223 91.7494 64.8592 91.8154Z" fill="white"/>
<path d="M46.9808 88.8854C47.0845 88.6505 46.7375 88.4782 46.6634 88.4573C43.5684 87.6313 40.4722 86.8145 37.3749 86.007C37.3059 85.9896 37.0329 85.9844 37.0016 86.242C36.9704 86.4995 37.398 86.5709 37.5756 86.6196C40.436 87.383 43.2987 88.1371 46.1635 88.8819C46.3592 88.9289 46.8789 89.1203 46.9808 88.8854Z" fill="#1D2424"/>
<path d="M36.2877 91.002C36.22 90.9931 36.1518 91.0141 36.0982 91.0606C36.0446 91.1072 36.01 91.1753 36.0018 91.25C35.9937 91.3247 36.0128 91.4 36.0549 91.4592C36.097 91.5183 36.1587 91.5566 36.2264 91.5656C36.3568 91.5894 36.489 91.5995 36.6212 91.5957C37.9075 91.667 39.1955 91.7215 40.4835 91.7835C42.0522 91.8537 43.6204 91.9207 45.188 91.9845C45.3827 92.0052 45.5787 92.0052 45.7733 91.9845C45.8618 91.9695 46.0082 91.8324 45.9996 91.776C45.9775 91.652 45.8925 91.4717 45.8023 91.4454C45.5301 91.3733 45.2518 91.333 44.972 91.3251C42.0885 91.2162 39.2034 91.1141 36.3166 91.0189L36.2877 91.002Z" fill="#1D2424"/>
<path d="M46.4556 93.0271C43.6949 93.7775 40.873 94.1053 38.1897 95.3786C38.1177 95.4111 37.9322 95.6113 38.0259 95.8389C38.1195 96.0666 38.3014 95.994 38.3986 95.969C41.1599 95.2385 43.9242 94.4989 46.6916 93.75C46.8014 93.72 47.0517 93.6325 46.9905 93.2872C46.9293 92.942 46.5961 92.987 46.4556 93.0271Z" fill="#1D2424"/>
<path d="M54.4606 89.9999C54.6099 89.9884 54.7488 89.9231 54.849 89.8173C54.9493 89.7116 55.0032 89.5735 54.9999 89.4312C54.9804 89.3125 54.9174 89.2042 54.8221 89.1253C54.7268 89.0464 54.6052 89.002 54.4789 89C54.3519 89.0021 54.2307 89.0513 54.1413 89.137C54.0518 89.2228 54.0011 89.3384 54.0001 89.4592C53.9959 89.7676 54.1981 90.0053 54.4606 89.9999Z" fill="white"/>
<path d="M52.1308 91.8153C52.1803 91.877 52.2407 91.9255 52.3078 91.9573C52.375 91.9891 52.4473 92.0034 52.5197 91.9993C52.592 91.9952 52.6628 91.9728 52.727 91.9336C52.7912 91.8944 52.8473 91.8394 52.8914 91.7723C52.9528 91.7015 52.9912 91.608 53 91.5079C53 91.3271 52.7168 91.0558 52.5286 91.0106C52.2298 90.9473 51.9465 91.1711 52.0086 91.5666C52.0284 91.6613 52.0708 91.7475 52.1308 91.8153Z" fill="white"/>
<path d="M64.7725 96.3161C64.702 96.2976 64.628 96.2977 64.5576 96.3163C64.4872 96.3349 64.4227 96.3714 64.3706 96.4222C64.2038 96.6844 64.0513 96.9552 63.9137 97.2337C63.3942 98.1438 62.725 98.3979 61.7069 98.1059C61.013 97.9053 60.41 97.4705 60.0006 96.8754C59.1721 95.7378 58.9427 94.4106 58.9294 93.0644C58.9161 91.7732 59.0242 90.4801 59.0564 89.187C60.2944 87.5811 61.5211 85.9638 62.778 84.3712C63.0719 83.9919 62.9676 83.7019 62.778 83.3511C61.8756 81.7565 59.83 80.782 57.7919 81.0417C56.0572 81.2655 54.6618 82.0542 53.7764 83.6241C53.5868 83.9559 53.53 84.2308 53.8257 84.5494C55.2002 86.0264 56.5672 87.5147 57.9417 89.0088C57.9417 89.0524 57.9417 89.096 57.9417 89.1377C57.972 90.446 58.0839 91.7561 58.0706 93.0644C58.0554 94.4163 57.826 95.7359 56.9994 96.8754C56.59 97.4705 55.987 97.9053 55.2931 98.1059C54.275 98.3979 53.6058 98.1438 53.0844 97.2337C52.9482 96.9545 52.7957 96.6835 52.6275 96.4222C52.5756 96.3716 52.5116 96.3352 52.4415 96.3166C52.3714 96.298 52.2977 96.2978 52.2275 96.3161C52.1591 96.3673 52.1032 96.4333 52.0638 96.5091C52.0244 96.5849 52.0026 96.6686 52 96.754C52.2123 98.3145 53.8731 99.3421 55.4581 98.8946C57.1302 98.4206 58.0573 97.1882 58.4744 95.6088C58.4839 95.5728 58.4915 95.5387 58.4991 95.5027C58.4991 95.5387 58.5161 95.5728 58.5256 95.6088C58.9408 97.1901 59.8698 98.4206 61.5419 98.8946C63.125 99.3421 64.7877 98.3145 65 96.754C64.9974 96.6686 64.9756 96.5849 64.9362 96.5091C64.8968 96.4333 64.8409 96.3673 64.7725 96.3161Z" fill="#1D2424"/>
<path d="M62.4273 143C62.4549 145.443 63 149.673 63 149.673C63 149.673 59.4827 148.604 58.4143 147.981C58.0598 147.792 57.6944 147.626 57.3202 147.481C56.9325 147.635 56.5569 147.818 56.1965 148.029C54.4171 149.195 52.4602 150.058 50.4041 150.582C47.5761 151.277 44.7776 151.068 42.0227 150.23C40.8614 149.877 38.8292 148.015 38.7147 147.899C37.7529 146.932 37.7273 146.866 38.849 145.993C42.7257 142.964 47.0073 142.409 51.5614 144.069C53.2401 144.68 54.8417 145.507 56.4532 146.293C56.7534 146.438 57.2748 146.634 57.2748 146.634C57.5134 146.502 57.7448 146.356 57.968 146.199C59.1371 145.308 60.3378 144.458 61.5228 143.601C61.7756 143.416 62.0382 143.256 62.4273 143Z" fill="#E24040"/>
<path d="M92.5026 130.363C93.6322 129.693 96.9405 128.103 96.9405 128.103C96.9889 128.45 97.0078 128.801 96.9971 129.152C96.9113 129.991 96.8456 130.834 96.7051 131.663C96.5758 132.304 96.4156 132.937 96.2252 133.561C96.1791 133.687 96.123 133.809 96.0573 133.925L92.4643 131.134C91.0228 131.815 89.6688 132.491 88.2892 133.104C84.6087 134.734 81.1142 133.975 77.7055 132.155C77.575 132.08 77.4526 131.991 77.3406 131.889C76.9282 131.536 76.8953 131.367 77.2147 130.955C80.3077 126.951 84.6068 126.123 88.3276 127.86C89.0402 128.192 89.7363 128.561 90.4133 128.966C91.0921 129.374 91.7308 129.843 92.5026 130.363Z" fill="#E24040"/>
<path d="M33.1391 127.61C31.4865 128.56 29.6834 129.24 27.802 129.623C26.0192 130.026 24.1744 130.107 22.3613 129.86C20.7258 129.622 18 127.919 18 127.784C18 127.649 18.3053 127.257 18.5288 127.015C20.5441 124.847 24.6728 122.977 28.7851 124.635C29.9936 125.123 31.1311 125.774 32.2978 126.358C32.5867 126.502 32.8557 126.678 33.1809 126.867L36.9135 124.199C37.0589 124.568 36.9771 129.792 36.9771 129.792C36.9771 129.792 34.7365 128.611 33.906 128.093C33.6552 127.938 33.4081 127.78 33.1391 127.61Z" fill="#E24040"/>
<path d="M8.61564 166.08V166.131L7.3503 166.05C7.41126 166.354 7.47776 166.66 7.54611 166.955L10.8711 167.202C14.5766 167.481 18.2821 167.754 21.9857 168.055C25.113 168.308 28.2348 168.598 31.3602 168.868L32.3208 168.946C32.3928 168.631 32.4593 168.314 32.524 167.997C31.508 167.901 30.4921 167.816 29.4724 167.725C22.522 167.173 15.5697 166.625 8.61564 166.08ZM82.7771 169.082C82.8436 169.368 82.912 169.652 82.984 169.933C83.3534 169.918 83.7358 169.906 84.1126 169.906C88.2264 169.895 92.3401 169.906 96.4538 169.906V169.957C98.3121 169.957 100.17 169.957 102.029 169.957C103.591 169.967 105.153 169.982 106.713 170C106.8 169.705 106.887 169.411 106.97 169.116C100.263 169.067 93.5555 169 86.8465 168.969C85.4907 168.96 84.133 169.022 82.7771 169.082ZM85.4685 156.378C77.6124 155.992 69.7488 155.975 61.8834 156.071C53.2588 156.178 44.6342 156.253 36.0096 156.419C31.7777 156.506 27.5476 156.763 23.3212 157.019C18.6416 157.304 13.9621 157.639 9.28248 158.024C8.33117 158.104 7.37986 158.194 6.42855 158.288C6.43964 158.446 6.44702 158.602 6.45811 158.759C6.46919 158.917 6.47658 159.036 6.48766 159.176C8.35518 159.02 10.2264 158.892 12.0958 158.75C15.954 158.459 19.814 158.195 23.6759 157.957C27.6584 157.718 31.6447 157.444 35.6328 157.35C42.098 157.196 48.554 157.169 55.0155 157.1C57.9415 157.064 60.8656 156.999 63.7916 156.984C67.1442 156.964 70.4988 156.915 73.8496 157.004C80.4293 157.182 87.0072 157.409 93.5833 157.687C96.3227 157.801 99.0547 158.049 101.785 158.299C104.048 158.502 106.312 158.709 108.642 159.071C108.66 158.79 108.679 158.509 108.695 158.23C105.612 157.836 102.531 157.394 99.4333 157.144C94.7858 156.789 90.129 156.604 85.4685 156.378ZM106.77 152.469C98.144 152.65 89.5176 152.862 80.8911 153.012C74.4056 153.125 67.9164 153.259 61.4309 153.193C53.5599 153.108 45.6908 152.82 37.8218 152.616C35.618 152.558 33.4162 152.465 31.2125 152.413C26.6794 152.304 22.1464 152.146 17.6134 152.127C13.7878 152.11 9.9604 152.185 6.133 152.255C6.14408 152.57 6.15517 152.885 6.1681 153.201C12.6001 153.137 19.032 152.914 25.4658 153.201C26.7866 153.257 28.1092 153.289 29.4299 153.326C32.9562 153.42 36.4825 153.496 40.007 153.605C45.3639 153.768 50.7078 153.952 55.965 154.126C56.9717 154.126 57.8861 154.126 58.7986 154.126C66.1357 154.088 73.4728 154.092 80.8098 153.994C86.7911 153.912 92.7705 153.693 98.7517 153.566C102.123 153.494 105.494 153.456 108.865 153.411C108.865 153.101 108.878 152.791 108.884 152.48C108.178 152.454 107.474 152.454 106.77 152.469ZM11.8575 122.73C15.7274 122.65 19.5973 122.411 23.4653 122.426C27.7619 122.44 32.0566 122.645 36.3514 122.802C42.5654 123.031 48.7775 123.309 54.9915 123.527C59.4377 123.683 63.8895 123.746 68.3375 123.9C72.0319 124.027 75.706 124.204 79.3893 124.393C83.0413 124.574 86.6932 124.775 90.3414 125.027C93.5629 125.248 96.7845 125.497 99.9949 125.831C102.974 126.139 105.943 126.537 108.915 126.907L108.898 125.95C107.587 125.769 106.274 125.601 104.958 125.461C101.079 125.052 97.2001 124.63 93.321 124.293C90.225 124.025 87.1199 123.853 84.0166 123.681C79.6941 123.442 75.3735 123.199 71.0474 123.038C65.9916 122.857 60.9303 122.77 55.8726 122.603C52.278 122.485 48.6852 122.301 45.0923 122.145V122.163C40.8586 121.998 36.6266 121.801 32.391 121.678C28.5525 121.569 24.7122 121.471 20.8718 121.496C16.0008 121.538 11.1371 121.9 6.266 121.9L6.25491 122.752C8.12428 122.759 9.98996 122.77 11.8575 122.73ZM33.4199 113.328C38.7768 113.358 44.1503 113.371 49.5127 113.473C56.6725 113.607 63.8304 113.855 70.992 113.987C77.5736 114.106 84.157 114.114 90.7404 114.215C93.2674 114.255 95.7962 114.396 98.3139 114.53C101.537 114.711 104.759 114.934 107.98 115.139V115.155C108.219 115.155 108.457 115.155 108.695 115.155L108.684 114.291C108.093 114.262 107.502 114.235 106.913 114.195C102.991 113.933 99.0731 113.561 95.1478 113.425C89.0521 113.214 82.9563 113.141 76.8605 113.045C72.5621 112.976 68.2637 113.009 63.9689 112.918C58.7967 112.808 53.6116 112.567 48.4321 112.473C43.3135 112.377 38.1912 112.398 33.0726 112.359C27.2207 112.313 21.3687 112.277 15.5242 112.196C12.4689 112.154 9.41548 112.076 6.36205 112C6.36205 112.312 6.36205 112.621 6.36205 112.933C11.2664 113.063 16.1707 113.199 21.075 113.284C25.1869 113.366 29.3025 113.304 33.4199 113.328ZM80.9632 141.04C77.3076 140.922 73.6501 140.868 69.9926 140.759C64.73 140.602 59.4636 140.422 54.2046 140.252C48.3416 140.109 42.4786 139.922 36.6155 139.828C26.4104 139.665 16.2052 139.524 6 139.404C6 139.703 6 140.004 6 140.31C11.3717 140.402 16.7433 140.491 22.115 140.578C28.2939 140.674 34.4765 140.714 40.6535 140.855C47.998 141.022 55.3406 141.272 62.6851 141.478C68.0734 141.63 73.4654 141.746 78.8537 141.916C84.8719 142.108 90.89 142.335 96.9082 142.561C99.2375 142.65 101.569 142.768 103.896 142.896C105.597 142.991 107.299 143.108 108.998 143.217V142.255C106.081 142.06 103.167 141.855 100.246 141.732C93.8234 141.451 87.3877 141.248 80.9595 141.04H80.9632ZM29.2101 117.97C37.3766 118.064 45.5412 118.39 53.704 118.676C59.5818 118.881 65.4559 119.182 71.33 119.444C74.2541 119.575 77.1764 119.703 80.0987 119.85C84.4193 120.067 88.7436 120.272 93.0623 120.536C96.6496 120.756 100.233 121.045 103.817 121.323C105.437 121.448 107.053 121.607 108.817 121.77L108.801 120.895C106.469 120.658 104.142 120.37 101.805 120.207C96.2722 119.82 90.7373 119.47 85.2006 119.156C81.4896 118.943 77.773 118.805 74.0583 118.624C69.8892 118.419 65.7201 118.184 61.5491 118.001C57.9858 117.847 54.4207 117.745 50.8575 117.622C45.0702 117.425 39.2829 117.184 33.4938 117.046C24.4314 116.832 15.3727 116.979 6.31957 117.408C6.31957 117.718 6.31957 118.03 6.31957 118.339C7.15635 118.287 7.99313 118.242 8.82992 118.225C15.6184 118.111 22.4161 117.894 29.2101 117.97ZM32.0825 135.72C39.8297 135.825 47.5768 135.954 55.324 136.106C60.3336 136.209 65.3414 136.376 70.3491 136.543C76.1808 136.738 82.0087 137.042 87.8421 137.153C94.1688 137.272 100.501 137.225 106.831 137.245H109C109 136.95 109 136.655 109 136.36C106.667 136.332 104.334 136.307 102.001 136.334C94.215 136.428 86.4401 136.198 78.6634 135.934C72.4697 135.722 66.2871 135.47 60.7067 135.26C55.7655 135.157 51.4486 135.05 47.1298 134.981C39.9109 134.867 32.6884 134.811 25.4695 134.666C18.9766 134.536 12.5058 134.782 6.04618 135.266C6.04618 135.573 6.03695 135.881 6.03325 136.189C9.92962 135.883 13.8334 135.697 17.7445 135.631C22.5214 135.55 27.3038 135.644 32.0825 135.711V135.72Z" fill="#E24040"/>
<g clip-path="url(#clip1_4146_696)">
<path d="M107.534 110.161L83.2271 98.9707C82.3133 98.55 81.2041 98.8607 80.7546 99.6633L65.2648 127.319C64.8153 128.122 65.193 129.117 66.1069 129.538L90.4138 140.728C91.3276 141.149 92.4368 140.838 92.8863 140.036L108.376 112.379C108.826 111.577 108.448 110.582 107.534 110.161Z" fill="#FF4F19"/>
<path d="M84.3168 99.4724L83.2271 98.9707C82.3133 98.55 81.2041 98.8607 80.7546 99.6633L65.2648 127.319C64.8153 128.122 65.193 129.117 66.1069 129.538L67.1966 130.04L84.3168 99.4724Z" fill="#E3001E"/>
<path d="M105.596 108.659L100.072 106.115C99.7669 105.975 99.3979 106.078 99.2478 106.346L95.1717 113.624C95.0737 113.799 95.0902 114.009 95.2152 114.175C95.3401 114.341 95.5537 114.437 95.7755 114.425L98.9846 114.26L100.731 116.707C100.793 116.793 100.878 116.862 100.977 116.907C101.07 116.95 101.176 116.972 101.284 116.969C101.506 116.963 101.703 116.851 101.801 116.676L105.877 109.398C106.027 109.13 105.901 108.799 105.596 108.659Z" fill="#5D647F"/>
<path d="M68.299 128.106C67.9937 127.965 67.8683 127.634 68.0184 127.367L82.4211 101.651C82.5712 101.383 82.9399 101.28 83.2453 101.42C83.5507 101.561 83.6761 101.892 83.526 102.16L69.1232 127.875C68.9732 128.143 68.6044 128.247 68.299 128.106Z" fill="#C10019"/>
<path d="M90.8575 128.116L90.818 128.098C90.8223 128.079 90.8307 128.062 90.834 128.043L92.5778 117.908C93.0022 118.031 93.4685 117.871 93.6707 117.511C93.8959 117.108 93.7071 116.612 93.2497 116.401L88.8302 114.367C88.3728 114.156 87.8191 114.311 87.594 114.713C87.3918 115.074 87.5252 115.509 87.8851 115.747L79.8879 123.004C79.8727 123.018 79.8625 123.034 79.8484 123.048L79.8089 123.03C79.3514 122.819 78.7978 122.974 78.5726 123.376C78.3475 123.778 78.5362 124.275 78.9937 124.485L81.2034 125.503C81.6609 125.713 82.2145 125.558 82.4396 125.156C82.6418 124.795 82.5085 124.36 82.1485 124.122L83.7213 122.695L88.8473 125.055L88.5043 127.048C88.08 126.925 87.6136 127.084 87.4114 127.445C87.1863 127.847 87.375 128.344 87.8325 128.555L90.0422 129.572C90.4997 129.782 91.0533 129.628 91.2784 129.226C91.5036 128.823 91.315 128.327 90.8575 128.116ZM85.5061 121.075L90.1457 116.865C90.1609 116.852 90.1711 116.836 90.1852 116.821L90.2642 116.858C90.2599 116.876 90.2515 116.893 90.2482 116.913L89.2365 122.793L85.5061 121.075Z" fill="#FFCD00"/>
</g>
<ellipse cx="92.5" cy="129.5" rx="14.5" ry="9.5" fill="#959494"/>
<rect x="96" y="120" width="14" height="19" fill="#90AEDF"/>
<rect x="96" y="120" width="14" height="1" fill="#E24040"/>
<rect x="96" y="123" width="14" height="1" fill="#E24040"/>
<rect x="96" y="129" width="14" height="1" fill="#E24040"/>
<rect x="96" y="135" width="14" height="1" fill="#E24040"/>
<rect x="96" y="138" width="14" height="1" fill="#E24040"/>
<path d="M116.875 178.167C120.672 178.167 123.75 172.113 123.75 164.646C123.75 157.178 120.672 151.125 116.875 151.125C113.078 151.125 110 157.178 110 164.646C110 172.113 113.078 178.167 116.875 178.167Z" fill="#212426"/>
<path d="M147.125 178.167C150.922 178.167 154 172.113 154 164.646C154 157.178 150.922 151.125 147.125 151.125C143.328 151.125 140.25 157.178 140.25 164.646C140.25 172.113 143.328 178.167 147.125 178.167Z" fill="#212426"/>
<path d="M132 183.083C127.624 183.083 123.427 181.529 120.333 178.763C117.238 175.997 115.5 172.245 115.5 168.333V153.583C115.5 149.671 117.238 145.92 120.333 143.153C123.427 140.387 127.624 138.833 132 138.833C136.376 138.833 140.573 140.387 143.667 143.153C146.762 145.92 148.5 149.671 148.5 153.583V168.333C148.5 172.245 146.762 175.997 143.667 178.763C140.573 181.529 136.376 183.083 132 183.083Z" fill="#212426"/>
<path d="M148.5 153.583L134.75 146.208L146.153 136.015C146.345 135.843 146.59 135.726 146.857 135.679C147.123 135.631 147.4 135.656 147.651 135.749C147.902 135.842 148.117 135.999 148.268 136.201C148.419 136.403 148.5 136.641 148.5 136.884V153.583Z" fill="#212426"/>
<path d="M115.5 153.583L128.314 145.595L117.856 136.064C117.665 135.89 117.42 135.771 117.153 135.721C116.886 135.672 116.608 135.695 116.355 135.787C116.102 135.88 115.886 136.037 115.734 136.24C115.581 136.442 115.5 136.681 115.5 136.925V153.583Z" fill="#212426"/>
<path d="M124.437 156.656C127.475 156.656 129.937 154.455 129.937 151.74C129.937 149.024 127.475 146.823 124.437 146.823C121.4 146.823 118.938 149.024 118.938 151.74C118.938 154.455 121.4 156.656 124.437 156.656Z" fill="#FFF4AB"/>
<path d="M124.438 153.583C125.577 153.583 126.5 152.758 126.5 151.74C126.5 150.721 125.577 149.896 124.438 149.896C123.298 149.896 122.375 150.721 122.375 151.74C122.375 152.758 123.298 153.583 124.438 153.583Z" fill="#212426"/>
<path d="M139.562 156.656C142.6 156.656 145.062 154.455 145.062 151.74C145.062 149.024 142.6 146.823 139.562 146.823C136.525 146.823 134.062 149.024 134.062 151.74C134.062 154.455 136.525 156.656 139.562 156.656Z" fill="#FFF4AB"/>
<path d="M139.562 153.583C140.702 153.583 141.625 152.758 141.625 151.74C141.625 150.721 140.702 149.896 139.562 149.896C138.423 149.896 137.5 150.721 137.5 151.74C137.5 152.758 138.423 153.583 139.562 153.583Z" fill="#212426"/>
<path d="M132 163.417L129.25 158.5C129.25 157.616 134.75 157.616 134.75 158.5L132 163.417Z" fill="#FFF4AB"/>
<g clip-path="url(#clip2_4146_696)">
<path d="M31.0869 49.2912H84.9007V42.53H31.0869V49.2912Z" fill="#E24040"/>
<path d="M84.9006 49.291H31.0868C29.9433 49.291 29.0171 50.1555 29.0171 51.2228V52.5547C29.0171 53.9775 30.0561 55.208 31.5308 55.5683C40.0665 57.6546 48.8382 58.7847 57.9937 58.7847C67.2103 58.7847 75.18 57.6382 84.4152 55.5248C85.9107 55.1829 86.9703 53.936 86.9703 52.4987V51.4101C86.9704 50.1536 86.0442 49.291 84.9006 49.291Z" fill="#90AEDF"/>
<path d="M85.9355 42.5297H30.0519L28.2751 37.6945C27.5403 36.094 28.3279 34.2414 30.0375 33.546L53.2323 24.1092C56.278 22.9174 59.7096 22.9174 62.7552 24.1092L85.9863 33.5605C87.6762 34.2472 88.4545 36.0795 87.728 37.6607L85.9355 42.5297Z" fill="#90AEDF"/>
<path d="M60.0636 31.9049C60.7735 31.2664 61.2827 30.542 61.0353 29.4187C60.789 28.3021 59.8462 27.3661 58.6489 27.1382C56.6474 26.7567 54.8892 28.1727 54.8892 29.9731C54.8892 30.7922 55.3383 31.3775 55.9241 31.9049L55.3363 33.0031C54.4784 34.6045 54.9699 36.5498 56.5046 37.6239L57.9938 38.6661L59.5928 37.5466C61.0644 36.517 61.5352 34.6529 60.7135 33.1181L60.0636 31.9049Z" fill="#E24040"/>
</g>
</g>
<defs>
<clipPath id="clip0_4146_696">
<rect width="170" height="187" fill="white"/>
</clipPath>
<clipPath id="clip1_4146_696">
<rect width="38.9222" height="35.5913" fill="white" transform="matrix(0.908362 0.418184 -0.488659 0.872475 81.8418 95.4758)"/>
</clipPath>
<clipPath id="clip2_4146_696">
<rect width="60" height="56" fill="white" transform="translate(28 13)"/>
</clipPath>
</defs>
</svg>
