<svg width="203" height="158" viewBox="0 0 203 158" fill="none" xmlns="http://www.w3.org/2000/svg">
<g clip-path="url(#clip0_4179_2731)">
<path d="M21.3536 46C22.2169 46.6699 23.0024 47.2151 23.705 47.8372C26.5761 50.3637 29.2016 53.1029 31.5534 56.0254C32.389 57.0726 33.2505 58.1059 34.0395 59.1809C34.4003 59.6721 34.7767 59.8138 35.412 59.6829C43.5262 58.0305 72.5131 55.7867 95.5869 59.6706C95.8372 59.7214 96.0945 59.7399 96.4397 59.7861C96.6901 59.4781 96.9577 59.1701 97.2011 58.8621C99.8909 55.3339 102.788 51.9583 106.123 48.8967C106.921 48.1637 107.767 47.4722 108.609 46.7792C108.903 46.5359 109.248 46.3434 109.614 46.097C109.817 46.2478 110.011 46.4082 110.194 46.5775C112.501 48.983 114.856 51.3361 116.722 54.0634C119.379 57.9643 121.452 62.0545 122.171 66.6037C122.638 69.5697 123.034 72.5496 123.307 75.5357C123.824 81.3877 123.84 87.2643 123.816 93.1348C123.792 99.401 123.709 105.669 123.747 111.935C123.795 120.048 123.881 128.162 124.059 136.275C124.18 141.779 124.512 147.28 124.7 152.782C124.846 157.068 125.066 161.357 124.981 165.64C124.895 170.019 124.605 174.405 124.163 178.768C123.836 181.754 123.306 184.72 122.576 187.649C121.777 190.976 120.197 194.012 117.516 196.53C114.902 198.985 111.657 200.003 107.945 200C107.094 199.996 106.246 199.93 105.407 199.804C103.755 199.563 102.37 198.851 101.151 197.824C98.4959 195.589 96.9456 192.834 96.2602 189.677C95.8959 187.997 95.6473 186.289 95.3486 184.595C95.2623 184.112 95.176 183.627 95.0914 183.086C93.4064 183.408 91.7974 183.736 90.178 184.019C83.7502 185.123 77.2146 185.649 70.6692 185.59C64.865 185.562 59.0555 185.59 53.2564 185.398C47.8579 185.221 42.5266 184.448 37.2627 183.342L35.9368 183.068C35.8436 183.588 35.7297 184.086 35.6658 184.591C35.3654 187.018 34.9303 189.42 34.1258 191.766C33.2436 194.334 31.581 196.43 29.3643 198.204C28.0781 199.235 26.5416 199.723 24.8428 199.898C23.2972 200.043 21.7368 200.001 20.2038 199.774C16.7855 199.29 14.239 197.561 12.2053 195.178C10.3197 192.96 9.02767 190.387 8.42782 187.655C7.75451 184.652 7.19687 181.619 6.81705 178.569C6.44932 175.625 6.37163 172.651 6.16964 169.691C5.82435 164.58 6.09368 159.469 6.2128 154.361C6.34056 148.817 6.65477 143.288 6.84122 137.752C6.99142 133.335 7.11918 128.918 7.17615 124.5C7.26593 117.607 7.31714 110.713 7.3298 103.819C7.3298 99.5643 7.17443 95.3093 7.20378 91.0558C7.23312 86.6036 7.31599 82.15 7.52834 77.704C7.74933 73.0593 8.26726 68.4363 9.42742 63.8856C9.92636 61.9405 10.7602 60.1126 11.7011 58.3246C13.4189 55.0583 15.5114 51.9952 18.2012 49.2787C19.2284 48.253 20.2176 47.1889 21.3536 46Z" fill="#FFDFE0"/>
<path d="M124.163 178.427C124.605 174.065 124.895 169.679 124.981 165.299C125.066 161.017 124.847 156.728 124.7 152.443C124.512 146.941 124.182 141.44 124.059 135.935C123.958 131.29 123.883 126.645 123.835 122H123.686C122.504 122.012 121.321 122.04 120.139 122.057L94.0695 122.459L68.8982 122.847C60.2465 122.981 51.5954 123.114 42.9448 123.246C39.2106 123.301 35.4746 123.33 31.7403 123.387C23.6445 123.512 15.5482 123.641 7.45121 123.776H7.17844V124.164C7.12146 128.582 6.99371 132.998 6.84351 137.415C6.65705 142.951 6.34284 148.485 6.21509 154.023C6.09597 159.131 5.82146 164.242 6.17193 169.353C6.37392 172.312 6.45161 175.286 6.81934 178.23C7.18707 181.174 7.71363 184.105 8.35241 187C16.3009 186.959 24.2488 186.92 32.1961 186.885C33.2199 186.885 34.2454 186.885 35.2691 186.875C35.4245 186.007 35.5505 185.134 35.6593 184.257C35.7232 183.752 35.8319 183.255 35.9303 182.734L37.2562 183.009C42.5201 184.114 47.8513 184.887 53.2499 185.064C59.0489 185.255 64.8583 185.229 70.6626 185.257C77.208 185.316 83.7434 184.789 90.1712 183.686C91.7906 183.403 93.3996 183.07 95.0846 182.753C95.1761 183.293 95.2573 183.778 95.3419 184.262C95.4834 185.072 95.6164 185.882 95.7545 186.692C104.486 186.664 113.217 186.634 121.948 186.601C122.208 186.587 122.468 186.608 122.721 186.663C123.379 183.945 123.86 181.195 124.163 178.427Z" fill="#CBEEFF"/>
<path d="M65.463 98.1275C66.8251 97.301 68.1378 96.5031 69.4506 95.7147C73.9081 93.0337 80.666 95.5465 80.981 101.743C81.1325 104.341 80.3762 106.914 78.8254 109.078C76.2101 112.785 72.6431 115.355 68.0425 116.594C66.1076 117.12 64.0542 117.135 62.1105 116.639C57.595 115.514 53.9735 113.171 51.3582 109.587C49.1447 106.551 48.4075 103.167 49.4972 99.5933C50.6891 95.6924 54.8231 93.3986 59.0985 94.1378C60.7313 94.4218 62.0543 95.2483 63.2768 96.2413C64.0413 96.8536 64.7666 97.5215 65.463 98.1275Z" fill="#FDB8D2"/>
<path d="M31.9511 99.9922C30.3633 99.9835 28.8443 99.3961 27.7283 98.3592C26.6122 97.3223 25.9906 95.9209 26.0001 94.4633C26.0096 93.0056 26.6495 91.6111 27.7789 90.5866C28.9084 89.5621 30.435 88.9914 32.0228 89.0001C35.4145 89.0001 37.9721 91.4214 37.9998 94.5844C38.0275 97.6472 35.0545 100.158 31.9511 99.9922Z" fill="#FDB8D2"/>
<path d="M17 64C17.6836 60.8271 18.5117 57.8271 20.6719 55L26 61.5714L17 64Z" fill="#B49987"/>
<path d="M41.421 83.0011C41.7549 82.9911 42.0874 83.0476 42.399 83.1674C42.7107 83.2871 42.995 83.4678 43.2354 83.6986C43.4757 83.9295 43.6672 84.2059 43.7985 84.5115C43.9298 84.8172 43.9984 85.1459 44 85.4782C43.9971 86.1301 43.7419 86.7558 43.2874 87.2252C42.8328 87.6947 42.214 87.9718 41.5595 87.999C41.2253 88.0083 40.8927 87.9505 40.5815 87.8291C40.2703 87.7077 39.9869 87.5252 39.7481 87.2925C39.5093 87.0597 39.32 86.7815 39.1916 86.4745C39.0632 86.1674 38.9983 85.8377 39.0007 85.5051C38.9931 85.1823 39.0498 84.8611 39.1675 84.5601C39.2852 84.2592 39.4617 83.9844 39.6867 83.7516C39.9117 83.5188 40.1808 83.3326 40.4784 83.2039C40.7761 83.0751 41.0964 83.0062 41.421 83.0011Z" fill="black"/>
<path d="M98.553 99.9922C100.273 99.9835 101.919 99.3961 103.128 98.3592C104.337 97.3223 105.01 95.9209 105 94.4633C104.99 93.0056 104.296 91.6111 103.073 90.5866C101.849 89.5621 100.195 88.9914 98.4753 89.0001C94.7992 89.0001 92.0302 91.4214 92.0002 94.5844C91.9702 97.6472 95.191 100.158 98.553 99.9922Z" fill="#FFB9D3"/>
<path d="M113 64C112.316 60.8271 111.488 57.8271 109.327 55L104 61.5714L113 64Z" fill="#B49987"/>
<path d="M89.0969 83.0011C88.6959 82.9911 88.2966 83.0476 87.9224 83.1674C87.5482 83.2872 87.2068 83.4678 86.9182 83.6987C86.6295 83.9295 86.3996 84.2059 86.2419 84.5116C86.0842 84.8172 86.002 85.1459 86 85.4783C86.004 86.1304 86.3109 86.7561 86.857 87.2255C87.4031 87.6949 88.1464 87.972 88.9326 87.9992C89.3328 88.0075 89.7308 87.9492 90.1033 87.8278C90.4757 87.7063 90.815 87.5241 91.1009 87.292C91.3869 87.0599 91.6137 86.7826 91.768 86.4766C91.9222 86.1705 92.0008 85.8419 91.9991 85.5103C92.0088 85.1873 91.9412 84.8659 91.8004 84.5647C91.6595 84.2634 91.4481 83.9883 91.1783 83.7551C90.9086 83.5218 90.5858 83.3351 90.2285 83.2057C89.8713 83.0763 89.4867 83.0068 89.0969 83.0011Z" fill="black"/>
<path d="M66.8221 118.989C66.5138 119.009 66.2023 119.001 65.8979 118.966C65.4446 118.914 64.9931 118.865 64.5523 118.787C64.1557 118.719 63.9007 118.536 64.0371 118.261C64.1734 117.986 64.5541 117.92 64.9506 117.989C65.7499 118.149 66.6124 118.149 67.4116 117.989C68.0021 117.845 68.5723 117.671 69.1166 117.471C69.3096 117.405 69.4424 117.279 69.6212 117.194C70.1187 116.956 70.5667 116.934 70.8252 117.145C71.1651 117.424 70.9633 117.667 70.6127 117.878C70.3969 118.007 70.1693 118.129 69.9311 118.243C69.0331 118.666 67.9545 118.925 66.8221 118.989Z" fill="black"/>
<path d="M124.959 159.634C122.662 157.935 119.722 157.688 116.58 159.003C114.67 157.72 112.362 156.977 109.963 156.873C107.536 156.723 105.114 157.218 103.01 158.292C98.7821 156.693 94.834 156.629 91.292 159.558C87.4804 157.106 83.8088 158.216 80.1528 159.915C78.5476 158.309 76.5779 157.481 74.1607 157.548C71.7867 157.614 69.7357 158.446 67.8351 159.678C66.192 158.563 64.357 158.175 62.3666 158.341C60.174 158.522 58.2337 159.286 56.4523 160.395L55.5884 160.932C52.1327 157.948 46.716 156.824 41.7658 160.139C40.6168 159.699 39.5283 159.2 38.381 158.86C35.4005 157.971 32.4183 157.947 29.5277 159.164C28.9575 159.403 28.5999 159.276 28.1178 159.038C23.6773 156.845 18.2692 157.007 14.6132 160.069C14.4762 160.171 14.3325 160.265 14.1829 160.352C14.0714 160.309 13.9664 160.254 13.8702 160.188C12.1769 158.561 10.0327 157.81 7.57923 157.637C7.06088 157.6 6.54254 157.574 6.03801 157.567C6.02419 158.006 6.01209 158.444 6 158.884C6.74641 158.878 7.4927 158.906 8.2358 158.968C9.19991 159.043 10.1351 159.297 10.9804 159.712C11.8256 160.127 12.5619 160.695 13.1411 161.377C12.1044 162.616 11.2612 163.909 10.8604 165.391C10.5303 166.608 10.4336 167.841 10.8932 169.055C11.3182 170.18 12.2098 170.901 13.5506 170.984C14.8913 171.068 15.8883 170.455 16.4879 169.401C17.1056 168.314 17.3207 167.084 17.103 165.883C16.8791 164.525 16.3423 163.222 15.5255 162.053C15.3769 161.838 15.2559 161.61 15.135 161.409C18.1587 158.274 23.9088 158.063 27.4336 160.247C27.1312 160.497 26.8288 160.732 26.5438 160.983C24.8816 162.453 23.6808 164.131 23.4821 166.261C23.2454 168.779 25.6107 170.65 28.4357 170.18C30.4331 169.848 32.0106 168.354 32.2957 166.471C32.598 164.472 32.0365 162.667 30.6836 161.035C30.4935 160.808 30.2966 160.589 30.0996 160.364C32.2663 159.048 37.3426 159.114 40.5995 161.181C40.4112 161.412 40.2298 161.65 40.0328 161.876C38.5987 163.524 38.0113 165.406 38.0597 167.455C38.0516 168.342 38.3565 169.21 38.9322 169.938C39.867 171.079 41.2872 171.321 42.6315 170.566C43.6305 169.992 44.3568 169.116 44.6737 168.103C45.0231 167.033 45.0676 165.903 44.8033 164.814C44.505 163.473 43.8196 162.222 42.8129 161.181C45.8849 158.49 52.582 158.972 54.4446 161.994C54.1387 162.351 53.8243 162.713 53.5133 163.077C52.641 164.098 52.0795 165.298 51.8822 166.563C51.725 167.519 51.7924 168.453 52.3504 169.312C53.2869 170.752 55.0769 170.89 56.2847 169.617C56.523 169.368 56.724 169.093 56.8825 168.798C57.527 167.581 57.7965 166.305 57.4803 164.995C57.2454 164.017 56.8514 163.069 56.4851 161.98C57.7781 160.963 59.3246 160.227 60.9999 159.833C62.2301 159.529 63.4741 159.439 64.7285 159.715C65.4663 159.877 66.1868 160.087 66.7501 160.641C65.4642 161.894 64.571 163.42 64.1583 165.07C63.8128 166.425 63.7316 167.791 64.3173 169.112C64.7251 170.034 65.4162 170.756 66.6188 170.882C67.2088 170.96 67.8117 170.892 68.3607 170.686C68.9096 170.481 69.3832 170.145 69.7288 169.717C69.9225 169.478 70.0908 169.223 70.2316 168.956C71.0212 167.587 71.0955 166.147 70.8053 164.668C70.5088 163.225 69.872 161.853 68.9358 160.641C71.5983 158.455 76.8837 157.827 79.0124 160.84C78.5701 161.409 78.1036 161.957 77.6993 162.538C76.6044 164.109 76.1566 165.963 76.431 167.79C76.4971 168.273 76.6622 168.742 76.9183 169.174C77.6716 170.435 79.3044 170.729 80.5916 169.865C81.5522 169.234 82.2138 168.313 82.449 167.279C82.8965 165.453 82.506 163.72 81.6352 162.051C81.4538 161.704 81.2672 161.359 81.0616 160.974C82.9622 159.871 84.982 159.33 87.1867 159.409C88.3591 159.424 89.4772 159.847 90.2968 160.585C90.1724 160.764 90.0739 160.936 89.9512 161.088C89.0977 162.103 88.6139 163.259 88.2925 164.473C87.8951 165.978 87.9124 167.458 88.8316 168.83C89.6955 170.125 91.4354 170.443 92.7278 169.503C93.1905 169.134 93.5591 168.683 93.8094 168.179C94.4176 167.044 94.3381 165.832 94.117 164.628C93.841 163.193 93.2399 161.822 92.3494 160.595C93.9563 158.333 98.9912 157.799 101.74 159.296C101.732 159.36 101.714 159.422 101.685 159.48C100.019 161.811 99.6529 164.348 100.278 166.993C100.466 167.721 100.84 168.401 101.37 168.984C102.483 170.201 104.356 170.219 105.517 169.034C106.057 168.501 106.461 167.873 106.701 167.19C107.565 164.402 107.046 161.837 104.829 159.616C104.67 159.464 104.543 159.278 104.396 159.102C107.506 157.449 113.38 157.916 115.495 160.025C114.135 161.231 113.327 162.718 112.783 164.33C112.274 165.737 112.238 167.243 112.679 168.667C112.999 169.665 113.688 170.426 114.903 170.645C116.496 170.931 117.871 170.56 118.776 169.325C119.216 168.725 119.548 168.069 119.761 167.38C120.471 165.057 119.777 162.938 118.379 160.954C118.154 160.635 117.914 160.325 117.66 159.985C118.295 159.579 119.057 159.355 119.842 159.343C121.855 159.296 123.559 159.935 124.843 161.282C124.896 161.338 124.946 161.394 125 161.452C124.987 160.845 124.974 160.239 124.959 159.634ZM15.6153 167.849C15.5404 168.164 15.4245 168.47 15.2697 168.762C14.9536 169.37 14.4456 169.754 13.6404 169.722C12.9285 169.694 12.3152 169.242 12.1579 168.48C12.0288 167.843 11.9951 167.194 12.0577 166.55C12.208 165.029 12.9545 163.713 14.0845 162.343C15.3112 164.163 16.0594 165.882 15.6153 167.852V167.849ZM30.7734 166.776C30.0823 168.663 28.1143 169.504 26.2638 168.707C25.4328 168.349 24.949 167.785 24.8971 166.961C24.8764 166.734 24.8764 166.507 24.8971 166.281C25.1615 163.98 26.6785 162.389 28.6223 161.034C30.4866 162.31 31.4438 164.946 30.7734 166.78V166.776ZM43.2811 167.799C43.0516 168.381 42.6609 168.904 42.1442 169.32C41.2699 170.055 40.3473 169.86 39.8462 168.879C39.6173 168.436 39.487 167.958 39.4626 167.472C39.4004 165.45 40.0259 163.627 41.7589 161.995C43.3243 163.795 44.0172 165.669 43.2811 167.799ZM55.7439 167.997C55.575 168.356 55.3325 168.685 55.0286 168.967C54.5845 169.375 54.1007 169.323 53.7102 168.865C53.2645 168.345 53.1729 167.729 53.2316 167.101C53.3733 165.588 54.0437 164.283 55.3396 163.069C56.2415 164.768 56.4955 166.36 55.7439 168.001V167.997ZM69.0705 168.208C68.9384 168.512 68.7523 168.795 68.5194 169.048C67.557 170.05 66.135 169.863 65.6287 168.634C65.4238 168.078 65.3235 167.496 65.3315 166.912C65.3056 165.194 65.976 163.658 67.0594 162.255C67.3144 161.966 67.5866 161.69 67.8749 161.426C69.2865 163.658 70.1729 165.795 69.0705 168.213V168.208ZM81.0374 167.136C80.8662 167.842 80.3969 168.465 79.7243 168.879C79.1143 169.265 78.5148 169.154 78.1502 168.575C77.9695 168.293 77.8522 167.983 77.8047 167.662C77.5489 165.521 78.2452 163.64 79.9385 161.881C81.0599 163.618 81.497 165.308 81.0374 167.14V167.136ZM92.8298 166.602C92.7672 167.15 92.5665 167.68 92.2423 168.152C91.6583 169.017 90.4955 168.952 89.9564 168.063C89.7757 167.78 89.6507 167.471 89.5866 167.151C89.2411 165.118 89.9028 163.322 91.3248 161.485C92.4151 163.221 92.9835 164.844 92.8298 166.606V166.602ZM104.949 161.933C105.728 163.39 105.902 165.043 105.439 166.602C105.265 167.164 104.96 167.688 104.543 168.141C103.905 168.847 103.007 168.833 102.374 168.126C102.034 167.742 101.791 167.298 101.662 166.825C101.137 164.843 101.377 162.763 102.343 160.913C102.473 160.68 102.626 160.458 102.803 160.25C102.906 160.147 103.022 160.054 103.148 159.973C103.94 160.472 104.562 161.151 104.949 161.937V161.933ZM118.284 167.438C118.083 167.993 117.747 168.503 117.301 168.934C116.141 170.014 114.377 169.579 113.983 168.14C113.829 167.604 113.767 167.051 113.797 166.5C113.925 164.38 114.9 162.368 116.549 160.819C118.279 162.871 119.196 164.983 118.284 167.443V167.438ZM13.0219 137.388C12.3411 138.605 11.6292 139.71 11.0902 140.876C10.5241 142.129 10.4036 143.504 10.7446 144.818C11.0573 146.114 12.2046 147.054 13.5229 147.15C14.7479 147.24 15.9695 146.542 16.5673 145.383C17.1091 144.339 17.2923 143.178 17.0943 142.043C16.8739 140.685 16.3387 139.38 15.522 138.211C15.3734 137.995 15.2473 137.767 15.1229 137.563C18.1103 134.446 23.7982 134.2 27.3766 136.346C27.369 136.378 27.3556 136.409 27.3368 136.437C27.0742 136.666 26.8047 136.894 26.5455 137.117C24.8833 138.59 23.679 140.263 23.4751 142.393C23.2281 144.952 25.6505 146.834 28.5186 146.307C30.4694 145.948 32.0002 144.482 32.2836 142.632C32.5957 140.738 32.0441 138.813 30.7493 137.276C30.5402 137.017 30.3121 136.77 30.0892 136.515C32.8088 135.035 38.3966 135.506 40.5615 137.388C40.3663 137.619 40.1711 137.855 39.9706 138.088C38.5504 139.746 37.9888 141.633 38.0545 143.682C38.0873 144.611 38.3672 145.486 39.0462 146.225C39.9637 147.222 41.2596 147.432 42.5105 146.773C43.644 146.174 44.3437 145.268 44.6962 144.162C45.1338 142.87 45.0902 141.488 44.5718 140.219C44.1416 139.195 43.5144 138.242 42.9511 137.204C45.7588 134.635 52.4178 135.093 54.4584 138.117C54.1508 138.473 53.8381 138.835 53.5271 139.198C52.6517 140.217 52.0872 141.416 51.8874 142.681C51.7146 143.67 51.7906 144.634 52.4057 145.515C53.3301 146.855 55.0303 147.01 56.2069 145.84C56.519 145.52 56.7763 145.161 56.9706 144.776C57.5788 143.587 57.8052 142.341 57.4769 141.057C57.2263 140.084 56.841 139.136 56.4937 138.112C58.1134 136.829 60.1336 136.005 62.2923 135.745C63.8802 135.558 65.3799 135.788 66.7933 136.714C66.5393 137.002 66.3579 137.204 66.1799 137.409C64.8103 138.966 64.0253 140.859 63.9337 142.827C63.8836 143.778 63.989 144.718 64.5039 145.583C65.3194 146.953 66.8486 147.418 68.452 146.782C69.133 146.512 69.6915 146.049 70.0381 145.466C70.6406 144.529 70.9578 143.47 70.959 142.393C70.9406 140.623 70.3853 138.89 69.3504 137.373C69.2088 137.16 69.0774 136.941 68.9496 136.739C72.0216 134.447 76.9407 134.142 79.028 136.965C78.5856 137.531 78.1208 138.079 77.7148 138.66C76.6156 140.227 76.1606 142.079 76.4259 143.905C76.4833 144.357 76.627 144.798 76.8509 145.208C77.6111 146.577 79.3079 146.911 80.6521 145.968C81.5934 145.318 82.235 144.39 82.4577 143.355C82.8793 141.552 82.4853 139.856 81.6404 138.222C81.4676 137.87 81.2638 137.525 81.0374 137.107C83.0814 135.999 85.2066 135.371 87.5876 135.602C88.6242 135.703 89.5607 136.04 90.3175 136.79C88.9957 138.234 88.3409 139.877 88.0886 141.658C87.9 142.798 88.1519 143.961 88.8039 144.96C89.8216 146.49 92.0229 146.615 93.2479 145.205C93.5519 144.837 93.7897 144.43 93.9528 143.998C94.3762 142.956 94.3122 141.879 94.1135 140.803C93.8446 139.361 93.2405 137.983 92.3391 136.755C93.844 134.554 98.732 133.915 101.728 135.412C101.727 135.475 101.714 135.538 101.688 135.598C100.069 137.861 99.6961 140.321 100.197 142.92C100.32 143.698 100.678 144.434 101.234 145.049C102.443 146.327 104.344 146.408 105.553 145.133C106.129 144.541 106.546 143.843 106.775 143.09C107.504 140.326 106.958 137.787 104.689 135.648C104.578 135.532 104.476 135.41 104.382 135.283C107.146 133.667 113.135 133.952 115.468 136.132C115.39 136.237 115.306 136.338 115.217 136.436C113.776 137.825 112.985 139.497 112.548 141.304C112.253 142.455 112.29 143.652 112.655 144.788C112.985 145.784 113.645 146.562 114.854 146.788C116.389 147.076 117.764 146.778 118.674 145.582C119.148 144.964 119.508 144.283 119.741 143.566C120.466 141.248 119.784 139.125 118.386 137.137C118.158 136.812 117.907 136.5 117.646 136.156C118.259 135.735 119.012 135.504 119.789 135.499C121.446 135.448 122.899 135.862 124.076 136.757C124.076 136.571 124.064 136.384 124.06 136.197L124.039 135.214C121.895 134.058 119.298 134.017 116.554 135.167C114.654 133.853 112.425 133.157 109.954 133.027C107.516 132.875 105.083 133.374 102.972 134.46C101.013 133.681 99.0344 133.2 96.9074 133.395C94.7425 133.594 92.8263 134.273 91.3404 135.75C87.4735 133.264 83.8002 134.368 80.1424 136.071C78.5424 134.467 76.5727 133.637 74.1555 133.704C71.7815 133.767 69.7271 134.597 67.8317 135.833C66.1851 134.726 64.3519 134.333 62.3631 134.498C60.1688 134.677 58.2285 135.441 56.4471 136.548L55.5745 137.087C51.9461 133.99 46.5467 133.078 41.752 136.297C40.6082 135.859 39.5214 135.362 38.3758 135.019C35.4748 134.151 32.5635 134.096 29.7264 135.234C29.0836 135.491 28.6448 135.459 28.0124 135.152C23.5754 132.996 18.2623 133.174 14.608 136.217C14.4554 136.33 14.2963 136.435 14.1311 136.533C13.8719 136.328 13.6214 136.141 13.3847 135.94C12.1694 134.87 10.5932 134.177 8.89237 133.962C8.22716 133.882 7.55158 133.828 6.87773 133.796C6.86506 134.19 6.85239 134.584 6.83972 134.978C7.66783 135.021 8.49005 135.128 9.29668 135.298C10.7699 135.606 12.0821 136.343 13.0219 137.388ZM116.586 136.976C118.165 138.932 119.113 140.892 118.407 143.192C118.188 143.841 117.846 144.453 117.394 145.001C116.876 145.656 116.041 145.761 115.2 145.576C114.422 145.407 114.118 144.853 113.951 144.217C113.703 143.296 113.707 142.336 113.961 141.417C114.41 139.79 115.096 138.269 116.586 136.976ZM102.791 136.41C102.897 136.306 103.013 136.209 103.136 136.121C103.847 136.544 104.418 137.125 104.79 137.806C105.713 139.35 105.935 141.144 105.412 142.827C105.24 143.357 104.946 143.85 104.548 144.275C103.876 145.01 102.956 144.972 102.302 144.211C102.014 143.873 101.806 143.489 101.688 143.079C101.105 141.007 101.369 138.82 102.436 136.903C102.536 136.729 102.655 136.564 102.791 136.41ZM92.6984 140.851C92.9092 141.753 92.9974 142.656 92.6466 143.545C92.539 143.855 92.3763 144.148 92.1645 144.413C91.5373 145.135 90.5058 145.06 89.9875 144.269C89.8301 144.048 89.7135 143.807 89.6419 143.554C89.1547 141.424 89.851 139.551 91.2764 137.694C92.1196 138.728 92.4462 139.777 92.6984 140.851ZM79.9489 138.026C81.1255 139.871 81.6059 141.703 80.8802 143.671C80.7195 144.108 80.3359 144.518 79.9523 144.849C79.1679 145.524 78.3213 145.364 78.0224 144.435C77.824 143.747 77.7528 143.037 77.8116 142.329C77.9014 140.72 78.6755 139.351 79.9489 138.026ZM67.9475 137.648C69.3021 139.892 70.2282 142.071 68.9928 144.517C68.7474 145.004 68.4261 145.43 67.8386 145.65C66.9419 145.996 66.2265 145.824 65.7756 145.068C65.5671 144.723 65.4324 144.348 65.3782 143.96C65.1086 141.678 65.8793 139.653 67.5414 137.892C67.6665 137.798 67.8026 137.716 67.9475 137.648ZM55.4087 139.351C56.2916 140.995 56.5214 142.673 55.6177 144.391C55.3672 144.864 55.0648 145.352 54.3651 145.366C53.8778 145.376 53.4597 144.861 53.2973 144.135C53.1163 143.229 53.2575 142.296 53.7016 141.464C54.0783 140.703 54.626 140.005 55.0977 139.278L55.4087 139.351ZM43.0997 144.356C42.8105 144.841 42.4084 145.267 41.9196 145.606C41.2181 146.101 40.5132 145.965 40.0346 145.302C39.7942 144.976 39.6341 144.609 39.5646 144.225C39.2052 141.944 39.9067 139.94 41.6691 138.214C43.4435 139.682 44.126 142.545 43.0997 144.362V144.356ZM28.7122 137.12C30.5229 138.674 31.2123 140.467 30.884 142.51C30.5938 144.336 28.8245 145.418 26.9204 145.052C25.6505 144.807 24.9282 144.08 24.8885 142.941C24.8668 142.519 24.9098 142.097 25.0164 141.686C25.5485 139.774 26.8824 138.36 28.7122 137.126V137.12ZM14.0724 138.49C15.3112 140.283 16.0611 141.998 15.6153 143.966C15.5167 144.377 15.3489 144.773 15.1177 145.141C14.9742 145.377 14.7551 145.571 14.4877 145.698C14.2203 145.826 13.9162 145.882 13.6131 145.859C13.3101 145.836 13.0213 145.735 12.7826 145.569C12.5439 145.403 12.3658 145.179 12.2702 144.925C12.1293 144.557 12.0445 144.175 12.018 143.788C11.878 141.855 12.7074 140.199 14.0724 138.5V138.49Z" fill="#3D3D3D"/>
<path d="M57.0059 102.302C57.1942 101.53 57.6595 101.041 58.2416 101.002C58.7803 100.965 59.4434 101.43 59.7485 102.082C60.0688 102.751 60.0837 103.504 59.79 104.182C59.4358 105.049 58.3452 105.296 57.6915 104.585C57.262 104.115 56.9531 103.322 57.0059 102.302Z" fill="#B49987"/>
<path d="M72.5879 104.452C72.4121 104.881 72.051 105.132 71.7127 104.928C71.4361 104.764 71.217 104.463 71.1007 104.087C70.9977 103.666 70.9733 103.218 71.0294 102.781C71.0856 102.344 71.2207 101.933 71.4228 101.583C71.6631 101.153 71.9463 100.877 72.3704 101.054C72.7946 101.231 72.953 101.635 72.9946 102.169C73.0389 103.001 72.8027 103.932 72.5879 104.452Z" fill="#B49987"/>
<path d="M82.5834 22.1094C77.4265 21.5759 69.0585 23.865 64.5001 23.865C59.9416 23.865 51.5736 21.576 46.4167 22.1094C39.3054 22.845 33.7738 35.2734 30.7881 44.8509L64.5001 50.1176L98.212 44.8509C95.2263 35.2734 89.6947 22.8451 82.5834 22.1094Z" fill="#4D3A2D"/>
<path d="M100.606 44.8511H28.3949C26.896 49.7432 26.0601 53.8612 26.0015 55.3317L64.5002 58.843L102.999 55.3318C102.94 53.8612 102.104 49.7432 100.606 44.8511Z" fill="#AE8372"/>
<path d="M12 55.3845C12 61.7837 35.505 66.9711 64.5 66.9711C93.495 66.9711 117 61.7837 117 55.3845H12Z" fill="#261D16"/>
<path d="M178.235 114.51H133.776C132.582 114.51 131.568 115.333 131.568 116.412V124.331C131.568 125.359 132.523 126.233 133.776 126.233H178.235C179.429 126.233 180.443 125.411 180.443 124.331V116.413C180.443 115.384 179.488 114.51 178.235 114.51H178.235Z" fill="#00A0F5"/>
<path d="M137.833 114.51H140.28V126.233H137.833V114.51ZM145.234 114.51H147.68V126.233H145.234V114.51Z" fill="#7CCEFA"/>
<path d="M132.166 114.458H160.512V103.711L132.166 103.712C130.912 103.712 129.958 104.586 129.958 105.614V112.556C129.958 113.584 130.912 114.458 132.166 114.458Z" fill="#FAA519"/>
<path d="M152.575 112.556V105.615C152.575 104.535 153.589 103.712 154.783 103.712H150.068C148.815 103.712 147.86 104.586 147.86 105.614V112.556C147.86 113.636 148.875 114.459 150.068 114.459H154.783C153.589 114.459 152.575 113.584 152.575 112.556Z" fill="#FBC01A"/>
<path d="M160.333 105.151H185.337V113.121H160.333V105.151Z" fill="#E3E4E5"/>
<path d="M160.333 107.979H185.337V110.293H160.333V107.979Z" fill="white"/>
<path d="M186.053 114.459H160.512C159.438 114.459 158.542 113.687 158.542 112.762V105.409C158.542 104.483 159.438 103.712 160.512 103.712H186.053C186.471 103.712 186.769 104.021 186.769 104.329V105.049C186.769 105.409 186.411 105.666 186.053 105.666H160.87V112.453H186.053C186.471 112.453 186.769 112.762 186.769 113.071V113.79C186.769 114.15 186.471 114.459 186.053 114.459Z" fill="#FBC01A"/>
<path d="M181.1 139.191H152.216V126.234H181.1C182.088 126.231 183.068 126.396 183.982 126.72C184.896 127.044 185.727 127.521 186.426 128.124C187.125 128.726 187.678 129.442 188.055 130.229C188.431 131.017 188.623 131.861 188.619 132.713C188.619 136.312 185.217 139.191 181.1 139.191Z" fill="#FF6464"/>
<path d="M176.803 126.234H174.356C175.345 126.23 176.325 126.395 177.239 126.719C178.153 127.044 178.983 127.521 179.682 128.123C180.381 128.725 180.935 129.441 181.312 130.229C181.688 131.016 181.88 131.86 181.876 132.712C181.88 133.564 181.688 134.408 181.312 135.196C180.935 135.983 180.382 136.699 179.683 137.301C178.984 137.903 178.153 138.381 177.239 138.705C176.325 139.029 175.345 139.194 174.356 139.191H176.803C177.792 139.194 178.772 139.029 179.686 138.705C180.6 138.381 181.43 137.903 182.13 137.301C182.829 136.699 183.382 135.983 183.759 135.196C184.135 134.408 184.327 133.564 184.323 132.712C184.327 131.86 184.135 131.016 183.759 130.228C183.382 129.441 182.829 128.725 182.13 128.123C181.43 127.521 180.6 127.043 179.686 126.719C178.772 126.395 177.792 126.23 176.803 126.233V126.234Z" fill="#FF9494"/>
<path d="M171.193 126.234H168.747C169.735 126.23 170.715 126.395 171.629 126.719C172.543 127.044 173.374 127.521 174.073 128.123C174.772 128.725 175.326 129.441 175.702 130.228C176.079 131.016 176.27 131.86 176.266 132.712C176.27 133.564 176.079 134.408 175.702 135.196C175.326 135.983 174.772 136.699 174.073 137.301C173.374 137.904 172.543 138.381 171.629 138.705C170.715 139.029 169.735 139.194 168.747 139.191H171.194C172.182 139.194 173.162 139.029 174.076 138.705C174.99 138.381 175.821 137.903 176.52 137.301C177.219 136.699 177.772 135.983 178.149 135.196C178.525 134.408 178.717 133.564 178.713 132.712C178.717 131.86 178.525 131.016 178.149 130.228C177.772 129.441 177.219 128.725 176.52 128.123C175.821 127.521 174.99 127.043 174.076 126.719C173.162 126.395 172.182 126.23 171.194 126.233L171.193 126.234Z" fill="#FF9494"/>
<path d="M153.411 136.98C154.061 136.982 154.706 136.872 155.308 136.658C155.909 136.444 156.456 136.13 156.916 135.733C157.376 135.337 157.741 134.866 157.989 134.348C158.238 133.829 158.365 133.274 158.363 132.713C158.363 130.348 156.156 128.445 153.411 128.445H127.212V136.929H153.411V136.98Z" fill="white"/>
<path d="M153.41 136.98C156.274 136.98 158.602 134.821 158.303 132.302C158.065 130.091 155.737 128.497 153.171 128.497H125.839C125.362 128.497 124.944 128.137 124.944 127.725V127.005C124.944 126.594 125.362 126.234 125.839 126.234H153.112C157.11 126.234 160.631 128.805 160.929 132.302C161.227 136.106 157.707 139.294 153.41 139.294H125.839C125.362 139.294 124.944 138.935 124.944 138.523V137.752C124.944 137.341 125.362 136.98 125.839 136.98H153.41Z" fill="#EF4849"/>
<path d="M158.363 132.764C158.363 133.227 158.243 133.689 158.124 134.152H127.272V131.427H158.125C158.244 131.787 158.363 132.25 158.363 132.764Z" fill="#EDEBF0"/>
<path d="M193.513 145.773H-3.1217C-3.63129 145.773 -4.13606 145.688 -4.60703 145.52C-5.07801 145.352 -5.50593 145.106 -5.86625 144.796C-6.22657 144.485 -6.5122 144.116 -6.70675 143.711C-6.90131 143.305 -7.00096 142.87 -6.99999 142.431C-7.00101 141.992 -6.90137 141.557 -6.70679 141.151C-6.51221 140.745 -6.22652 140.376 -5.86611 140.065C-5.5057 139.755 -5.07768 139.509 -4.60658 139.341C-4.13549 139.173 -3.63062 139.088 -3.12093 139.088H193.513C194.023 139.088 194.527 139.173 194.998 139.341C195.469 139.509 195.897 139.755 196.258 140.065C196.618 140.376 196.904 140.745 197.098 141.151C197.293 141.557 197.393 141.992 197.392 142.431C197.393 142.87 197.293 143.305 197.098 143.711C196.904 144.116 196.618 144.485 196.258 144.796C195.897 145.106 195.469 145.352 194.998 145.52C194.527 145.688 194.022 145.774 193.513 145.773Z" fill="#FAA519"/>
<path d="M107.339 130.758C102.148 129.833 86.4527 127.108 79.7687 127.108C73.8014 127.108 69.4448 129.627 69.4448 129.627C69.4448 129.627 65.9837 127.108 60.0756 127.108C53.3919 127.108 37.697 129.833 32.505 130.759C31.4905 130.913 30.7744 131.684 30.7744 132.558V136.723L66.6402 137.752L69.9223 136.003L73.2048 137.752L109.07 136.723V132.558C109.01 131.735 108.294 130.964 107.339 130.758Z" fill="#E8E6EC"/>
<path d="M107.339 130.758C102.148 129.833 86.4527 127.108 79.7687 127.108C73.8014 127.108 69.4448 129.627 69.4448 129.627C69.4448 129.627 65.9837 127.108 60.0756 127.108C53.3919 127.108 37.697 129.833 32.505 130.759C31.4905 130.913 30.7744 131.684 30.7744 132.558V136.723L66.6402 137.752L69.9223 136.003L73.2048 137.752L109.07 136.723V132.558C109.01 131.735 108.294 130.964 107.339 130.758Z" fill="white"/>
<path d="M108.951 133.586C103.759 132.661 86.0949 129.884 79.4112 129.884C73.4436 129.884 69.9821 132.044 69.5645 132.301C69.087 132.095 65.6259 129.884 59.7178 129.884C53.0341 129.884 35.2507 132.661 30.0586 133.586" stroke="#EDEBF0" stroke-width="0.890312"/>
<path d="M109.309 135.643C104.117 134.718 85.8558 132.455 79.1721 132.455C73.2044 132.455 69.7433 134.101 69.3254 134.306C68.8483 134.101 65.3868 132.455 59.4791 132.455C52.795 132.455 35.0115 134.718 29.8198 135.643" stroke="#EDEBF0" stroke-width="0.890312"/>
<path d="M30.0586 137.751H66.5805C66.5805 137.751 67.237 136.054 69.2661 136.054C71.3546 136.054 71.8917 137.751 71.8917 137.751H109.667" stroke="#00A0F5" stroke-width="2.97625" stroke-linecap="round" stroke-linejoin="round"/>
<path d="M134.672 71.5238C140.604 71.5238 145.414 67.38 145.414 62.2684C145.414 57.1567 140.604 53.0129 134.672 53.0129C128.739 53.0129 123.93 57.1567 123.93 62.2684C123.93 67.38 128.739 71.5238 134.672 71.5238Z" fill="#DFE0EC"/>
<path d="M115.575 76.9228C119.102 76.9228 121.96 74.4596 121.96 71.4211C121.96 68.3826 119.102 65.9194 115.575 65.9194C112.049 65.9194 109.19 68.3826 109.19 71.4211C109.19 74.4596 112.049 76.9228 115.575 76.9228Z" fill="#DFE0EC"/>
<path d="M161.407 71.4722C184.313 71.4722 202.882 55.4726 202.882 35.7361C202.882 15.9996 184.313 0 161.407 0C138.501 0 119.932 15.9996 119.932 35.7361C119.932 55.4726 138.501 71.4722 161.407 71.4722Z" fill="#DFE0EC"/>
<path d="M134.207 33.4477V31.6632C135.231 31.6632 135.941 31.4591 136.338 31.0507C136.734 30.6423 136.932 29.9824 136.932 29.0709V27.1089C136.932 26.014 137.083 25.138 137.385 24.4811C137.693 23.8182 138.119 23.3181 138.664 22.9807C139.214 22.6434 139.865 22.4184 140.617 22.306C141.368 22.1935 142.191 22.1373 143.085 22.1373V24.9605C142.386 24.9605 141.854 25.0522 141.487 25.2357C141.126 25.4132 140.88 25.6914 140.75 26.0702C140.62 26.4431 140.555 26.9166 140.555 27.4907V30.083C140.555 30.5328 140.472 30.9619 140.306 31.3703C140.14 31.7727 139.833 32.1308 139.383 32.4445C138.933 32.7523 138.291 32.9979 137.456 33.1814C136.622 33.3589 135.539 33.4477 134.207 33.4477ZM143.085 44.6071C142.191 44.6071 141.368 44.5509 140.617 44.4385C139.865 44.326 139.214 44.1011 138.664 43.7637C138.119 43.4264 137.693 42.9263 137.385 42.2634C137.083 41.6064 136.932 40.7305 136.932 39.6355V37.6647C136.932 36.7532 136.734 36.0933 136.338 35.6849C135.941 35.2765 135.231 35.0723 134.207 35.0723V33.2879C135.539 33.2879 136.622 33.3796 137.456 33.5631C138.291 33.7407 138.933 33.9863 139.383 34.3C139.833 34.6077 140.14 34.9658 140.306 35.3742C140.472 35.7766 140.555 36.2057 140.555 36.6615V39.2538C140.555 39.822 140.62 40.2925 140.75 40.6654C140.88 41.0442 141.126 41.3223 141.487 41.4999C141.854 41.6834 142.386 41.7751 143.085 41.7751V44.6071ZM134.207 35.0723V31.6632H137.394V35.0723H134.207Z" fill="#9069CD"/>
<path d="M168.769 47.0262C168.769 49.2339 168.473 51.2639 167.881 53.1164C167.295 54.9689 166.395 56.6853 165.182 58.2656H161.569C162.03 57.6796 162.46 56.9635 162.856 56.1171C163.253 55.2708 163.599 54.3475 163.895 53.3473C164.191 52.3411 164.422 51.2994 164.587 50.2223C164.753 49.1451 164.836 48.0797 164.836 47.0262C164.836 45.6235 164.691 44.209 164.401 42.7826C164.117 41.3503 163.726 40.0246 163.229 38.8054C162.738 37.5802 162.184 36.577 161.569 35.7958H165.182C166.395 37.376 167.295 39.0924 167.881 40.9449C168.473 42.7974 168.769 44.8245 168.769 47.0262Z" fill="#00A0F5"/>
<path fill-rule="evenodd" clip-rule="evenodd" d="M155.576 28.8148C154.041 28.8148 152.829 27.9017 152.829 26.4269C152.829 25.3029 153.153 24.2495 154.607 22.8447L156.788 20.7027C158 19.544 158.404 18.7362 158.404 17.8584C158.404 16.4889 157.354 15.5408 155.738 15.5408C154.243 15.5408 153.435 16.2077 152.91 17.2614C152.345 18.3148 151.375 18.8065 150.325 18.8065C148.79 18.8065 147.74 17.9637 147.74 16.6644C147.74 16.3833 147.821 16.0322 147.942 15.7163C148.871 13.1879 151.739 11.3267 155.859 11.3267C160.666 11.3267 163.978 14.0657 163.978 17.6828C163.978 19.4737 163.332 20.8432 161.797 22.283L159.293 24.7059C158.606 25.3732 158.364 25.8649 158.364 26.4269C158.364 27.9017 157.071 28.8148 155.576 28.8148H155.576ZM152.264 33.0988C152.264 31.5188 153.758 30.2193 155.576 30.2193C157.394 30.2193 158.889 31.5185 158.889 33.0988C158.889 34.6792 157.394 35.9784 155.576 35.9784C153.758 35.9784 152.264 34.6792 152.264 33.0988Z" fill="#00A0F5"/>
<path fill-rule="evenodd" clip-rule="evenodd" d="M174.934 32.3922C175.817 32.6247 176.556 33.1497 176.989 33.8519C177.423 34.554 177.514 35.3756 177.245 36.1361C176.975 36.8965 176.365 37.5335 175.55 37.9068C174.736 38.2801 173.782 38.3592 172.899 38.1267C172.017 37.8942 171.278 37.3692 170.844 36.667C170.411 35.9649 170.319 35.1433 170.589 34.3828C170.859 33.6224 171.468 32.9854 172.283 32.6121C173.098 32.2388 174.052 32.1597 174.934 32.3922ZM183.311 16.1363C183.57 16.2046 183.809 16.3189 184.014 16.4719C184.218 16.6249 184.383 16.8131 184.497 17.0245C184.612 17.2358 184.673 17.4656 184.678 17.6988C184.683 17.932 184.631 18.1635 184.526 18.3783L178.767 30.0992C178.581 30.4785 178.238 30.7848 177.805 30.959C177.372 31.1333 176.879 31.1631 176.422 31.0427L174.578 30.557C174.121 30.4365 173.732 30.1744 173.486 29.8213C173.24 29.4681 173.154 29.049 173.246 28.6448L176.077 16.1533C176.129 15.9243 176.237 15.7073 176.392 15.5162C176.548 15.3252 176.748 15.1644 176.98 15.0444C177.212 14.9243 177.471 14.8476 177.74 14.8192C178.009 14.7909 178.281 14.8115 178.54 14.8798L183.311 16.1367L183.311 16.1363Z" fill="white"/>
<path fill-rule="evenodd" clip-rule="evenodd" d="M182.923 42.3079C185.059 42.3079 186.79 43.7993 186.79 45.6392C186.79 47.4791 185.059 48.9705 182.923 48.9705C180.788 48.9705 179.057 47.4791 179.057 45.6392C179.057 43.7993 180.788 42.3079 182.923 42.3079Z" stroke="#9069CD" stroke-width="2.5"/>
<path fill-rule="evenodd" clip-rule="evenodd" d="M155.124 51.1608C155.636 51.1607 156.14 51.2715 156.59 51.483C157.039 51.6946 157.42 52.0001 157.696 52.3715C157.973 52.7429 158.137 53.1682 158.172 53.6084C158.208 54.0486 158.115 54.4895 157.902 54.8906C157.821 55.0538 157.716 55.2077 157.589 55.348L157.547 55.3966C157.341 55.627 157.093 55.8267 156.812 55.9876L154.362 57.8635C154.295 57.914 154.213 57.9463 154.126 57.9563C154.038 57.9664 153.949 57.9536 153.87 57.9197C153.791 57.8858 153.725 57.8323 153.681 57.7661C153.638 57.6999 153.618 57.6239 153.625 57.548L153.748 56.1761C153.119 55.922 152.609 55.4905 152.303 54.953C151.997 54.4155 151.912 53.804 152.064 53.2196C152.215 52.6351 152.593 52.1126 153.136 51.7384C153.678 51.3641 154.353 51.1603 155.048 51.1608H155.124ZM155.124 43.6404C155.934 43.6404 156.711 43.9177 157.284 44.4113C157.857 44.905 158.179 45.5745 158.179 46.2726C158.179 46.9707 157.857 47.6403 157.284 48.1339C156.711 48.6275 155.934 48.9049 155.124 48.9049H155.048C154.237 48.9049 153.46 48.6275 152.887 48.1339C152.314 47.6403 151.993 46.9707 151.993 46.2726C151.993 45.5745 152.314 44.905 152.887 44.4113C153.46 43.9177 154.237 43.6404 155.048 43.6404H155.124Z" fill="white"/>
</g>
<defs>
<clipPath id="clip0_4179_2731">
<rect width="203" height="158" fill="white"/>
</clipPath>
</defs>
</svg>
