<svg width="198" height="137" viewBox="0 0 198 137" fill="none" xmlns="http://www.w3.org/2000/svg">
<g clip-path="url(#clip0_4008_129)">
<path d="M197.058 44.7218C194.326 53.99 186.351 60.4779 178.032 65.9892C176.871 66.7589 175.709 67.5109 174.547 68.2452C174.539 68.2485 174.531 68.2557 174.523 68.2592C174.467 68.2943 174.411 68.3295 174.359 68.3649C174.119 68.5162 173.879 68.6675 173.641 68.817L173.772 68.8744C173.772 68.8744 173.9 68.9412 173.759 68.8851C173.718 68.8681 173.674 68.8527 173.632 68.8355C168.799 66.9289 163.881 64.8819 160.177 61.3102C156.335 57.6013 154.09 51.7841 156.17 46.9117C156.444 46.2734 156.789 45.667 157.2 45.1037C157.369 44.8675 157.551 44.6415 157.74 44.4196C158.887 43.0496 160.387 42.0033 162.085 41.3883C163.783 40.7733 165.618 40.6118 167.401 40.9203C169.184 41.2289 170.851 41.9964 172.23 43.1439C173.609 44.2915 174.651 45.7776 175.248 47.4496C175.86 41.8834 171.167 37.2209 166.652 33.7806C162.134 30.3421 157.001 26.5975 156.128 21.0622C155.64 17.9825 156.735 14.9979 158.729 12.602C158.791 12.5292 158.853 12.4565 158.916 12.3857C161.344 9.59512 164.759 7.8032 168.478 7.36781C175.405 6.6636 182.134 10.2502 187.166 14.9613C195.266 22.5412 200.163 34.1838 197.058 44.7218Z" fill="#F2F2F2"/>
<path d="M184.037 32.5992C185.367 34.6224 186.387 36.8245 187.067 39.1359C187.642 41.2018 187.898 43.3401 187.826 45.48C187.702 49.8784 186.318 54.1765 184.141 58.0047C182.457 60.9074 180.404 63.5902 178.032 65.9894C176.871 66.7591 175.709 67.5111 174.547 68.2454C174.539 68.2487 174.531 68.2559 174.523 68.2594C174.467 68.2945 174.411 68.3297 174.359 68.3651C174.119 68.5164 173.879 68.6677 173.641 68.8172C173.641 68.8172 173.9 68.9414 173.759 68.8853C173.718 68.8682 173.674 68.8529 173.632 68.8357C174.065 65.3621 173.641 61.8375 172.395 58.5573C171.149 55.2771 169.117 52.3369 166.47 49.983C163.816 47.6649 160.64 45.9931 157.2 45.1039C157.369 44.8677 157.551 44.6417 157.74 44.4198C159.068 44.7842 160.361 45.2627 161.604 45.8499C166.044 47.9358 169.68 51.3649 171.974 55.6295C174.032 59.502 174.917 63.8684 174.527 68.216C174.725 68.04 174.924 67.8602 175.117 67.6821C178.789 64.333 182.051 60.4889 184.259 56.0524C186.174 52.2953 187.115 48.1353 187 43.9386C186.819 39.3626 184.955 35.124 182.257 31.4341C179.366 27.4851 175.741 23.9912 171.871 20.9644C167.907 17.8587 163.569 15.2391 158.954 13.1641C158.85 13.1166 158.769 13.0318 158.727 12.9272C158.685 12.8226 158.686 12.7062 158.729 12.6022C158.76 12.5088 158.827 12.4311 158.916 12.3859C158.962 12.3666 159.012 12.3576 159.061 12.3597C159.111 12.3617 159.16 12.3748 159.204 12.3978C159.774 12.6544 160.34 12.9145 160.901 13.1858C165.576 15.446 169.945 18.2655 173.91 21.5795C177.739 24.7728 181.344 28.4211 184.037 32.5992Z" fill="white"/>
<path d="M155.631 8.53857H0.311035V9.1475H155.631V8.53857Z" fill="#3F3D56"/>
<path d="M5.60244 6.39527C6.63388 6.39527 7.47002 5.57739 7.47002 4.56849C7.47002 3.55958 6.63388 2.7417 5.60244 2.7417C4.57101 2.7417 3.73486 3.55958 3.73486 4.56849C3.73486 5.57739 4.57101 6.39527 5.60244 6.39527Z" fill="#3F3D56"/>
<path d="M10.9716 6.39527C12.003 6.39527 12.8392 5.57739 12.8392 4.56849C12.8392 3.55958 12.003 2.7417 10.9716 2.7417C9.94015 2.7417 9.104 3.55958 9.104 4.56849C9.104 5.57739 9.94015 6.39527 10.9716 6.39527Z" fill="#3F3D56"/>
<path d="M16.3412 6.39527C17.3726 6.39527 18.2088 5.57739 18.2088 4.56849C18.2088 3.55958 17.3726 2.7417 16.3412 2.7417C15.3098 2.7417 14.4736 3.55958 14.4736 4.56849C14.4736 5.57739 15.3098 6.39527 16.3412 6.39527Z" fill="#3F3D56"/>
<path d="M121.993 43.8771H33.8391C33.5768 43.8771 33.317 43.8266 33.0746 43.7284C32.8322 43.6302 32.612 43.4862 32.4265 43.3048C32.2409 43.1233 32.0938 42.9079 31.9934 42.6708C31.893 42.4337 31.8413 42.1796 31.8413 41.9229C31.8413 41.6663 31.893 41.4122 31.9934 41.1751C32.0938 40.938 32.2409 40.7226 32.4265 40.5411C32.612 40.3597 32.8322 40.2157 33.0746 40.1175C33.317 40.0193 33.5768 39.9687 33.8391 39.9688H121.993C122.256 39.9687 122.516 40.0193 122.758 40.1175C123 40.2157 123.221 40.3597 123.406 40.5411C123.592 40.7226 123.739 40.938 123.839 41.1751C123.94 41.4122 123.991 41.6663 123.991 41.9229C123.991 42.1796 123.94 42.4337 123.839 42.6708C123.739 42.9079 123.592 43.1233 123.406 43.3048C123.221 43.4862 123 43.6302 122.758 43.7284C122.516 43.8266 122.256 43.8771 121.993 43.8771Z" fill="#CCCCCC"/>
<path d="M121.993 64.8845H33.8391C33.5768 64.8845 33.317 64.8339 33.0746 64.7357C32.8322 64.6375 32.612 64.4936 32.4265 64.3121C32.2409 64.1306 32.0938 63.9152 31.9934 63.6781C31.893 63.441 31.8413 63.1869 31.8413 62.9303C31.8413 62.6736 31.893 62.4195 31.9934 62.1824C32.0938 61.9453 32.2409 61.7299 32.4265 61.5484C32.612 61.367 32.8322 61.223 33.0746 61.1248C33.317 61.0266 33.5768 60.9761 33.8391 60.9761H121.993C122.256 60.9761 122.516 61.0266 122.758 61.1248C123 61.223 123.221 61.367 123.406 61.5484C123.592 61.7299 123.739 61.9453 123.839 62.1824C123.94 62.4195 123.991 62.6736 123.991 62.9303C123.991 63.1869 123.94 63.441 123.839 63.6781C123.739 63.9152 123.592 64.1306 123.406 64.3121C123.221 64.4936 123 64.6375 122.758 64.7357C122.516 64.8339 122.256 64.8845 121.993 64.8845Z" fill="#E6E6E6"/>
<path d="M121.993 72.9455H33.8391C33.3093 72.9455 32.8011 72.7396 32.4265 72.3731C32.0518 72.0066 31.8413 71.5096 31.8413 70.9913C31.8413 70.473 32.0518 69.976 32.4265 69.6095C32.8011 69.243 33.3093 69.0371 33.8391 69.0371H121.993C122.523 69.0371 123.031 69.243 123.406 69.6095C123.781 69.976 123.991 70.473 123.991 70.9913C123.991 71.5096 123.781 72.0066 123.406 72.3731C123.031 72.7396 122.523 72.9455 121.993 72.9455Z" fill="#E6E6E6"/>
<path d="M107.634 35.572H48.1985C47.6687 35.572 47.1605 35.3661 46.7858 34.9996C46.4112 34.6331 46.2007 34.1361 46.2007 33.6178C46.2007 33.0995 46.4112 32.6024 46.7858 32.2359C47.1605 31.8695 47.6687 31.6636 48.1985 31.6636H107.634C108.164 31.6636 108.672 31.8695 109.047 32.2359C109.421 32.6024 109.632 33.0995 109.632 33.6178C109.632 34.1361 109.421 34.6331 109.047 34.9996C108.672 35.3661 108.164 35.572 107.634 35.572Z" fill="#CCCCCC"/>
<path d="M64.9173 56.8234H33.9509C33.6883 56.8237 33.4283 56.7734 33.1856 56.6753C32.943 56.5773 32.7225 56.4334 32.5367 56.2519C32.3509 56.0704 32.2035 55.8549 32.103 55.6176C32.0024 55.3804 31.9507 55.1261 31.9507 54.8692C31.9507 54.6124 32.0024 54.3581 32.103 54.1209C32.2035 53.8836 32.3509 53.6681 32.5367 53.4866C32.7225 53.3051 32.943 53.1612 33.1856 53.0631C33.4283 52.9651 33.6883 52.9147 33.9509 52.915H64.9173C65.4471 52.915 65.9553 53.1209 66.3299 53.4874C66.7046 53.8539 66.9151 54.351 66.9151 54.8692C66.9151 55.3875 66.7046 55.8846 66.3299 56.2511C65.9553 56.6175 65.4471 56.8234 64.9173 56.8234Z" fill="#E6E6E6"/>
<path d="M122.105 56.8234H91.1389C90.8763 56.8237 90.6163 56.7734 90.3736 56.6753C90.131 56.5773 89.9104 56.4334 89.7247 56.2519C89.5389 56.0704 89.3915 55.8549 89.291 55.6176C89.1904 55.3804 89.1387 55.1261 89.1387 54.8692C89.1387 54.6124 89.1904 54.3581 89.291 54.1209C89.3915 53.8836 89.5389 53.6681 89.7247 53.4866C89.9104 53.3051 90.131 53.1612 90.3736 53.0631C90.6163 52.9651 90.8763 52.9147 91.1389 52.915H122.105C122.368 52.9147 122.628 52.9651 122.871 53.0631C123.113 53.1612 123.334 53.3051 123.519 53.4866C123.705 53.6681 123.853 53.8836 123.953 54.1209C124.054 54.3581 124.105 54.6124 124.105 54.8692C124.105 55.1261 124.054 55.3804 123.953 55.6176C123.853 55.8549 123.705 56.0704 123.519 56.2519C123.334 56.4334 123.113 56.5773 122.871 56.6753C122.628 56.7734 122.368 56.8237 122.105 56.8234Z" fill="#E6E6E6"/>
<path d="M153.763 0H2.17668C1.59917 0.000859396 1.0456 0.225837 0.6375 0.625542C0.229401 1.02525 0.000126797 1.56701 0 2.13191V102.606C0.000727558 103.171 0.230288 103.712 0.638339 104.111C1.04639 104.51 1.59962 104.735 2.17668 104.736H115.532C115.503 104.534 115.48 104.329 115.457 104.128H2.17668C1.76434 104.127 1.36899 103.967 1.07741 103.682C0.78583 103.396 0.621849 103.01 0.62147 102.606V2.13191C0.621739 1.72828 0.78559 1.34122 1.07711 1.05555C1.36863 0.769882 1.76404 0.60891 2.17668 0.607917H153.763C154.177 0.608339 154.573 0.769037 154.865 1.05475C155.157 1.34046 155.321 1.72786 155.321 2.13191V63.7109C155.528 63.7249 155.737 63.7417 155.943 63.7613V2.13191C155.943 1.56657 155.713 1.02446 155.304 0.624704C154.896 0.224952 154.341 0.000259812 153.763 0Z" fill="#3F3D56"/>
<path d="M115.532 104.736C115.503 104.534 115.48 104.329 115.457 104.128C115.451 104.097 115.449 104.069 115.446 104.038C115.363 103.301 115.302 102.557 115.265 101.805C115.108 102.453 114.965 103.102 114.839 103.755C114.847 103.85 114.856 103.943 114.867 104.038C114.87 104.069 114.873 104.097 114.879 104.128C114.901 104.329 114.924 104.534 114.953 104.736C115.033 105.36 115.131 105.977 115.245 106.59C115.248 106.565 115.251 106.543 115.254 106.517C115.334 105.926 115.426 105.338 115.534 104.75C115.532 104.745 115.531 104.741 115.532 104.736ZM155.943 63.1984C155.737 63.1788 155.528 63.162 155.321 63.148C155.29 63.1452 155.261 63.1452 155.23 63.1424C154.313 63.0751 153.385 63.0415 152.452 63.0415C147.165 63.0431 141.938 64.1287 137.108 66.2283C132.277 68.328 127.95 71.3949 124.405 75.2313C120.861 79.0676 118.179 83.5882 116.531 88.5012C114.883 93.4143 114.307 98.6107 114.839 103.755C114.847 103.85 114.856 103.943 114.867 104.038C114.87 104.069 114.873 104.097 114.879 104.128C114.901 104.329 114.924 104.534 114.953 104.736C115.033 105.36 115.131 105.977 115.245 106.59C116.383 112.673 119.056 118.381 123.02 123.197C126.985 128.014 132.116 131.785 137.948 134.171C138.544 134.412 139.145 134.641 139.755 134.851C140.156 134.994 140.557 135.126 140.964 135.252C141.256 135.345 141.551 135.431 141.846 135.515C142.264 135.636 142.688 135.751 143.115 135.857C148.35 137.171 153.812 137.366 159.131 136.429C164.45 135.492 169.5 133.445 173.937 130.428H173.94C178.973 127.029 183.086 122.487 185.928 117.191C188.77 111.894 190.255 106.002 190.257 100.021C190.257 80.7804 175.158 64.9269 155.943 63.1984ZM173.691 129.915C171.941 131.11 170.089 132.156 168.155 133.039C166.765 133.675 165.336 134.225 163.876 134.686C157.287 136.76 150.239 137 143.519 135.378C143.015 135.258 142.514 135.126 142.018 134.983C141.528 134.843 141.043 134.695 140.563 134.538C140.171 134.406 139.778 134.272 139.389 134.129C138.982 133.977 138.581 133.821 138.18 133.658C132.149 131.2 126.884 127.236 122.91 122.163C118.936 117.09 116.392 111.085 115.534 104.75C115.532 104.745 115.531 104.741 115.532 104.736C115.503 104.534 115.48 104.329 115.457 104.128C115.451 104.097 115.449 104.069 115.446 104.038C115.363 103.301 115.302 102.557 115.265 101.805C115.234 101.214 115.218 100.619 115.219 100.021C115.23 90.3651 119.156 81.108 126.136 74.2803C133.116 67.4527 142.58 63.6124 152.452 63.6018C153.385 63.6018 154.313 63.6354 155.23 63.7026C155.261 63.7054 155.29 63.7082 155.321 63.711C155.528 63.7251 155.737 63.7419 155.943 63.7615C174.843 65.4872 189.684 81.0885 189.684 100.021C189.683 105.896 188.228 111.684 185.443 116.89C182.658 122.096 178.626 126.565 173.691 129.915ZM139.389 134.129C138.982 133.977 138.581 133.821 138.18 133.658C132.149 131.2 126.884 127.236 122.91 122.163C118.936 117.09 116.392 111.085 115.534 104.75C115.426 105.338 115.334 105.926 115.254 106.517C115.251 106.543 115.248 106.565 115.245 106.59C116.383 112.673 119.056 118.381 123.02 123.197C126.985 128.014 132.116 131.785 137.948 134.171C138.544 134.412 139.145 134.641 139.755 134.851C139.629 134.613 139.506 134.372 139.389 134.129ZM155.23 63.1424C154.313 63.0751 153.385 63.0415 152.452 63.0415C147.165 63.0431 141.938 64.1287 137.108 66.2283C132.277 68.328 127.95 71.3949 124.405 75.2313C120.861 79.0676 118.179 83.5882 116.531 88.5012C114.883 93.4143 114.307 98.6107 114.839 103.755C114.847 103.85 114.856 103.943 114.867 104.038C114.87 104.069 114.873 104.097 114.879 104.128H115.457C115.451 104.097 115.449 104.069 115.446 104.038C115.363 103.301 115.302 102.557 115.265 101.805C115.234 101.214 115.218 100.619 115.219 100.021C115.23 90.3651 119.156 81.108 126.136 74.2803C133.116 67.4527 142.58 63.6124 152.452 63.6018C153.385 63.6018 154.313 63.6354 155.23 63.7026C155.261 63.7054 155.29 63.7082 155.321 63.711L155.321 63.148C155.29 63.1452 155.261 63.1452 155.23 63.1424Z" fill="#3F3D56"/>
<path d="M183.181 72.5063C194.793 72.7003 194.791 89.5955 183.181 89.7878C171.57 89.5939 171.571 72.6987 183.181 72.5063Z" fill="#6C63FF"/>
<path d="M183.181 85.8523C183.016 85.8521 182.859 85.7881 182.742 85.6742C182.626 85.5604 182.56 85.4061 182.56 85.2451V82.0253C182.56 81.9536 182.531 81.8848 182.479 81.8341C182.427 81.7833 182.357 81.7548 182.284 81.7547H178.992C178.827 81.7547 178.669 81.6907 178.553 81.5768C178.437 81.4629 178.371 81.3084 178.371 81.1473C178.371 80.9863 178.437 80.8318 178.553 80.7179C178.669 80.604 178.827 80.54 178.992 80.54H182.284C182.357 80.5399 182.427 80.5114 182.479 80.4607C182.531 80.41 182.56 80.3412 182.56 80.2695V77.0496C182.56 76.8886 182.626 76.7341 182.742 76.6202C182.858 76.5064 183.016 76.4424 183.181 76.4424C183.346 76.4424 183.504 76.5064 183.62 76.6202C183.736 76.7341 183.802 76.8886 183.802 77.0496V80.2695C183.802 80.3412 183.831 80.41 183.883 80.4607C183.935 80.5114 184.005 80.5399 184.078 80.54H187.37C187.535 80.54 187.693 80.604 187.809 80.7179C187.925 80.8318 187.991 80.9862 187.991 81.1473C187.991 81.3084 187.925 81.4629 187.809 81.5768C187.693 81.6907 187.535 81.7547 187.37 81.7547H184.078C184.005 81.7548 183.935 81.7833 183.883 81.8341C183.831 81.8848 183.802 81.9536 183.802 82.0253V85.245C183.802 85.406 183.736 85.5604 183.62 85.6742C183.503 85.7881 183.346 85.8521 183.181 85.8523Z" fill="white"/>
<path d="M163.059 121.422C162.798 121.449 162.547 121.485 162.294 121.5C161.229 121.566 160.167 121.646 159.1 121.681C157.074 121.748 155.045 121.785 153.017 121.839C152.315 121.857 151.612 121.833 150.914 121.768C150.368 121.716 149.812 121.752 149.262 121.731C147.95 121.681 146.638 121.626 145.327 121.566C145.047 121.552 144.769 121.503 144.49 121.474C144.317 121.456 144.144 121.445 143.952 121.429C143.912 121.539 143.874 121.629 143.846 121.722C143.633 122.422 143.43 123.124 143.209 123.822C142.968 124.62 142.57 125.379 142.031 126.065C141.826 126.319 141.601 126.56 141.357 126.788C140.521 127.575 139.472 127.77 138.284 127.546C136.805 127.267 135.696 126.567 134.922 125.469C134.326 124.625 133.964 123.712 133.712 122.759C133.497 121.943 133.423 121.115 133.356 120.282C133.26 119.087 133.12 117.894 133.033 116.698C132.943 115.453 132.858 114.206 132.838 112.959C132.823 111.87 132.889 110.781 132.946 109.692C133.003 108.584 133.098 107.478 133.165 106.37C133.195 105.875 133.206 105.379 133.214 104.884C133.242 103.082 133.259 101.279 133.291 99.4759C133.319 97.9009 133.364 96.3264 133.395 94.7519C133.412 93.9198 133.405 93.0877 133.429 92.2556C133.458 91.2463 133.515 90.237 133.546 89.2288C133.585 87.963 133.581 86.6929 133.649 85.4271C133.717 84.1613 133.823 82.8956 133.966 81.6342C134.1 80.4429 134.274 79.2544 134.487 78.0686C134.694 76.9239 134.972 75.7886 135.535 74.7193C135.991 73.8624 136.695 73.2147 137.702 72.8064C137.98 72.6891 138.285 72.6211 138.596 72.6066C138.907 72.5921 139.218 72.6314 139.511 72.7222C140.405 72.9819 141.08 73.453 141.524 74.1657C141.967 74.8784 142.218 75.634 142.371 76.422C142.587 77.5398 142.619 78.6696 142.661 79.7972C142.689 80.5594 142.671 81.3227 142.674 82.0849C142.674 82.2016 142.674 82.3177 142.674 82.4438C144.148 82.3029 145.575 82.1372 147.008 82.0387C148.441 81.9402 149.887 81.8835 151.329 81.8549C152.782 81.8263 154.238 81.8252 155.691 81.8665C157.132 81.9072 158.573 81.9947 160.009 82.0998C161.445 82.2049 162.864 82.3568 164.337 82.4927C164.337 82.3276 164.337 82.2132 164.337 82.097C164.361 80.9089 164.368 79.7196 164.417 78.5326C164.46 77.493 164.56 76.4556 164.896 75.4468C165.063 74.9309 165.308 74.4354 165.626 73.9725C166.113 73.2725 166.856 72.8718 167.758 72.6611C168.273 72.5416 168.781 72.5967 169.266 72.7882C170.262 73.1822 170.979 73.8107 171.438 74.6538C171.889 75.4793 172.141 76.3532 172.347 77.2404C172.694 78.7263 172.905 80.2314 173.068 81.7415C173.264 83.5573 173.384 85.3763 173.429 87.1986C173.454 88.129 173.477 89.0595 173.498 89.9899C173.546 92.0599 173.592 94.1295 173.637 96.1987C173.665 97.5745 173.681 98.9504 173.709 100.326C173.751 102.386 173.779 104.447 173.851 106.505C173.895 107.742 174.02 108.977 174.095 110.213C174.19 111.757 174.239 113.302 174.119 114.847C174.042 115.835 173.944 116.821 173.858 117.809C173.773 118.816 173.697 119.824 173.61 120.832C173.48 122.366 173.133 123.854 172.25 125.222C171.842 125.855 171.343 126.432 170.627 126.839C169.617 127.413 168.521 127.741 167.277 127.579C166.684 127.501 166.202 127.248 165.784 126.903C165.106 126.338 164.633 125.658 164.254 124.926C163.899 124.242 163.706 123.517 163.483 122.799C163.364 122.414 163.255 122.028 163.139 121.647C163.122 121.581 163.094 121.517 163.059 121.422Z" fill="#DCDCDD"/>
<path d="M174.096 109.862C174.02 108.625 173.895 107.39 173.851 106.152C173.804 104.812 173.776 103.47 173.751 102.129H173.325C172.575 102.129 171.827 102.133 171.075 102.126C170.641 102.123 170.208 102.098 169.772 102.093C168.424 102.081 167.075 102.088 165.728 102.061C163.524 102.017 161.321 101.941 159.118 101.9C157.605 101.871 156.093 101.873 154.58 101.872C153.173 101.872 151.766 101.881 150.359 101.89C149.891 101.894 149.421 101.906 148.952 101.915C146.655 101.96 144.358 102.025 142.059 102.043C140.36 102.059 138.66 102.016 136.96 102.005C135.846 101.998 134.733 101.999 133.619 102C133.496 102.006 133.372 102.006 133.249 102C133.238 102.844 133.226 103.687 133.214 104.528C133.206 105.024 133.195 105.519 133.165 106.015C133.1 107.123 133.003 108.23 132.946 109.338C132.889 110.427 132.823 111.517 132.838 112.606C132.856 113.853 132.941 115.101 133.033 116.346C133.12 117.542 133.26 118.736 133.356 119.932C133.421 120.762 133.497 121.59 133.712 122.409C133.849 122.944 134.035 123.47 134.268 123.981C134.965 123.987 135.662 123.993 136.359 123.996L143.013 124.021C143.085 123.84 143.15 123.656 143.208 123.47C143.429 122.772 143.633 122.07 143.846 121.37C143.874 121.277 143.911 121.185 143.951 121.076C144.147 121.092 144.317 121.104 144.49 121.122C144.768 121.151 145.046 121.2 145.326 121.213C146.637 121.275 147.949 121.33 149.261 121.378C149.812 121.399 150.369 121.364 150.914 121.415C151.612 121.481 152.315 121.505 153.017 121.486C155.045 121.431 157.073 121.396 159.1 121.329C160.166 121.294 161.228 121.213 162.293 121.148C162.547 121.132 162.799 121.097 163.058 121.07C163.093 121.165 163.123 121.229 163.142 121.295C163.257 121.68 163.366 122.065 163.485 122.447C163.657 122.998 163.811 123.554 164.033 124.091L170.347 124.112C171.125 124.112 171.902 124.116 172.679 124.119C173.252 122.963 173.505 121.737 173.613 120.479C173.699 119.471 173.775 118.463 173.86 117.455C173.944 116.467 174.042 115.48 174.121 114.492C174.238 112.951 174.19 111.406 174.096 109.862Z" fill="#598960"/>
<path d="M156.543 112.938C156.427 112.715 156.273 112.507 156.087 112.32C155.394 111.659 154.724 110.976 153.92 110.401C153.78 110.306 153.634 110.216 153.483 110.132C153.423 110.095 153.352 110.073 153.278 110.068C153.18 110.064 152.294 110.639 151.955 110.884C150.407 112.002 148.875 113.136 147.314 114.242C146.259 114.989 145.242 115.766 144.337 116.641C143.845 117.117 143.398 117.62 143.087 118.197C142.998 118.351 142.929 118.513 142.882 118.68C142.775 119.138 143.072 119.429 143.781 119.436C144.01 119.38 144.399 119.327 144.748 119.198C145.851 118.79 146.965 118.399 147.964 117.815C148.467 117.521 149.031 117.301 149.564 117.042C151.595 116.056 156.553 113.524 156.603 113.427C156.675 113.29 156.656 113.137 156.543 112.938Z" fill="#E57211"/>
<path d="M161.972 109.315C162.42 108.921 162.74 108.457 162.872 107.906C163.032 107.237 162.704 106.798 161.951 106.653C161.455 106.558 160.965 106.597 160.478 106.691C159.544 106.879 158.767 107.322 158.054 107.866C157.989 107.918 157.913 107.963 157.817 108.029C157.992 107.537 158.171 107.088 158.31 106.63C158.468 106.114 158.495 105.589 158.302 105.071C158.052 104.402 157.47 104.108 156.69 104.248C156.073 104.361 155.607 104.675 155.203 105.08C154.794 105.494 154.462 105.962 154.219 106.468C153.629 107.671 153.182 108.924 152.886 110.207C152.957 110.212 153.025 110.235 153.082 110.272C153.225 110.355 153.364 110.446 153.497 110.542C154.261 111.119 154.898 111.804 155.557 112.468C155.734 112.656 155.88 112.865 155.991 113.089C156.096 113.289 156.119 113.442 156.048 113.581C156.213 113.554 156.38 113.535 156.548 113.525C157.329 113.483 158.111 113.455 158.891 113.408C159.557 113.368 160.225 113.307 160.856 113.104C161.181 113.005 161.49 112.867 161.773 112.695C162.26 112.386 162.357 111.93 162.088 111.455C161.94 111.177 161.709 110.94 161.42 110.769C161.096 110.584 160.745 110.431 160.385 110.256L160.678 110.121C161.153 109.912 161.59 109.64 161.972 109.315Z" fill="white"/>
<path d="M139.067 83.5096L136.595 84.3079V83.9437C136.595 82.3533 136.653 80.7652 136.89 79.1888C136.985 78.5415 137.118 77.8993 137.289 77.265C137.388 76.9359 137.547 76.6239 137.759 76.3419C137.994 76.0169 138.391 76.0443 138.636 76.3682C138.719 76.4758 138.781 76.5948 138.822 76.7207C138.901 76.9813 138.994 77.2459 139.015 77.5133C139.065 78.1645 139.099 78.8179 139.101 79.4713C139.101 80.688 139.08 81.9053 139.068 83.122C139.066 83.2501 139.067 83.3799 139.067 83.5096Z" fill="white"/>
<path d="M144.114 94.8371C144.117 95.0683 144.01 95.2949 143.806 95.4882C143.603 95.6816 143.312 95.8331 142.97 95.9237C142.629 96.0142 142.252 96.0397 141.887 95.997C141.522 95.9543 141.186 95.8453 140.92 95.6837C140.655 95.5221 140.472 95.3151 140.395 95.0889C140.318 94.8627 140.351 94.6274 140.488 94.4126C140.626 94.1978 140.862 94.0132 141.168 93.882C141.473 93.7508 141.835 93.6789 142.206 93.6754C142.453 93.6735 142.699 93.702 142.93 93.7594C143.16 93.8167 143.369 93.9018 143.547 94.0097C143.724 94.1176 143.865 94.2462 143.962 94.3882C144.06 94.5302 144.111 94.6827 144.114 94.8371Z" fill="#F2B0A5"/>
<path d="M144.114 91.8265C144.11 91.5497 144.316 91.3378 144.591 91.3336C145.004 91.3274 145.359 91.5839 145.367 91.8928C145.374 92.1867 145.029 92.5106 144.715 92.5043C144.386 92.4981 144.119 92.197 144.114 91.8265Z" fill="#1D2424"/>
<path d="M167.958 83.5096L170.43 84.3079V83.9437C170.43 82.3533 170.372 80.7652 170.136 79.1888C170.04 78.5415 169.907 77.8993 169.736 77.265C169.637 76.9359 169.478 76.624 169.266 76.3419C169.031 76.0169 168.633 76.0443 168.389 76.3682C168.306 76.4757 168.244 76.5947 168.204 76.7207C168.124 76.9813 168.032 77.2459 168.011 77.5133C167.96 78.1645 167.926 78.8179 167.924 79.4713C167.921 80.688 167.945 81.9053 167.957 83.122C167.961 83.2501 167.958 83.3799 167.958 83.5096Z" fill="white"/>
<path d="M162.912 94.8371C162.909 95.0683 163.016 95.2949 163.219 95.4882C163.423 95.6816 163.714 95.8331 164.055 95.9237C164.397 96.0142 164.774 96.0397 165.139 95.997C165.503 95.9543 165.84 95.8453 166.105 95.6837C166.371 95.5221 166.553 95.3151 166.63 95.0889C166.707 94.8627 166.675 94.6274 166.537 94.4126C166.4 94.1978 166.164 94.0132 165.858 93.882C165.552 93.7508 165.191 93.6789 164.82 93.6754C164.572 93.6735 164.326 93.702 164.096 93.7594C163.866 93.8167 163.656 93.9018 163.479 94.0097C163.302 94.1176 163.16 94.2462 163.063 94.3882C162.966 94.5302 162.914 94.6827 162.912 94.8371Z" fill="#F2B0A5"/>
<path d="M162.911 91.8265C162.915 91.5497 162.709 91.3378 162.434 91.3336C162.021 91.3274 161.666 91.5839 161.658 91.8928C161.651 92.1867 161.995 92.5106 162.31 92.5043C162.64 92.4981 162.907 92.197 162.911 91.8265Z" fill="#1D2424"/>
<path d="M155.335 100.45C155.22 100.224 155.107 99.997 154.985 99.7724C154.527 98.9327 154.113 98.0831 153.865 97.1978C153.856 97.1544 153.84 97.112 153.816 97.0719C154.299 96.6426 154.781 96.2118 155.267 95.783C155.355 95.7057 155.322 95.6393 155.273 95.562C154.973 95.0965 154.264 94.8139 153.478 94.8491C152.761 94.8819 152.148 95.2318 151.926 95.7533L153.506 97.0818C153.459 97.1457 153.419 97.212 153.386 97.2801C152.809 98.3161 152.233 99.3521 151.659 100.388C151.645 100.417 151.636 100.448 151.633 100.478C151.631 100.493 151.636 100.508 151.646 100.521C151.657 100.534 151.673 100.544 151.692 100.55C151.711 100.557 151.732 100.559 151.753 100.556C151.774 100.553 151.793 100.546 151.808 100.536C151.835 100.512 151.856 100.485 151.87 100.456C152.01 100.227 152.15 99.998 152.277 99.7665C152.68 99.0462 153.078 98.3245 153.482 97.6042C153.527 97.5368 153.579 97.4715 153.637 97.4089C153.68 97.5215 153.707 97.5894 153.732 97.6568C154.086 98.6522 154.626 99.6034 155.117 100.566C155.129 100.601 155.151 100.633 155.182 100.662C155.197 100.674 155.215 100.684 155.236 100.691C155.257 100.698 155.28 100.701 155.303 100.701C155.387 100.686 155.391 100.637 155.392 100.602C155.386 100.549 155.366 100.498 155.335 100.45Z" fill="#1D2424"/>
<path d="M151.626 92.3301C151.648 92.373 151.62 92.4162 151.544 92.4575C151.501 92.4703 151.44 92.4813 151.364 92.4895C151.289 92.4977 151.203 92.5028 151.112 92.5044C151.021 92.5031 150.933 92.4983 150.855 92.4906C150.778 92.4829 150.712 92.4724 150.664 92.4599C150.577 92.4254 150.536 92.3884 150.545 92.3512C150.485 92.0723 150.435 91.7935 150.383 91.5143C150.383 91.4835 150.312 91.3417 150.815 91.3341C151.317 91.3265 151.33 91.3921 151.345 91.4197C151.453 91.6047 151.604 92.2121 151.626 92.3301Z" fill="white"/>
<path d="M155.34 84.8733C155.34 85.0298 155.355 85.1868 155.34 85.3434C155.34 85.4137 155.199 85.492 154.697 85.4766C154.551 85.4652 154.424 85.4479 154.327 85.4261C154.229 85.4043 154.165 85.3787 154.139 85.3517C154.139 85.0381 154.193 84.7271 154.283 84.4123C154.314 84.3891 154.378 84.3676 154.47 84.3497C154.562 84.3318 154.679 84.3182 154.809 84.3099C155.255 84.2945 155.387 84.3599 155.391 84.4244C155.399 84.5747 155.357 84.8733 155.34 84.8733Z" fill="white"/>
<path d="M156.49 86.5624C156.485 86.5725 156.47 86.5823 156.448 86.5912C156.4 86.609 156.331 86.6236 156.248 86.6339C156.166 86.6441 156.072 86.6495 155.977 86.6495C155.882 86.6495 155.788 86.6441 155.706 86.6339C155.623 86.6236 155.554 86.609 155.506 86.5912C155.488 86.5841 155.472 86.5765 155.46 86.5688C155.387 86.4966 155.373 86.4223 155.419 86.3491C155.481 86.1042 155.556 85.8593 155.632 85.6153C155.66 85.535 155.827 85.4575 156.249 85.4837C156.439 85.4956 156.64 85.58 156.644 85.6323C156.661 85.7845 156.554 86.4101 156.49 86.5624Z" fill="white"/>
<path d="M154.134 82.9567C154.05 83.3497 153.985 83.6913 153.897 84.0365C153.856 84.1954 153.681 84.3552 153.25 84.2946C153.063 84.2679 152.88 84.0907 152.886 83.9842C152.927 83.3923 153.006 82.8009 153.126 82.2102C153.149 82.1581 153.202 82.1092 153.28 82.0676C153.358 82.026 153.458 81.9931 153.571 81.9715C153.942 81.9366 154.117 82.0688 154.125 82.2148C154.151 82.4783 154.134 82.7409 154.134 82.9567Z" fill="white"/>
<path d="M151.727 89.2362C151.715 89.1785 151.773 89.1211 151.894 89.069C151.955 89.0452 152.047 89.0254 152.159 89.0116C152.271 88.9979 152.4 88.9908 152.53 88.9912C152.804 88.9995 152.89 89.0621 152.886 89.0999C152.837 89.414 152.752 89.728 152.663 90.0421C152.641 90.1144 152.425 90.1802 152.049 90.1576C151.867 90.1475 151.667 90.0766 151.649 90.0305C151.591 89.8906 151.705 89.3601 151.727 89.2362Z" fill="white"/>
<path d="M152.881 84.947C152.896 85.0575 152.878 85.1686 152.825 85.2765C152.79 85.3241 152.733 85.3671 152.658 85.4022C152.583 85.4373 152.493 85.4634 152.394 85.4786C152.294 85.4706 152.199 85.4508 152.118 85.4209C152.037 85.3909 151.973 85.3517 151.93 85.3068C151.845 85.1684 151.802 85.0247 151.802 84.8802C151.738 84.483 151.686 84.0848 151.634 83.6866C151.62 83.5784 151.717 83.1367 152.15 83.1367C152.582 83.1367 152.63 83.4046 152.636 83.4399C152.717 83.9241 152.796 84.4133 152.881 84.947Z" fill="white"/>
<path d="M152.926 85.5954C152.936 85.5811 152.954 85.5674 152.981 85.5547C153.032 85.5324 153.104 85.5138 153.19 85.5005C153.277 85.4872 153.375 85.4797 153.475 85.4786C153.576 85.4776 153.676 85.483 153.766 85.4945C153.856 85.5059 153.934 85.523 153.992 85.5442C154.031 85.5579 154.055 85.5741 154.061 85.5911C154.143 85.877 154.141 86.1641 154.139 86.4513C154.139 86.5575 153.96 86.6674 153.49 86.647C153.275 86.6384 153.02 86.5266 152.979 86.4543C152.877 86.1688 152.859 85.8817 152.926 85.5954Z" fill="white"/>
<path d="M151.59 82.7849C151.62 82.8369 151.635 82.8896 151.633 82.9425C151.633 82.982 151.651 83.1368 151.329 83.1368C151.007 83.1368 150.898 83.0989 150.878 83.0645C150.683 82.7391 150.521 82.411 150.381 82.0823C150.377 82.0682 150.382 82.0539 150.396 82.0404C150.41 82.027 150.432 82.0145 150.461 82.0037C150.49 81.9929 150.526 81.9841 150.566 81.9777C150.606 81.9713 150.649 81.9675 150.694 81.9665C150.802 81.9631 150.911 81.9728 150.997 81.9938C151.083 82.0149 151.14 82.0455 151.157 82.0795C151.332 82.3223 151.467 82.5674 151.59 82.7849Z" fill="white"/>
<path d="M148.873 117.086C148.565 116.996 148.36 116.762 147.899 116.14C147.882 116.119 147.874 116.095 147.874 116.071C147.874 116.047 147.882 116.024 147.899 116.003C148.006 115.887 148.158 115.9 148.288 116.024C148.557 116.289 148.805 116.565 149.096 116.882C149.118 116.906 149.128 116.934 149.126 116.963C149.125 116.991 149.11 117.018 149.086 117.041C149.061 117.063 149.027 117.08 148.989 117.088C148.951 117.096 148.91 117.096 148.873 117.086Z" fill="#E0E0E8"/>
</g>
<defs>
<clipPath id="clip0_4008_129">
<rect width="198" height="137" fill="white"/>
</clipPath>
</defs>
</svg>
